<svg width="45" height="34" viewBox="0 0 45 34" fill="none" xmlns="http://www.w3.org/2000/svg">
<g clip-path="url(#clip0_2158_2852)">
<path d="M1 0.611816H44V32.6118H1V0.611816Z" fill="#74ACDF"/>
<path d="M1 11.2785H44V21.9452H1V11.2785Z" fill="white"/>
<path d="M22.2936 16.695L24.1318 20.663C24.1318 20.663 24.1641 20.7398 24.2157 20.7206C24.2673 20.695 24.235 20.6182 24.235 20.6182L22.7064 16.5222M22.6612 18.071C22.6354 18.6726 23.0096 19.0054 22.9644 19.543C22.9193 20.0806 23.2095 20.3878 23.2869 20.599C23.3514 20.8102 23.2095 20.9318 23.2675 20.9638C23.332 20.9958 23.4611 20.8294 23.4223 20.5286C23.3836 20.2278 23.1514 20.1446 23.203 19.4854C23.2546 18.8262 22.9321 18.6726 23.0096 18.0774" fill="#F6B40E"/>
<path d="M22.2772 16.6103L22.4452 20.9743C22.4452 20.9743 22.4454 21.0575 22.5004 21.0593C22.558 21.0553 22.5578 20.9721 22.5578 20.9721L22.7252 16.6074M22.0862 18.0212C21.8303 18.5672 22.0476 19.0167 21.7986 19.4962C21.5495 19.9758 21.6992 20.3698 21.6892 20.5943C21.6674 20.8139 21.4894 20.8724 21.5307 20.924C21.5779 20.978 21.7613 20.8733 21.8415 20.5807C21.9218 20.2881 21.7394 20.1231 22.0413 19.5336C22.3432 18.9442 22.1045 18.6798 22.4055 18.1593" fill="#F6B40E"/>
<path d="M22.2948 16.5258L20.7669 20.6214C20.7669 20.6214 20.735 20.6983 20.7851 20.721C20.8399 20.7391 20.8718 20.6621 20.8718 20.6621L22.7098 16.6933M21.5742 17.7568C21.1272 18.1641 21.1546 18.6619 20.7395 19.0103C20.3245 19.3588 20.3108 19.7797 20.215 19.9833C20.1101 20.1779 19.9231 20.1643 19.9414 20.2277C19.9642 20.2956 20.174 20.2684 20.361 20.0286C20.548 19.7887 20.4431 19.567 20.9493 19.137C21.4556 18.7071 21.337 18.3722 21.8159 18.0057" fill="#F6B40E"/>
<path d="M22.3435 16.4544L19.3524 19.6581C19.3524 19.6581 19.2933 19.717 19.3309 19.757C19.3745 19.7945 19.4336 19.7355 19.4336 19.7355L22.6624 16.7667M21.2031 17.318C20.633 17.5246 20.4663 17.9949 19.9485 18.1593C19.4307 18.3236 19.2557 18.7072 19.0887 18.859C18.9167 18.999 18.7492 18.9154 18.7416 18.9809C18.7365 19.0523 18.9408 19.1068 19.206 18.9562C19.4713 18.8057 19.4599 18.561 20.0934 18.356C20.727 18.151 20.7466 17.7966 21.3304 17.6398" fill="#F6B40E"/>
<path d="M22.7773 18.1734C22.8096 18.7494 23.1385 19.0054 23.0741 19.5366C23.216 19.1206 22.8741 18.7942 22.8935 18.1798M22.3968 16.6566L23.6545 19.383L22.6032 16.5734" fill="#85340A"/>
<path d="M22.154 18.1599C21.9616 18.7043 22.1668 19.0657 21.9023 19.532C22.1939 19.2015 22.0039 18.7701 22.2588 18.2099M22.3874 16.614L22.4979 19.6105L22.6102 16.6155" fill="#85340A"/>
<path d="M21.5833 17.9106C21.1956 18.3406 21.2458 18.7524 20.8216 19.0827C21.2184 18.8881 21.2093 18.4175 21.6608 17.9966M22.3951 16.5711L21.3415 19.3814L22.6003 16.6571" fill="#85340A"/>
<path d="M21.1521 17.4637C20.6282 17.7137 20.5157 18.1132 19.9964 18.2573C20.438 18.2282 20.6111 17.7899 21.1906 17.5725M22.4188 16.5344L20.3616 18.7307L22.5752 16.6917" fill="#85340A"/>
<path d="M22.4162 16.407L18.4172 18.231C18.4172 18.231 18.3398 18.263 18.3591 18.3142C18.3849 18.3654 18.4623 18.3334 18.4623 18.3334L22.5903 16.8166M21.0294 16.7718C20.4231 16.7462 20.0877 17.1174 19.5459 17.0726C19.0041 17.0278 18.6945 17.3158 18.4817 17.3926C18.2688 17.4566 18.1462 17.3158 18.114 17.3734C18.0818 17.4374 18.2495 17.5654 18.5526 17.527C18.8557 17.4886 18.9396 17.2582 19.604 17.3094C20.2683 17.3606 20.4231 17.0406 21.023 17.1174" fill="#F6B40E"/>
<path d="M22.5015 16.3908L18.1035 16.5574C18.1035 16.5574 18.0196 16.5576 18.0177 16.6123C18.0218 16.6694 18.1057 16.6692 18.1057 16.6692L22.5044 16.8353M21.0796 16.2012C20.5294 15.9474 20.0763 16.1629 19.5931 15.9158C19.1098 15.6687 18.7127 15.8172 18.4864 15.8073C18.2651 15.7857 18.2061 15.609 18.1541 15.65C18.0997 15.6969 18.2052 15.8788 18.5001 15.9585C18.795 16.0381 18.9613 15.8571 19.5554 16.1566C20.1494 16.4562 20.4158 16.2193 20.9404 16.5181" fill="#F6B40E"/>
<path d="M22.5867 16.4082L18.4591 14.8921C18.4591 14.8921 18.3816 14.8605 18.3588 14.9102C18.3405 14.9645 18.418 14.9962 18.418 14.9962L22.4179 16.82M21.3461 15.6931C20.9356 15.2496 20.4339 15.2768 20.0828 14.865C19.7316 14.4532 19.3074 14.4396 19.1022 14.3446C18.9061 14.2405 18.9197 14.0549 18.8559 14.073C18.7875 14.0956 18.8148 14.3038 19.0566 14.4894C19.2983 14.6749 19.5218 14.5708 19.955 15.0732C20.3883 15.5755 20.7258 15.4578 21.0953 15.933" fill="#F6B40E"/>
<path d="M22.6586 16.4566L19.4299 13.4886C19.4299 13.4886 19.3705 13.4299 19.3302 13.4673C19.2924 13.5105 19.3519 13.5692 19.3519 13.5692L22.3439 16.773M21.7882 15.3249C21.5801 14.7593 21.1061 14.5939 20.9405 14.0801C20.7748 13.5663 20.3882 13.3927 20.2352 13.2269C20.0942 13.0563 20.1784 12.8901 20.1124 12.8825C20.0405 12.8775 19.9855 13.0802 20.1373 13.3434C20.289 13.6066 20.5356 13.5953 20.7422 14.2239C20.9488 14.8525 21.306 14.872 21.464 15.4513" fill="#F6B40E"/>
<path d="M20.9262 16.887C20.3457 16.919 20.0877 17.2454 19.5523 17.1814C19.9716 17.3222 20.3005 16.983 20.9197 17.0022M22.4548 16.5094L19.7071 17.7574L22.5387 16.7142" fill="#85340A"/>
<path d="M20.9399 16.2685C20.3912 16.0776 20.027 16.2812 19.557 16.0188C19.8901 16.3081 20.3248 16.1196 20.8895 16.3725M22.4978 16.5001L19.4779 16.6097L22.4963 16.7211" fill="#85340A"/>
<path d="M21.191 15.7022C20.7578 15.3175 20.3427 15.3673 20.0098 14.9464C20.2059 15.3402 20.6802 15.3311 21.1044 15.7791M22.541 16.5077L19.7088 15.4623L22.4544 16.7114" fill="#85340A"/>
<path d="M21.6415 15.2744C21.3896 14.7545 20.9869 14.6429 20.8416 14.1276C20.871 14.5658 21.3127 14.7376 21.5318 15.3126M22.5781 16.5312L20.3646 14.49L22.4195 16.6865" fill="#85340A"/>
<path d="M22.7064 16.5286L20.8682 12.5606C20.8682 12.5606 20.8359 12.4838 20.7843 12.503C20.7327 12.5286 20.765 12.6054 20.765 12.6054L22.2936 16.7014M22.3388 15.1526C22.3645 14.551 21.9904 14.2182 22.0356 13.6806C22.0807 13.143 21.7905 12.8358 21.7131 12.6246C21.6486 12.4134 21.7905 12.2918 21.7325 12.2598C21.668 12.2278 21.539 12.3942 21.5777 12.695C21.6164 12.9958 21.8486 13.079 21.797 13.7382C21.7454 14.3974 22.0679 14.551 21.9905 15.1462" fill="#F6B40E"/>
<path d="M22.7228 16.6133L22.5548 12.2494C22.5548 12.2494 22.5546 12.1662 22.4996 12.1643C22.442 12.1684 22.4422 12.2516 22.4422 12.2516L22.2748 16.6162M22.9138 15.2025C23.1697 14.6565 22.9524 14.2069 23.2014 13.7274C23.4505 13.2479 23.3008 12.8538 23.3108 12.6293C23.3326 12.4097 23.5106 12.3512 23.4693 12.2996C23.4221 12.2456 23.2387 12.3503 23.1585 12.6429C23.0782 12.9355 23.2606 13.1006 22.9587 13.69C22.6568 14.2794 22.8955 14.5438 22.5945 15.0643" fill="#F6B40E"/>
<path d="M22.7052 16.6978L24.2331 12.6022C24.2331 12.6022 24.265 12.5253 24.2149 12.5027C24.1601 12.4846 24.1282 12.5615 24.1282 12.5615L22.2902 16.5304M23.4258 15.4669C23.8728 15.0596 23.8454 14.5618 24.2605 14.2133C24.6755 13.8648 24.6892 13.444 24.785 13.2403C24.8899 13.0457 25.0769 13.0593 25.0586 12.996C25.0358 12.9281 24.826 12.9552 24.639 13.1951C24.452 13.4349 24.5569 13.6567 24.0507 14.0866C23.5444 14.5165 23.663 14.8514 23.1841 15.218" fill="#F6B40E"/>
<path d="M22.6565 16.7692L25.6476 13.5655C25.6476 13.5655 25.7067 13.5066 25.6691 13.4666C25.6255 13.4291 25.5664 13.4881 25.5664 13.4881L22.3376 16.4569M23.7969 15.9056C24.367 15.699 24.5337 15.2287 25.0515 15.0644C25.5693 14.9 25.7443 14.5164 25.9113 14.3646C26.0833 14.2247 26.2508 14.3082 26.2584 14.2428C26.2635 14.1714 26.0592 14.1168 25.794 14.2674C25.5287 14.418 25.5401 14.6627 24.9066 14.8676C24.273 15.0726 24.2534 15.427 23.6696 15.5838" fill="#F6B40E"/>
<path d="M22.2227 15.0502C22.1904 14.4742 21.8615 14.2182 21.926 13.687C21.784 14.103 22.1259 14.4294 22.1066 15.0438M22.6032 16.567L21.3455 13.8406L22.3968 16.6502" fill="#85340A"/>
<path d="M22.846 15.0638C23.0384 14.5194 22.8332 14.158 23.0977 13.6917C22.8061 14.0221 22.9961 14.4535 22.7412 15.0138M22.6126 16.6096L22.5021 13.6132L22.3898 16.6081" fill="#85340A"/>
<path d="M23.4167 15.313C23.8044 14.8831 23.7542 14.4713 24.1784 14.1409C23.7816 14.3355 23.7907 14.8061 23.3392 15.227M22.6049 16.6525L23.6585 13.8422L22.3997 16.5666" fill="#85340A"/>
<path d="M23.8479 15.76C24.3718 15.51 24.4843 15.1105 25.0036 14.9663C24.562 14.9954 24.3889 15.4337 23.8094 15.6511M22.5812 16.6893L24.6384 14.4929L22.4248 16.5319" fill="#85340A"/>
<path d="M22.5839 16.8166L26.5828 14.9926C26.5828 14.9926 26.6602 14.9606 26.6409 14.9094C26.6151 14.8582 26.5377 14.8902 26.5377 14.8902L22.4097 16.407M23.9706 16.4518C24.5769 16.4774 24.9123 16.1062 25.4541 16.151C25.9959 16.1958 26.3055 15.9078 26.5184 15.831C26.7312 15.767 26.8538 15.9078 26.886 15.8502C26.9182 15.7862 26.7506 15.6582 26.4474 15.6966C26.1443 15.735 26.0604 15.9654 25.396 15.9142C24.7317 15.863 24.5769 16.183 23.977 16.1062" fill="#F6B40E"/>
<path d="M22.4985 16.8329L26.8965 16.6662C26.8965 16.6662 26.9804 16.666 26.9823 16.6114C26.9782 16.5543 26.8943 16.5545 26.8943 16.5545L22.4956 16.3883M23.9204 17.0224C24.4706 17.2763 24.9237 17.0607 25.4069 17.3078C25.8902 17.5549 26.2873 17.4064 26.5136 17.4163C26.7349 17.438 26.7939 17.6146 26.8459 17.5736C26.9003 17.5267 26.7948 17.3448 26.4999 17.2652C26.205 17.1855 26.0387 17.3666 25.4446 17.067C24.8506 16.7674 24.5842 17.0043 24.0596 16.7056" fill="#F6B40E"/>
<path d="M22.4133 16.8155L26.5409 18.3315C26.5409 18.3315 26.6184 18.3632 26.6412 18.3134C26.6595 18.2591 26.582 18.2274 26.582 18.2274L22.5821 16.4036M23.6539 17.5305C24.0644 17.974 24.5661 17.9468 24.9172 18.3587C25.2684 18.7705 25.6926 18.784 25.8978 18.8791C26.0939 18.9832 26.0803 19.1687 26.1441 19.1506C26.2125 19.128 26.1852 18.9198 25.9434 18.7343C25.7017 18.5487 25.4782 18.6528 25.0449 18.1505C24.6117 17.6482 24.2742 17.7658 23.9047 17.2906" fill="#F6B40E"/>
<path d="M22.3414 16.7671L25.5701 19.735C25.5701 19.735 25.6295 19.7937 25.6698 19.7564C25.7076 19.7131 25.6481 19.6544 25.6481 19.6544L22.6561 16.4507M23.2118 17.8987C23.4199 18.4643 23.8939 18.6297 24.0595 19.1436C24.2252 19.6574 24.6118 19.831 24.7648 19.9967C24.9058 20.1673 24.8216 20.3336 24.8876 20.3411C24.9595 20.3462 25.0145 20.1434 24.8627 19.8802C24.711 19.617 24.4644 19.6283 24.2578 18.9997C24.0512 18.3711 23.694 18.3517 23.536 17.7724" fill="#F6B40E"/>
<path d="M24.0738 16.3366C24.6543 16.3046 24.9123 15.9782 25.4477 16.0422C25.0284 15.9014 24.6995 16.2406 24.0803 16.2214M22.5452 16.7142L25.2929 15.4662L22.4613 16.5094" fill="#85340A"/>
<path d="M24.0601 16.9552C24.6088 17.146 24.973 16.9424 25.443 17.2048C25.1099 16.9156 24.6752 17.104 24.1105 16.8512M22.5022 16.7236L25.5221 16.6139L22.5037 16.5025" fill="#85340A"/>
<path d="M23.809 17.5214C24.2422 17.9061 24.6573 17.8563 24.9902 18.2772C24.7941 17.8835 24.3198 17.8925 23.8956 17.4445M22.459 16.7159L25.2912 17.7613L22.5456 16.5123" fill="#85340A"/>
<path d="M23.3585 17.9492C23.6104 18.4691 24.0131 18.5807 24.1584 19.096C24.129 18.6578 23.6873 18.486 23.4682 17.9111M22.4219 16.6924L24.6354 18.7337L22.5805 16.5372" fill="#85340A"/>
<path d="M22.5 18.3918C23.4907 18.3918 24.2939 17.5949 24.2939 16.6118C24.2939 15.6287 23.4907 14.8318 22.5 14.8318C21.5093 14.8318 20.7061 15.6287 20.7061 16.6118C20.7061 17.5949 21.5093 18.3918 22.5 18.3918Z" fill="#F6B40E"/>
<path d="M23.1047 16.2318C22.9905 16.2318 22.8695 16.2852 22.8023 16.3918C22.9367 16.5185 23.2458 16.5252 23.4541 16.3785C23.4101 16.3321 23.357 16.2952 23.298 16.27C23.2391 16.2448 23.1756 16.2318 23.1114 16.2318H23.1047ZM23.1047 16.2585C23.2256 16.2585 23.3398 16.3118 23.3533 16.3652C23.2189 16.5185 22.9972 16.4985 22.8561 16.3918C22.9278 16.3029 23.0129 16.2585 23.1114 16.2585H23.1047Z" fill="#843511"/>
<path d="M23.1316 16.1451C22.9502 16.1451 22.9098 16.1852 22.8292 16.2585C22.7486 16.3251 22.7016 16.3118 22.6948 16.3251C22.6747 16.3385 22.6948 16.3785 22.715 16.3651C22.7464 16.3563 22.8023 16.3207 22.883 16.2585C23.0039 16.1651 23.0509 16.1918 23.1316 16.1918C23.3802 16.1918 23.5145 16.3918 23.5414 16.3785C23.575 16.3651 23.407 16.1451 23.1316 16.1451Z" fill="#85340A"/>
<path d="M23.6287 16.2318C23.313 15.9585 22.9098 15.9118 22.6881 16.1185C22.6371 16.1851 22.6025 16.2628 22.5873 16.3451C22.5605 16.5052 22.6075 16.6718 22.7284 16.8451L22.6747 16.8718C22.5672 16.6629 22.5314 16.454 22.5672 16.2452L22.6075 16.0918C22.9098 15.8451 23.3264 15.8252 23.6287 16.2252V16.2318Z" fill="#85340A"/>
<path d="M23.1047 16.4852C23.1715 16.4852 23.2256 16.4314 23.2256 16.3652C23.2256 16.2989 23.1715 16.2452 23.1047 16.2452C23.0379 16.2452 22.9838 16.2989 22.9838 16.3652C22.9838 16.4314 23.0379 16.4852 23.1047 16.4852Z" fill="#85340A"/>
<path d="M23.4608 16.4452C23.2256 16.6252 22.9905 16.6118 22.8561 16.5318C22.7217 16.4452 22.7217 16.4185 22.7486 16.4185C22.7755 16.4185 22.8023 16.4452 22.9098 16.5051C23.0241 16.5585 23.1853 16.5585 23.4608 16.4452Z" fill="#85340A"/>
<path d="M22.2313 16.8585C22.2126 16.8629 22.1952 16.8716 22.1806 16.8839C22.166 16.8963 22.1546 16.9119 22.1473 16.9295C22.1399 16.9471 22.1369 16.9661 22.1385 16.9851C22.1401 17.0041 22.1462 17.0224 22.1563 17.0386C22.1664 17.0547 22.1803 17.0683 22.1967 17.0781C22.2131 17.0879 22.2317 17.0937 22.2508 17.095C22.27 17.0963 22.2891 17.093 22.3068 17.0855C22.3244 17.078 22.34 17.0665 22.3522 17.0518C22.3965 17.0791 22.4479 17.093 22.5 17.0918H22.5134C22.5582 17.0918 22.6097 17.0785 22.668 17.0518C22.6904 17.0829 22.724 17.0985 22.7688 17.0985C22.8008 17.1011 22.8326 17.091 22.8572 17.0704C22.8818 17.0498 22.8971 17.0203 22.8998 16.9885C22.9024 16.9567 22.8923 16.9251 22.8715 16.9007C22.8507 16.8763 22.821 16.8611 22.7889 16.8585C22.8247 16.8718 22.8427 16.8985 22.8427 16.9385C22.8427 16.9597 22.8342 16.98 22.819 16.9951C22.8039 17.0101 22.7834 17.0185 22.762 17.0185C22.7406 17.0185 22.7201 17.0101 22.705 16.9951C22.6899 16.98 22.6814 16.9597 22.6814 16.9385C22.6655 16.9714 22.6408 16.9994 22.61 17.0193C22.5792 17.0393 22.5435 17.0505 22.5067 17.0518C22.4711 17.0494 22.4368 17.0376 22.4073 17.0177C22.3778 16.9978 22.3541 16.9704 22.3388 16.9385C22.3343 16.9874 22.3052 17.014 22.2514 17.0185C22.2066 17.014 22.1797 16.9874 22.1708 16.9385C22.1573 16.8651 22.1909 16.8718 22.2245 16.8585H22.2313ZM22.3656 17.2185C22.2245 17.2185 22.1641 17.3518 22.0431 17.4251C22.1103 17.3985 22.1641 17.3451 22.2648 17.2918C22.3656 17.2385 22.4395 17.3051 22.5 17.3051C22.5605 17.3051 22.6344 17.2385 22.7352 17.2918C22.8247 17.3496 22.8986 17.394 22.9569 17.4251C22.8292 17.3451 22.7755 17.2251 22.6344 17.2251C22.603 17.2251 22.5582 17.2385 22.5 17.2652L22.3656 17.2185Z" fill="#85340A"/>
<path d="M22.3119 17.3852C22.2626 17.3852 22.1865 17.3985 22.0834 17.4251C22.332 17.3718 22.3858 17.4585 22.5 17.4585C22.6075 17.4585 22.668 17.3718 22.9098 17.4251C22.6411 17.3451 22.5806 17.3985 22.5 17.3985C22.4463 17.3985 22.4059 17.3785 22.3119 17.3852Z" fill="#85340A"/>
<path d="M22.0969 17.4252L22.0431 17.4251C22.332 17.4585 22.1977 17.6252 22.5 17.6252C22.8023 17.6252 22.668 17.4585 22.9569 17.4251C22.6545 17.3985 22.7486 17.5785 22.5 17.5785C22.2648 17.5785 22.3387 17.4252 22.0969 17.4252Z" fill="#85340A"/>
<path d="M22.7486 17.8718C22.7486 17.8064 22.7224 17.7437 22.6758 17.6974C22.6292 17.6511 22.5659 17.6252 22.5 17.6252C22.4341 17.6252 22.3708 17.6511 22.3242 17.6974C22.2776 17.7437 22.2514 17.8064 22.2514 17.8718C22.2645 17.8162 22.2962 17.7666 22.3414 17.7311C22.3865 17.6955 22.4424 17.6762 22.5 17.6762C22.5576 17.6762 22.6135 17.6955 22.6586 17.7311C22.7038 17.7666 22.7355 17.8162 22.7486 17.8718Z" fill="#85340A"/>
<path d="M21.3847 16.2318C21.7005 15.9585 22.1036 15.9118 22.3253 16.1185C22.3764 16.1851 22.4109 16.2628 22.4261 16.3451C22.453 16.5052 22.4059 16.6718 22.285 16.8451L22.3388 16.8718C22.4463 16.6629 22.4821 16.454 22.4463 16.2452L22.4059 16.0918C22.1036 15.8451 21.687 15.8252 21.3847 16.2252V16.2318Z" fill="#85340A"/>
<path d="M21.8819 16.1451C22.0633 16.1451 22.1036 16.1852 22.1842 16.2585C22.2648 16.3251 22.3119 16.3118 22.3186 16.3251C22.3387 16.3385 22.3186 16.3785 22.2984 16.3651C22.2671 16.3563 22.2111 16.3207 22.1305 16.2585C22.0095 16.1651 21.9625 16.1918 21.8819 16.1918C21.6333 16.1918 21.4989 16.3918 21.472 16.3785C21.4384 16.3651 21.6064 16.1451 21.8819 16.1451Z" fill="#85340A"/>
<path d="M21.8684 16.2318C21.7542 16.2318 21.6333 16.2852 21.5661 16.3918C21.7005 16.5185 22.0095 16.5252 22.2178 16.3785C22.1738 16.3321 22.1207 16.2952 22.0618 16.27C22.0028 16.2448 21.9393 16.2318 21.8752 16.2318H21.8684ZM21.8684 16.2585C21.9894 16.2585 22.1036 16.3118 22.117 16.3652C21.9827 16.5185 21.7609 16.4985 21.6198 16.3918C21.6915 16.3029 21.7766 16.2585 21.8752 16.2585H21.8684Z" fill="#843511"/>
<path d="M21.8886 16.4852C21.9554 16.4852 22.0095 16.4314 22.0095 16.3652C22.0095 16.2989 21.9554 16.2452 21.8886 16.2452C21.8218 16.2452 21.7677 16.2989 21.7677 16.3652C21.7677 16.4314 21.8218 16.4852 21.8886 16.4852Z" fill="#85340A"/>
<path d="M21.5527 16.4452C21.7878 16.6252 22.023 16.6118 22.1573 16.5318C22.2917 16.4452 22.2917 16.4185 22.2648 16.4185C22.238 16.4185 22.2111 16.4452 22.1036 16.5051C21.9894 16.5585 21.8281 16.5585 21.5527 16.4452Z" fill="#85340A"/>
</g>
<rect x="0.75" y="0.361816" width="43.5" height="32.5" rx="4.25" stroke="#2B1911" stroke-width="0.5"/>
<defs>
<clipPath id="clip0_2158_2852">
<rect x="1" y="0.611816" width="43" height="32" rx="4" fill="white"/>
</clipPath>
</defs>
</svg>
