<svg width="45" height="34" viewBox="0 0 45 34" fill="none" xmlns="http://www.w3.org/2000/svg">
<g clip-path="url(#clip0_2152_2629)">
<rect x="1" y="0.958008" width="43" height="32" fill="#DA291C"/>
<path d="M19.4766 8.29134C19.4766 7.55496 20.0782 6.95801 20.8203 6.95801H24.1797C24.9218 6.95801 25.5234 7.55496 25.5234 8.29134V25.6247C25.5234 26.3611 24.9218 26.958 24.1797 26.958H20.8203C20.0782 26.958 19.4766 26.3611 19.4766 25.6247V8.29134Z" fill="white"/>
<path d="M12.4219 15.2913C12.4219 14.555 13.0235 13.958 13.7656 13.958H31.2344C31.9765 13.958 32.5781 14.555 32.5781 15.2913V18.6247C32.5781 19.3611 31.9765 19.958 31.2344 19.958H13.7656C13.0235 19.958 12.4219 19.3611 12.4219 18.6247V15.2913Z" fill="white"/>
</g>
<rect x="0.75" y="0.708008" width="43.5" height="32.5" rx="4.25" stroke="#2B1911" stroke-width="0.5"/>
<defs>
<clipPath id="clip0_2152_2629">
<rect x="1" y="0.958008" width="43" height="32" rx="4" fill="white"/>
</clipPath>
</defs>
</svg>
