<svg width="45" height="34" viewBox="0 0 45 34" fill="none" xmlns="http://www.w3.org/2000/svg">
<g clip-path="url(#clip0_2152_2560)">
<g filter="url(#filter0_d_2152_2560)">
<path fill-rule="evenodd" clip-rule="evenodd" d="M1 32.6118H44V0.611816H1V32.6118Z" fill="#1E448A"/>
</g>
<path d="M21.1774 7.5854L22.6758 7.14993L24.1742 7.5854L23.7353 6.09861L24.1742 4.61182L22.6758 5.04729L21.1774 4.61182L21.6163 6.09861L21.1774 7.5854Z" fill="#FDCB0B"/>
<path d="M21.1774 28.6118L22.6758 28.1763L24.1742 28.6118L23.7353 27.125L24.1742 25.6382L22.6758 26.0736L21.1774 25.6382L21.6163 27.125L21.1774 28.6118Z" fill="#FDCB0B"/>
<path d="M33.2711 17.6631L31.7727 18.0985L32.2116 16.6117L31.7727 15.1249L33.2711 15.5604L34.7695 15.1249L34.3307 16.6117L34.7695 18.0985L33.2711 17.6631Z" fill="#FDCB0B"/>
<path d="M10.582 18.0985L12.0804 17.6631L13.5788 18.0985L13.14 16.6117L13.5788 15.1249L12.0804 15.5604L10.582 15.1249L11.0209 16.6117L10.582 18.0985Z" fill="#FDCB0B"/>
<path d="M31.8516 12.4065L30.3532 12.842L30.7921 11.3552L30.3532 9.86838L31.8516 10.3039L33.35 9.86838L32.9112 11.3552L33.35 12.842L31.8516 12.4065Z" fill="#FDCB0B"/>
<path d="M12.0015 23.3552L13.4999 22.9197L14.9984 23.3552L14.5595 21.8684L14.9984 20.3816L13.4999 20.8171L12.0015 20.3816L12.4404 21.8684L12.0015 23.3552Z" fill="#FDCB0B"/>
<path d="M27.9735 8.55837L26.475 8.99384L26.9139 7.50705L26.475 6.02026L27.9735 6.45573L29.4719 6.02026L29.033 7.50705L29.4719 8.99384L27.9735 8.55837Z" fill="#FDCB0B"/>
<path d="M15.8797 27.2032L17.3781 26.7677L18.8765 27.2032L18.4377 25.7164L18.8765 24.2296L17.3781 24.6651L15.8797 24.2296L16.3186 25.7164L15.8797 27.2032Z" fill="#FDCB0B"/>
<path d="M31.8516 22.9197L30.3532 23.3552L30.7921 21.8684L30.3532 20.3816L31.8516 20.8171L33.35 20.3816L32.9112 21.8684L33.35 23.3552L31.8516 22.9197Z" fill="#FDCB0B"/>
<path d="M12.0015 12.842L13.4999 12.4065L14.9984 12.842L14.5595 11.3552L14.9984 9.86838L13.4999 10.3039L12.0015 9.86838L12.4404 11.3552L12.0015 12.842Z" fill="#FDCB0B"/>
<path d="M27.9735 26.7677L26.475 27.2032L26.9139 25.7164L26.475 24.2296L27.9735 24.6651L29.4719 24.2296L29.033 25.7164L29.4719 27.2032L27.9735 26.7677Z" fill="#FDCB0B"/>
<path d="M15.8797 8.99384L17.3781 8.55837L18.8765 8.99384L18.4377 7.50705L18.8765 6.02026L17.3781 6.45573L15.8797 6.02026L16.3186 7.50705L15.8797 8.99384Z" fill="#FDCB0B"/>
</g>
<rect x="0.75" y="0.361816" width="43.5" height="32.5" rx="4.25" stroke="#2B1911" stroke-width="0.5"/>
<defs>
<filter id="filter0_d_2152_2560" x="1" y="0.611816" width="43" height="32" filterUnits="userSpaceOnUse" color-interpolation-filters="sRGB">
<feFlood flood-opacity="0" result="BackgroundImageFix"/>
<feColorMatrix in="SourceAlpha" type="matrix" values="0 0 0 0 0 0 0 0 0 0 0 0 0 0 0 0 0 0 127 0" result="hardAlpha"/>
<feOffset/>
<feColorMatrix type="matrix" values="0 0 0 0 0 0 0 0 0 0 0 0 0 0 0 0 0 0 0.06 0"/>
<feBlend mode="normal" in2="BackgroundImageFix" result="effect1_dropShadow_2152_2560"/>
<feBlend mode="normal" in="SourceGraphic" in2="effect1_dropShadow_2152_2560" result="shape"/>
</filter>
<clipPath id="clip0_2152_2560">
<rect x="1" y="0.611816" width="43" height="32" rx="4" fill="white"/>
</clipPath>
</defs>
</svg>
