<svg width="42" height="43" viewBox="0 0 42 43" fill="none" xmlns="http://www.w3.org/2000/svg">
<path d="M5.25 25.1628C5.25 16.5223 15.8707 7.97761 20.6416 2.42082C20.8211 2.21183 21.1524 2.23175 21.3107 2.45698C25.2139 8.01465 36.75 16.541 36.75 25.1628C36.75 36.2426 28.621 40.7754 21 40.7754C13.379 40.7754 5.25 36.2426 5.25 25.1628Z" fill="#46BEAE"/>
<path fill-rule="evenodd" clip-rule="evenodd" d="M23.3131 25.8143V25.8121C23.1835 25.8215 22.5157 25.8616 21.0259 25.8616C19.8364 25.8616 18.999 25.8262 18.7045 25.8121V25.8155C14.1253 25.6137 10.7074 24.8145 10.7074 23.8585C10.7074 22.9035 14.1253 22.1044 18.7045 21.899V25.0199C19.0037 25.0412 19.8611 25.0919 21.0459 25.0919C22.4676 25.0919 23.1801 25.033 23.3131 25.0211V21.9015C27.8829 22.1056 31.2927 22.9047 31.2927 23.8585C31.2927 24.8145 27.8829 25.6112 23.3131 25.8143ZM23.3131 21.5769V18.7841H29.6896V14.5253H12.328V18.7841H18.7045V21.5756C13.5223 21.8141 9.625 22.8434 9.625 24.0757C9.625 25.3079 13.5223 26.3361 18.7045 26.5756V35.5253H23.3131V26.5734C28.4871 26.3349 32.375 25.3068 32.375 24.0757C32.375 22.8446 28.4871 21.8164 23.3131 21.5769Z" fill="white"/>
</svg>
