<svg width="114.221" height="82.45" viewBox="0 0 114.221 82.45" xmlns="http://www.w3.org/2000/svg"><path fill="#2496ed" d="M111.901 31.47c-2.57-1.79-8.47-2.45-13.08-1.56-.54-4.46-3-8.37-7.29-11.83l-2.47-1.79-1.72 2.57a21.15 21.15 0 0 0-2.89 12.5 14.91 14.91 0 0 0 2.25 6.81 17.87 17.87 0 0 1-8.68 2H.511l-.21.89c-.75 4.46-.75 18.41 8 29.12 6.65 8.15 16.51 12.27 29.48 12.27 28.09 0 48.89-13.5 58.64-37.94 3.86.11 12.11 0 16.3-8.37.11-.22.32-.67 1.07-2.34l.43-.89-2.36-1.45zM62.471 0h-11.79v11.16h11.79zm0 13.39h-11.79v11.16h11.79zm-13.94 0h-11.79v11.16h11.79zm-13.94 0h-11.78v11.16h11.79V13.39zm-13.94 13.39H8.871v11.16h11.79V26.78zm13.94 0h-11.78v11.16h11.79V26.78zm13.94 0h-11.79v11.16h11.79zm13.94 0h-11.79v11.16h11.79zm13.94 0h-11.79v11.16h11.79z"/></svg>
