<svg width="24" height="24" viewBox="0 0 24 24" fill="none" xmlns="http://www.w3.org/2000/svg"><path fill-rule="evenodd" clip-rule="evenodd" d="M8.12 20.396a9.006 9.006 0 0 0 10.774-2.338A8.998 8.998 0 0 0 17.785 5.38l-2.531 3.016a7.03 7.03 0 0 1 .866 9.904c-1.99 2.372-5.268 3.164-8 2.096" fill="url(#a)"/><path fill-rule="evenodd" clip-rule="evenodd" d="M8.12 20.396a9.006 9.006 0 0 0 11.646-3.574 7.868 7.868 0 0 0-2.713-7.29 7.882 7.882 0 0 0-1.799-1.136 7.03 7.03 0 0 1 .866 9.904c-1.99 2.372-5.268 3.164-8 2.096Z" fill="url(#b)"/><path fill-rule="evenodd" clip-rule="evenodd" d="M15.88 4.149A9.006 9.006 0 0 0 5.107 6.488a8.998 8.998 0 0 0 1.109 12.678l2.531-3.016a7.03 7.03 0 0 1-.866-9.905c1.99-2.372 5.268-3.164 8-2.096" fill="url(#c)"/><path fill-rule="evenodd" clip-rule="evenodd" d="M15.88 4.149A9.006 9.006 0 0 0 4.235 7.723a7.869 7.869 0 0 0 2.713 7.29c.545.458 1.15.84 1.799 1.136a7.03 7.03 0 0 1-.866-9.904c1.99-2.372 5.268-3.164 8-2.096" fill="url(#d)"/><defs><linearGradient id="a" x1="18.529" y1="14.858" x2="14.705" y2="7.24" gradientUnits="userSpaceOnUse"><stop stop-color="#EF2131"/><stop offset="1" stop-color="#FECF2C"/></linearGradient><linearGradient id="b" x1="15.029" y1="8.396" x2="8.325" y2="20.001" gradientUnits="userSpaceOnUse"><stop stop-color="#FBC52C"/><stop offset=".264" stop-color="#F87130"/><stop offset=".561" stop-color="#EF52E2"/><stop offset="1" stop-color="#661EEC"/></linearGradient><linearGradient id="c" x1="5.65" y1="9.792" x2="9.315" y2="17.246" gradientUnits="userSpaceOnUse"><stop stop-color="#78F6D8"/><stop offset=".266" stop-color="#77D1F6"/><stop offset=".554" stop-color="#70A4F3"/><stop offset="1" stop-color="#661EEC"/></linearGradient><linearGradient id="d" x1="9.119" y1="16.149" x2="15.771" y2="4.584" gradientUnits="userSpaceOnUse"><stop stop-color="#536EED"/><stop offset=".247" stop-color="#54C3EC"/><stop offset=".564" stop-color="#64D769"/><stop offset="1" stop-color="#FECF2C"/></linearGradient></defs></svg>
