<svg width="48" height="48" viewBox="0 0 48 48" fill="none" xmlns="http://www.w3.org/2000/svg"><g clip-path="url(#a)"><rect width="48" height="48" rx="8.421" fill="url(#b)"/><rect width="48" height="48" rx="8.421" fill="#fff" fill-opacity=".01"/><path d="M20.453 5.494c1.568-.168 2.96.752 3.395 2.25.077.264.116.546.124.822.019.59.007 1.182.007 1.772 0 .055-.046.098-.1.1-.433.016-.855-.003-1.267-.14-1.293-.425-2.153-1.61-2.166-2.997-.006-.562-.002-1.125-.001-1.687M27.964 8.126c.138 1.228-.739 2.275-1.922 2.31-.67.02-1.284-.552-1.003-1.16.134-.288.34-.544.628-.764a1.825 1.825 0 0 1 1.099-.385c.397-.006.794-.001 1.198-.001Z" fill="#FFF9F6"/><path fill-rule="evenodd" clip-rule="evenodd" d="M37.895 20.966c0 6.982-6.127 13.6-13.685 13.6-2.74 0-5.294-.87-7.434-2.313V39.2a3.125 3.125 0 0 1-6.25 0V21.206h.002l-.002-.24c0-6.04 4.586-10.112 10.717-9.636 1.967.153 3.968.153 5.934 0 6.131-.476 10.718 3.596 10.718 9.636ZM16.774 22.1v-.045c.012-3.385 2.717-5.61 6.24-5.082.72.108 1.455.108 2.174 0 3.532-.528 6.24 1.707 6.24 5.105 0 3.74-3.28 7.285-7.327 7.285-4.038 0-7.313-3.531-7.326-7.263Z" fill="#FFF9F6"/></g><defs><radialGradient id="b" cx="0" cy="0" r="1" gradientUnits="userSpaceOnUse" gradientTransform="rotate(135 24 9.941) scale(67.8822 77.376)"><stop stop-color="#FFA24C"/><stop offset=".502" stop-color="#FF7A50"/><stop offset="1" stop-color="#FF4D42"/></radialGradient><clipPath id="a"><rect width="48" height="48" rx="8.421" fill="#fff"/></clipPath></defs></svg>
