<svg width="24" height="24" viewBox="0 0 24 24" fill="none" xmlns="http://www.w3.org/2000/svg"><path fill-rule="evenodd" clip-rule="evenodd" d="M7 7c0-2.8 2.2-5 5-5s5 2.2 5 5-2.2 5-5 5-5-2.2-5-5Zm14 12v2c0 .6-.4 1-1 1s-1-.4-1-1v-2c0-1.7-1.3-3-3-3H8c-1.7 0-3 1.3-3 3v2c0 .6-.4 1-1 1s-1-.4-1-1v-2c0-2.8 2.2-5 5-5h8c2.8 0 5 2.2 5 5Zm-9-9c-1.7 0-3-1.3-3-3s1.3-3 3-3 3 1.3 3 3-1.3 3-3 3Z" fill="currentColor"/><mask id="a" style="mask-type:luminance" maskUnits="userSpaceOnUse" x="3" y="2" width="18" height="20"><path fill-rule="evenodd" clip-rule="evenodd" d="M7 7c0-2.8 2.2-5 5-5s5 2.2 5 5-2.2 5-5 5-5-2.2-5-5Zm14 12v2c0 .6-.4 1-1 1s-1-.4-1-1v-2c0-1.7-1.3-3-3-3H8c-1.7 0-3 1.3-3 3v2c0 .6-.4 1-1 1s-1-.4-1-1v-2c0-2.8 2.2-5 5-5h8c2.8 0 5 2.2 5 5Zm-9-9c-1.7 0-3-1.3-3-3s1.3-3 3-3 3 1.3 3 3-1.3 3-3 3Z" fill="#fff"/></mask></svg>
