<svg width="24" height="24" viewBox="0 0 24 24" fill="none" xmlns="http://www.w3.org/2000/svg"><path fill-rule="evenodd" clip-rule="evenodd" d="M4 2h12c1.7 0 3 1.3 3 3h-2c0-.6-.4-1-1-1H4c-.6 0-1 .4-1 1v8c0 .6.4 1 1 1h9v2H4c-1.7 0-3-1.3-3-3V5c0-1.7 1.3-3 3-3Zm2 16h7v2H6c-.6 0-1-.4-1-1s.4-1 1-1Z" fill="currentColor"/><path fill-rule="evenodd" clip-rule="evenodd" d="M17 6h3c1.7 0 3 1.3 3 3v10c0 1.7-1.3 3-3 3h-3c-1.7 0-3-1.3-3-3V9c0-1.7 1.3-3 3-3Zm0 2c-.6 0-1 .4-1 1v10c0 .6.4 1 1 1h3c.6 0 1-.4 1-1V9c0-.6-.4-1-1-1h-3Zm1.5 10.2c.4 0 .8.3.8.8s-.4.8-.8.8-.8-.3-.8-.8.4-.8.8-.8Z" fill="currentColor"/></svg>
