<svg width="24" height="24" viewBox="0 0 24 24" fill="none" xmlns="http://www.w3.org/2000/svg"><path fill-rule="evenodd" clip-rule="evenodd" d="M12 23c6.1 0 11-4.9 11-11S18.1 1 12 1 1 5.9 1 12s4.9 11 11 11Zm.2-9.1c.4-.1 3.7-1.3 3.7-3.9 0-1.7-1.1-3.2-2.7-3.7-2.1-.8-4.4.3-5.1 2.4-.1.5.1 1.1.6 1.1.5.2 1.1-.1 1.3-.6.4-1 1.6-1.6 2.6-1.2.8.3 1.3 1 1.3 1.9 0 1.1-1.7 1.9-2.3 2.1-.5.2-.8.8-.6 1.3.1.4.5.7.9.7.1 0 .2 0 .3-.1ZM21 12c0-5-4-9-9-9s-9 4-9 9 4 9 9 9 9-4 9-9Zm-9 6a1 1 0 1 0 0-2 1 1 0 0 0 0 2Z" fill="currentColor"/></svg>
