<svg width="24" height="24" viewBox="0 0 24 24" fill="none" xmlns="http://www.w3.org/2000/svg"><path fill-rule="evenodd" clip-rule="evenodd" d="M5 2h4c1.7 0 3 1.3 3 3v4c0 1.7-1.3 3-3 3H5c-1.7 0-3-1.3-3-3V5c0-1.7 1.3-3 3-3Zm0 2c-.6 0-1 .4-1 1v4c0 .6.4 1 1 1h4c.6 0 1-.4 1-1V5c0-.6-.4-1-1-1H5Zm10-2h4c1.7 0 3 1.3 3 3v4c0 1.7-1.3 3-3 3h-4c-1.7 0-3-1.3-3-3V5c0-1.7 1.3-3 3-3Zm0 2c-.6 0-1 .4-1 1v4c0 .6.4 1 1 1h4c.6 0 1-.4 1-1V5c0-.6-.4-1-1-1h-4ZM5 12h4c1.7 0 3 1.3 3 3v4c0 1.7-1.3 3-3 3H5c-1.7 0-3-1.3-3-3v-4c0-1.7 1.3-3 3-3Zm0 2c-.6 0-1 .4-1 1v4c0 .6.4 1 1 1h4c.6 0 1-.4 1-1v-4c0-.6-.4-1-1-1H5Zm10-2h4c1.7 0 3 1.3 3 3v4c0 1.7-1.3 3-3 3h-4c-1.7 0-3-1.3-3-3v-4c0-1.7 1.3-3 3-3Zm0 2c-.6 0-1 .4-1 1v4c0 .6.4 1 1 1h4c.6 0 1-.4 1-1v-4c0-.6-.4-1-1-1h-4Z" fill="currentColor"/></svg>
