<svg width="548" height="548" fill="none" xmlns="http://www.w3.org/2000/svg"><g clip-path="url(#a)"><rect width="548" height="548" rx="96.14" fill="url(#b)"/><rect width="548" height="548" rx="96.14" fill="#fff" fill-opacity=".01"/><path d="M233.507 62.717c17.902-1.921 33.801 8.581 38.763 25.683.875 3.015 1.315 6.242 1.414 9.391.214 6.739.077 13.49.077 20.234 0 .621-.531 1.112-1.151 1.135-4.928.181-9.747-.032-14.457-1.587-14.765-4.863-24.574-18.391-24.728-34.22-.066-6.421-.017-12.847-.011-19.268M319.257 92.767c-.003 0-.005.002-.005.005 1.582 14.018-8.43 25.974-21.945 26.376-7.641.228-14.658-6.307-11.441-13.241 1.53-3.299 3.885-6.221 7.166-8.73 3.697-2.825 7.911-4.315 12.543-4.394 4.534-.072 9.072-.016 13.682-.016Z" fill="#FFF9F6"/><path fill-rule="evenodd" clip-rule="evenodd" d="M432.632 239.364c0 79.705-69.946 155.266-156.228 155.266-31.295 0-60.441-9.941-84.88-26.414v79.31c0 19.702-15.972 35.674-35.674 35.674-19.702 0-35.674-15.972-35.674-35.674V242.092h.027c-.018-.908-.027-1.818-.027-2.728 0-68.959 52.358-115.446 122.354-110.015a439.532 439.532 0 0 0 67.748 0c69.996-5.431 122.354 41.056 122.354 110.015Zm-73.809 12.683c0 42.694-37.451 83.169-83.649 83.169-46.199 0-83.65-40.475-83.65-83.169 0-38.796 30.926-64.314 71.239-58.278a83.948 83.948 0 0 0 24.822 0c40.313-6.036 71.238 19.482 71.238 58.278Z" fill="#FFF9F6"/></g><defs><radialGradient id="b" cx="0" cy="0" r="1" gradientUnits="userSpaceOnUse" gradientTransform="matrix(-547.99998 547.99998 -624.64116 -624.64116 548 0)"><stop stop-color="#FFA24C"/><stop offset=".502" stop-color="#FF7A50"/><stop offset="1" stop-color="#FF4D42"/></radialGradient><clipPath id="a"><rect width="548" height="548" rx="96.14" fill="#fff"/></clipPath></defs></svg>
