<?xml version="1.0" standalone="no"?>
<!DOCTYPE svg PUBLIC "-//W3C//DTD SVG 20010904//EN"
 "http://www.w3.org/TR/2001/REC-SVG-20010904/DTD/svg10.dtd">
<svg version="1.0" xmlns="http://www.w3.org/2000/svg"
 width="700.000000pt" height="700.000000pt" viewBox="0 0 700.000000 700.000000"
 preserveAspectRatio="xMidYMid meet">
<metadata>
Created by potrace 1.14, written by Peter Selinger 2001-2017
</metadata>
<g transform="translate(0.000000,700.000000) scale(0.100000,-0.100000)"
fill="#000000" stroke="none">
<path d="M2965 6385 c-3 -11 -3 -96 -1 -190 4 -208 19 -263 99 -373 90 -125
239 -200 392 -198 l70 1 1 155 c1 178 -13 267 -53 346 -89 174 -248 273 -451
278 -45 1 -53 -1 -57 -19z"/>
<path d="M3934 5984 c-5 -2 -27 -8 -50 -13 -53 -14 -125 -69 -165 -127 -95
-139 39 -260 228 -206 56 17 136 81 169 138 26 43 51 131 48 164 -1 8 -2 22
-3 31 -1 13 -18 16 -110 15 -59 0 -112 -1 -117 -2z"/>
<path d="M2818 5485 c-2 -2 -35 -5 -75 -9 -59 -4 -164 -23 -243 -42 -107 -25
-276 -90 -352 -135 -27 -16 -51 -29 -55 -29 -18 0 -205 -143 -271 -208 -244
-240 -382 -528 -432 -902 -5 -36 -9 -756 -9 -1600 -1 -1672 -4 -1579 56 -1699
39 -77 136 -172 215 -210 279 -135 593 -7 700 285 20 57 21 74 23 647 1 323 4
589 6 591 2 3 32 -13 65 -34 243 -154 586 -275 870 -307 88 -10 409 -10 494 0
102 12 324 59 365 77 11 5 49 18 84 30 87 27 126 44 267 115 297 151 555 365
774 643 95 121 223 339 285 487 23 53 94 260 99 288 2 12 9 42 15 67 18 80 22
103 35 215 15 121 13 344 -3 445 -6 36 -13 81 -16 100 -13 77 -70 251 -115
345 -128 274 -320 482 -585 634 -139 79 -343 154 -485 176 -25 4 -54 9 -65 11
-98 20 -311 23 -560 8 -190 -11 -508 -10 -695 0 -143 9 -387 15 -392 11z m527
-891 c103 -11 309 -11 405 0 553 67 969 -286 963 -816 -5 -418 -265 -818 -661
-1017 -75 -38 -207 -85 -267 -95 -16 -3 -52 -10 -80 -15 -63 -12 -235 -12
-317 -1 -669 95 -1158 803 -971 1405 42 134 139 279 242 361 31 24 61 48 67
53 6 5 49 27 95 49 95 45 193 72 289 79 36 3 66 6 68 7 3 4 79 -1 167 -10z"/>
</g>
</svg>
