<svg width="172" height="53" viewBox="0 0 172 53" fill="none" xmlns="http://www.w3.org/2000/svg">
<rect y="1.21387" width="51.4664" height="51.4664" rx="8.49909" fill="#FFF9F6"/>
<path d="M22.1954 7.80865C23.8284 7.63345 25.2787 8.59146 25.7313 10.1515C25.8111 10.4265 25.8513 10.7209 25.8603 11.0081C25.8799 11.6229 25.8673 12.2386 25.8673 12.8539C25.8673 12.9105 25.819 12.9553 25.7624 12.9574C25.3128 12.9739 24.8732 12.9545 24.4436 12.8126C23.0967 12.369 22.202 11.135 22.1879 9.69106C22.1819 9.10535 22.1864 8.51914 22.1869 7.93343" fill="#65A519"/>
<path d="M30.0174 10.5499C30.0172 10.5499 30.017 10.5501 30.017 10.5504C30.1612 11.829 29.248 12.9197 28.0151 12.9564C27.3182 12.9772 26.678 12.3811 26.9715 11.7486C27.1111 11.4476 27.3259 11.181 27.6252 10.9522C27.9624 10.6945 28.3468 10.5585 28.7694 10.5514C29.1829 10.5448 29.5969 10.5499 30.0174 10.5499Z" fill="#65A519"/>
<path fill-rule="evenodd" clip-rule="evenodd" d="M40.3594 23.9223C40.3594 31.1928 33.979 38.0854 26.1084 38.0854C23.2537 38.0854 20.5951 37.1787 18.3658 35.676V42.9106C18.3658 44.7078 16.9088 46.1648 15.1116 46.1648C13.3144 46.1648 11.8574 44.7078 11.8574 42.9106V24.1711H11.8599C11.8583 24.0882 11.8574 24.0053 11.8574 23.9223C11.8574 17.6319 16.6335 13.3914 23.0185 13.8868C25.0668 14.0457 27.15 14.0457 29.1983 13.8868C35.5834 13.3914 40.3594 17.6319 40.3594 23.9223ZM18.3658 25.1073V25.0512C18.3806 21.5279 21.1965 19.214 24.864 19.7632C25.6131 19.8753 26.3793 19.8753 27.1283 19.7632C30.8056 19.2125 33.6266 21.5402 33.6266 25.0792C33.6266 28.9737 30.2104 32.6658 25.9962 32.6658C21.7921 32.6658 18.3821 28.9914 18.3658 25.1073Z" fill="url(#paint0_diamond_1130_45256)"/>
<g filter="url(#filter0_d_1130_45256)">
<path d="M70.7202 16.6617C71.8605 16.6617 72.7293 16.4038 73.3266 15.8879C73.9511 15.3449 74.2633 14.5304 74.2633 13.4444C74.2633 12.4127 73.9375 11.6253 73.2859 11.0823C72.6614 10.5122 71.7383 10.2271 70.5166 10.2271C70.0822 10.2271 69.7157 10.2407 69.417 10.2678C69.1455 10.2678 68.8604 10.295 68.5618 10.3493V16.6617H70.7202ZM68.6025 29.7345C68.3038 29.8159 67.8287 29.8974 67.1771 29.9788C66.5527 30.0603 65.9282 30.101 65.3038 30.101C64.6793 30.101 64.1227 30.0467 63.634 29.9381C63.1725 29.8567 62.7788 29.6938 62.453 29.4494C62.1272 29.2051 61.8828 28.8657 61.7199 28.4313C61.557 27.9969 61.4756 27.4267 61.4756 26.7208V7.53925C61.4756 6.9691 61.6249 6.5347 61.9236 6.23604C62.2494 5.91024 62.6838 5.65232 63.2268 5.46227C64.1499 5.13646 65.1952 4.90569 66.3626 4.76994C67.5572 4.60704 68.7518 4.52559 69.9464 4.52559C73.6932 4.52559 76.5575 5.32651 78.5395 6.92837C80.5214 8.53023 81.5124 10.7022 81.5124 13.4444C81.5124 14.7748 81.2952 15.9829 80.8608 17.069C80.4535 18.1278 79.8291 19.0509 78.9874 19.8383C78.1729 20.5985 77.1276 21.1958 75.8516 21.6302C74.6027 22.0374 73.1502 22.2411 71.494 22.2411H68.6025V29.7345Z" fill="#FFFCFA"/>
<path d="M94.4796 30.549C92.8777 30.549 91.3844 30.3318 89.9998 29.8974C88.6423 29.4358 87.4477 28.7571 86.416 27.8611C85.4114 26.9652 84.6105 25.8385 84.0132 24.4809C83.443 23.1234 83.1579 21.5352 83.1579 19.7161C83.1579 17.9242 83.443 16.3902 84.0132 15.1141C84.6105 13.8109 85.3843 12.7521 86.3345 11.9376C87.2848 11.0959 88.3708 10.485 89.5925 10.1049C90.8143 9.69769 92.0632 9.49406 93.3393 9.49406C94.7782 9.49406 96.0814 9.71126 97.2489 10.1457C98.4435 10.5801 99.4616 11.1774 100.303 11.9376C101.172 12.6978 101.837 13.6073 102.299 14.6662C102.788 15.725 103.032 16.8789 103.032 18.1278C103.032 19.0509 102.774 19.7568 102.258 20.2455C101.742 20.7342 101.023 21.0464 100.1 21.1822L90.0405 22.689C90.3392 23.585 90.95 24.2637 91.8731 24.7253C92.7962 25.1597 93.8551 25.3769 95.0497 25.3769C96.1629 25.3769 97.2081 25.2411 98.1856 24.9696C99.1901 24.671 100.005 24.3316 100.629 23.9515C101.063 24.223 101.43 24.6031 101.729 25.0918C102.027 25.5805 102.177 26.0964 102.177 26.6394C102.177 27.8611 101.606 28.7707 100.466 29.368C99.5974 29.8295 98.62 30.1418 97.534 30.3047C96.4479 30.4676 95.4298 30.549 94.4796 30.549ZM93.3393 14.544C92.6876 14.544 92.1175 14.6526 91.6288 14.8698C91.1672 15.087 90.7871 15.3721 90.4885 15.725C90.1898 16.0508 89.9591 16.4309 89.7962 16.8653C89.6604 17.2726 89.579 17.6934 89.5518 18.1278L96.5158 16.9875C96.4344 16.4445 96.1357 15.9015 95.6199 15.3585C95.104 14.8155 94.3438 14.544 93.3393 14.544Z" fill="#FFFCFA"/>
<path d="M114.835 25.4991C115.297 25.4991 115.799 25.4583 116.342 25.3769C116.912 25.2683 117.333 25.1325 117.604 24.9696V21.7116L114.672 21.956C113.912 22.0103 113.288 22.1732 112.799 22.4447C112.31 22.7162 112.066 23.1234 112.066 23.6664C112.066 24.2094 112.269 24.6574 112.677 25.0104C113.111 25.3362 113.831 25.4991 114.835 25.4991ZM114.509 9.49406C115.975 9.49406 117.306 9.64339 118.5 9.94204C119.722 10.2407 120.754 10.7022 121.596 11.3267C122.464 11.924 123.13 12.6978 123.591 13.648C124.053 14.5711 124.283 15.6707 124.283 16.9468V26.0692C124.283 26.7751 124.08 27.3589 123.673 27.8204C123.292 28.2548 122.831 28.6349 122.288 28.9607C120.523 30.0196 118.039 30.549 114.835 30.549C113.396 30.549 112.093 30.4133 110.926 30.1418C109.785 29.8702 108.794 29.463 107.953 28.92C107.138 28.377 106.5 27.6847 106.039 26.843C105.604 26.0014 105.387 25.0239 105.387 23.9108C105.387 22.0374 105.944 20.5985 107.057 19.5939C108.17 18.5894 109.894 17.9649 112.229 17.7206L117.564 17.1504V16.8653C117.564 16.078 117.211 15.5214 116.505 15.1956C115.826 14.8426 114.835 14.6662 113.532 14.6662C112.5 14.6662 111.496 14.7748 110.518 14.992C109.541 15.2092 108.659 15.4807 107.871 15.8065C107.518 15.5621 107.22 15.1956 106.975 14.7069C106.731 14.191 106.609 13.6616 106.609 13.1186C106.609 12.4127 106.772 11.8561 107.097 11.4489C107.45 11.0145 107.98 10.6479 108.686 10.3493C109.473 10.0506 110.396 9.83344 111.455 9.69769C112.541 9.56194 113.559 9.49406 114.509 9.49406Z" fill="#FFFCFA"/>
<path d="M139.675 14.9512C138.997 14.9512 138.345 15.0598 137.721 15.277C137.123 15.4942 136.594 15.82 136.132 16.2544C135.698 16.6617 135.345 17.1776 135.073 17.802C134.802 18.4265 134.666 19.1595 134.666 20.0012C134.666 21.6845 135.141 22.947 136.092 23.7886C137.069 24.6303 138.25 25.0511 139.635 25.0511C140.449 25.0511 141.155 24.9561 141.752 24.766C142.35 24.576 142.879 24.3723 143.341 24.1551C143.884 24.5352 144.291 24.9561 144.562 25.4176C144.834 25.852 144.97 26.3815 144.97 27.0059C144.97 28.1191 144.44 28.9879 143.381 29.6123C142.322 30.2096 140.856 30.5083 138.983 30.5083C137.273 30.5083 135.725 30.2639 134.34 29.7752C132.956 29.2594 131.761 28.5535 130.757 27.6575C129.779 26.7344 129.019 25.6348 128.476 24.3588C127.933 23.0827 127.661 21.6709 127.661 20.1233C127.661 18.3314 127.946 16.7703 128.517 15.4399C129.114 14.0824 129.915 12.9693 130.919 12.1005C131.924 11.2317 133.078 10.5801 134.381 10.1457C135.711 9.71126 137.11 9.49406 138.576 9.49406C140.531 9.49406 142.037 9.84701 143.096 10.5529C144.155 11.2588 144.685 12.1684 144.685 13.2815C144.685 13.7974 144.562 14.2861 144.318 14.7476C144.074 15.182 143.789 15.5621 143.463 15.8879C143.001 15.6707 142.445 15.4671 141.793 15.277C141.141 15.0598 140.436 14.9512 139.675 14.9512Z" fill="#FFFCFA"/>
<path d="M167.99 29.8567C167.718 29.9381 167.284 30.0196 166.687 30.101C166.117 30.1825 165.519 30.2232 164.895 30.2232C164.297 30.2232 163.754 30.1825 163.266 30.101C162.804 30.0196 162.41 29.8567 162.085 29.6123C161.759 29.368 161.501 29.0422 161.311 28.6349C161.148 28.2005 161.067 27.6439 161.067 26.9652V17.9242C161.067 16.811 160.781 16.0372 160.211 15.6028C159.668 15.1413 158.99 14.9105 158.175 14.9105C157.632 14.9105 157.116 14.9784 156.628 15.1141C156.139 15.2499 155.745 15.4128 155.446 15.6028V29.8567C155.175 29.9381 154.741 30.0196 154.143 30.101C153.573 30.1825 152.976 30.2232 152.351 30.2232C151.754 30.2232 151.211 30.1825 150.722 30.101C150.261 30.0196 149.867 29.8567 149.541 29.6123C149.216 29.368 148.958 29.0422 148.768 28.6349C148.605 28.2005 148.523 27.6439 148.523 26.9652V3.34455C148.822 3.29025 149.256 3.22238 149.826 3.14093C150.424 3.03233 151.021 2.97803 151.618 2.97803C152.216 2.97803 152.745 3.01875 153.207 3.1002C153.695 3.18165 154.103 3.34455 154.428 3.58891C154.754 3.83326 154.999 4.17263 155.161 4.60703C155.351 5.01429 155.446 5.55729 155.446 6.23604V10.2271C155.799 10.0914 156.329 9.94204 157.035 9.77914C157.768 9.58909 158.569 9.49406 159.438 9.49406C162.125 9.49406 164.216 10.1728 165.709 11.5303C167.23 12.8607 167.99 14.8562 167.99 17.5169V29.8567Z" fill="#FFFCFA"/>
</g>
<path fill-rule="evenodd" clip-rule="evenodd" d="M66.3811 49.3381C69.8488 50.2254 73.3606 48.0599 74.2251 44.5017C75.0895 40.9433 72.9796 37.3388 69.512 36.4517C66.0453 35.5646 62.5335 37.7303 61.6694 41.2889C60.8046 44.8469 62.9148 48.451 66.3811 49.3381ZM69.3775 40.2728C70.2741 40.5897 70.9298 41.0648 70.801 41.9486C70.7078 42.5956 70.3583 42.9088 69.8943 43.0186C70.5314 43.359 70.8556 43.881 70.5468 44.786C70.1635 45.9099 69.2529 46.0048 68.042 45.7696L67.7481 46.9782L67.038 46.7966L67.328 45.6042C67.144 45.5573 66.9559 45.5075 66.7621 45.4535L66.471 46.6515L65.7617 46.4699L66.0556 45.259C65.9893 45.2416 65.9226 45.2237 65.8554 45.2058C65.7545 45.1788 65.6526 45.1515 65.5494 45.1249L64.6252 44.8885L64.9778 44.0543C64.9778 44.0543 65.501 44.1971 65.4939 44.1865C65.695 44.2376 65.7842 44.1031 65.8194 44.0134L66.2838 42.1029C66.3012 42.1071 66.3182 42.1115 66.3346 42.1158C66.3428 42.1179 66.3509 42.1199 66.3588 42.1219C66.3305 42.1103 66.3048 42.1029 66.285 42.0977L66.6163 40.7338C66.625 40.5789 66.573 40.3836 66.2854 40.3099C66.2965 40.3023 65.7696 40.1784 65.7696 40.1784L65.9585 39.4L66.9379 39.6509L66.937 39.6547C67.0843 39.6923 67.236 39.7279 67.3905 39.7641L67.6816 38.5673L68.3913 38.7489L68.1061 39.9222C68.2966 39.9669 68.4884 40.0119 68.6751 40.0596L68.9582 38.894L69.6683 39.0756L69.3775 40.2728ZM67.1313 44.6134C67.7108 44.7705 68.9771 45.1137 69.1785 44.2835C69.3848 43.4346 68.1566 43.1517 67.5573 43.0137C67.4903 42.9983 67.4312 42.9847 67.3828 42.9723L66.9929 44.5766C67.0326 44.5867 67.0792 44.5993 67.1313 44.6134ZM67.6777 42.2693C68.1608 42.4016 69.2146 42.6902 69.3981 41.9356C69.5856 41.1637 68.5614 40.931 68.0612 40.8174C68.0049 40.8046 67.9553 40.7933 67.9148 40.783L67.5612 42.238C67.5946 42.2465 67.6338 42.2572 67.6777 42.2693Z" fill="#FFFCFA"/>
<path d="M80.4428 40.2716C80.9677 40.2716 81.4211 40.3681 81.8022 40.5576C82.1851 40.749 82.501 41.0068 82.7544 41.331C83.0044 41.6568 83.1905 42.0377 83.3106 42.4742C83.43 42.912 83.4898 43.3825 83.4898 43.8863C83.4898 44.66 83.3517 45.3911 83.0728 46.0802C82.7939 46.7703 82.4154 47.3689 81.934 47.8795C81.4531 48.3895 80.8851 48.7915 80.2302 49.0885C79.5763 49.3858 78.8654 49.5344 78.1021 49.5344C78.0034 49.5344 77.8298 49.5315 77.5847 49.5263C77.3395 49.5211 77.0578 49.4951 76.7423 49.4514C76.4247 49.4059 76.089 49.3387 75.7344 49.2486C75.3801 49.1601 75.0435 49.0362 74.7266 48.8789L77.5606 36.6586L80.099 36.2549L79.0842 40.5914C79.3014 40.491 79.5203 40.4131 79.7387 40.3565C79.9574 40.3006 80.192 40.2716 80.4428 40.2716ZM78.3136 47.4679C78.6959 47.4679 79.0561 47.3714 79.3945 47.1819C79.7339 46.9922 80.0268 46.7361 80.2721 46.417C80.5174 46.0966 80.7116 45.7356 80.8532 45.3323C80.9948 44.929 81.0664 44.5083 81.0664 44.0706C81.0664 43.5328 80.9788 43.1133 80.8042 42.8101C80.6297 42.5081 80.3067 42.3561 79.8376 42.3561C79.6839 42.3561 79.4859 42.3862 79.2404 42.44C78.994 42.497 78.7736 42.6156 78.5759 42.7939L77.4955 47.3992C77.5606 47.411 77.6183 47.4222 77.6674 47.4328C77.7155 47.4443 77.7687 47.4523 77.8217 47.458C77.8777 47.4644 77.9419 47.4677 78.0193 47.4677C78.0968 47.4677 78.1937 47.4679 78.3136 47.4679Z" fill="#FFFCFA"/>
<path d="M86.1222 49.3007H83.6978L85.7452 40.4593H88.1863L86.1222 49.3007ZM87.302 39.3821C86.9636 39.3821 86.6568 39.2787 86.3846 39.0715C86.1101 38.8656 85.9742 38.5487 85.9742 38.1215C85.9742 37.8866 86.0207 37.6661 86.1129 37.4582C86.2066 37.2506 86.3289 37.0719 86.4822 36.92C86.6354 36.7693 86.8127 36.6489 87.0142 36.5582C87.2169 36.4689 87.4325 36.4243 87.6622 36.4243C88.0004 36.4243 88.3056 36.5277 88.5789 36.7348C88.8511 36.943 88.988 37.26 88.988 37.6848C88.988 37.9206 88.9417 38.1419 88.8487 38.3494C88.7562 38.557 88.6339 38.7357 88.4806 38.8876C88.3287 39.0385 88.1497 39.1585 87.9486 39.2484C87.7458 39.3391 87.531 39.3821 87.302 39.3821Z" fill="#FFFCFA"/>
<path d="M90.311 38.2562L92.8504 37.8525L92.2268 40.4587H94.9464L94.4553 42.5089H91.7521L91.0321 45.6016C90.9657 45.8594 90.9281 46.1002 90.9176 46.3239C90.9057 46.5487 90.9334 46.7417 90.9989 46.9042C91.064 47.0672 91.1811 47.1928 91.351 47.2816C91.5201 47.3719 91.7622 47.4173 92.0798 47.4173C92.3413 47.4173 92.5961 47.3918 92.8425 47.3412C93.0874 47.2913 93.3356 47.222 93.5868 47.1313L93.7676 49.0483C93.44 49.1716 93.0852 49.2777 92.7029 49.3669C92.32 49.4574 91.8668 49.501 91.3429 49.501C90.5897 49.501 90.0058 49.3863 89.5898 49.1577C89.1743 48.9275 88.8806 48.6131 88.7049 48.215C88.5315 47.8183 88.4541 47.3611 88.4757 46.8459C88.4982 46.3295 88.574 45.7867 88.7049 45.2151L90.311 38.2562Z" fill="#FFFCFA"/>
<path d="M94.8394 45.77C94.8394 45.0084 94.9595 44.2903 95.1996 43.618C95.4393 42.9451 95.7845 42.3566 96.2325 41.8517C96.6789 41.3491 97.2228 40.951 97.8629 40.6588C98.5 40.3682 99.2134 40.2217 99.9996 40.2217C100.492 40.2217 100.931 40.2694 101.318 40.3651C101.706 40.4616 102.058 40.5864 102.375 40.7429L101.539 42.6939C101.321 42.603 101.094 42.5229 100.86 42.4503C100.625 42.3762 100.339 42.3405 99.9998 42.3405C99.1905 42.3405 98.5508 42.6267 98.0747 43.1973C97.6004 43.7683 97.3615 44.5369 97.3615 45.501C97.3615 46.0724 97.4817 46.5344 97.7228 46.8879C97.9626 47.2414 98.4058 47.4172 99.0492 47.4172C99.3667 47.4172 99.6731 47.3831 99.9666 47.3167C100.262 47.2495 100.523 47.1648 100.753 47.0647L100.934 49.0648C100.628 49.1868 100.29 49.297 99.9187 49.3936C99.5469 49.4868 99.1044 49.5351 98.5913 49.5351C97.9139 49.5351 97.3405 49.4334 96.8714 49.2331C96.4022 49.0297 96.0145 48.7597 95.7091 48.4176C95.402 48.0747 95.1816 47.6743 95.0453 47.2148C94.9089 46.7557 94.8394 46.2733 94.8394 45.77Z" fill="#FFFCFA"/>
<path d="M105.61 49.5351C105.031 49.5351 104.529 49.4446 104.102 49.2655C103.677 49.0864 103.325 48.835 103.047 48.5091C102.768 48.1849 102.559 47.8007 102.416 47.358C102.273 46.9155 102.204 46.4254 102.204 45.8885C102.204 45.215 102.309 44.5416 102.522 43.8702C102.734 43.1973 103.049 42.5926 103.465 42.0553C103.878 41.5171 104.388 41.077 104.988 40.7339C105.587 40.3931 106.276 40.2217 107.05 40.2217C107.619 40.2217 108.119 40.3124 108.551 40.4915C108.981 40.6702 109.335 40.9236 109.615 41.2479C109.893 41.5737 110.103 41.9563 110.245 42.3996C110.387 42.8413 110.458 43.3326 110.458 43.87C110.458 44.5414 110.354 45.2147 110.147 45.8883C109.941 46.5585 109.634 47.1646 109.23 47.7032C108.826 48.2406 108.321 48.6804 107.715 49.022C107.109 49.3637 106.407 49.5351 105.61 49.5351ZM106.822 42.3407C106.462 42.3407 106.145 42.4478 105.872 42.6593C105.599 42.8733 105.37 43.1423 105.185 43.4667C104.998 43.7925 104.86 44.1479 104.766 44.5342C104.673 44.9213 104.628 45.2872 104.628 45.6349C104.628 46.1959 104.716 46.6328 104.889 46.9473C105.065 47.2601 105.381 47.4174 105.84 47.4174C106.2 47.4174 106.516 47.3111 106.79 47.0973C107.062 46.885 107.291 46.6158 107.477 46.2907C107.663 45.9665 107.803 45.6102 107.896 45.2233C107.988 44.8374 108.035 44.4694 108.035 44.1224C108.035 43.5628 107.947 43.1248 107.772 42.8108C107.597 42.498 107.28 42.3407 106.822 42.3407Z" fill="#FFFCFA"/>
<path d="M113.099 49.3007H110.673L112.72 40.4593H115.163L113.099 49.3007ZM114.277 39.3821C113.939 39.3821 113.633 39.2787 113.361 39.0715C113.088 38.8656 112.95 38.5487 112.95 38.1215C112.95 37.8866 112.998 37.6661 113.09 37.4582C113.182 37.2506 113.306 37.0719 113.459 36.92C113.611 36.7693 113.79 36.6489 113.991 36.5582C114.193 36.4689 114.408 36.4243 114.637 36.4243C114.976 36.4243 115.283 36.5277 115.555 36.7348C115.828 36.943 115.966 37.26 115.966 37.6848C115.966 37.9206 115.917 38.1419 115.825 38.3494C115.734 38.557 115.61 38.7357 115.458 38.8876C115.304 39.0385 115.127 39.1585 114.926 39.2484C114.723 39.3391 114.507 39.3821 114.277 39.3821Z" fill="#FFFCFA"/>
<path d="M116.91 40.8612C117.094 40.806 117.299 40.7396 117.523 40.6674C117.747 40.5952 117.998 40.5279 118.278 40.4673C118.555 40.4048 118.867 40.3542 119.211 40.3149C119.554 40.2749 119.946 40.2554 120.381 40.2554C121.66 40.2554 122.541 40.6375 123.028 41.3994C123.514 42.1614 123.598 43.2042 123.283 44.5259L122.167 49.2998H119.727L120.808 44.6264C120.874 44.3346 120.926 44.0525 120.964 43.7768C121.002 43.5037 121 43.2629 120.955 43.0545C120.912 42.8486 120.81 42.6801 120.653 42.5495C120.493 42.4211 120.251 42.3565 119.923 42.3565C119.607 42.3565 119.286 42.3914 118.957 42.4586L117.368 49.2996H114.927L116.91 40.8612Z" fill="#FFFCFA"/>
<defs>
<filter id="filter0_d_1130_45256" x="59.3367" y="0.839163" width="112.218" height="33.2744" filterUnits="userSpaceOnUse" color-interpolation-filters="sRGB">
<feFlood flood-opacity="0" result="BackgroundImageFix"/>
<feColorMatrix in="SourceAlpha" type="matrix" values="0 0 0 0 0 0 0 0 0 0 0 0 0 0 0 0 0 0 127 0" result="hardAlpha"/>
<feOffset dx="0.712955" dy="0.712955"/>
<feGaussianBlur stdDeviation="1.42591"/>
<feComposite in2="hardAlpha" operator="out"/>
<feColorMatrix type="matrix" values="0 0 0 0 0.141667 0 0 0 0 0.0543055 0 0 0 0 0.0324653 0 0 0 0.04 0"/>
<feBlend mode="normal" in2="BackgroundImageFix" result="effect1_dropShadow_1130_45256"/>
<feBlend mode="normal" in="SourceGraphic" in2="effect1_dropShadow_1130_45256" result="shape"/>
</filter>
<radialGradient id="paint0_diamond_1130_45256" cx="0" cy="0" r="1" gradientUnits="userSpaceOnUse" gradientTransform="translate(40.3594 7.78808) rotate(126.601) scale(47.8031 52.1635)">
<stop stop-color="#FFA24C"/>
<stop offset="0.50246" stop-color="#FF7A50"/>
<stop offset="1" stop-color="#FF4D42"/>
</radialGradient>
</defs>
</svg>
