<svg width="1126.942" height="335.655" fill="none" xmlns="http://www.w3.org/2000/svg"><g clip-path="url(#a)" transform="translate(-112.457 -78.82)"><rect x="112.457" y="107.276" width="297.448" height="297.448" rx="52.184" fill="#fff9f6"/><rect x="112.457" y="107.276" width="297.448" height="297.448" rx="52.184" fill="#fff" fill-opacity=".01"/><path d="M239.202 141.318c9.716-1.042 18.346 4.658 21.04 13.941.474 1.636.713 3.388.767 5.097.116 3.658.042 7.322.042 10.983 0 .337-.288.604-.625.616-2.675.098-5.291-.017-7.847-.861-8.014-2.64-13.339-9.983-13.422-18.575-.036-3.485-.009-6.973-.006-10.458M285.745 157.63c-.001 0-.002.001-.002.003.858 7.608-4.576 14.098-11.912 14.316-4.147.124-7.956-3.423-6.21-7.187.83-1.791 2.109-3.377 3.89-4.738 2.006-1.534 4.294-2.343 6.808-2.385 2.461-.04 4.924-.009 7.426-.009z" fill="#05a85a"/><path fill-rule="evenodd" clip-rule="evenodd" d="M347.284 237.2c0 43.263-37.966 84.276-84.799 84.276-16.986 0-32.806-5.395-46.071-14.337v43.049c0 10.694-8.67 19.363-19.364 19.363s-19.363-8.669-19.363-19.363V238.681h.015c-.01-.493-.015-.987-.015-1.481 0-37.43 28.419-62.663 66.412-59.715 12.188.946 24.584.946 36.773 0 37.993-2.948 66.412 22.285 66.412 59.715zm-130.87 6.997v-.225c.059-20.995 16.825-34.791 38.667-31.52 4.457.667 9.016.667 13.473 0 21.881-3.277 38.667 10.574 38.667 31.632 0 23.174-20.328 45.143-45.404 45.143-25.035 0-45.338-21.898-45.403-45.03z" fill="url(#b)" style="fill:url(#b)"/></g><g filter="url(#c)" transform="translate(-112.457 -78.82)"><path d="M549.752 187.038c7.799 0 13.741-1.764 17.826-5.293 4.271-3.713 6.406-9.284 6.406-16.712 0-7.056-2.228-12.441-6.685-16.155-4.271-3.899-10.584-5.849-18.94-5.849-2.971 0-5.478.093-7.521.278-1.856 0-3.806.186-5.849.558v43.173zm-14.484 89.41c-2.043.557-5.292 1.114-9.749 1.671a98.98 98.98 0 0 1-12.813.836c-4.271 0-8.077-.372-11.42-1.114-3.156-.558-5.849-1.672-8.077-3.343-2.229-1.671-3.9-3.992-5.014-6.963-1.114-2.971-1.671-6.871-1.671-11.699v-131.19c0-3.9 1.021-6.871 3.064-8.914 2.228-2.228 5.199-3.992 8.913-5.292 6.313-2.228 13.462-3.807 21.447-4.735a181.243 181.243 0 0 1 24.511-1.671c25.626 0 45.216 5.478 58.772 16.433 13.555 10.956 20.333 25.812 20.333 44.566 0 9.099-1.486 17.362-4.457 24.79-2.785 7.242-7.056 13.555-12.813 18.941-5.57 5.199-12.719 9.284-21.447 12.255-8.542 2.785-18.476 4.178-29.803 4.178h-19.776zm176.983 5.571c-10.955 0-21.168-1.486-30.639-4.457-9.284-3.157-17.454-7.799-24.511-13.927-6.87-6.128-12.348-13.834-16.433-23.118-3.9-9.285-5.85-20.148-5.85-32.589 0-12.256 1.95-22.747 5.85-31.475 4.085-8.913 9.377-16.155 15.876-21.726 6.499-5.756 13.927-9.934 22.283-12.534 8.356-2.785 16.898-4.178 25.625-4.178 9.842 0 18.755 1.486 26.74 4.457 8.17 2.971 15.134 7.056 20.89 12.255 5.942 5.2 10.492 11.42 13.648 18.662 3.343 7.242 5.014 15.134 5.014 23.676 0 6.313-1.764 11.141-5.292 14.484-3.528 3.342-8.449 5.478-14.762 6.406l-68.799 10.306c2.043 6.128 6.221 10.77 12.534 13.927 6.314 2.971 13.556 4.456 21.726 4.456 7.613 0 14.762-.928 21.447-2.785 6.871-2.042 12.442-4.364 16.712-6.963 2.972 1.857 5.478 4.456 7.521 7.799 2.043 3.342 3.064 6.87 3.064 10.584 0 8.356-3.9 14.577-11.699 18.662-5.942 3.157-12.627 5.292-20.054 6.406-7.428 1.115-14.391 1.672-20.891 1.672zm-7.799-109.465c-4.456 0-8.356.743-11.698 2.228-3.157 1.486-5.756 3.435-7.799 5.849-2.043 2.229-3.621 4.828-4.735 7.799a33.823 33.823 0 0 0-1.671 8.635l47.629-7.799c-.557-3.714-2.599-7.428-6.127-11.142-3.529-3.713-8.728-5.57-15.599-5.57zm147.02 74.926c3.157 0 6.592-.278 10.306-.836 3.899-.742 6.777-1.671 8.634-2.785v-22.283l-20.054 1.671c-5.2.372-9.471 1.486-12.813 3.343-3.342 1.857-5.014 4.642-5.014 8.356 0 3.714 1.393 6.778 4.178 9.192 2.971 2.228 7.892 3.342 14.763 3.342zm-2.228-109.465c10.027 0 19.126 1.022 27.296 3.064 8.356 2.043 15.412 5.199 21.169 9.47 5.942 4.086 10.491 9.378 13.648 15.877 3.157 6.313 4.735 13.834 4.735 22.561v62.393c0 4.828-1.392 8.82-4.178 11.977-2.599 2.971-5.756 5.57-9.47 7.799-12.07 7.242-29.061 10.863-50.972 10.863-9.842 0-18.755-.929-26.74-2.786-7.799-1.857-14.576-4.642-20.333-8.356-5.571-3.714-9.934-8.449-13.091-14.205-2.971-5.757-4.457-12.442-4.457-20.055 0-12.813 3.807-22.654 11.42-29.525 7.614-6.87 19.405-11.141 35.375-12.812l36.488-3.9v-1.95c0-5.385-2.414-9.191-7.242-11.42-4.642-2.414-11.42-3.621-20.333-3.621-7.057 0-13.927.743-20.612 2.229-6.685 1.485-12.72 3.342-18.105 5.57-2.414-1.671-4.456-4.178-6.128-7.52-1.671-3.528-2.507-7.149-2.507-10.863 0-4.828 1.115-8.635 3.343-11.42 2.414-2.971 6.035-5.478 10.863-7.52 5.385-2.043 11.698-3.529 18.94-4.457 7.428-.929 14.391-1.393 20.891-1.393zm172.116 37.324c-4.64 0-9.09.743-13.37 2.228a31.346 31.346 0 0 0-10.859 6.685c-2.971 2.786-5.385 6.314-7.242 10.585-1.857 4.271-2.785 9.284-2.785 15.041 0 11.512 3.249 20.147 9.749 25.904 6.687 5.756 14.767 8.634 24.237 8.634 5.57 0 10.39-.65 14.48-1.95 4.08-1.299 7.71-2.692 10.86-4.178 3.72 2.6 6.5 5.478 8.36 8.635 1.86 2.971 2.78 6.592 2.78 10.863 0 7.613-3.62 13.555-10.86 17.826-7.24 4.085-17.27 6.128-30.08 6.128-11.7 0-22.284-1.671-31.754-5.014-9.471-3.528-17.641-8.356-24.512-14.483-6.685-6.314-11.884-13.834-15.598-22.562-3.713-8.727-5.57-18.383-5.57-28.968 0-12.255 1.949-22.933 5.849-32.031 4.085-9.285 9.563-16.898 16.434-22.84 6.87-5.943 14.762-10.399 23.675-13.37 9.099-2.971 18.666-4.457 28.686-4.457 13.37 0 23.68 2.414 30.92 7.242 7.24 4.828 10.86 11.049 10.86 18.662 0 3.528-.83 6.871-2.5 10.027-1.67 2.972-3.62 5.571-5.85 7.799-3.16-1.485-6.97-2.878-11.42-4.178-4.46-1.485-9.29-2.228-14.49-2.228zm193.66 101.944c-1.86.558-4.83 1.115-8.91 1.672-3.9.557-7.99.835-12.26.835-4.09 0-7.8-.278-11.14-.835-3.16-.557-5.85-1.672-8.08-3.343-2.23-1.671-3.99-3.899-5.29-6.685-1.12-2.971-1.67-6.777-1.67-11.42v-61.835c0-7.613-1.95-12.905-5.85-15.876-3.72-3.157-8.36-4.735-13.93-4.735-3.71 0-7.24.464-10.58 1.392-3.35.929-6.04 2.043-8.08 3.343v97.487c-1.86.558-4.83 1.115-8.91 1.672-3.9.557-7.99.835-12.26.835-4.08 0-7.8-.278-11.14-.835-3.16-.557-5.85-1.672-8.08-3.343-2.23-1.671-3.99-3.899-5.29-6.685-1.11-2.971-1.67-6.777-1.67-11.42V95.957c2.04-.372 5.01-.836 8.91-1.393a68.426 68.426 0 0 1 12.26-1.115c4.08 0 7.7.279 10.86.836 3.34.557 6.13 1.671 8.36 3.342 2.22 1.672 3.9 3.993 5.01 6.964 1.3 2.785 1.95 6.499 1.95 11.141v27.297c2.41-.929 6.03-1.95 10.86-3.064 5.02-1.3 10.49-1.95 16.44-1.95 18.38 0 32.68 4.643 42.89 13.927 10.4 9.099 15.6 22.747 15.6 40.945z" fill="#fffcfa"/></g><g clip-path="url(#d)" transform="translate(-112.457 -78.82)"><path d="M556.168 379.821c-5.949 24.489-30.12 39.393-53.987 33.286-23.857-6.105-38.38-30.911-32.428-55.399 5.947-24.492 30.117-39.398 53.977-33.292 23.866 6.105 38.388 30.914 32.438 55.405z" fill="#fffcfa"/><path d="M532.601 362.249c.887-6.083-3.626-9.353-9.797-11.535l2.002-8.239-4.888-1.25-1.949 8.022a202.238 202.238 0 0 0-3.916-.945l1.963-8.076-4.885-1.25-2.003 8.237a154.857 154.857 0 0 1-3.121-.753l.006-.025-6.741-1.728-1.3 5.357s3.627.853 3.55.906c1.98.507 2.337 1.852 2.277 2.917l-2.28 9.387c.137.036.313.087.508.167-.163-.041-.337-.087-.516-.131l-3.196 13.15c-.243.617-.856 1.543-2.24 1.191.049.073-3.553-.91-3.553-.91l-2.426 5.742 6.36 1.627c1.184.304 2.343.622 3.485.922l-2.023 8.335 4.882 1.25 2.003-8.246c1.334.371 2.628.714 3.895 1.037l-1.996 8.207 4.887 1.25 2.023-8.318c8.334 1.618 14.601.965 17.239-6.77 2.126-6.229-.105-9.821-4.49-12.164 3.193-.756 5.598-2.912 6.24-7.364zm-11.167 16.069c-1.51 6.229-11.729 2.862-15.043 2.017l2.684-11.041c3.313.849 13.938 2.529 12.359 9.024zm1.512-16.159c-1.378 5.665-9.884 2.787-12.643 2.081l2.433-10.014c2.76.706 11.645 2.023 10.21 7.933z" fill="url(#e)" style="fill:url(#e)"/><path d="M598.961 350.706c3.612 0 6.733.664 9.356 1.969 2.635 1.317 4.81 3.091 6.554 5.322 1.72 2.243 3.001 4.865 3.828 7.869.821 3.013 1.233 6.251 1.233 9.718 0 5.326-.95 10.357-2.87 15.1-1.92 4.75-4.524 8.87-7.837 12.384-3.311 3.51-7.219 6.277-11.727 8.321-4.501 2.046-9.394 3.069-14.647 3.069-.68 0-1.874-.02-3.561-.056-1.687-.035-3.626-.214-5.798-.516a66.287 66.287 0 0 1-6.937-1.395 34.237 34.237 0 0 1-6.936-2.544l19.505-84.108 17.471-2.778-6.984 29.846a26.739 26.739 0 0 1 4.504-1.617 19.543 19.543 0 0 1 4.846-.584zm-14.654 49.529c2.631 0 5.11-.664 7.439-1.968 2.336-1.306 4.352-3.069 6.04-5.264 1.689-2.206 3.025-4.69 4-7.466a26.045 26.045 0 0 0 1.467-8.684c0-3.702-.603-6.589-1.804-8.676-1.202-2.078-3.425-3.124-6.653-3.124-1.058 0-2.421.207-4.111.577-1.695.393-3.213 1.209-4.573 2.436l-7.436 31.696c.448.082.845.159 1.183.232.331.078.698.134 1.062.173.386.044.827.067 1.36.067l2.026.001zM638.05 412.848h-16.686l14.091-60.852h16.801zm8.12-68.266c-2.329 0-4.441-.711-6.314-2.137-1.889-1.417-2.825-3.598-2.825-6.538 0-1.618.32-3.135.955-4.566.645-1.429 1.487-2.659 2.542-3.704a12.47 12.47 0 0 1 3.661-2.49 10.923 10.923 0 0 1 4.46-.922c2.328 0 4.428.712 6.309 2.137 1.874 1.433 2.816 3.615 2.816 6.539 0 1.623-.319 3.146-.959 4.574a12.033 12.033 0 0 1-2.533 3.704 12.226 12.226 0 0 1-3.662 2.483c-1.396.624-2.874.92-4.45.92zM666.879 336.835l17.478-2.779-4.292 17.937h18.718l-3.38 14.111h-18.605l-4.956 21.286c-.457 1.774-.715 3.431-.788 4.971-.082 1.547.109 2.876.56 3.994.448 1.122 1.254 1.986 2.423 2.597 1.164.622 2.83.935 5.016.935 1.8 0 3.554-.176 5.249-.525a36.528 36.528 0 0 0 5.123-1.444l1.245 13.194c-2.255.849-4.697 1.579-7.328 2.193-2.635.623-5.755.923-9.36.923-5.184 0-9.203-.79-12.067-2.363-2.859-1.584-4.88-3.749-6.09-6.488-1.193-2.73-1.726-5.878-1.577-9.423.154-3.554.676-7.29 1.577-11.224zM698.048 388.548c0-5.241.827-10.184 2.479-14.811 1.65-4.631 4.026-8.681 7.109-12.157 3.073-3.458 6.816-6.198 11.222-8.21 4.385-2 9.295-3.008 14.705-3.008 3.387 0 6.412.328 9.074.987 2.673.664 5.091 1.523 7.278 2.6l-5.755 13.428a53.302 53.302 0 0 0-4.677-1.677c-1.615-.51-3.586-.756-5.918-.756-5.57 0-9.973 1.97-13.25 5.897-3.264 3.93-4.908 9.22-4.908 15.856 0 3.933.827 7.113 2.486 9.546 1.651 2.432 4.701 3.642 9.129 3.642 2.186 0 4.295-.234 6.315-.691 2.035-.463 3.832-1.046 5.415-1.734l1.246 13.765a59.264 59.264 0 0 1-6.991 2.263c-2.559.641-5.605.974-9.136.974-4.662 0-8.609-.7-11.837-2.078-3.23-1.4-5.898-3.259-8-5.613-2.113-2.36-3.631-5.116-4.569-8.278-.938-3.16-1.417-6.48-1.417-9.945zM772.175 414.462c-3.982 0-7.442-.623-10.376-1.855-2.926-1.233-5.35-2.963-7.267-5.206-1.919-2.231-3.356-4.876-4.34-7.923-.984-3.045-1.458-6.418-1.458-10.114 0-4.636.726-9.27 2.191-13.891 1.459-4.631 3.624-8.793 6.489-12.491 2.842-3.705 6.349-6.733 10.478-9.095 4.125-2.345 8.869-3.525 14.198-3.525 3.91 0 7.351.624 10.326 1.857 2.961 1.23 5.4 2.974 7.328 5.206 1.907 2.242 3.356 4.875 4.33 7.927.982 3.04 1.466 6.421 1.466 10.119 0 4.622-.715 9.256-2.135 13.892-1.422 4.612-3.53 8.784-6.315 12.491-2.778 3.698-6.253 6.726-10.426 9.077-4.168 2.351-9.001 3.531-14.489 3.531zm8.34-49.516c-2.474 0-4.661.737-6.533 2.193-1.879 1.473-3.458 3.324-4.73 5.557-1.286 2.243-2.24 4.688-2.884 7.347-.639 2.664-.953 5.183-.953 7.575 0 3.862.607 6.869 1.8 9.033 1.21 2.153 3.383 3.236 6.542 3.236 2.482 0 4.658-.732 6.541-2.203 1.868-1.461 3.448-3.314 4.73-5.551 1.278-2.232 2.24-4.685 2.885-7.347.63-2.656.952-5.189.952-7.577 0-3.852-.604-6.866-1.809-9.027-1.202-2.153-3.385-3.236-6.541-3.236zM823.723 412.848h-16.701l14.092-60.852h16.809zm8.107-68.266c-2.328 0-4.438-.711-6.309-2.137-1.879-1.417-2.823-3.598-2.823-6.538 0-1.618.324-3.135.96-4.566a12.052 12.052 0 0 1 2.54-3.704 12.44 12.44 0 0 1 3.663-2.49 10.852 10.852 0 0 1 4.447-.922c2.333 0 4.44.712 6.317 2.137 1.878 1.433 2.826 3.615 2.826 6.539a11.2 11.2 0 0 1-.968 4.574 11.988 11.988 0 0 1-2.529 3.704 12.348 12.348 0 0 1-3.661 2.483c-1.398.624-2.879.92-4.463.92zM849.949 354.763c1.267-.38 2.682-.837 4.22-1.334a54.776 54.776 0 0 1 5.195-1.377c1.906-.43 4.056-.778 6.422-1.048 2.365-.276 5.06-.41 8.054-.41 8.801 0 14.867 2.629 18.216 7.874 3.347 5.244 3.926 12.421 1.754 21.518l-7.675 32.857h-16.797l7.439-32.166c.454-2.008.81-3.95 1.074-5.847.265-1.88.25-3.537-.06-4.971-.297-1.417-.996-2.577-2.08-3.476-1.101-.884-2.765-1.328-5.021-1.328-2.176 0-4.389.24-6.649.703l-10.937 47.083H836.3Z" fill="#fffcfa"/></g><defs><radialGradient id="b" cx="0" cy="0" r="1" gradientUnits="userSpaceOnUse" gradientTransform="matrix(-169.59591 192.30113 -217.47699 -191.79922 347.284 177.252)"><stop stop-color="#FFA24C"/><stop offset=".502" stop-color="#FF7A50"/><stop offset="1" stop-color="#FF4D42"/></radialGradient><radialGradient id="e" cx="0" cy="0" r="1" gradientUnits="userSpaceOnUse" gradientTransform="matrix(-42.61698 57.88883 -63.0064 -46.38446 532.713 338.976)"><stop stop-color="#FFA24C"/><stop offset=".502" stop-color="#FF7A50"/><stop offset="1" stop-color="#FF4D42"/></radialGradient><clipPath id="a"><rect x="112.457" y="107.276" width="297.448" height="297.448" rx="52.184" fill="#fff"/></clipPath><clipPath id="d"><path fill="#fff" transform="translate(468.419 323.048)" d="M0 0h426.667v91.429H0z"/></clipPath><filter id="c" x="471.895" y="78.821" width="767.504" height="227.579" filterUnits="userSpaceOnUse" color-interpolation-filters="sRGB"><feFlood flood-opacity="0" result="BackgroundImageFix"/><feColorMatrix in="SourceAlpha" values="0 0 0 0 0 0 0 0 0 0 0 0 0 0 0 0 0 0 127 0" result="hardAlpha"/><feOffset dx="4.876" dy="4.876"/><feGaussianBlur stdDeviation="9.752"/><feComposite in2="hardAlpha" operator="out"/><feColorMatrix values="0 0 0 0 0.141667 0 0 0 0 0.0543055 0 0 0 0 0.0324653 0 0 0 0.04 0"/><feBlend in2="BackgroundImageFix" result="effect1_dropShadow_872_4414"/><feBlend in="SourceGraphic" in2="effect1_dropShadow_872_4414" result="shape"/></filter></defs></svg>
