<svg width="551" height="214" viewBox="0 0 551 214" fill="none" xmlns="http://www.w3.org/2000/svg">
<g clip-path="url(#clip0_869_4391)">
<rect x="40" y="40" width="134" height="134" rx="23.5088" fill="url(#paint0_diamond_869_4391)"/>
<rect x="40" y="40" width="134" height="134" rx="23.5088" fill="white" fill-opacity="0.01"/>
<path d="M97.0983 55.3359C101.476 54.8662 105.363 57.4343 106.577 61.6162C106.791 62.3534 106.898 63.1425 106.923 63.9125C106.975 65.5604 106.941 67.2111 106.941 68.8603C106.941 69.012 106.812 69.1322 106.66 69.1378C105.455 69.1821 104.276 69.13 103.125 68.7497C99.5143 67.5606 97.1158 64.2525 97.0781 60.3819C97.062 58.8119 97.0741 57.2405 97.0754 55.6704" fill="#FFF9F6"/>
<path d="M118.066 62.6842C118.066 62.6842 118.065 62.6848 118.065 62.6856C118.452 66.1132 116.004 69.0368 112.699 69.1351C110.831 69.191 109.115 67.593 109.901 65.8974C110.275 65.0907 110.851 64.376 111.654 63.7628C112.558 63.072 113.588 62.7074 114.721 62.6883C115.829 62.6706 116.939 62.6842 118.066 62.6842Z" fill="#FFF9F6"/>
<path fill-rule="evenodd" clip-rule="evenodd" d="M145.789 98.5307C145.789 118.02 128.686 136.497 107.588 136.497C99.9353 136.497 92.8084 134.066 86.8325 130.038V149.432C86.8325 154.249 82.9269 158.155 78.1092 158.155C73.2915 158.155 69.386 154.249 69.386 149.432V99.1977H69.3927C69.3882 98.9755 69.386 98.7532 69.386 98.5307C69.386 81.6684 82.1888 70.3011 99.3048 71.6292C104.796 72.0552 110.38 72.0552 115.871 71.6292C132.987 70.3011 145.789 81.6684 145.789 98.5307ZM127.741 101.632C127.741 112.072 118.584 121.969 107.287 121.969C95.9903 121.969 86.8325 112.072 86.8325 101.632C86.8325 92.1451 94.3947 85.9053 104.252 87.3814C106.26 87.6821 108.314 87.6821 110.322 87.3814C120.179 85.9053 127.741 92.1451 127.741 101.632Z" fill="#FFF9F6"/>
</g>
<g filter="url(#filter0_d_869_4391)">
<path d="M231.359 79.3709C234.558 79.3709 236.995 78.6473 238.671 77.2003C240.422 75.677 241.298 73.3921 241.298 70.3456C241.298 67.4515 240.384 65.2428 238.556 63.7195C236.805 62.1201 234.215 61.3204 230.788 61.3204C229.569 61.3204 228.541 61.3585 227.703 61.4347C226.942 61.4347 226.142 61.5108 225.304 61.6631V79.3709H231.359ZM225.418 116.043C224.581 116.272 223.248 116.5 221.42 116.728C219.668 116.957 217.916 117.071 216.165 117.071C214.413 117.071 212.852 116.919 211.481 116.614C210.186 116.386 209.082 115.929 208.168 115.243C207.254 114.558 206.568 113.606 206.111 112.387C205.654 111.169 205.426 109.569 205.426 107.589V53.7803C205.426 52.1809 205.845 50.9623 206.683 50.1245C207.596 49.2106 208.815 48.4871 210.338 47.9539C212.928 47.04 215.86 46.3926 219.135 46.0118C222.486 45.5548 225.837 45.3263 229.188 45.3263C239.699 45.3263 247.734 47.5731 253.294 52.0667C258.854 56.5603 261.634 62.6533 261.634 70.3456C261.634 74.0776 261.024 77.4668 259.806 80.5133C258.663 83.4836 256.912 86.0732 254.551 88.2819C252.266 90.4144 249.333 92.09 245.754 93.3086C242.25 94.451 238.176 95.0222 233.53 95.0222H225.418V116.043ZM298.009 118.328C293.516 118.328 289.327 117.719 285.443 116.5C281.635 115.205 278.283 113.301 275.389 110.788C272.571 108.274 270.324 105.114 268.649 101.306C267.049 97.4975 266.25 93.042 266.25 87.9391C266.25 82.9124 267.049 78.6093 268.649 75.0296C270.324 71.3738 272.495 68.4035 275.161 66.1186C277.826 63.7576 280.873 62.0439 284.3 60.9777C287.728 59.8352 291.231 59.264 294.811 59.264C298.847 59.264 302.503 59.8733 305.778 61.0919C309.129 62.3105 311.985 63.9861 314.346 66.1186C316.783 68.2512 318.649 70.8026 319.944 73.7729C321.315 76.7433 322.001 79.9802 322.001 83.4836C322.001 86.0732 321.277 88.0534 319.83 89.4243C318.383 90.7952 316.365 91.6711 313.775 92.0519L285.557 96.2789C286.395 98.7923 288.108 100.696 290.698 101.991C293.287 103.21 296.258 103.819 299.609 103.819C302.731 103.819 305.664 103.438 308.406 102.677C311.224 101.839 313.508 100.887 315.26 99.8205C316.479 100.582 317.507 101.648 318.345 103.019C319.183 104.39 319.601 105.837 319.601 107.361C319.601 110.788 318.002 113.339 314.803 115.015C312.366 116.31 309.624 117.185 306.578 117.642C303.531 118.099 300.675 118.328 298.009 118.328ZM294.811 73.4302C292.983 73.4302 291.383 73.7349 290.012 74.3442C288.718 74.9535 287.651 75.7532 286.814 76.7433C285.976 77.6572 285.328 78.7235 284.871 79.9421C284.491 81.0845 284.262 82.265 284.186 83.4836L303.722 80.2848C303.493 78.7616 302.655 77.2383 301.208 75.7151C299.761 74.1918 297.629 73.4302 294.811 73.4302ZM355.112 104.162C356.406 104.162 357.815 104.047 359.339 103.819C360.938 103.514 362.118 103.134 362.88 102.677V93.5371L354.655 94.2225C352.522 94.3749 350.77 94.8318 349.399 95.5934C348.028 96.3551 347.343 97.4975 347.343 99.0208C347.343 100.544 347.914 101.801 349.057 102.791C350.275 103.705 352.294 104.162 355.112 104.162ZM354.198 59.264C358.31 59.264 362.042 59.6829 365.393 60.5207C368.821 61.3585 371.715 62.6532 374.076 64.405C376.513 66.0806 378.379 68.2512 379.674 70.9169C380.969 73.5064 381.616 76.591 381.616 80.1706V105.761C381.616 107.741 381.045 109.379 379.902 110.674C378.836 111.892 377.541 112.958 376.018 113.872C371.068 116.843 364.099 118.328 355.112 118.328C351.075 118.328 347.419 117.947 344.144 117.185C340.945 116.424 338.165 115.281 335.804 113.758C333.52 112.235 331.73 110.293 330.435 107.932C329.216 105.571 328.607 102.829 328.607 99.7062C328.607 94.451 330.168 90.4144 333.291 87.5964C336.414 84.7784 341.25 83.0267 347.8 82.3412L362.766 80.7418V79.9421C362.766 77.7334 361.776 76.1721 359.796 75.2581C357.891 74.268 355.112 73.7729 351.456 73.7729C348.562 73.7729 345.744 74.0776 343.002 74.6869C340.26 75.2962 337.785 76.0578 335.576 76.9718C334.586 76.2863 333.748 75.2581 333.063 73.8872C332.377 72.4401 332.034 70.9549 332.034 69.4317C332.034 67.4515 332.491 65.8901 333.405 64.7477C334.395 63.5291 335.881 62.5009 337.861 61.6631C340.069 60.8254 342.659 60.2161 345.629 59.8352C348.676 59.4544 351.532 59.264 354.198 59.264ZM424.794 74.5727C422.89 74.5727 421.062 74.8773 419.31 75.4866C417.635 76.0959 416.149 77.0098 414.855 78.2284C413.636 79.3709 412.646 80.818 411.884 82.5697C411.123 84.3214 410.742 86.3778 410.742 88.7388C410.742 93.4609 412.075 97.0024 414.74 99.3635C417.482 101.725 420.795 102.905 424.68 102.905C426.964 102.905 428.945 102.638 430.62 102.105C432.296 101.572 433.781 101.001 435.076 100.392C436.599 101.458 437.741 102.638 438.503 103.933C439.265 105.152 439.645 106.637 439.645 108.389C439.645 111.511 438.16 113.949 435.19 115.7C432.22 117.376 428.107 118.214 422.852 118.214C418.053 118.214 413.712 117.528 409.828 116.157C405.944 114.71 402.592 112.73 399.774 110.217C397.033 107.627 394.9 104.543 393.377 100.963C391.854 97.3833 391.092 93.4228 391.092 89.0816C391.092 84.0549 391.892 79.6755 393.491 75.9436C395.167 72.1355 397.413 69.0128 400.231 66.5756C403.049 64.1384 406.286 62.3105 409.942 61.0919C413.674 59.8733 417.596 59.264 421.709 59.264C427.193 59.264 431.42 60.2541 434.39 62.2344C437.361 64.2146 438.846 66.766 438.846 69.8887C438.846 71.3358 438.503 72.7067 437.818 74.0014C437.132 75.22 436.332 76.2863 435.418 77.2003C434.124 76.591 432.562 76.0197 430.734 75.4866C428.907 74.8773 426.926 74.5727 424.794 74.5727ZM504.222 116.386C503.461 116.614 502.242 116.843 500.567 117.071C498.967 117.3 497.292 117.414 495.54 117.414C493.864 117.414 492.341 117.3 490.97 117.071C489.675 116.843 488.571 116.386 487.657 115.7C486.743 115.015 486.02 114.101 485.487 112.958C485.03 111.74 484.801 110.179 484.801 108.274V82.9124C484.801 79.7898 484.001 77.6191 482.402 76.4005C480.879 75.1058 478.975 74.4584 476.69 74.4584C475.167 74.4584 473.719 74.6488 472.349 75.0296C470.978 75.4104 469.873 75.8674 469.035 76.4005V116.386C468.274 116.614 467.055 116.843 465.38 117.071C463.78 117.3 462.105 117.414 460.353 117.414C458.677 117.414 457.154 117.3 455.783 117.071C454.488 116.843 453.384 116.386 452.47 115.7C451.556 115.015 450.833 114.101 450.3 112.958C449.843 111.74 449.614 110.179 449.614 108.274V42.0133C450.452 41.8609 451.67 41.6705 453.27 41.4421C454.945 41.1374 456.621 40.9851 458.297 40.9851C459.972 40.9851 461.457 41.0993 462.752 41.3278C464.123 41.5563 465.265 42.0133 466.179 42.6987C467.093 43.3842 467.779 44.3362 468.236 45.5548C468.769 46.6972 469.035 48.2205 469.035 50.1245V61.3204C470.026 60.9396 471.511 60.5207 473.491 60.0637C475.547 59.5306 477.794 59.264 480.231 59.264C487.771 59.264 493.636 61.1681 497.825 64.9762C502.09 68.7082 504.222 74.3061 504.222 81.77V116.386Z" fill="url(#paint1_diamond_869_4391)"/>
</g>
<g clip-path="url(#clip1_869_4391)">
<path d="M233.991 157.786C231.551 167.83 221.637 173.943 211.848 171.438C202.063 168.934 196.106 158.76 198.547 148.716C200.986 138.67 210.9 132.557 220.686 135.061C230.475 137.565 236.431 147.741 233.991 157.786Z" fill="#F7931A"/>
<path d="M224.325 150.578C224.688 148.083 222.837 146.742 220.306 145.848L221.127 142.468L219.123 141.955L218.323 145.246C217.796 145.111 217.255 144.984 216.717 144.858L217.522 141.546L215.519 141.033L214.697 144.411C214.261 144.309 213.833 144.209 213.417 144.103L213.419 144.092L210.655 143.384L210.121 145.581C210.121 145.581 211.609 145.931 211.577 145.952C212.389 146.16 212.536 146.712 212.511 147.149L211.576 150.999C211.632 151.014 211.705 151.035 211.785 151.068C211.718 151.051 211.646 151.032 211.573 151.014L210.262 156.407C210.162 156.66 209.911 157.04 209.343 156.896C209.363 156.926 207.886 156.523 207.886 156.523L206.891 158.877L209.5 159.545C209.985 159.67 210.461 159.8 210.929 159.923L210.099 163.342L212.101 163.854L212.923 160.472C213.47 160.625 214.001 160.765 214.521 160.898L213.702 164.264L215.707 164.777L216.536 161.365C219.954 162.029 222.525 161.761 223.607 158.588C224.479 156.033 223.564 154.56 221.765 153.599C223.075 153.289 224.061 152.405 224.325 150.578ZM219.744 157.169C219.125 159.724 214.933 158.343 213.575 157.997L214.675 153.468C216.034 153.816 220.392 154.505 219.744 157.169ZM220.364 150.541C219.799 152.865 216.311 151.685 215.179 151.395L216.177 147.288C217.309 147.577 220.953 148.117 220.364 150.541Z" fill="#FCFCFD"/>
<path d="M251.543 145.844C253.024 145.844 254.305 146.117 255.38 146.652C256.461 147.192 257.353 147.92 258.068 148.835C258.774 149.755 259.299 150.83 259.638 152.062C259.975 153.298 260.144 154.626 260.144 156.048C260.144 158.233 259.754 160.296 258.967 162.241C258.18 164.19 257.111 165.879 255.752 167.321C254.395 168.76 252.791 169.895 250.943 170.734C249.097 171.573 247.09 171.992 244.935 171.992C244.656 171.992 244.167 171.984 243.475 171.97C242.783 171.955 241.987 171.882 241.096 171.758C240.2 171.63 239.252 171.44 238.251 171.186C237.251 170.936 236.301 170.586 235.406 170.142L243.407 135.645L250.572 134.505L247.708 146.747C248.321 146.464 248.939 146.244 249.555 146.084C250.172 145.926 250.835 145.844 251.543 145.844ZM245.532 166.159C246.611 166.159 247.628 165.887 248.583 165.352C249.542 164.816 250.368 164.093 251.061 163.192C251.753 162.288 252.302 161.269 252.701 160.13C253.101 158.992 253.303 157.804 253.303 156.569C253.303 155.05 253.056 153.866 252.563 153.01C252.07 152.158 251.159 151.729 249.834 151.729C249.401 151.729 248.842 151.814 248.148 151.965C247.453 152.127 246.831 152.461 246.273 152.964L243.223 165.965C243.407 165.998 243.569 166.03 243.708 166.06C243.844 166.092 243.994 166.115 244.144 166.131C244.302 166.149 244.483 166.158 244.702 166.158C244.92 166.158 245.194 166.159 245.532 166.159Z" fill="#5B5B5B"/>
<path d="M267.575 171.332H260.731L266.511 146.373H273.402L267.575 171.332ZM270.906 143.332C269.951 143.332 269.084 143.041 268.316 142.456C267.541 141.875 267.157 140.98 267.157 139.774C267.157 139.111 267.289 138.489 267.549 137.901C267.813 137.315 268.159 136.811 268.592 136.382C269.024 135.957 269.525 135.617 270.093 135.361C270.665 135.109 271.274 134.983 271.923 134.983C272.877 134.983 273.739 135.275 274.51 135.859C275.279 136.447 275.665 137.342 275.665 138.541C275.665 139.207 275.535 139.831 275.272 140.417C275.011 141.003 274.666 141.508 274.233 141.937C273.804 142.363 273.299 142.701 272.731 142.955C272.158 143.211 271.552 143.332 270.906 143.332Z" fill="#5B5B5B"/>
<path d="M279.4 140.155L286.568 139.015L284.808 146.372H292.485L291.099 152.16H283.468L281.435 160.89C281.248 161.618 281.142 162.298 281.112 162.929C281.079 163.564 281.157 164.109 281.342 164.567C281.526 165.027 281.856 165.382 282.336 165.633C282.813 165.888 283.497 166.016 284.393 166.016C285.131 166.016 285.851 165.944 286.546 165.801C287.238 165.66 287.938 165.465 288.647 165.208L289.158 170.62C288.233 170.968 287.231 171.268 286.152 171.52C285.071 171.775 283.792 171.898 282.313 171.898C280.187 171.898 278.538 171.574 277.364 170.929C276.191 170.279 275.362 169.391 274.866 168.268C274.377 167.148 274.158 165.857 274.219 164.403C274.282 162.945 274.496 161.413 274.866 159.799L279.4 140.155Z" fill="#5B5B5B"/>
<path d="M292.184 161.366C292.184 159.216 292.523 157.188 293.201 155.291C293.877 153.391 294.852 151.73 296.117 150.304C297.377 148.886 298.912 147.762 300.719 146.937C302.518 146.117 304.531 145.703 306.751 145.703C308.14 145.703 309.381 145.838 310.472 146.108C311.569 146.38 312.56 146.733 313.457 147.174L311.097 152.682C310.48 152.425 309.84 152.199 309.179 151.994C308.516 151.785 307.708 151.684 306.751 151.684C304.467 151.684 302.661 152.492 301.317 154.103C299.978 155.715 299.304 157.885 299.304 160.606C299.304 162.219 299.643 163.524 300.323 164.521C301.001 165.519 302.252 166.015 304.068 166.015C304.964 166.015 305.829 165.919 306.658 165.732C307.492 165.542 308.23 165.303 308.879 165.021L309.39 170.667C308.524 171.011 307.57 171.322 306.522 171.595C305.473 171.858 304.224 171.994 302.775 171.994C300.863 171.994 299.244 171.707 297.92 171.142C296.596 170.568 295.501 169.805 294.639 168.84C293.772 167.872 293.15 166.741 292.765 165.444C292.38 164.148 292.184 162.786 292.184 161.366Z" fill="#5B5B5B"/>
<path d="M322.588 171.994C320.954 171.994 319.535 171.739 318.332 171.233C317.131 170.728 316.137 170.018 315.351 169.098C314.564 168.183 313.975 167.098 313.571 165.849C313.167 164.599 312.973 163.216 312.973 161.7C312.973 159.799 313.271 157.898 313.872 156.003C314.47 154.103 315.358 152.396 316.533 150.879C317.699 149.36 319.137 148.118 320.831 147.149C322.522 146.187 324.468 145.703 326.654 145.703C328.258 145.703 329.669 145.959 330.889 146.465C332.104 146.969 333.104 147.685 333.895 148.6C334.677 149.52 335.271 150.6 335.671 151.851C336.074 153.098 336.272 154.485 336.272 156.002C336.272 157.897 335.979 159.798 335.397 161.7C334.814 163.592 333.949 165.302 332.807 166.823C331.667 168.34 330.242 169.581 328.53 170.546C326.821 171.51 324.838 171.994 322.588 171.994ZM326.008 151.685C324.994 151.685 324.097 151.987 323.329 152.584C322.558 153.188 321.91 153.948 321.389 154.864C320.861 155.783 320.47 156.787 320.206 157.877C319.943 158.97 319.815 160.003 319.815 160.984C319.815 162.568 320.064 163.801 320.553 164.689C321.049 165.572 321.941 166.016 323.236 166.016C324.254 166.016 325.147 165.716 325.919 165.113C326.685 164.513 327.333 163.753 327.859 162.836C328.383 161.92 328.778 160.914 329.042 159.822C329.301 158.733 329.433 157.694 329.433 156.714C329.433 155.135 329.185 153.899 328.691 153.012C328.198 152.129 327.303 151.685 326.008 151.685Z" fill="#5B5B5B"/>
<path d="M343.73 171.332H336.88L342.66 146.373H349.554L343.73 171.332ZM347.055 143.332C346.101 143.332 345.235 143.041 344.468 142.456C343.697 141.875 343.31 140.98 343.31 139.774C343.31 139.111 343.443 138.489 343.704 137.901C343.965 137.315 344.312 136.811 344.745 136.382C345.175 135.957 345.68 135.617 346.248 135.361C346.817 135.109 347.425 134.983 348.072 134.983C349.028 134.983 349.893 135.275 350.663 135.859C351.433 136.447 351.822 137.342 351.822 138.541C351.822 139.207 351.683 139.831 351.425 140.417C351.166 141.003 350.818 141.508 350.387 141.937C349.953 142.363 349.454 142.701 348.886 142.955C348.312 143.211 347.705 143.332 347.055 143.332Z" fill="#5B5B5B"/>
<path d="M354.487 147.508C355.007 147.353 355.587 147.165 356.218 146.961C356.851 146.757 357.558 146.567 358.349 146.396C359.13 146.22 360.012 146.077 360.982 145.966C361.953 145.853 363.058 145.798 364.286 145.798C367.896 145.798 370.384 146.877 371.758 149.028C373.13 151.179 373.368 154.122 372.477 157.854L369.329 171.33H362.44L365.491 158.137C365.677 157.313 365.823 156.517 365.931 155.739C366.04 154.968 366.034 154.288 365.906 153.7C365.785 153.119 365.498 152.643 365.053 152.274C364.602 151.912 363.919 151.729 362.994 151.729C362.102 151.729 361.194 151.828 360.267 152.018L355.781 171.329H348.889L354.487 147.508Z" fill="#5B5B5B"/>
</g>
<defs>
<filter id="filter0_d_869_4391" x="199.426" y="34.9851" width="314.797" height="93.3428" filterUnits="userSpaceOnUse" color-interpolation-filters="sRGB">
<feFlood flood-opacity="0" result="BackgroundImageFix"/>
<feColorMatrix in="SourceAlpha" type="matrix" values="0 0 0 0 0 0 0 0 0 0 0 0 0 0 0 0 0 0 127 0" result="hardAlpha"/>
<feOffset dx="2" dy="2"/>
<feGaussianBlur stdDeviation="4"/>
<feComposite in2="hardAlpha" operator="out"/>
<feColorMatrix type="matrix" values="0 0 0 0 0.141667 0 0 0 0 0.0543055 0 0 0 0 0.0324653 0 0 0 0.04 0"/>
<feBlend mode="normal" in2="BackgroundImageFix" result="effect1_dropShadow_869_4391"/>
<feBlend mode="normal" in="SourceGraphic" in2="effect1_dropShadow_869_4391" result="shape"/>
</filter>
<radialGradient id="paint0_diamond_869_4391" cx="0" cy="0" r="1" gradientUnits="userSpaceOnUse" gradientTransform="translate(174 40) rotate(135) scale(189.505 216.008)">
<stop stop-color="#FFA24C"/>
<stop offset="0.50246" stop-color="#FF7A50"/>
<stop offset="1" stop-color="#FF4D42"/>
</radialGradient>
<radialGradient id="paint1_diamond_869_4391" cx="0" cy="0" r="1" gradientUnits="userSpaceOnUse" gradientTransform="translate(511 53.5) rotate(168.268) scale(319.678 145.086)">
<stop stop-color="#FFA24C"/>
<stop offset="0.50246" stop-color="#FF7A50"/>
<stop offset="1" stop-color="#FF4D42"/>
</radialGradient>
<clipPath id="clip0_869_4391">
<rect x="40" y="40" width="134" height="134" rx="23.5088" fill="white"/>
</clipPath>
<clipPath id="clip1_869_4391">
<rect width="175" height="37.5" fill="white" transform="translate(198 134.5)"/>
</clipPath>
</defs>
</svg>