<svg width="0" height="0" xmlns="http://www.w3.org/2000/svg" xmlns:xlink="http://www.w3.org/1999/xlink">
<defs>
<radialGradient id="logo-fill" cx="0" cy="0" r="1" gradientUnits="userSpaceOnUse" gradientTransform="matrix(-245.0899 277.89236 -314.27483 -277.17779 382.088 143.105)"><stop stop-color="#FFA24C"/><stop offset=".502" stop-color="#FF7A50"/><stop offset="1" stop-color="#FF4D42"/></radialGradient>
<clipPath id="logo-clip"><rect width="512" height="512" rx="96" fill="#fff"/></clipPath>
</defs>
<symbol id="logo" viewBox="0 0 245.088 330" fill="none" xmlns="http://www.w3.org/2000/svg"><g clip-path="url(#logo-clip)" transform="translate(-137 -91)"><path d="M225.896 91.177c14.041-1.507 26.512 6.731 30.405 20.146.686 2.365 1.031 4.896 1.109 7.366.168 5.286.06 10.581.06 15.872 0 .486-.416.872-.902.89-3.866.142-7.646-.025-11.34-1.245-11.582-3.815-19.276-14.426-19.397-26.842-.052-5.037-.013-10.078-.009-15.114M293.157 114.748a.004.004 0 0 0-.004.004c1.241 10.995-6.612 20.374-17.214 20.689-5.993.179-11.497-4.947-8.974-10.386 1.2-2.588 3.048-4.88 5.622-6.847 2.899-2.216 6.205-3.386 9.838-3.447 3.556-.057 7.116-.013 10.732-.013z" fill="#05a85a"/><path fill-rule="evenodd" clip-rule="evenodd" d="M382.088 229.738c0 62.519-54.865 121.788-122.544 121.788-24.548 0-47.41-7.797-66.579-20.718v62.21c0 15.454-12.528 27.982-27.983 27.982C149.528 421 137 408.472 137 393.018V231.877h.022c-.015-.712-.022-1.426-.022-2.139 0-54.091 41.069-90.555 95.974-86.295a344.802 344.802 0 0 0 53.14 0c54.905-4.26 95.974 32.204 95.974 86.295zm-57.894 9.948c0 33.489-29.376 65.237-65.614 65.237s-65.614-31.748-65.614-65.237c0-30.432 24.258-50.448 55.879-45.713a65.834 65.834 0 0 0 19.47 0c31.621-4.735 55.879 15.281 55.879 45.713z" fill="url(#logo-fill)"/></g></symbol>
<symbol id="github" viewBox="0 0 25 24"><path clip-rule="evenodd" d="M12.75.3c-6.6 0-12 5.4-12 12 0 5.325 3.45 9.825 8.175 11.4.6.075.825-.225.825-.6v-2.025C6.375 21.825 5.7 19.5 5.7 19.5c-.525-1.35-1.35-1.725-1.35-1.725-1.125-.75.075-.75.075-.75 1.2.075 1.875 1.2 1.875 1.2 1.05 1.8 2.775 1.275 3.525.975a2.59 2.59 0 0 1 .75-1.575c-2.7-.3-5.475-1.35-5.475-5.925 0-1.275.45-2.4 1.2-3.225-.15-.3-.525-1.5.15-3.15 0 0 .975-.3 3.3 1.2.975-.3 1.95-.375 3-.375s2.025.15 3 .375c2.325-1.575 3.3-1.275 3.3-1.275.675 1.65.225 2.85.15 3.15.75.825 1.2 1.875 1.2 3.225 0 4.575-2.775 5.625-5.475 5.925.45.375.825 1.125.825 2.25v3.3c0 .3.225.675.825.6a12.015 12.015 0 0 0 8.175-11.4c0-6.6-5.4-12-12-12z" fill="currentColor" fill-rule="evenodd"></path></symbol>
<symbol id="twitter" viewBox="0 0 37 37"><path d="M36 18c0 9.945-8.055 18-18 18S0 27.945 0 18 8.055 0 18 0s18 8.055 18 18zm-21.294 9.495c7.983 0 12.348-6.615 12.348-12.348 0-.189 0-.378-.009-.558a8.891 8.891 0 0 0 2.169-2.25 8.808 8.808 0 0 1-2.493.684 4.337 4.337 0 0 0 1.908-2.403 8.788 8.788 0 0 1-2.754 1.053 4.319 4.319 0 0 0-3.168-1.368 4.34 4.34 0 0 0-4.338 4.338c0 .342.036.675.117.99a12.311 12.311 0 0 1-8.946-4.536 4.353 4.353 0 0 0-.585 2.178 4.32 4.32 0 0 0 1.935 3.609 4.263 4.263 0 0 1-1.962-.54v.054a4.345 4.345 0 0 0 3.483 4.257 4.326 4.326 0 0 1-1.962.072 4.333 4.333 0 0 0 4.05 3.015 8.724 8.724 0 0 1-6.426 1.791 12.091 12.091 0 0 0 6.633 1.962z" fill="currentColor"></path></symbol>
<symbol id="close" viewBox="0 0 24 24"><path d="M0,22.2739 L21.9971,0 M22.2738,22.2739 L0,0" stroke="currentColor" stroke-width="2"></path></symbol>
</svg>
