<svg width="39.688" height="39.688" viewBox="0 0 39.688 39.688" fill="none" xmlns="http://www.w3.org/2000/svg">
<path d="M19.844 0A19.844 19.844 0 0 0 0 19.844a19.844 19.844 0 0 0 19.844 19.844 19.844 19.844 0 0 0 19.844-19.844A19.844 19.844 0 0 0 19.844 0Zm-3.853 9.594c.035-.005.07.01.088.042.237.42.509.96.692 1.4a20.45 20.45 0 0 1 6.15 0c.183-.431.445-.98.681-1.4a.083.083 0 0 1 .088-.042c1.923.332 3.761.911 5.476 1.698a.069.069 0 0 1 .035.032c3.037 4.468 4.538 9.508 3.977 15.31a.087.087 0 0 1-.035.062 22.232 22.232 0 0 1-6.728 3.396.086.086 0 0 1-.094-.032 17.901 17.901 0 0 1-1.373-2.234.086.086 0 0 1 .046-.12 13.781 13.781 0 0 0 2.099-.999.086.086 0 0 0 .007-.143 10.717 10.717 0 0 1-.418-.328.083.083 0 0 0-.087-.01c-4.35 2.01-9.117 2.01-13.519 0a.084.084 0 0 0-.087.011c-.135.111-.276.221-.417.327a.086.086 0 0 0 .01.143c.67.384 1.366.723 2.097 1 .048.018.07.073.047.119a15.942 15.942 0 0 1-1.374 2.235.087.087 0 0 1-.094.03 22.307 22.307 0 0 1-6.717-3.395.093.093 0 0 1-.035-.063c-.469-5.018.486-10.1 3.974-15.31a.079.079 0 0 1 .036-.031 22.12 22.12 0 0 1 5.475-1.698zm-.608 8.561c-1.346 0-2.417 1.217-2.417 2.712 0 1.494 1.092 2.71 2.417 2.71 1.347 0 2.418-1.216 2.418-2.71.02-1.484-1.06-2.712-2.418-2.712zm8.938 0c-1.346 0-2.417 1.217-2.417 2.712 0 1.494 1.092 2.71 2.417 2.71 1.357 0 2.418-1.216 2.418-2.71.02-1.484-1.06-2.712-2.418-2.712z" fill="currentColor"/>
</svg>
