<svg width="24" height="24" viewBox="0 0 24 24" fill="none" xmlns="http://www.w3.org/2000/svg"><path fill="currentColor" style="stroke-width:5.10436" d="M5.906 9.225v6.838a.82.82 0 0 0 .05.277.63.63 0 0 0 .138.213.583.583 0 0 0 .213.136.706.706 0 0 0 .277.05h10.832a.706.706 0 0 0 .393-.107.584.584 0 0 0 .236-.292.82.82 0 0 0 .049-.277V9.224l-5.688 3.994c-.067.034-.135.068-.203.094a.735.735 0 0 1-.203.04.732.732 0 0 1-.203-.041c-.068-.025-.136-.06-.203-.093z"/><path fill="currentColor" style="stroke-width:5.10436" d="M6.584 7.262a.734.734 0 0 0-.19.025.594.594 0 0 0-.304.203.823.823 0 0 0-.115.178L12 11.865l6.025-4.197a1.03 1.03 0 0 0-.115-.178.702.702 0 0 0-.139-.127.596.596 0 0 0-.355-.101z"/><path fill="currentColor" style="stroke-width:5.10436" d="M12 0A12 12 0 0 0 0 12a12 12 0 0 0 12 12 12 12 0 0 0 12-12A12 12 0 0 0 12 0ZM6.584 5.906h10.832a2.215 2.215 0 0 1 .803.157 1.988 1.988 0 0 1 .988.894 1.987 1.987 0 0 1 .2.563 2.17 2.17 0 0 1 .04.417v8.125a2.156 2.156 0 0 1-.09.614 2.05 2.05 0 0 1-.15.367 1.981 1.981 0 0 1-.344.467 1.937 1.937 0 0 1-.644.427 2.015 2.015 0 0 1-.59.145c-.07.007-.141.012-.213.012H6.584a2.218 2.218 0 0 1-.803-.157 1.99 1.99 0 0 1-.888-.726 1.981 1.981 0 0 1-.25-.535 2.035 2.035 0 0 1-.09-.614V7.937a2.178 2.178 0 0 1 .04-.417A2.035 2.035 0 0 1 5.28 6.36a1.97 1.97 0 0 1 .69-.365 2.075 2.075 0 0 1 .615-.09Z"/></svg>
