<svg width="36" height="36" viewBox="0 0 36 36" fill="none" xmlns="http://www.w3.org/2000/svg">
<path d="M18 0c9.945 0 18 8.055 18 18s-8.055 18-18 18S0 27.945 0 18 8.055 0 18 0zm4.732 6.016c-3.158-.029-6.322-.01-9.48-.01-1.205.005-2.361.242-3.426.798C7.38 8.09 6 10.067 6 12.896V23.29c0 1.31.363 2.519 1.122 3.582 1.447 2.021 3.464 3.046 5.916 3.094 3.256.063 6.516.02 9.772.015a7.57 7.57 0 003.004-.629c2.384-1.025 4.257-3.326 4.184-6.304-.044-1.682-.01-3.37-.01-5.052v-5.289c0-1.392-.406-2.659-1.248-3.761-1.509-1.973-3.555-2.91-6.008-2.93zM17.995 12A6.002 6.002 0 0124 17.995c0 3.308-2.683 6-5.995 6.005-3.322 0-6-2.682-6.005-6.02-.005-3.288 2.694-5.98 5.995-5.98zm.013 1.846a4.16 4.16 0 00-4.162 4.151 4.153 4.153 0 104.162-4.151zM23.998 11c.552 0 1.002.451 1.002 1.004A1 1 0 1123.998 11z" fill="currentColor" fill-rule="nonzero"/>
</svg>
