<svg width="36" height="36" viewBox="0 0 36 36" fill="none" xml:space="preserve" xmlns="http://www.w3.org/2000/svg"><path fill="currentColor" d="M36 18a18 18 0 0 1-18 18A18 18 0 0 1 0 18 18 18 0 0 1 18 0a18 18 0 0 1 18 18ZM22.195 8h-8.38c-3.64 0-5.81 2.17-5.81 5.81v8.37c0 3.65 2.17 5.82 5.81 5.82h8.37c3.64 0 5.81-2.17 5.81-5.81v-8.38c.01-3.64-2.16-5.81-5.8-5.81zm-4.19 13.88c-2.14 0-3.88-1.74-3.88-3.88 0-2.14 1.74-3.88 3.88-3.88 2.14 0 3.88 1.74 3.88 3.88 0 2.14-1.74 3.88-3.88 3.88zm5.92-9c-.05.118-.118.23-.211.33-.1.09-.212.159-.33.211a.999.999 0 0 1-1.09-.211c-.09-.1-.16-.212-.212-.33a.999.999 0 0 1-.078-.38c0-.128.03-.262.078-.38a.999.999 0 0 1 .212-.33 1 1 0 0 1 1.09-.212c.059.02.118.05.18.09.05.03.1.078.15.119.09.1.158.202.211.33.05.118.078.252.078.38 0 .127-.03.261-.078.38z"/></svg>
