<svg xmlns="http://www.w3.org/2000/svg" width="36" height="36" viewBox="0 0 36 36">
<path d="M18 0c9.945 0 18 8.055 18 18s-8.055 18-18 18S0 27.945 0 18 8.055 0 18 0zm.173 9.5h-.35c-1.11.003-7.19.043-8.824.47a2.931 2.931 0 00-2.027 2.033c-.43 1.62-.47 4.818-.473 5.403v.187c.003.588.044 3.8.473 5.403a2.873 2.873 0 002.027 2.014c1.621.436 7.502.484 8.76.489h.614c1.502-.008 7.072-.064 8.624-.47a2.873 2.873 0 002.027-2.014c.445-1.677.472-5.04.474-5.455v-.196c-.003-.72-.04-3.79-.474-5.361a2.873 2.873 0 00-2.027-2.014c-1.633-.444-7.713-.485-8.824-.49zm-2.675 4l7 4-7 4v-8z" fill="currentColor" fill-rule="nonzero"/>
</svg>
