<svg width="24" height="24" viewBox="0 0 24 24" fill="none" xmlns="http://www.w3.org/2000/svg"><path d="m18.408 11.446-2.999 4.337-1.53-2.315 1.764-2.608c.328-.463 1.03-1.744.219-3.488-.656-1.42-2.077-2.099-3.327-2.099-1.249 0-2.608.633-3.341 2.1-.828 1.682-.11 2.993.202 3.441 0 0 .984 1.42 1.797 2.624l1.327 1.898 2 3.026c.015.016.327.494.89.494.53 0 .858-.478.905-.525L21 11.478h-2.592v-.032Zm-5.888.108s-.78-1.173-1.296-1.99c-.547-.88.062-2.192 1.296-2.192s1.843 1.312 1.297 2.191c-.5.818-1.297 1.991-1.297 1.991Z" fill="url(#a)"/><path d="M9.647 15.645 6.711 11.57S5.93 10.397 5.414 9.58c-.546-.88.063-2.191 1.297-2.191.156 0 .297.015.437.061l1.03-1.868a3.776 3.776 0 0 0-1.451-.308c-1.25 0-2.608.632-3.342 2.099-.828 1.682-.11 2.994.203 3.442l5.138 7.517c.047.061.374.54.921.54s.859-.463.906-.525l1.546-2.33-1.327-1.93-1.124 1.56-.001-.001Z" fill="url(#b)"/><defs><radialGradient id="a" cx="0" cy="0" r="1" gradientUnits="userSpaceOnUse" gradientTransform="matrix(13.8112 0 0 15.3873 11.546 6.463)"><stop stop-color="#FC0"/><stop offset=".092" stop-color="#FFC800"/><stop offset=".174" stop-color="#FFBD00"/><stop offset=".253" stop-color="#FFAB00"/><stop offset=".33" stop-color="#FF9100"/><stop offset=".405" stop-color="#FF7000"/><stop offset=".479" stop-color="#FF4700"/><stop offset=".55" stop-color="#FF1800"/><stop offset=".582" stop-color="red"/><stop offset="1" stop-color="red"/></radialGradient><radialGradient id="b" cx="0" cy="0" r="1" gradientUnits="userSpaceOnUse" gradientTransform="matrix(12.664 0 0 18.9254 3.221 7.248)"><stop stop-color="#00B4E6"/><stop offset=".201" stop-color="#00B0E3"/><stop offset=".39" stop-color="#01A5DB"/><stop offset=".574" stop-color="#0292CD"/><stop offset=".755" stop-color="#0377BA"/><stop offset=".932" stop-color="#0455A1"/><stop offset="1" stop-color="#054696"/></radialGradient></defs></svg>
