<svg width="25" height="25" viewBox="0 0 25 25" fill="none" xmlns="http://www.w3.org/2000/svg">
<g id="android">
<path id="Vector" d="M18.1 10.3899L19.94 7.20989C20.1 6.89989 19.98 6.51989 19.68 6.35989C19.39 6.20989 19.03 6.29989 18.85 6.57989L16.97 9.81989C14.11 8.60989 10.89 8.60989 8.03 9.81989L6.15 6.57989C5.96 6.28989 5.57 6.19989 5.28 6.37989C5 6.55989 4.91 6.91989 5.06 7.20989L6.9 10.3899C3.8 12.1599 1.78 15.3499 1.5 18.9099H23.5C23.22 15.3499 21.2 12.1599 18.1 10.3899ZM7.5 16.1599C6.81 16.1599 6.25 15.5999 6.25 14.9099C6.25 14.2199 6.81 13.6599 7.5 13.6599C8.19 13.6599 8.75 14.2199 8.75 14.9099C8.75 15.5999 8.19 16.1599 7.5 16.1599ZM17.5 16.1599C16.81 16.1599 16.25 15.5999 16.25 14.9099C16.25 14.2199 16.81 13.6599 17.5 13.6599C18.19 13.6599 18.75 14.2199 18.75 14.9099C18.75 15.5999 18.19 16.1599 17.5 16.1599Z" fill="white"/>
</g>
</svg>
