<svg width="140" height="42" viewBox="0 0 140 42" fill="none" xmlns="http://www.w3.org/2000/svg">
<g id="Vector">
<path d="M134.103 41.6004H4.87087C3.57924 41.5974 2.34143 41.0827 1.4285 40.169C0.515564 39.2553 0.001904 38.017 0 36.7254V5.26817C0.00190885 3.97721 0.5158 2.73971 1.42894 1.82715C2.34208 0.914586 3.5799 0.40148 4.87087 0.400391H134.103C136.787 0.400391 139.05 2.58399 139.05 5.26817V36.7254C139.05 39.4086 136.787 41.6004 134.103 41.6004Z" fill="#A6A6A6"/>
<path d="M138.053 36.7261C138.053 37.2445 137.951 37.7578 137.752 38.2367C137.554 38.7156 137.263 39.1506 136.896 39.517C136.529 39.8834 136.094 40.1739 135.615 40.3719C135.136 40.5699 134.622 40.6715 134.104 40.671H4.87101C3.82357 40.6721 2.81858 40.2571 2.07706 39.5173C1.33554 38.7775 0.918206 37.7735 0.916841 36.7261V5.26678C0.918205 4.21887 1.33537 3.21432 2.07675 2.47372C2.81812 1.73312 3.8231 1.317 4.87101 1.31673H134.103C134.622 1.31673 135.135 1.41891 135.615 1.61743C136.094 1.81595 136.529 2.10692 136.896 2.47373C137.263 2.84054 137.553 3.276 137.752 3.75524C137.95 4.23447 138.052 4.7481 138.052 5.26678L138.053 36.7261Z" fill="black"/>
<path d="M31.0318 20.7773C31.0019 17.4576 33.75 15.8426 33.8756 15.7674C32.3193 13.4983 29.907 13.1883 29.0594 13.1635C27.0333 12.9503 25.0681 14.3758 24.036 14.3758C22.9834 14.3758 21.3941 13.1841 19.6812 13.2192C17.477 13.2531 15.4149 14.5293 14.284 16.511C11.95 20.5517 13.6907 26.4897 15.9269 29.7558C17.0454 31.3554 18.3525 33.1414 20.0633 33.0786C21.7371 33.0096 22.3623 32.0115 24.3821 32.0115C26.3834 32.0115 26.9705 33.0786 28.7153 33.0384C30.5117 33.0096 31.6426 31.4316 32.722 29.8176C34.0147 27.9842 34.5338 26.1786 34.5544 26.0859C34.5122 26.0715 31.0658 24.7562 31.0318 20.7773ZM27.7358 11.015C28.636 9.88916 29.252 8.35755 29.081 6.80328C27.778 6.86096 26.1486 7.70453 25.2102 8.8056C24.3801 9.77586 23.6385 11.3662 23.83 12.8617C25.2937 12.9709 26.7964 12.1232 27.7358 11.015Z" fill="white"/>
<path d="M55.2547 32.8491H52.9156L51.6343 28.8228H47.1806L45.96 32.8491H43.6827L48.0952 19.1418H50.8206L55.2547 32.8491ZM51.248 27.1336L50.0893 23.5544C49.9667 23.1887 49.737 22.3276 49.3982 20.9722H49.357C49.1515 21.8358 48.9345 22.6966 48.706 23.5544L47.5679 27.1336H51.248ZM66.6023 27.7856C66.6023 29.4666 66.148 30.7953 65.2396 31.7707C64.4259 32.639 63.4154 33.0726 62.2093 33.0726C60.9074 33.0726 59.9721 32.605 59.4026 31.6697H59.3614V36.8764H57.1654V26.219C57.1654 25.1622 57.1376 24.0776 57.084 22.9652H59.0153L59.1378 24.5318H59.179C59.9114 23.3515 61.0227 22.7623 62.5142 22.7623C63.6801 22.7623 64.6535 23.2227 65.4322 24.1446C66.2129 25.0674 66.6023 26.2808 66.6023 27.7856ZM64.3651 27.8659C64.3651 26.9039 64.1488 26.1108 63.7141 25.4866C63.2393 24.8357 62.6017 24.5102 61.8025 24.5102C61.2607 24.5102 60.7683 24.6915 60.3285 25.0489C59.8877 25.4094 59.5993 25.8801 59.4644 26.4631C59.3964 26.735 59.3624 26.9575 59.3624 27.1326V28.7806C59.3624 29.4995 59.5828 30.1062 60.0236 30.6016C60.4645 31.0971 61.0372 31.3443 61.7417 31.3443C62.5688 31.3443 63.2125 31.025 63.6729 30.3884C64.1344 29.7508 64.3651 28.9104 64.3651 27.8659ZM77.9704 27.7856C77.9704 29.4666 77.5161 30.7953 76.6066 31.7707C75.794 32.639 74.7835 33.0726 73.5774 33.0726C72.2755 33.0726 71.3402 32.605 70.7717 31.6697H70.7305V36.8764H68.5345V26.219C68.5345 25.1622 68.5067 24.0776 68.4532 22.9652H70.3844L70.507 24.5318H70.5482C71.2795 23.3515 72.3909 22.7623 73.8833 22.7623C75.0483 22.7623 76.0216 23.2227 76.8023 24.1446C77.58 25.0674 77.9704 26.2808 77.9704 27.7856ZM75.7332 27.8659C75.7332 26.9039 75.5159 26.1108 75.0812 25.4866C74.6064 24.8357 73.9709 24.5102 73.1706 24.5102C72.6307 24.51 72.1083 24.7009 71.6956 25.0489C71.2548 25.4094 70.9674 25.8801 70.8325 26.4631C70.7655 26.735 70.7305 26.9575 70.7305 27.1326V28.7806C70.7305 29.4995 70.9509 30.1062 71.3897 30.6016C71.8305 31.096 72.4032 31.3443 73.1098 31.3443C73.9369 31.3443 74.5806 31.025 75.041 30.3884C75.5025 29.7508 75.7332 28.9104 75.7332 27.8659ZM90.6806 29.0051C90.6806 30.1711 90.2758 31.1197 89.4631 31.852C88.5701 32.6524 87.3269 33.052 85.7294 33.052C84.2544 33.052 83.072 32.7677 82.1769 32.1981L82.6857 30.3678C83.6498 30.9508 84.7076 31.2433 85.8602 31.2433C86.6872 31.2433 87.331 31.0559 87.7935 30.683C88.2539 30.3101 88.4836 29.8096 88.4836 29.1854C88.4836 28.6292 88.2941 28.1605 87.914 27.7805C87.536 27.4004 86.9046 27.0471 86.0229 26.7206C83.623 25.8255 82.4241 24.5143 82.4241 22.7901C82.4241 21.6633 82.8443 20.7394 83.6858 20.0204C84.5242 19.3005 85.6428 18.941 87.0416 18.941C88.2889 18.941 89.3251 19.1583 90.1522 19.592L89.6032 21.3821C88.8307 20.9619 87.9572 20.7517 86.9798 20.7517C86.2073 20.7517 85.6037 20.9423 85.1711 21.3213C84.9957 21.4765 84.8558 21.6677 84.761 21.8819C84.6663 22.0961 84.6189 22.3283 84.6221 22.5625C84.6221 23.1043 84.8312 23.5523 85.2514 23.9046C85.6171 24.23 86.2814 24.5823 87.2455 24.9624C88.4249 25.4372 89.2911 25.9924 89.8483 26.6289C90.4035 27.2634 90.6806 28.0575 90.6806 29.0051ZM97.941 24.6132H95.5205V29.412C95.5205 30.6325 95.947 31.2423 96.8018 31.2423C97.1943 31.2423 97.5198 31.2083 97.7773 31.1403L97.838 32.8079C97.4054 32.9696 96.8358 33.051 96.1303 33.051C95.263 33.051 94.5853 32.7863 94.096 32.2579C93.6089 31.7284 93.3637 30.8406 93.3637 29.5933V24.6111H91.9217V22.9631H93.3637V21.1534L95.5205 20.5025V22.9631H97.941V24.6132ZM108.862 27.8258C108.862 29.345 108.427 30.5924 107.56 31.5678C106.651 32.572 105.444 33.0726 103.939 33.0726C102.488 33.0726 101.334 32.5916 100.473 31.6296C99.6117 30.6675 99.1812 29.4532 99.1812 27.9895C99.1812 26.4579 99.624 25.2034 100.513 24.228C101.4 23.2515 102.597 22.7633 104.101 22.7633C105.552 22.7633 106.719 23.2443 107.599 24.2074C108.442 25.1416 108.862 26.3477 108.862 27.8258ZM106.584 27.8968C106.584 26.9853 106.389 26.2035 105.995 25.5515C105.534 24.7626 104.876 24.3691 104.023 24.3691C103.14 24.3691 102.47 24.7636 102.01 25.5515C101.615 26.2046 101.42 26.9987 101.42 27.938C101.42 28.8496 101.615 29.6314 102.01 30.2823C102.484 31.0713 103.148 31.4648 104.004 31.4648C104.842 31.4648 105.5 31.0631 105.975 30.2617C106.38 29.5974 106.584 28.8074 106.584 27.8968ZM116 24.8965C115.772 24.8552 115.54 24.8348 115.308 24.8357C114.535 24.8357 113.938 25.1272 113.518 25.7112C113.152 26.2262 112.969 26.8771 112.969 27.663V32.8491H110.774L110.794 26.0779C110.794 24.9387 110.767 23.9015 110.712 22.9662H112.625L112.705 24.8573H112.766C112.998 24.2074 113.363 23.6841 113.864 23.2917C114.322 22.9488 114.879 22.7631 115.451 22.7623C115.654 22.7623 115.837 22.7767 116 22.8025V24.8965ZM125.821 27.4395C125.827 27.7733 125.8 28.1069 125.741 28.4355H119.153C119.179 29.412 119.497 30.1587 120.109 30.6737C120.664 31.1341 121.382 31.3649 122.263 31.3649C123.239 31.3649 124.129 31.2093 124.929 30.8972L125.273 32.4216C124.338 32.8295 123.234 33.0324 121.96 33.0324C120.427 33.0324 119.224 32.5813 118.348 31.68C117.475 30.7788 117.037 29.5685 117.037 28.0503C117.037 26.5599 117.444 25.3188 118.259 24.3289C119.112 23.2721 120.264 22.7438 121.714 22.7438C123.139 22.7438 124.217 23.2721 124.95 24.3289C125.53 25.1684 125.821 26.2066 125.821 27.4395ZM123.727 26.8699C123.741 26.219 123.598 25.6566 123.301 25.1818C122.921 24.571 122.337 24.2661 121.551 24.2661C120.833 24.2661 120.249 24.5638 119.803 25.1612C119.437 25.636 119.22 26.2056 119.153 26.8689L123.727 26.8699Z" fill="white"/>
<path d="M50.5213 10.7093C50.5213 11.9216 50.1577 12.8342 49.4315 13.4471C48.7589 14.0125 47.8031 14.2958 46.565 14.2958C45.9512 14.2958 45.4259 14.269 44.9861 14.2154V7.5915C45.5598 7.4988 46.1778 7.45142 46.8452 7.45142C48.0246 7.45142 48.9134 7.70789 49.5129 8.22083C50.1845 8.80072 50.5213 9.62987 50.5213 10.7093ZM49.3831 10.7392C49.3831 9.95329 49.1751 9.35074 48.7589 8.9305C48.3428 8.51129 47.7351 8.30117 46.9348 8.30117C46.5949 8.30117 46.3055 8.32383 46.0655 8.37121V13.4069C46.1984 13.4275 46.4414 13.4368 46.7947 13.4368C47.6208 13.4368 48.2584 13.2071 48.7074 12.7477C49.1565 12.2883 49.3831 11.6188 49.3831 10.7392ZM56.556 11.7682C56.556 12.5149 56.3428 13.1267 55.9164 13.6067C55.4694 14.1001 54.8771 14.3462 54.1376 14.3462C53.4248 14.3462 52.8573 14.1104 52.434 13.6366C52.0117 13.1638 51.8005 12.5674 51.8005 11.8485C51.8005 11.0966 52.0179 10.4796 52.4546 10.0007C52.8913 9.52172 53.4784 9.28173 54.2179 9.28173C54.9307 9.28173 55.5034 9.5176 55.937 9.99037C56.349 10.4498 56.556 11.043 56.556 11.7682ZM55.4364 11.8032C55.4364 11.3551 55.3396 10.9709 55.147 10.6506C54.9204 10.2633 54.598 10.0697 54.1788 10.0697C53.7452 10.0697 53.4156 10.2633 53.189 10.6506C52.9953 10.9709 52.8995 11.3613 52.8995 11.8227C52.8995 12.2708 52.9964 12.655 53.189 12.9753C53.4228 13.3626 53.7483 13.5562 54.1685 13.5562C54.5805 13.5562 54.9039 13.3595 55.1367 12.965C55.3365 12.6385 55.4364 12.2512 55.4364 11.8032ZM64.6477 9.38061L63.1285 14.236H62.1397L61.5103 12.1276C61.3535 11.6117 61.2232 11.0882 61.12 10.5589H61.1004C61.0073 11.0904 60.8768 11.6145 60.71 12.1276L60.0416 14.236H59.0414L57.6128 9.38061H58.7221L59.2711 11.6888C59.404 12.2347 59.5132 12.7549 59.6007 13.2472H59.6203C59.7006 12.8414 59.8335 12.3244 60.021 11.6991L60.71 9.38165H61.5897L62.2499 11.6497C62.4095 12.2028 62.5393 12.7353 62.6392 13.2483H62.6691C62.7422 12.7487 62.8524 12.2162 62.9987 11.6497L63.5879 9.38165H64.6477V9.38061ZM70.2437 14.236H69.1643V11.455C69.1643 10.5981 68.8388 10.1696 68.1858 10.1696C68.0375 10.1652 67.8902 10.1948 67.755 10.256C67.6199 10.3173 67.5006 10.4085 67.4061 10.5229C67.2083 10.7547 67.1018 11.0505 67.1063 11.3551V14.235H66.0269V10.768C66.0269 10.3416 66.0135 9.87913 65.9878 9.37855H66.9364L66.9869 10.1377H67.0167C67.1424 9.90179 67.3298 9.70712 67.576 9.55159C67.8685 9.37031 68.1961 9.27864 68.5545 9.27864C69.0077 9.27864 69.3847 9.4249 69.6844 9.71845C70.0573 10.0779 70.2437 10.6146 70.2437 11.3273V14.236ZM73.2204 14.236H72.142V7.15272H73.2204V14.236ZM79.5755 11.7682C79.5755 12.5149 79.3623 13.1267 78.9359 13.6067C78.4889 14.1001 77.8956 14.3462 77.1571 14.3462C76.4433 14.3462 75.8758 14.1104 75.4535 13.6366C75.0312 13.1638 74.82 12.5674 74.82 11.8485C74.82 11.0966 75.0373 10.4796 75.4741 10.0007C75.9108 9.52172 76.4979 9.28173 77.2364 9.28173C77.9502 9.28173 78.5218 9.5176 78.9565 9.99037C79.3685 10.4498 79.5755 11.043 79.5755 11.7682ZM78.4549 11.8032C78.4549 11.3551 78.3581 10.9709 78.1654 10.6506C77.9399 10.2633 77.6165 10.0697 77.1983 10.0697C76.7636 10.0697 76.434 10.2633 76.2084 10.6506C76.0148 10.9709 75.919 11.3613 75.919 11.8227C75.919 12.2708 76.0158 12.655 76.2084 12.9753C76.4423 13.3626 76.7677 13.5562 77.188 13.5562C77.6 13.5562 77.9224 13.3595 78.1551 12.965C78.356 12.6385 78.4549 12.2512 78.4549 11.8032ZM84.7997 14.236H83.8304L83.7501 13.6767H83.7202C83.3886 14.1227 82.9158 14.3462 82.3019 14.3462C81.8436 14.3462 81.4728 14.199 81.1936 13.9064C81.0683 13.7748 80.9701 13.6197 80.9049 13.45C80.8397 13.2803 80.8086 13.0994 80.8136 12.9176C80.8136 12.3244 81.0608 11.8722 81.5583 11.5591C82.0547 11.2459 82.7531 11.0925 83.6523 11.0997V11.009C83.6523 10.3694 83.3165 10.0501 82.6439 10.0501C82.1649 10.0501 81.7426 10.1706 81.378 10.4096L81.1586 9.70094C81.6098 9.42181 82.167 9.28173 82.8241 9.28173C84.0931 9.28173 84.7296 9.95123 84.7296 11.2902V13.0783C84.7296 13.5634 84.7533 13.9497 84.7997 14.236ZM83.679 12.5674V11.8186C82.4883 11.798 81.893 12.1245 81.893 12.7971C81.893 13.0505 81.961 13.24 82.1 13.3667C82.245 13.4952 82.4338 13.5631 82.6274 13.5562C82.8643 13.5562 83.0858 13.481 83.2876 13.3317C83.4101 13.2457 83.5098 13.1312 83.578 12.998C83.6462 12.8649 83.6809 12.7171 83.679 12.5674ZM90.9333 14.236H89.9754L89.925 13.4563H89.8951C89.5892 14.0496 89.068 14.3462 88.3357 14.3462C87.7506 14.3462 87.2634 14.1166 86.8772 13.6572C86.4909 13.1978 86.2983 12.6014 86.2983 11.8691C86.2983 11.0832 86.5074 10.4467 86.9277 9.9605C87.3345 9.5073 87.833 9.2807 88.4263 9.2807C89.0783 9.2807 89.5346 9.50009 89.7941 9.9399H89.8147V7.15272H90.8952V12.9279C90.8952 13.4007 90.9076 13.8364 90.9333 14.236ZM89.8147 12.1884V11.3788C89.8249 11.1921 89.7923 11.0055 89.7195 10.8333C89.6466 10.661 89.5355 10.5077 89.3945 10.3849C89.1954 10.2094 88.9378 10.115 88.6725 10.1202C88.2697 10.1202 87.9546 10.2798 87.7228 10.6001C87.4931 10.9205 87.3767 11.3294 87.3767 11.8289C87.3767 12.3089 87.4869 12.6982 87.7084 12.998C87.9422 13.3173 88.2574 13.4769 88.6519 13.4769C89.0062 13.4769 89.2894 13.3441 89.5047 13.0773C89.7128 12.8311 89.8147 12.5345 89.8147 12.1884ZM100.165 11.7682C100.165 12.5149 99.952 13.1267 99.5256 13.6067C99.0786 14.1001 98.4874 14.3462 97.7468 14.3462C97.035 14.3462 96.4675 14.1104 96.0432 13.6366C95.6209 13.1638 95.4097 12.5674 95.4097 11.8485C95.4097 11.0966 95.627 10.4796 96.0638 10.0007C96.5005 9.52172 97.0876 9.28173 97.8281 9.28173C98.5399 9.28173 99.1136 9.5176 99.5462 9.99037C99.9582 10.4498 100.165 11.043 100.165 11.7682ZM99.0466 11.8032C99.0466 11.3551 98.9498 10.9709 98.7572 10.6506C98.5296 10.2633 98.2082 10.0697 97.788 10.0697C97.3554 10.0697 97.0258 10.2633 96.7981 10.6506C96.6045 10.9709 96.5087 11.3613 96.5087 11.8227C96.5087 12.2708 96.6055 12.655 96.7981 12.9753C97.032 13.3626 97.3574 13.5562 97.7777 13.5562C98.1897 13.5562 98.5141 13.3595 98.7469 12.965C98.9457 12.6385 99.0466 12.2512 99.0466 11.8032ZM105.969 14.236H104.891V11.455C104.891 10.5981 104.565 10.1696 103.911 10.1696C103.591 10.1696 103.332 10.287 103.133 10.5229C102.933 10.7588 102.833 11.0369 102.833 11.3551V14.235H101.752V10.768C101.752 10.3416 101.74 9.87913 101.714 9.37855H102.662L102.712 10.1377H102.742C102.874 9.89691 103.067 9.69488 103.302 9.55159C103.595 9.37031 103.922 9.27864 104.281 9.27864C104.733 9.27864 105.11 9.4249 105.41 9.71845C105.784 10.0779 105.969 10.6146 105.969 11.3273V14.236ZM113.234 10.1892H112.045V12.5479C112.045 13.1473 112.256 13.4471 112.675 13.4471C112.868 13.4471 113.029 13.4306 113.156 13.3966L113.183 14.2154C112.97 14.2958 112.69 14.3359 112.345 14.3359C111.919 14.3359 111.587 14.2062 111.347 13.9466C111.106 13.687 110.986 13.2503 110.986 12.6375V10.1892H110.277V9.38061H110.986V8.49069L112.044 8.17139V9.37959H113.233L113.234 10.1892ZM118.948 14.236H117.868V11.4756C117.868 10.6053 117.542 10.1696 116.89 10.1696C116.39 10.1696 116.048 10.4219 115.86 10.9266C115.825 11.053 115.808 11.1838 115.81 11.315V14.235H114.731V7.15272H115.81V10.079H115.83C116.17 9.54644 116.658 9.2807 117.289 9.2807C117.736 9.2807 118.106 9.42696 118.399 9.72051C118.765 10.0862 118.948 10.63 118.948 11.3489V14.236ZM124.843 11.5786C124.843 11.7723 124.829 11.935 124.803 12.0679H121.566C121.58 12.5479 121.734 12.9135 122.034 13.1669C122.308 13.3935 122.661 13.5068 123.094 13.5068C123.573 13.5068 124.01 13.4306 124.403 13.2771L124.572 14.0269C124.112 14.2268 123.57 14.3267 122.943 14.3267C122.191 14.3267 121.598 14.1052 121.17 13.6623C120.739 13.2194 120.526 12.6251 120.526 11.8794C120.526 11.1471 120.725 10.5373 121.126 10.0511C121.544 9.53202 122.109 9.27246 122.823 9.27246C123.521 9.27246 124.052 9.53202 124.41 10.0511C124.7 10.4631 124.843 10.973 124.843 11.5786ZM123.813 11.2995C123.828 11.0084 123.755 10.7195 123.604 10.4704C123.416 10.1706 123.131 10.0202 122.745 10.0202C122.577 10.0174 122.41 10.056 122.26 10.1327C122.111 10.2094 121.982 10.3218 121.886 10.4601C121.703 10.7044 121.592 10.9952 121.566 11.2995H123.813Z" fill="white"/>
</g>
</svg>
