<svg width="184" height="57" viewBox="0 0 184 57" fill="none" xmlns="http://www.w3.org/2000/svg">
<rect y="0.355469" width="184" height="56" rx="28" fill="white"/>
<path d="M41.6 26.1467L43.44 22.9667C43.6 22.6567 43.48 22.2767 43.18 22.1167C42.89 21.9667 42.53 22.0567 42.35 22.3367L40.47 25.5767C37.61 24.3667 34.39 24.3667 31.53 25.5767L29.65 22.3367C29.46 22.0467 29.07 21.9567 28.78 22.1367C28.5 22.3167 28.41 22.6767 28.56 22.9667L30.4 26.1467C27.3 27.9167 25.28 31.1067 25 34.6667H47C46.72 31.1067 44.7 27.9167 41.6 26.1467ZM31 31.9167C30.31 31.9167 29.75 31.3567 29.75 30.6667C29.75 29.9767 30.31 29.4167 31 29.4167C31.69 29.4167 32.25 29.9767 32.25 30.6667C32.25 31.3567 31.69 31.9167 31 31.9167ZM41 31.9167C40.31 31.9167 39.75 31.3567 39.75 30.6667C39.75 29.9767 40.31 29.4167 41 29.4167C41.69 29.4167 42.25 29.9767 42.25 30.6667C42.25 31.3567 41.69 31.9167 41 31.9167Z" fill="#F56522"/>
<path d="M64.1815 27.4595C64.1815 26.6701 64.0375 26.0301 63.7495 25.5395C63.4722 25.0381 63.0882 24.6701 62.5975 24.4355C62.1175 24.1901 61.5682 24.0675 60.9495 24.0675C60.7148 24.0675 60.4908 24.0781 60.2775 24.0995C60.0748 24.1101 59.8775 24.1315 59.6855 24.1635V30.8035C59.8775 30.8461 60.0908 30.8781 60.3255 30.8995C60.5602 30.9101 60.7948 30.9155 61.0295 30.9155C62.0215 30.9155 62.7948 30.6275 63.3495 30.0515C63.9042 29.4648 64.1815 28.6008 64.1815 27.4595ZM66.2615 27.4275C66.2615 28.5795 66.0428 29.5395 65.6055 30.3075C65.1682 31.0648 64.5602 31.6301 63.7815 32.0035C63.0028 32.3768 62.0855 32.5635 61.0295 32.5635C60.6775 32.5635 60.2615 32.5421 59.7815 32.4995C59.3015 32.4675 58.8588 32.3821 58.4535 32.2435C57.9308 32.0621 57.6695 31.7475 57.6695 31.2995V23.4435C57.6695 23.2408 57.7228 23.0861 57.8295 22.9795C57.9468 22.8728 58.0962 22.7875 58.2775 22.7235C58.6722 22.6061 59.0988 22.5261 59.5575 22.4835C60.0268 22.4408 60.4642 22.4195 60.8695 22.4195C61.9468 22.4195 62.8855 22.6061 63.6855 22.9795C64.4962 23.3421 65.1255 23.8915 65.5735 24.6275C66.0322 25.3635 66.2615 26.2968 66.2615 27.4275ZM75.448 28.5635C75.448 29.3848 75.288 30.0995 74.968 30.7075C74.648 31.3048 74.1947 31.7688 73.608 32.0995C73.032 32.4195 72.3493 32.5795 71.56 32.5795C70.7707 32.5795 70.0827 32.4195 69.496 32.0995C68.9093 31.7688 68.4507 31.3048 68.12 30.7075C67.8 30.1101 67.64 29.3955 67.64 28.5635C67.64 27.7421 67.8053 27.0328 68.136 26.4355C68.4667 25.8381 68.9253 25.3795 69.512 25.0595C70.0987 24.7288 70.7813 24.5635 71.56 24.5635C72.3387 24.5635 73.016 24.7288 73.592 25.0595C74.1787 25.3795 74.632 25.8435 74.952 26.4515C75.2827 27.0488 75.448 27.7528 75.448 28.5635ZM71.56 26.1315C70.9733 26.1315 70.5093 26.3448 70.168 26.7715C69.8373 27.1981 69.672 27.7955 69.672 28.5635C69.672 29.3528 69.8373 29.9608 70.168 30.3875C70.4987 30.8035 70.9627 31.0115 71.56 31.0115C72.1467 31.0115 72.6053 30.7981 72.936 30.3715C73.2667 29.9448 73.432 29.3421 73.432 28.5635C73.432 27.8061 73.2667 27.2141 72.936 26.7875C72.6053 26.3501 72.1467 26.1315 71.56 26.1315ZM82.1276 27.3955C81.989 27.9821 81.8236 28.5795 81.6316 29.1875C81.4396 29.7848 81.2583 30.3501 81.0876 30.8835C80.917 31.4061 80.7676 31.8381 80.6396 32.1795C80.533 32.2755 80.389 32.3501 80.2076 32.4035C80.0263 32.4568 79.8023 32.4835 79.5356 32.4835C79.2476 32.4835 78.9863 32.4408 78.7516 32.3555C78.5276 32.2595 78.373 32.1261 78.2876 31.9555C78.1916 31.7421 78.0796 31.4381 77.9516 31.0435C77.8236 30.6381 77.6903 30.1795 77.5516 29.6675C77.4236 29.1555 77.2903 28.6221 77.1516 28.0675C77.0236 27.5128 76.901 26.9741 76.7836 26.4515C76.677 25.9288 76.5863 25.4648 76.5116 25.0595C76.629 24.9421 76.773 24.8408 76.9436 24.7555C77.125 24.6701 77.3276 24.6275 77.5516 24.6275C77.8396 24.6275 78.069 24.6968 78.2396 24.8355C78.4103 24.9741 78.517 25.2035 78.5596 25.5235C78.6663 26.1421 78.7676 26.7288 78.8636 27.2835C78.9596 27.8275 79.0556 28.3235 79.1516 28.7715C79.2476 29.2195 79.3276 29.6035 79.3916 29.9235C79.4663 30.2328 79.5196 30.4675 79.5516 30.6275H79.6156C79.6903 30.3821 79.8023 29.9928 79.9516 29.4595C80.101 28.9261 80.277 28.3181 80.4796 27.6355C80.693 26.9421 80.901 26.2381 81.1036 25.5235C81.253 25.4488 81.4076 25.3901 81.5676 25.3475C81.7383 25.2941 81.9303 25.2675 82.1436 25.2675C82.421 25.2675 82.6556 25.3155 82.8476 25.4115C83.0396 25.4968 83.1676 25.6355 83.2316 25.8275C83.445 26.5101 83.6423 27.1768 83.8236 27.8275C84.0156 28.4675 84.181 29.0381 84.3196 29.5395C84.469 30.0301 84.5756 30.3981 84.6396 30.6435H84.7196C84.901 29.7581 85.093 28.8195 85.2956 27.8275C85.4983 26.8355 85.669 25.8488 85.8076 24.8675C86.0743 24.7075 86.3676 24.6275 86.6876 24.6275C86.965 24.6275 87.189 24.6915 87.3596 24.8195C87.5303 24.9368 87.6156 25.1341 87.6156 25.4115C87.6156 25.5608 87.5836 25.8008 87.5196 26.1315C87.4663 26.4621 87.3863 26.8461 87.2796 27.2835C87.1836 27.7208 87.0716 28.1848 86.9436 28.6755C86.8156 29.1661 86.6823 29.6408 86.5436 30.0995C86.4156 30.5581 86.293 30.9688 86.1756 31.3315C86.0583 31.6941 85.957 31.9768 85.8716 32.1795C85.7756 32.2648 85.621 32.3341 85.4076 32.3875C85.1943 32.4515 84.9596 32.4835 84.7036 32.4835C84.0423 32.4835 83.6583 32.3235 83.5516 32.0035C83.4236 31.6835 83.2743 31.2728 83.1036 30.7715C82.9436 30.2701 82.7783 29.7261 82.6076 29.1395C82.4476 28.5528 82.2876 27.9715 82.1276 27.3955ZM96.1723 27.4115V28.9635H94.2043V27.4915C94.2043 27.0221 94.0709 26.6808 93.8043 26.4675C93.5376 26.2435 93.1803 26.1315 92.7323 26.1315C92.4016 26.1315 92.1029 26.1741 91.8363 26.2595C91.5803 26.3341 91.3509 26.4248 91.1483 26.5315V28.9635H89.1803V26.4035C89.1803 26.1475 89.2336 25.9395 89.3403 25.7795C89.4469 25.6088 89.6069 25.4541 89.8203 25.3155C90.1403 25.1021 90.5509 24.9261 91.0523 24.7875C91.5643 24.6381 92.1296 24.5635 92.7483 24.5635C93.8256 24.5635 94.6629 24.8035 95.2603 25.2835C95.8683 25.7635 96.1723 26.4728 96.1723 27.4115ZM89.1803 28.1795H91.1483V32.3235C91.0629 32.3555 90.9403 32.3821 90.7803 32.4035C90.6203 32.4355 90.4443 32.4515 90.2523 32.4515C89.8896 32.4515 89.6176 32.3875 89.4363 32.2595C89.2656 32.1208 89.1803 31.8808 89.1803 31.5395V28.1795ZM94.2043 28.1795H96.1723V32.3235C96.0976 32.3555 95.9749 32.3821 95.8043 32.4035C95.6443 32.4355 95.4736 32.4515 95.2923 32.4515C94.9189 32.4515 94.6416 32.3875 94.4603 32.2595C94.2896 32.1208 94.2043 31.8808 94.2043 31.5395V28.1795ZM98.3548 28.1315L100.323 28.2275V32.3235C100.237 32.3555 100.115 32.3821 99.9548 32.4035C99.7948 32.4355 99.6188 32.4515 99.4268 32.4515C99.0641 32.4515 98.7921 32.3875 98.6108 32.2595C98.4401 32.1208 98.3548 31.8808 98.3548 31.5395V28.1315ZM100.323 29.2355L98.3548 29.1395V21.9555C98.4294 21.9341 98.5468 21.9075 98.7068 21.8755C98.8774 21.8435 99.0534 21.8275 99.2348 21.8275C99.6188 21.8275 99.8961 21.8968 100.067 22.0355C100.237 22.1635 100.323 22.3981 100.323 22.7395V29.2355ZM109.885 28.5635C109.885 29.3848 109.726 30.0995 109.406 30.7075C109.086 31.3048 108.632 31.7688 108.046 32.0995C107.47 32.4195 106.787 32.5795 105.998 32.5795C105.208 32.5795 104.52 32.4195 103.934 32.0995C103.347 31.7688 102.888 31.3048 102.558 30.7075C102.238 30.1101 102.078 29.3955 102.078 28.5635C102.078 27.7421 102.243 27.0328 102.574 26.4355C102.904 25.8381 103.363 25.3795 103.95 25.0595C104.536 24.7288 105.219 24.5635 105.998 24.5635C106.776 24.5635 107.454 24.7288 108.03 25.0595C108.616 25.3795 109.07 25.8435 109.39 26.4515C109.72 27.0488 109.885 27.7528 109.885 28.5635ZM105.998 26.1315C105.411 26.1315 104.947 26.3448 104.606 26.7715C104.275 27.1981 104.11 27.7955 104.11 28.5635C104.11 29.3528 104.275 29.9608 104.606 30.3875C104.936 30.8035 105.4 31.0115 105.998 31.0115C106.584 31.0115 107.043 30.7981 107.374 30.3715C107.704 29.9448 107.87 29.3421 107.87 28.5635C107.87 27.8061 107.704 27.2141 107.374 26.7875C107.043 26.3501 106.584 26.1315 105.998 26.1315ZM114.578 31.0915C114.898 31.0915 115.186 31.0595 115.442 30.9955C115.698 30.9315 115.885 30.8621 116.002 30.7875V28.9635L114.418 29.1235C113.981 29.1555 113.645 29.2515 113.41 29.4115C113.186 29.5608 113.074 29.7848 113.074 30.0835C113.074 30.3928 113.197 30.6381 113.442 30.8195C113.687 31.0008 114.066 31.0915 114.578 31.0915ZM114.498 24.5635C115.543 24.5635 116.375 24.7875 116.994 25.2355C117.613 25.6728 117.922 26.3661 117.922 27.3155V30.9955C117.922 31.2515 117.858 31.4541 117.73 31.6035C117.613 31.7528 117.458 31.8861 117.266 32.0035C116.967 32.1741 116.589 32.3128 116.13 32.4195C115.671 32.5368 115.154 32.5955 114.578 32.5955C113.511 32.5955 112.674 32.3928 112.066 31.9875C111.458 31.5715 111.154 30.9581 111.154 30.1475C111.154 29.4328 111.378 28.8888 111.826 28.5155C112.285 28.1315 112.946 27.8968 113.81 27.8115L115.986 27.5875V27.2995C115.986 26.8728 115.837 26.5635 115.538 26.3715C115.25 26.1795 114.839 26.0835 114.306 26.0835C113.89 26.0835 113.485 26.1368 113.09 26.2435C112.695 26.3501 112.343 26.4781 112.034 26.6275C111.927 26.5421 111.831 26.4248 111.746 26.2755C111.661 26.1261 111.618 25.9715 111.618 25.8115C111.618 25.4275 111.831 25.1448 112.258 24.9635C112.557 24.8248 112.903 24.7235 113.298 24.6595C113.703 24.5955 114.103 24.5635 114.498 24.5635ZM124.954 30.6915V25.6675H126.922V30.8995C126.922 31.1341 126.869 31.3315 126.762 31.4915C126.666 31.6408 126.506 31.7848 126.282 31.9235C126.026 32.0941 125.674 32.2435 125.226 32.3715C124.789 32.5101 124.287 32.5795 123.722 32.5795C122.879 32.5795 122.143 32.4408 121.514 32.1635C120.895 31.8755 120.415 31.4381 120.074 30.8515C119.733 30.2541 119.562 29.5021 119.562 28.5955C119.562 27.6675 119.733 26.9048 120.074 26.3075C120.426 25.7101 120.895 25.2728 121.482 24.9955C122.069 24.7075 122.719 24.5635 123.434 24.5635C123.829 24.5635 124.186 24.6115 124.506 24.7075C124.837 24.8035 125.103 24.9155 125.306 25.0435V26.7235C125.135 26.5635 124.911 26.4248 124.634 26.3075C124.357 26.1901 124.037 26.1315 123.674 26.1315C123.279 26.1315 122.922 26.2168 122.602 26.3875C122.282 26.5475 122.031 26.8141 121.85 27.1875C121.669 27.5501 121.578 28.0248 121.578 28.6115C121.578 29.4435 121.77 30.0515 122.154 30.4355C122.538 30.8195 123.055 31.0115 123.706 31.0115C123.994 31.0115 124.239 30.9795 124.442 30.9155C124.645 30.8515 124.815 30.7768 124.954 30.6915ZM126.922 26.0675L124.954 26.0835V21.9555C125.029 21.9341 125.146 21.9075 125.306 21.8755C125.477 21.8435 125.653 21.8275 125.834 21.8275C126.218 21.8275 126.495 21.8968 126.666 22.0355C126.837 22.1635 126.922 22.3981 126.922 22.7395V26.0675ZM136.132 24.2915H136.052C135.913 24.6755 135.758 25.1128 135.588 25.6035C135.428 26.0941 135.257 26.6061 135.076 27.1395C134.894 27.6621 134.724 28.1688 134.564 28.6595L134.34 29.6515C134.276 29.8541 134.206 30.0781 134.132 30.3235C134.068 30.5688 133.993 30.8195 133.908 31.0755C133.833 31.3208 133.758 31.5555 133.684 31.7795C133.62 32.0035 133.561 32.2008 133.508 32.3715C133.401 32.4035 133.284 32.4301 133.156 32.4515C133.038 32.4835 132.894 32.4995 132.724 32.4995C132.382 32.4995 132.11 32.4355 131.908 32.3075C131.716 32.1688 131.62 31.9661 131.62 31.6995C131.62 31.5821 131.636 31.4595 131.668 31.3315C131.71 31.2035 131.753 31.0595 131.796 30.8995C131.902 30.5475 132.046 30.1101 132.228 29.5875C132.409 29.0541 132.606 28.4781 132.82 27.8595C133.033 27.2408 133.252 26.6168 133.476 25.9875C133.71 25.3581 133.929 24.7715 134.132 24.2275C134.334 23.6728 134.51 23.2088 134.66 22.8355C134.788 22.7608 134.985 22.6915 135.252 22.6275C135.518 22.5635 135.79 22.5315 136.068 22.5315C136.43 22.5315 136.761 22.5848 137.06 22.6915C137.369 22.7981 137.561 22.9688 137.636 23.2035C137.86 23.7901 138.1 24.4621 138.356 25.2195C138.612 25.9768 138.873 26.7661 139.14 27.5875C139.406 28.4088 139.662 29.2088 139.908 29.9875C140.153 30.7661 140.372 31.4701 140.564 32.0995C140.457 32.2168 140.308 32.3128 140.116 32.3875C139.934 32.4621 139.721 32.4995 139.476 32.4995C139.124 32.4995 138.868 32.4355 138.708 32.3075C138.558 32.1688 138.441 31.9608 138.356 31.6835L137.7 29.5875L137.492 28.5635C137.321 28.0195 137.15 27.4861 136.98 26.9635C136.82 26.4301 136.665 25.9341 136.516 25.4755C136.366 25.0168 136.238 24.6221 136.132 24.2915ZM133.444 30.0355L134.196 28.4515H138.196L138.5 30.0355H133.444ZM144.186 27.4915H145.37C146.02 27.4915 146.532 27.3475 146.906 27.0595C147.279 26.7608 147.466 26.3288 147.466 25.7635C147.466 25.1875 147.284 24.7608 146.922 24.4835C146.57 24.2061 146.063 24.0675 145.402 24.0675C145.167 24.0675 144.948 24.0781 144.746 24.0995C144.543 24.1101 144.356 24.1315 144.186 24.1635V27.4915ZM145.482 29.1075H142.17V23.4435C142.17 23.2515 142.223 23.1021 142.33 22.9955C142.447 22.8888 142.596 22.8035 142.778 22.7395C143.119 22.6328 143.524 22.5528 143.994 22.4995C144.463 22.4461 144.9 22.4195 145.306 22.4195C146.714 22.4195 147.764 22.7181 148.458 23.3155C149.162 23.9128 149.514 24.7235 149.514 25.7475C149.514 26.4301 149.359 27.0221 149.05 27.5235C148.74 28.0248 148.287 28.4141 147.69 28.6915C147.092 28.9688 146.356 29.1075 145.482 29.1075ZM142.17 28.1955H144.202V32.3235C144.116 32.3555 143.983 32.3821 143.802 32.4035C143.631 32.4355 143.45 32.4515 143.258 32.4515C142.874 32.4515 142.596 32.3821 142.426 32.2435C142.255 32.0941 142.17 31.8488 142.17 31.5075V28.1955ZM152.573 27.2675L154.669 26.8355C155.65 27.8381 156.514 28.7341 157.261 29.5235C158.008 30.3021 158.621 30.9261 159.101 31.3955C159.101 31.7368 158.989 32.0088 158.765 32.2115C158.552 32.4035 158.301 32.4995 158.013 32.4995C157.704 32.4995 157.442 32.4195 157.229 32.2595C157.026 32.0995 156.824 31.9128 156.621 31.6995L152.573 27.2675ZM154.765 27.9715L152.333 27.9555L157.277 22.5635C157.768 22.5741 158.125 22.6755 158.349 22.8675C158.573 23.0595 158.685 23.2941 158.685 23.5715C158.685 23.7741 158.632 23.9661 158.525 24.1475C158.429 24.3288 158.269 24.5261 158.045 24.7395L154.765 27.9715ZM151.357 25.9075H153.389V32.3395C153.304 32.3608 153.17 32.3875 152.989 32.4195C152.818 32.4515 152.637 32.4675 152.445 32.4675C152.061 32.4675 151.784 32.3981 151.613 32.2595C151.442 32.1101 151.357 31.8648 151.357 31.5235V25.9075ZM153.389 28.2435H151.357V22.6435C151.453 22.6221 151.586 22.5955 151.757 22.5635C151.938 22.5315 152.12 22.5155 152.301 22.5155C152.685 22.5155 152.962 22.5848 153.133 22.7235C153.304 22.8515 153.389 23.0968 153.389 23.4595V28.2435Z" fill="#F56522"/>
</svg>
