<?xml version="1.0" encoding="utf-8"?>
<!-- Generator: Adobe Illustrator 28.1.0, SVG Export Plug-In . SVG Version: 6.00 Build 0)  -->
<svg version="1.1" id="Layer_1" xmlns="http://www.w3.org/2000/svg" xmlns:xlink="http://www.w3.org/1999/xlink" x="0px" y="0px"
	 viewBox="0 0 135 40" style="enable-background:new 0 0 135 40;" xml:space="preserve">
<style type="text/css">
	.st0{fill:#A6A6A6;}
	.st1{fill:#FFFFFF;}
</style>
<path class="st0" d="M130.2,40H4.7C2.1,40,0,37.9,0,35.3V4.7C0,2.1,2.1,0,4.7,0h125.5c2.6,0,4.8,2.1,4.8,4.7v30.5
	C135,37.9,132.8,40,130.2,40z"/>
<path d="M134,35.3c0,2.1-1.7,3.8-3.8,3.8c0,0,0,0,0,0H4.7c-2.1,0-3.8-1.7-3.8-3.8V4.7c0-2.1,1.7-3.8,3.8-3.8h125.5
	c2.1,0,3.8,1.7,3.8,3.8c0,0,0,0,0,0L134,35.3L134,35.3z"/>
<path class="st1" d="M22.6,33.1l-6-4.2c-0.7-0.5-0.4-1.6,0.4-1.7l1.9-0.3l-6.3-10.4c-0.4-0.7,0.1-1.5,0.9-1.5h6.1
	c0.2,0,0.4-0.2,0.4-0.5l-1.5-6.6c-0.2-0.8,0.9-1.3,1.4-0.6l8.1,11.3c0.4,0.6,0,1.5-0.8,1.5h-5.3c-0.3,0-0.5,0.3-0.4,0.5l1.3,5.2
	l1.6-0.9c0.6-0.2,1.3,0.3,1.1,1l-1.5,6.8C23.7,33.2,23.1,33.4,22.6,33.1z"/>
<g>
	<path class="st1" d="M43.8,12.9c-0.5,0-1-0.1-1.4-0.4s-0.7-0.6-0.9-1s-0.3-1-0.3-1.6c0-0.6,0.1-1.2,0.3-1.6s0.5-0.8,0.9-1
		s0.8-0.4,1.3-0.4c0.3,0,0.6,0,0.9,0.1s0.5,0.2,0.7,0.4s0.4,0.4,0.5,0.6s0.2,0.5,0.3,0.8h-0.9c-0.1-0.2-0.1-0.3-0.2-0.5
		S44.8,8.1,44.7,8s-0.3-0.2-0.4-0.2s-0.3-0.1-0.5-0.1c-0.3,0-0.6,0.1-0.9,0.2s-0.5,0.4-0.6,0.7S42,9.4,42,9.9s0.1,0.9,0.2,1.2
		s0.4,0.6,0.6,0.7s0.6,0.3,0.9,0.3c0.3,0,0.6-0.1,0.8-0.2s0.4-0.3,0.5-0.5s0.2-0.5,0.2-0.8l0.2,0h-1.7V9.8h2.3v0.7
		c0,0.5-0.1,0.9-0.3,1.3s-0.5,0.6-0.9,0.8S44.2,12.9,43.8,12.9z"/>
	<path class="st1" d="M48.1,12.8V7h3.7v0.8H49v1.7h2.6v0.8H49V12h2.8v0.8H48.1z"/>
	<path class="st1" d="M53.4,7.7V7H58v0.8h-1.8v5.1h-0.9V7.7H53.4z"/>
	<path class="st1" d="M63.6,7v5.8h-0.9V7H63.6z"/>
	<path class="st1" d="M65.4,7.7V7h4.5v0.8h-1.8v5.1h-0.9V7.7H65.4z"/>
	<path class="st1" d="M77,12.9c-0.5,0-1-0.1-1.3-0.4s-0.7-0.6-0.9-1s-0.3-1-0.3-1.6c0-0.6,0.1-1.2,0.3-1.6s0.5-0.8,0.9-1
		s0.8-0.4,1.3-0.4s1,0.1,1.3,0.4s0.7,0.6,0.9,1s0.3,1,0.3,1.6c0,0.6-0.1,1.2-0.3,1.6s-0.5,0.8-0.9,1S77.5,12.9,77,12.9z M77,12.1
		c0.3,0,0.6-0.1,0.9-0.2s0.5-0.4,0.6-0.7s0.2-0.7,0.2-1.2c0-0.5-0.1-0.9-0.2-1.2S78.2,8.1,77.9,8S77.4,7.7,77,7.7
		c-0.3,0-0.6,0.1-0.9,0.2s-0.5,0.4-0.6,0.7s-0.2,0.7-0.2,1.2c0,0.5,0.1,0.9,0.2,1.2s0.4,0.6,0.6,0.7S76.7,12.1,77,12.1z"/>
	<path class="st1" d="M81.5,12.8V7h1l2.2,3.5c0.1,0.1,0.2,0.3,0.2,0.4s0.2,0.3,0.3,0.5s0.2,0.4,0.3,0.7h-0.1c0-0.2,0-0.4-0.1-0.7
		s0-0.4,0-0.6s0-0.4,0-0.5V7h0.9v5.8h-1l-2-3.1c-0.1-0.2-0.2-0.3-0.3-0.5s-0.2-0.4-0.3-0.6s-0.3-0.5-0.4-0.8h0.1c0,0.3,0,0.6,0,0.8
		s0,0.5,0,0.7s0,0.3,0,0.5v3.1H81.5z"/>
</g>
<g>
	<path class="st1" d="M41.7,30.5V29l4.6-5.7v-0.1h-4.4v-2h7.4v1.7l-4.3,5.6v0.1h4.5v2H41.7z"/>
	<path class="st1" d="M54.1,30.7c-0.6,0-1.1-0.1-1.6-0.3c-0.5-0.2-0.8-0.5-1.1-0.9C51.1,29,51,28.5,51,27.9c0-0.5,0.1-0.9,0.3-1.3
		c0.2-0.3,0.5-0.6,0.8-0.8c0.3-0.2,0.7-0.4,1.1-0.5c0.4-0.1,0.9-0.2,1.3-0.2c0.5-0.1,1-0.1,1.3-0.2c0.3,0,0.6-0.1,0.7-0.2
		c0.2-0.1,0.2-0.3,0.2-0.5v0c0-0.3-0.1-0.5-0.2-0.7s-0.3-0.3-0.5-0.4c-0.2-0.1-0.5-0.1-0.8-0.1c-0.3,0-0.6,0-0.8,0.1
		s-0.4,0.2-0.6,0.4c-0.1,0.2-0.3,0.3-0.3,0.5l-2.3-0.4c0.2-0.5,0.4-1,0.8-1.4c0.4-0.4,0.8-0.7,1.4-0.9c0.6-0.2,1.2-0.3,1.9-0.3
		c0.5,0,1,0.1,1.5,0.2s0.9,0.3,1.3,0.6c0.4,0.2,0.7,0.6,0.9,1c0.2,0.4,0.3,0.9,0.3,1.4v6.2h-2.4v-1.3h-0.1c-0.1,0.3-0.3,0.5-0.6,0.8
		c-0.2,0.2-0.5,0.4-0.9,0.5C54.9,30.6,54.5,30.7,54.1,30.7z M54.8,28.9c0.4,0,0.7-0.1,1-0.2c0.3-0.2,0.5-0.4,0.7-0.6
		s0.2-0.6,0.2-0.9v-1c-0.1,0.1-0.2,0.1-0.3,0.1c-0.1,0-0.3,0.1-0.5,0.1s-0.4,0.1-0.5,0.1c-0.2,0-0.3,0-0.5,0.1
		c-0.3,0-0.6,0.1-0.8,0.2s-0.4,0.2-0.5,0.4s-0.2,0.4-0.2,0.6c0,0.2,0.1,0.4,0.2,0.6s0.3,0.3,0.5,0.4S54.5,28.9,54.8,28.9z"/>
	<path class="st1" d="M61.3,33.9V21.2h2.4v1.6h0.1c0.1-0.2,0.3-0.5,0.5-0.8c0.2-0.3,0.5-0.5,0.8-0.7c0.3-0.2,0.8-0.3,1.3-0.3
		c0.7,0,1.3,0.2,1.9,0.5c0.6,0.4,1,0.9,1.4,1.6c0.3,0.7,0.5,1.6,0.5,2.6c0,1-0.2,1.9-0.5,2.6s-0.8,1.3-1.4,1.6
		c-0.6,0.4-1.2,0.6-1.9,0.6c-0.5,0-0.9-0.1-1.3-0.3c-0.3-0.2-0.6-0.4-0.9-0.6c-0.2-0.3-0.4-0.5-0.5-0.8h-0.1v5H61.3z M65.8,28.6
		c0.4,0,0.8-0.1,1.1-0.4c0.3-0.2,0.5-0.6,0.7-1c0.2-0.4,0.2-0.9,0.2-1.4c0-0.5-0.1-1-0.2-1.4s-0.4-0.7-0.7-1
		c-0.3-0.2-0.7-0.4-1.1-0.4c-0.4,0-0.8,0.1-1.1,0.3s-0.5,0.6-0.7,1s-0.2,0.9-0.2,1.5c0,0.6,0.1,1,0.2,1.5c0.2,0.4,0.4,0.7,0.7,1
		S65.4,28.6,65.8,28.6z"/>
	<path class="st1" d="M73.8,30.6c-0.4,0-0.7-0.1-1-0.4c-0.3-0.3-0.4-0.6-0.4-1c0-0.4,0.1-0.7,0.4-1c0.3-0.3,0.6-0.4,1-0.4
		s0.7,0.1,1,0.4c0.3,0.3,0.4,0.6,0.4,1c0,0.4-0.1,0.7-0.4,1C74.6,30.5,74.2,30.6,73.8,30.6z"/>
	<path class="st1" d="M81.4,30.7c-0.7,0-1.4-0.1-2-0.3c-0.6-0.2-1-0.5-1.4-0.9c-0.4-0.4-0.6-0.9-0.7-1.5l2.3-0.4
		c0.1,0.4,0.3,0.8,0.6,1s0.7,0.3,1.2,0.3c0.5,0,0.9-0.1,1.1-0.3c0.3-0.2,0.4-0.4,0.4-0.7c0-0.2-0.1-0.4-0.3-0.6
		c-0.2-0.2-0.5-0.3-0.9-0.4l-1.6-0.3c-0.9-0.2-1.6-0.5-2-0.9c-0.4-0.4-0.7-1-0.7-1.7c0-0.6,0.2-1.1,0.5-1.5s0.8-0.8,1.4-1
		s1.3-0.3,2-0.3c0.7,0,1.4,0.1,1.9,0.3c0.5,0.2,1,0.5,1.3,0.9c0.3,0.4,0.6,0.8,0.7,1.3l-2.2,0.4c-0.1-0.3-0.3-0.6-0.5-0.8
		s-0.6-0.3-1.1-0.3c-0.4,0-0.8,0.1-1,0.3c-0.3,0.2-0.4,0.4-0.4,0.7c0,0.2,0.1,0.4,0.3,0.6c0.2,0.2,0.5,0.3,0.9,0.4l1.7,0.3
		c0.9,0.2,1.6,0.5,2,0.9c0.4,0.4,0.7,1,0.7,1.6c0,0.6-0.2,1.1-0.5,1.6c-0.4,0.5-0.8,0.8-1.5,1.1C83,30.5,82.2,30.7,81.4,30.7z"/>
	<path class="st1" d="M91.9,21.2v1.9h-5.5v-1.9H91.9z M87.6,19h2.5v8.8c0,0.3,0.1,0.5,0.2,0.7c0.1,0.1,0.3,0.2,0.7,0.2
		c0.1,0,0.2,0,0.4,0c0.2,0,0.3,0,0.4-0.1l0.4,1.9c-0.3,0.1-0.6,0.1-0.8,0.2c-0.3,0-0.5,0-0.8,0c-0.9,0-1.6-0.2-2.1-0.7
		c-0.5-0.5-0.7-1.1-0.7-2V19z"/>
	<path class="st1" d="M97.6,30.7c-0.9,0-1.7-0.2-2.4-0.6c-0.7-0.4-1.2-1-1.6-1.7s-0.6-1.6-0.6-2.5c0-1,0.2-1.8,0.6-2.5
		c0.4-0.7,0.9-1.3,1.6-1.7c0.7-0.4,1.5-0.6,2.4-0.6c0.9,0,1.7,0.2,2.4,0.6c0.7,0.4,1.2,1,1.6,1.7c0.4,0.7,0.6,1.6,0.6,2.5
		c0,1-0.2,1.8-0.6,2.5s-0.9,1.3-1.6,1.7S98.6,30.7,97.6,30.7z M97.6,28.7c0.4,0,0.8-0.1,1.1-0.4s0.5-0.6,0.7-1
		c0.1-0.4,0.2-0.9,0.2-1.4c0-0.5-0.1-1-0.2-1.5c-0.2-0.4-0.4-0.8-0.7-1c-0.3-0.2-0.7-0.4-1.1-0.4s-0.8,0.1-1.1,0.4
		c-0.3,0.2-0.5,0.6-0.7,1c-0.1,0.4-0.2,0.9-0.2,1.5c0,0.5,0.1,1,0.2,1.4s0.4,0.8,0.7,1S97.2,28.7,97.6,28.7z"/>
	<path class="st1" d="M103.9,30.5v-9.3h2.4v1.6h0.1c0.2-0.6,0.5-1,0.9-1.3c0.4-0.3,0.9-0.4,1.4-0.4c0.1,0,0.3,0,0.4,0s0.3,0,0.4,0.1
		v2.2c-0.1,0-0.3-0.1-0.5-0.1c-0.2,0-0.4,0-0.6,0c-0.4,0-0.7,0.1-1,0.2s-0.5,0.4-0.7,0.7c-0.2,0.3-0.3,0.6-0.3,1v5.3H103.9z"/>
	<path class="st1" d="M115,30.7c-0.9,0-1.8-0.2-2.4-0.6c-0.7-0.4-1.2-0.9-1.6-1.7s-0.6-1.6-0.6-2.5c0-1,0.2-1.8,0.5-2.5
		c0.4-0.7,0.9-1.3,1.6-1.7c0.7-0.4,1.5-0.6,2.4-0.6c0.6,0,1.2,0.1,1.7,0.3c0.5,0.2,1,0.5,1.4,0.9c0.4,0.4,0.7,0.9,0.9,1.5
		c0.2,0.6,0.3,1.3,0.3,2.1v0.7h-7.8v-1.6h6.6l-1.2,0.4c0-0.5-0.1-0.9-0.2-1.3c-0.1-0.4-0.4-0.6-0.7-0.8c-0.3-0.2-0.6-0.3-1.1-0.3
		c-0.4,0-0.8,0.1-1.1,0.3s-0.5,0.5-0.7,0.8c-0.2,0.3-0.2,0.7-0.2,1.2v1.1c0,0.5,0.1,1,0.3,1.4s0.4,0.6,0.8,0.8
		c0.3,0.2,0.7,0.3,1.1,0.3c0.3,0,0.6,0,0.8-0.1s0.4-0.2,0.6-0.4c0.2-0.2,0.3-0.4,0.4-0.6l2.3,0.4c-0.1,0.5-0.4,1-0.8,1.3
		c-0.4,0.4-0.8,0.7-1.4,0.9C116.4,30.6,115.8,30.7,115,30.7z"/>
</g>
</svg>
