<svg width="141" height="42" viewBox="0 0 141 42" fill="none" xmlns="http://www.w3.org/2000/svg">
<g id="Vector">
<path d="M134.945 41.6004H6.19932C3.36655 41.6004 1.0498 39.2829 1.0498 36.4501V5.55223C1.0498 2.71791 3.36732 0.400391 6.19932 0.400391H134.945C137.778 0.400391 140.095 2.71791 140.095 5.54991V36.4501C140.095 39.2821 137.778 41.6004 134.945 41.6004Z" fill="#100F0D"/>
<path d="M134.945 0.400391H6.19932C3.36655 0.400391 1.0498 2.71945 1.0498 5.55223V36.4501C1.0498 39.2829 3.36655 41.6004 6.19932 41.6004H134.945C137.778 41.6004 140.095 39.2821 140.095 36.4501V5.55221C140.095 2.71943 137.778 0.401918 134.945 0.401918V0.400391ZM134.945 1.22464C137.33 1.22464 139.271 3.16594 139.271 5.55066V36.4509C139.271 38.8356 137.33 40.7769 134.945 40.7769H6.19932C5.05236 40.7757 3.95274 40.3195 3.14171 39.5085C2.33069 38.6974 1.87452 37.5978 1.87329 36.4509V5.55066C1.87329 3.16594 3.81383 1.22464 6.19932 1.22464H134.945Z" fill="#A2A2A1"/>
<path d="M111.191 31.3009H113.113V18.424H111.191V31.3009ZM128.502 23.0629L126.299 28.6451H126.233L123.946 23.0629H121.876L125.306 30.8652L123.35 35.2059H125.355L130.638 23.0629H128.502ZM117.602 29.8378C116.974 29.8378 116.095 29.5234 116.095 28.7447C116.095 27.7513 117.188 27.3696 118.132 27.3696C118.977 27.3696 119.375 27.552 119.888 27.8007C119.818 28.3594 119.547 28.8736 119.127 29.2482C118.707 29.6228 118.165 29.8318 117.602 29.8378ZM117.834 22.781C116.443 22.781 115.002 23.3943 114.406 24.7532L116.111 25.4647C116.476 24.7532 117.154 24.5214 117.867 24.5214C118.862 24.5214 119.872 25.1163 119.888 26.1777V26.3098C119.541 26.1112 118.794 25.8131 117.884 25.8131C116.044 25.8131 114.173 26.8235 114.173 28.7115C114.173 30.4342 115.68 31.5443 117.37 31.5443C118.662 31.5443 119.375 30.9649 119.821 30.2851H119.888V31.2801H121.745V26.343C121.745 24.0564 120.037 22.781 117.834 22.781ZM105.956 24.6303H103.223V20.217H105.956C107.393 20.217 108.209 21.4067 108.209 22.4233C108.209 23.4214 107.393 24.6303 105.956 24.6303ZM105.907 18.424H101.302V31.3017H103.223V26.4233H105.907C108.037 26.4233 110.131 24.8814 110.131 22.4241C110.131 19.9675 108.037 18.424 105.907 18.424ZM80.7949 29.8409C79.4677 29.8409 78.3561 28.7285 78.3561 27.2028C78.3561 25.6593 79.4677 24.5315 80.7949 24.5315C82.1058 24.5315 83.1348 25.6593 83.1348 27.2028C83.1348 28.7293 82.1058 29.8409 80.7949 29.8409ZM83.0019 23.7845H82.9355C82.5044 23.27 81.674 22.8057 80.6296 22.8057C78.4387 22.8057 76.431 24.7308 76.431 27.2028C76.431 29.6586 78.4387 31.5674 80.6296 31.5674C81.674 31.5674 82.5044 31.1024 82.9355 30.5709H83.0019V31.2013C83.0019 32.8776 82.1058 33.7737 80.662 33.7737C79.4847 33.7737 78.7539 32.9278 78.4557 32.214L76.7794 32.9108C77.2607 34.0719 78.5384 35.4995 80.6628 35.4995C82.9193 35.4995 84.8281 34.1716 84.8281 30.9355V23.0714H83.0019V23.7845ZM86.1553 31.3009H88.0788V18.4233H86.1553V31.3009ZM90.917 27.0537C90.8676 25.3611 92.2287 24.4982 93.2075 24.4982C93.9707 24.4982 94.6173 24.8799 94.8336 25.4268L90.917 27.0537ZM96.8908 25.5937C96.5254 24.6141 95.4138 22.8049 93.1411 22.8049C90.8838 22.8049 89.0082 24.5817 89.0082 27.1866C89.0082 29.6424 90.8676 31.5667 93.3558 31.5667C95.3643 31.5667 96.5262 30.3392 97.0075 29.6254L95.5142 28.6296C95.0159 29.3604 94.3361 29.8417 93.3558 29.8417C92.3778 29.8417 91.6803 29.3936 91.233 28.513L97.0901 26.0912L96.8908 25.5937ZM50.2238 24.1491V26.0085H54.6711C54.5382 27.0537 54.1898 27.8162 53.6591 28.3476C53.0118 28.995 51.9998 29.7088 50.2246 29.7088C47.486 29.7088 45.3462 27.5017 45.3462 24.764C45.3462 22.0262 47.486 19.8184 50.2246 19.8184C51.7016 19.8184 52.7792 20.3993 53.5765 21.1464L54.8874 19.8354C53.775 18.7732 52.2987 17.9605 50.2246 17.9605C46.474 17.9605 43.3207 21.0135 43.3207 24.764C43.3207 28.5137 46.474 31.5667 50.2246 31.5667C52.2485 31.5667 53.775 30.9031 54.9701 29.6586C56.1983 28.4303 56.58 26.7053 56.58 25.3109C56.58 24.8799 56.546 24.482 56.4795 24.1499L50.2238 24.1491ZM61.636 29.8409C60.3081 29.8409 59.1632 28.7463 59.1632 27.1866C59.1632 25.6099 60.3081 24.5315 61.6352 24.5315C62.9632 24.5315 64.108 25.6099 64.108 27.1866C64.108 28.7463 62.9632 29.8409 61.636 29.8409ZM61.636 22.8057C59.2127 22.8057 57.2381 24.6473 57.2381 27.1858C57.2381 29.7088 59.2127 31.5667 61.636 31.5667C64.0586 31.5667 66.0331 29.7088 66.0331 27.1866C66.0331 24.6473 64.0586 22.8057 61.636 22.8057ZM71.2282 29.8409C69.901 29.8409 68.7562 28.7463 68.7562 27.1866C68.7562 25.6099 69.901 24.5315 71.2282 24.5315C72.5561 24.5315 73.7002 25.6099 73.7002 27.1866C73.7002 28.7463 72.5561 29.8409 71.2282 29.8409ZM71.2282 22.8057C68.8056 22.8057 66.8311 24.6473 66.8311 27.1858C66.8311 29.7088 68.8056 31.5667 71.2282 31.5667C73.6515 31.5667 75.6261 29.7088 75.6261 27.1866C75.6261 24.6473 73.6515 22.8057 71.2282 22.8057Z" fill="white"/>
<path d="M22.3851 20.4078L11.4202 32.0464L11.4217 32.0533C11.5397 32.4943 11.758 32.9019 12.0596 33.2445C12.3612 33.5872 12.7379 33.8554 13.1604 34.0283C13.5828 34.2012 14.0395 34.2741 14.4947 34.2414C14.95 34.2086 15.3915 34.071 15.7848 33.8394L15.8203 33.8193L28.1634 26.6968L22.3851 20.4078Z" fill="#EB3131"/>
<path d="M33.4787 18.4262L33.4679 18.4184L28.1392 15.33L22.136 20.671L28.1616 26.695L33.4617 23.6359C33.9318 23.3832 34.3249 23.0082 34.5995 22.5506C34.8742 22.093 35.0201 21.5696 35.0219 21.0359C35.0237 20.5022 34.8814 19.9779 34.6099 19.5184C34.3384 19.0589 33.9478 18.6813 33.4795 18.4254" fill="#F6B60B"/>
<path d="M11.4184 9.95637C11.3527 10.1997 11.3179 10.4539 11.3179 10.7188V31.2852C11.3179 31.5487 11.3519 31.8043 11.4184 32.0461L22.7626 20.7058L11.4184 9.95637Z" fill="#5778C5"/>
<path d="M22.4658 21.0019L28.1414 15.3279L15.8123 8.1791C15.4184 7.94297 14.9752 7.80142 14.5174 7.76559C14.0595 7.72976 13.5997 7.80062 13.1739 7.97259C12.7481 8.14457 12.368 8.41298 12.0635 8.75671C11.759 9.10044 11.5384 9.51012 11.419 9.95354L11.4184 9.95637L22.4658 21.0019Z" fill="#3BAD49"/>
<path d="M49.8635 10.4754H46.8585V11.2194H49.1103C49.0485 11.8258 48.8075 12.3024 48.4004 12.6485C47.9933 12.9938 47.4734 13.1676 46.8592 13.1676C46.1848 13.1676 45.6132 12.9328 45.1443 12.4662C44.6862 11.9903 44.4529 11.4009 44.4529 10.691C44.4529 9.9818 44.6862 9.39316 45.145 8.91575C45.6132 8.44915 46.1848 8.21586 46.8592 8.21586C47.2053 8.21586 47.5352 8.27534 47.8372 8.40589C48.14 8.53645 48.3826 8.71799 48.5726 8.95128L49.1443 8.37963C48.8716 8.07604 48.5305 7.8417 48.1493 7.69596C47.7392 7.53197 47.3009 7.44958 46.8592 7.4534C45.9593 7.4534 45.1968 7.76549 44.5734 8.38813C43.9508 9.01231 43.6387 9.78173 43.6387 10.691C43.6387 11.6002 43.9508 12.3712 44.5734 12.9946C45.196 13.6172 45.9593 13.9293 46.8585 13.9293C47.8032 13.9293 48.5564 13.6265 49.1358 13.0116C49.6457 12.5002 49.9068 11.808 49.9068 10.942C49.9068 10.7953 49.889 10.64 49.8635 10.4754ZM51.0277 7.59167V13.791H54.6469V13.0293H51.8241V11.0633H54.3703V10.3194H51.8234V8.35414H54.6461V7.59245L51.0277 7.59167ZM59.7222 8.35414V7.59245H55.4618V8.35491H57.1938V13.7918H57.9903V8.35491L59.7222 8.35414ZM63.5786 7.59167H62.7829V13.791H63.5786V7.59167ZM68.837 8.35414V7.59245H64.5766V8.35491H66.3086V13.7918H67.105V8.35491L68.837 8.35414ZM76.8757 8.39817C76.2608 7.76472 75.5083 7.4534 74.6076 7.4534C73.7069 7.4534 72.9537 7.76549 72.3388 8.38813C71.7238 9.00304 71.4218 9.774 71.4218 10.691C71.4218 11.6079 71.7238 12.3797 72.3388 12.9946C72.9537 13.6172 73.7061 13.9293 74.6076 13.9293C75.4998 13.9293 76.2608 13.6172 76.8757 12.9946C77.4906 12.3797 77.7926 11.6087 77.7926 10.691C77.7926 9.78173 77.4906 9.01231 76.8757 8.39817ZM72.9104 8.91575C73.3685 8.44915 73.9324 8.21586 74.6076 8.21586C75.282 8.21586 75.8459 8.44915 76.2963 8.91575C76.7552 9.37462 76.98 9.97331 76.98 10.691C76.98 11.4109 76.7552 12.0073 76.2963 12.4662C75.8459 12.9328 75.282 13.1676 74.6076 13.1676C73.9324 13.1676 73.3685 12.9328 72.9104 12.4662C72.4608 11.998 72.236 11.4109 72.236 10.691C72.236 9.97331 72.4608 9.38466 72.9104 8.91575ZM79.6853 9.93005L79.6521 8.73421H79.6853L82.8371 13.791H83.6683V7.59167H82.8726V11.2186L82.9059 12.4144H82.8719L79.8591 7.59167H78.8888V13.791H79.6853V9.93005Z" fill="white"/>
<path d="M1.0498 5.55223V36.4501C1.0498 39.2829 3.36655 41.6004 6.19932 41.6004H134.945C137.778 41.6004 140.095 39.2821 140.095 36.4501M1.0498 5.55223C1.0498 2.71791 3.36732 0.400391 6.19932 0.400391M1.0498 5.55223C1.0498 2.71945 3.36655 0.400391 6.19932 0.400391M6.19932 0.400391H134.945M134.945 0.400391C137.778 0.400391 140.095 2.71791 140.095 5.54991V36.4501M134.945 0.400391V0.401918C137.778 0.401918 140.095 2.71943 140.095 5.55221V36.4501M33.4787 18.4262L33.4679 18.4184L28.1392 15.33L22.136 20.671L28.1616 26.695L33.4617 23.6359C33.9318 23.3832 34.3249 23.0082 34.5995 22.5506C34.8742 22.093 35.0201 21.5696 35.0219 21.0359C35.0237 20.5022 34.8814 19.9779 34.6099 19.5184C34.3384 19.0589 33.9478 18.6813 33.4795 18.4254M11.4184 9.95637C11.3527 10.1997 11.3179 10.4539 11.3179 10.7188V31.2852C11.3179 31.5487 11.3519 31.8044 11.4184 32.0461L22.7626 20.7058L11.4184 9.95637ZM11.4184 9.95637L11.419 9.95354C11.5384 9.51012 11.759 9.10044 12.0635 8.75671C12.368 8.41298 12.7481 8.14457 13.1739 7.97259C13.5997 7.80062 14.0595 7.72976 14.5174 7.76559C14.9752 7.80142 15.4184 7.94297 15.8123 8.1791L28.1414 15.3279L22.4658 21.0019L11.4184 9.95637ZM134.945 1.22464C137.33 1.22464 139.271 3.16594 139.271 5.55066V36.4509C139.271 38.8356 137.33 40.7769 134.945 40.7769H6.19932C5.05236 40.7757 3.95274 40.3195 3.14171 39.5085C2.33069 38.6974 1.87452 37.5978 1.87329 36.4509V5.55066C1.87329 3.16594 3.81383 1.22464 6.19932 1.22464H134.945ZM111.191 31.3009H113.113V18.424H111.191V31.3009ZM128.502 23.0629L126.299 28.6451H126.233L123.946 23.0629H121.876L125.306 30.8652L123.35 35.2059H125.355L130.638 23.0629H128.502ZM117.602 29.8378C116.974 29.8378 116.095 29.5234 116.095 28.7447C116.095 27.7513 117.188 27.3696 118.132 27.3696C118.977 27.3696 119.375 27.552 119.888 27.8007C119.818 28.3594 119.547 28.8736 119.127 29.2482C118.707 29.6228 118.165 29.8318 117.602 29.8378ZM117.834 22.781C116.443 22.781 115.002 23.3943 114.406 24.7532L116.111 25.4647C116.476 24.7532 117.154 24.5214 117.867 24.5214C118.862 24.5214 119.872 25.1163 119.888 26.1777V26.3098C119.541 26.1112 118.794 25.8131 117.884 25.8131C116.044 25.8131 114.173 26.8235 114.173 28.7115C114.173 30.4342 115.68 31.5443 117.37 31.5443C118.662 31.5443 119.375 30.9649 119.821 30.2851H119.888V31.2801H121.745V26.343C121.745 24.0564 120.037 22.781 117.834 22.781ZM105.956 24.6303H103.223V20.217H105.956C107.393 20.217 108.209 21.4067 108.209 22.4233C108.209 23.4214 107.393 24.6303 105.956 24.6303ZM105.907 18.424H101.302V31.3017H103.223V26.4233H105.907C108.037 26.4233 110.131 24.8814 110.131 22.4241C110.131 19.9675 108.037 18.424 105.907 18.424ZM80.7949 29.8409C79.4677 29.8409 78.3561 28.7285 78.3561 27.2028C78.3561 25.6593 79.4677 24.5315 80.7949 24.5315C82.1058 24.5315 83.1348 25.6593 83.1348 27.2028C83.1348 28.7293 82.1058 29.8409 80.7949 29.8409ZM83.0019 23.7845H82.9355C82.5044 23.27 81.674 22.8057 80.6296 22.8057C78.4387 22.8057 76.431 24.7308 76.431 27.2028C76.431 29.6586 78.4387 31.5674 80.6296 31.5674C81.674 31.5674 82.5044 31.1024 82.9355 30.5709H83.0019V31.2013C83.0019 32.8776 82.1058 33.7737 80.662 33.7737C79.4847 33.7737 78.7539 32.9278 78.4557 32.214L76.7794 32.9108C77.2607 34.0719 78.5384 35.4995 80.6628 35.4995C82.9193 35.4995 84.8281 34.1716 84.8281 30.9355V23.0714H83.0019V23.7845ZM86.1553 31.3009H88.0788V18.4233H86.1553V31.3009ZM90.917 27.0537C90.8676 25.3611 92.2287 24.4982 93.2075 24.4982C93.9707 24.4982 94.6173 24.8799 94.8336 25.4268L90.917 27.0537ZM96.8908 25.5937C96.5254 24.6141 95.4138 22.8049 93.1411 22.8049C90.8838 22.8049 89.0082 24.5817 89.0082 27.1866C89.0082 29.6424 90.8676 31.5667 93.3558 31.5667C95.3643 31.5667 96.5262 30.3392 97.0075 29.6254L95.5142 28.6296C95.0159 29.3604 94.3361 29.8417 93.3558 29.8417C92.3778 29.8417 91.6803 29.3936 91.233 28.513L97.0901 26.0912L96.8908 25.5937ZM50.2238 24.1491V26.0085H54.6711C54.5382 27.0537 54.1898 27.8162 53.6591 28.3476C53.0118 28.995 51.9998 29.7088 50.2246 29.7088C47.486 29.7088 45.3462 27.5017 45.3462 24.764C45.3462 22.0262 47.486 19.8184 50.2246 19.8184C51.7016 19.8184 52.7792 20.3993 53.5765 21.1464L54.8874 19.8354C53.775 18.7732 52.2987 17.9605 50.2246 17.9605C46.474 17.9605 43.3207 21.0135 43.3207 24.764C43.3207 28.5137 46.474 31.5667 50.2246 31.5667C52.2485 31.5667 53.775 30.9031 54.9701 29.6586C56.1983 28.4303 56.58 26.7053 56.58 25.3109C56.58 24.8799 56.546 24.482 56.4795 24.1499L50.2238 24.1491ZM61.636 29.8409C60.3081 29.8409 59.1632 28.7463 59.1632 27.1866C59.1632 25.6099 60.3081 24.5315 61.6352 24.5315C62.9632 24.5315 64.108 25.6099 64.108 27.1866C64.108 28.7463 62.9632 29.8409 61.636 29.8409ZM61.636 22.8057C59.2127 22.8057 57.2381 24.6473 57.2381 27.1858C57.2381 29.7088 59.2127 31.5667 61.636 31.5667C64.0586 31.5667 66.0331 29.7088 66.0331 27.1866C66.0331 24.6473 64.0586 22.8057 61.636 22.8057ZM71.2282 29.8409C69.901 29.8409 68.7562 28.7463 68.7562 27.1866C68.7562 25.6099 69.901 24.5315 71.2282 24.5315C72.5561 24.5315 73.7002 25.6099 73.7002 27.1866C73.7002 28.7463 72.5561 29.8409 71.2282 29.8409ZM71.2282 22.8057C68.8056 22.8057 66.8311 24.6473 66.8311 27.1858C66.8311 29.7088 68.8056 31.5667 71.2282 31.5667C73.6515 31.5667 75.6261 29.7088 75.6261 27.1866C75.6261 24.6473 73.6515 22.8057 71.2282 22.8057ZM22.3851 20.4078L11.4202 32.0464L11.4217 32.0533C11.5397 32.4943 11.758 32.9019 12.0596 33.2445C12.3612 33.5871 12.7379 33.8554 13.1604 34.0283C13.5828 34.2012 14.0395 34.2741 14.4947 34.2414C14.95 34.2086 15.3915 34.071 15.7848 33.8394L15.8203 33.8193L28.1634 26.6968L22.3851 20.4078ZM49.8635 10.4754H46.8585V11.2194H49.1103C49.0485 11.8258 48.8075 12.3024 48.4004 12.6485C47.9933 12.9938 47.4734 13.1676 46.8592 13.1676C46.1848 13.1676 45.6132 12.9328 45.1443 12.4662C44.6862 11.9903 44.4529 11.4009 44.4529 10.691C44.4529 9.9818 44.6862 9.39316 45.145 8.91575C45.6132 8.44915 46.1848 8.21586 46.8592 8.21586C47.2053 8.21586 47.5352 8.27534 47.8372 8.40589C48.14 8.53645 48.3826 8.71799 48.5726 8.95128L49.1443 8.37963C48.8716 8.07604 48.5305 7.8417 48.1493 7.69596C47.7392 7.53197 47.3009 7.44958 46.8592 7.4534C45.9593 7.4534 45.1968 7.76549 44.5734 8.38813C43.9508 9.01231 43.6387 9.78173 43.6387 10.691C43.6387 11.6002 43.9508 12.3712 44.5734 12.9946C45.196 13.6172 45.9593 13.9293 46.8585 13.9293C47.8032 13.9293 48.5564 13.6265 49.1358 13.0116C49.6457 12.5002 49.9068 11.808 49.9068 10.942C49.9068 10.7953 49.889 10.64 49.8635 10.4754ZM51.0277 7.59167V13.791H54.6469V13.0293H51.8241V11.0633H54.3703V10.3194H51.8234V8.35414H54.6461V7.59245L51.0277 7.59167ZM59.7222 8.35414V7.59245H55.4618V8.35491H57.1938V13.7918H57.9903V8.35491L59.7222 8.35414ZM63.5786 7.59167H62.7829V13.791H63.5786V7.59167ZM68.837 8.35414V7.59245H64.5766V8.35491H66.3086V13.7918H67.105V8.35491L68.837 8.35414ZM76.8757 8.39817C76.2608 7.76472 75.5083 7.4534 74.6076 7.4534C73.7069 7.4534 72.9537 7.76549 72.3388 8.38813C71.7238 9.00304 71.4218 9.774 71.4218 10.691C71.4218 11.6079 71.7238 12.3797 72.3388 12.9946C72.9537 13.6172 73.7061 13.9293 74.6076 13.9293C75.4998 13.9293 76.2608 13.6172 76.8757 12.9946C77.4906 12.3797 77.7926 11.6087 77.7926 10.691C77.7926 9.78173 77.4906 9.01231 76.8757 8.39817ZM72.9104 8.91575C73.3685 8.44915 73.9324 8.21586 74.6076 8.21586C75.282 8.21586 75.8459 8.44915 76.2963 8.91575C76.7552 9.37462 76.98 9.97331 76.98 10.691C76.98 11.4109 76.7552 12.0073 76.2963 12.4662C75.8459 12.9328 75.282 13.1676 74.6076 13.1676C73.9324 13.1676 73.3685 12.9328 72.9104 12.4662C72.4608 11.998 72.236 11.4109 72.236 10.691C72.236 9.97331 72.4608 9.38466 72.9104 8.91575ZM79.6853 9.93005L79.6521 8.73421H79.6853L82.8371 13.791H83.6683V7.59167H82.8726V11.2186L82.9059 12.4144H82.8719L79.8591 7.59167H78.8888V13.791H79.6853V9.93005Z" stroke="white" stroke-width="0.206259" stroke-miterlimit="10"/>
</g>
</svg>
