<svg width="48" height="49" viewBox="0 0 48 49" fill="none" xmlns="http://www.w3.org/2000/svg">
<path d="M30.364 18.0848C33.8787 21.5995 33.8787 27.298 30.364 30.8127C26.8492 34.3274 21.1507 34.3274 17.636 30.8127C14.1213 27.298 14.1213 21.5995 17.636 18.0848C21.1507 14.5701 26.8492 14.5701 30.364 18.0848Z" fill="#FF7A50"/>
<path d="M34.5 0.449219H13.5C6.05565 0.449219 0 6.50487 0 13.9492V34.9492C0 42.3936 6.05565 48.4492 13.5 48.4492H34.5C41.9444 48.4492 48 42.3936 48 34.9492V13.9492C48 6.50487 41.9444 0.449219 34.5 0.449219ZM24 36.4492C17.3833 36.4492 12 31.0674 12 24.4492C12 17.8311 17.3833 12.4492 24 12.4492C30.6167 12.4492 36 17.8311 36 24.4492C36 31.0674 30.6167 36.4492 24 36.4492ZM37.5 12.4492C36.6716 12.4492 36 11.7776 36 10.9492C36 10.1207 36.6716 9.44922 37.5 9.44922C38.3284 9.44922 39 10.1207 39 10.9492C39 11.7776 38.3284 12.4492 37.5 12.4492Z" fill="#FF7A50"/>
</svg>
