<svg width="48" height="49" viewBox="0 0 48 49" fill="none" xmlns="http://www.w3.org/2000/svg">
<g id="Instagram">
<g id="Instagram_2">
<path id="Vector" d="M30.3637 18.1424C33.8784 21.6571 33.8784 27.3556 30.3637 30.8703C26.849 34.385 21.1505 34.385 17.6358 30.8703C14.1211 27.3556 14.1211 21.6571 17.6358 18.1424C21.1505 14.6277 26.849 14.6277 30.3637 18.1424Z" fill="#F56522"/>
<path id="Vector_2" d="M34.5 0.506836H13.5C6.05565 0.506836 0 6.56249 0 14.0068V35.0068C0 42.4512 6.05565 48.5068 13.5 48.5068H34.5C41.9444 48.5068 48 42.4512 48 35.0068V14.0068C48 6.56249 41.9444 0.506836 34.5 0.506836ZM24 36.5068C17.3833 36.5068 12 31.125 12 24.5068C12 17.8887 17.3833 12.5068 24 12.5068C30.6167 12.5068 36 17.8887 36 24.5068C36 31.125 30.6167 36.5068 24 36.5068ZM37.5 12.5068C36.6716 12.5068 36 11.8352 36 11.0068C36 10.1783 36.6716 9.50684 37.5 9.50684C38.3284 9.50684 39 10.1783 39 11.0068C39 11.8352 38.3284 12.5068 37.5 12.5068Z" fill="#F56522"/>
</g>
</g>
</svg>
