<svg width="49" height="49" viewBox="0 0 49 49" fill="none" xmlns="http://www.w3.org/2000/svg">
<path d="M26.2298 19.8849C28.2638 19.8849 29.9128 18.236 29.9128 16.202C29.9128 14.168 28.2638 12.519 26.2298 12.519C24.1958 12.519 22.5469 14.168 22.5469 16.202C22.5469 18.236 24.1958 19.8849 26.2298 19.8849Z" fill="#FF7A50"/>
<path d="M48.4188 21.3461C48.4188 6.94918 39.9876 0.435547 28.817 0.435547C23.8253 0.435547 19.3814 1.7748 15.9115 4.24024C14.7549 5.06205 13.1721 4.27068 13.1721 2.87055C13.1721 1.92699 12.4112 1.13561 11.4372 1.13561H1.81892C0.875361 1.13561 0.0839844 1.89655 0.0839844 2.87055V46.7006C0.0839844 47.6442 0.844923 48.4355 1.81892 48.4355H12.0764C13.0199 48.4355 13.7809 47.6746 13.7809 46.731V44.1743C13.7809 25.0595 3.67561 10.7539 13.6591 8.86675C22.7904 7.13181 33.1696 7.95362 33.2913 14.9847C33.2913 15.5934 33.3827 17.4197 35.909 18.3937C37.4308 19.0024 39.7441 19.1851 42.7879 19.1242C42.7879 19.1242 45.5577 18.9111 45.5577 21.7114C45.5577 25.2117 39.3484 24.9682 39.3484 24.9682C37.3091 25.0595 32.4695 24.5116 29.6997 25.3335C28.2387 25.79 26.9603 26.6118 26.1994 28.1033C24.921 30.6296 24.3123 36.1692 24.221 41.9524V46.6702C24.221 47.6137 24.9819 48.4051 25.9559 48.4051H46.6534C47.597 48.4051 48.3884 47.6442 48.3884 46.6702V21.3461H48.4188Z" fill="#FF7A50"/>
</svg>
