<svg width="89" height="90" viewBox="0 0 89 90" fill="none" xmlns="http://www.w3.org/2000/svg">
<g id="Icon 1">
<circle id="Ellipse 1" cx="44.5" cy="45" r="44.5" fill="#FFF9F6"/>
<g id="p2p">
<mask id="mask0_1130_37504" style="mask-type:alpha" maskUnits="userSpaceOnUse" x="20" y="20" width="49" height="49">
<rect id="Bounding box" x="20.0903" y="20.8076" width="48" height="48" fill="#D9D9D9"/>
</mask>
<g mask="url(#mask0_1130_37504)">
<path id="p2p_2" d="M28.0903 60.8076C26.9903 60.8076 26.0487 60.416 25.2653 59.6326C24.482 58.8493 24.0903 57.9076 24.0903 56.8076V28.8076C24.0903 27.7076 24.482 26.766 25.2653 25.9826C26.0487 25.1993 26.9903 24.8076 28.0903 24.8076H38.0903C39.1903 24.8076 40.132 25.1993 40.9153 25.9826C41.6987 26.766 42.0903 27.7076 42.0903 28.8076V38.8076H38.0903V34.8076H28.0903V50.8076H42.0903V56.8076C42.0903 57.9076 41.6987 58.8493 40.9153 59.6326C40.132 60.416 39.1903 60.8076 38.0903 60.8076H28.0903ZM50.0903 64.8076C48.9903 64.8076 48.0487 64.416 47.2653 63.6326C46.482 62.8493 46.0903 61.9076 46.0903 60.8076V50.8076H50.0903V54.8076H60.0903V38.8076H46.0903V32.8076C46.0903 31.7076 46.482 30.766 47.2653 29.9826C48.0487 29.1993 48.9903 28.8076 50.0903 28.8076H60.0903C61.1903 28.8076 62.132 29.1993 62.9153 29.9826C63.6987 30.766 64.0903 31.7076 64.0903 32.8076V60.8076C64.0903 61.9076 63.6987 62.8493 62.9153 63.6326C62.132 64.416 61.1903 64.8076 60.0903 64.8076H50.0903ZM28.0903 54.8076V56.8076H38.0903V54.8076H28.0903ZM50.0903 58.8076V60.8076H60.0903V58.8076H50.0903ZM28.0903 30.8076H38.0903V28.8076H28.0903V30.8076ZM50.0903 34.8076H60.0903V32.8076H50.0903V34.8076ZM36.0903 46.8076C35.5237 46.8076 35.0487 46.616 34.6653 46.2326C34.282 45.8493 34.0903 45.3743 34.0903 44.8076C34.0903 44.2409 34.282 43.766 34.6653 43.3826C35.0487 42.9993 35.5237 42.8076 36.0903 42.8076C36.657 42.8076 37.132 42.9993 37.5153 43.3826C37.8987 43.766 38.0903 44.2409 38.0903 44.8076C38.0903 45.3743 37.8987 45.8493 37.5153 46.2326C37.132 46.616 36.657 46.8076 36.0903 46.8076ZM44.0903 46.8076C43.5237 46.8076 43.0487 46.616 42.6653 46.2326C42.282 45.8493 42.0903 45.3743 42.0903 44.8076C42.0903 44.2409 42.282 43.766 42.6653 43.3826C43.0487 42.9993 43.5237 42.8076 44.0903 42.8076C44.657 42.8076 45.132 42.9993 45.5153 43.3826C45.8987 43.766 46.0903 44.2409 46.0903 44.8076C46.0903 45.3743 45.8987 45.8493 45.5153 46.2326C45.132 46.616 44.657 46.8076 44.0903 46.8076ZM52.0903 46.8076C51.5237 46.8076 51.0487 46.616 50.6653 46.2326C50.282 45.8493 50.0903 45.3743 50.0903 44.8076C50.0903 44.2409 50.282 43.766 50.6653 43.3826C51.0487 42.9993 51.5237 42.8076 52.0903 42.8076C52.657 42.8076 53.132 42.9993 53.5153 43.3826C53.8987 43.766 54.0903 44.2409 54.0903 44.8076C54.0903 45.3743 53.8987 45.8493 53.5153 46.2326C53.132 46.616 52.657 46.8076 52.0903 46.8076Z" fill="#F56522"/>
</g>
</g>
</g>
</svg>
