<svg width="146" height="49" viewBox="0 0 146 49" fill="none" xmlns="http://www.w3.org/2000/svg">
<g id="Telegram + Discord">
<g id="Socials Grp 2">
<path id="Telegram" d="M43.2122 15.7975C44.9956 14.0141 46.7662 9.85271 39.3352 14.9058C32.3935 19.6832 25.4048 24.3919 18.3701 29.0312C17.2988 29.5155 16.1407 29.7784 14.9654 29.804C13.79 29.8295 12.6216 29.6172 11.5303 29.1798C7.0717 27.8422 1.86677 26.0588 1.86677 26.0588C1.86677 26.0588 -1.68719 23.8262 4.39654 21.4483C4.39654 21.4483 30.1175 10.8931 39.0379 7.17432C42.4562 5.68812 54.0518 0.932284 54.0518 0.932284C54.0518 0.932284 59.4053 -1.15163 58.9595 3.90468C58.8108 5.98536 57.6219 13.2742 56.4329 21.1511C54.6463 32.3008 52.7142 44.4941 52.7142 44.4941C52.7142 44.4941 52.417 47.9124 49.8904 48.5068C47.1858 48.4611 44.5726 47.5203 42.4594 45.8317C41.8649 45.3858 31.3097 38.6947 27.4423 35.425C27.0489 35.1586 26.7293 34.7969 26.5133 34.3737C26.2972 33.9505 26.1916 33.4795 26.2065 33.0046C26.2213 32.5297 26.356 32.0662 26.5981 31.6573C26.8401 31.2484 27.1817 30.9074 27.591 30.666C32.8952 25.813 38.1033 20.8558 43.2122 15.7975Z" fill="#F56522"/>
<path id="Discord" d="M136.868 6.50071C128.627 0.335314 120.733 0.50803 120.733 0.50803L119.927 1.42965C129.722 4.36866 134.275 8.6901 134.275 8.6901C120.26 0.973797 102.408 1.02901 87.8303 8.6901C87.8303 8.6901 92.5553 4.1379 102.927 1.19889L102.351 0.507322C102.351 0.507322 94.5146 0.334606 86.2171 6.50001C86.2171 6.50001 77.9197 21.4244 77.9197 39.8059C77.9197 39.8059 82.76 48.1034 95.495 48.5068C95.495 48.5068 97.627 45.9713 99.3556 43.7819C92.0371 41.5925 89.2715 37.0403 89.2715 37.0403C93.869 39.917 98.5182 41.7178 104.311 42.8603C113.737 44.8005 125.461 42.8058 134.217 37.0403C134.217 37.0403 131.336 41.7079 123.788 43.84C125.516 45.972 127.591 48.4495 127.591 48.4495C140.325 48.0467 145.165 39.7493 145.165 39.8066C145.165 21.4251 136.868 6.50071 136.868 6.50071ZM100.795 34.4482C97.5683 34.4482 94.9181 31.6245 94.9181 28.1093C95.1538 19.6916 106.496 19.7177 106.673 28.1093C106.673 31.6245 104.08 34.4482 100.795 34.4482ZM121.828 34.4482C118.601 34.4482 115.951 31.6245 115.951 28.1093C116.21 19.7078 127.411 19.7043 127.706 28.1093C127.705 31.6245 125.112 34.4482 121.828 34.4482Z" fill="#F56522"/>
</g>
</g>
</svg>
