<svg width="59" height="49" viewBox="0 0 59 49" fill="none" xmlns="http://www.w3.org/2000/svg">
<path d="M43.2122 15.7262C44.9956 13.9428 46.7662 9.78142 39.3352 14.8345C32.3935 19.6119 25.4048 24.3206 18.3701 28.9599C17.2988 29.4443 16.1407 29.7071 14.9654 29.7327C13.79 29.7582 12.6216 29.5459 11.5303 29.1085C7.0717 27.7709 1.86677 25.9875 1.86677 25.9875C1.86677 25.9875 -1.68719 23.7549 4.39654 21.377C4.39654 21.377 30.1175 10.8218 39.0379 7.10303C42.4562 5.61683 54.0518 0.860995 54.0518 0.860995C54.0518 0.860995 59.4053 -1.22292 58.9595 3.83339C58.8108 5.91407 57.6219 13.2029 56.4329 21.0798C54.6463 32.2295 52.7142 44.4228 52.7142 44.4228C52.7142 44.4228 52.417 47.8411 49.8904 48.4355C47.1858 48.3898 44.5726 47.449 42.4594 45.7604C41.8649 45.3145 31.3097 38.6234 27.4423 35.3538C27.0489 35.0873 26.7293 34.7256 26.5133 34.3024C26.2972 33.8792 26.1916 33.4082 26.2065 32.9333C26.2213 32.4584 26.356 31.9949 26.5981 31.586C26.8401 31.1771 27.1817 30.8361 27.591 30.5947C32.8952 25.7417 38.1033 20.7845 43.2122 15.7262Z" fill="#FF7A50"/>
</svg>
