<svg width="122" height="49" viewBox="0 0 122 49" fill="none" xmlns="http://www.w3.org/2000/svg">
<g id="X + Nostr">
<g id="Socials Grp 1">
<g id="Nostr">
<path id="Vector" d="M99.2293 19.4494C101.263 19.4494 102.912 17.8005 102.912 15.7664C102.912 13.7324 101.263 12.0835 99.2293 12.0835C97.1953 12.0835 95.5464 13.7324 95.5464 15.7664C95.5464 17.8005 97.1953 19.4494 99.2293 19.4494Z" fill="#F56522"/>
<path id="Vector_2" d="M121.419 20.9106C121.419 6.51363 112.987 0 101.817 0C96.825 0 92.3811 1.33925 88.9113 3.80469C87.7546 4.62651 86.1719 3.83513 86.1719 2.435C86.1719 1.49144 85.4109 0.700063 84.4369 0.700063H74.8187C73.8751 0.700063 73.0837 1.461 73.0837 2.435V46.2651C73.0837 47.2086 73.8447 48 74.8187 48H85.0761C86.0197 48 86.7806 47.2391 86.7806 46.2955V43.7387C86.7806 24.624 76.6754 10.3183 86.6589 8.4312C95.7901 6.69626 106.169 7.51807 106.291 14.5491C106.291 15.1579 106.382 16.9841 108.909 17.9581C110.431 18.5669 112.744 18.7495 115.788 18.6887C115.788 18.6887 118.557 18.4756 118.557 21.2758C118.557 24.7762 112.348 24.5327 112.348 24.5327C110.309 24.624 105.469 24.0761 102.699 24.8979C101.238 25.3545 99.9601 26.1763 99.1992 27.6677C97.9208 30.194 97.312 35.7337 97.2207 41.5168V46.2346C97.2207 47.1782 97.9816 47.9696 98.9557 47.9696H119.653C120.597 47.9696 121.388 47.2086 121.388 46.2346V20.9106H121.419Z" fill="#F56522"/>
</g>
<path id="Twitter" d="M42.403 0.0136719H50.5458L32.7562 20.346L53.6842 48.0137H37.2978L24.4633 31.2334L9.77777 48.0137H1.63016L20.6578 26.266L0.581543 0.0136719H17.3839L28.9852 15.3515L42.403 0.0136719ZM39.5452 43.1398H44.0572L14.9322 4.63152H10.0904L39.5452 43.1398Z" fill="#F56522"/>
</g>
</g>
</svg>
