<svg width="70" height="49" viewBox="0 0 70 49" fill="none" xmlns="http://www.w3.org/2000/svg">
<path id="Youtube" d="M69.1391 17.4235C69.2926 12.982 68.3212 8.57377 66.3154 4.60805C64.9544 2.98082 63.0656 1.8827 60.9782 1.50503C52.3441 0.721592 43.6742 0.400487 35.0058 0.543089C26.369 0.394015 17.7304 0.704758 9.12662 1.474C7.4256 1.78342 5.85143 2.58129 4.5962 3.77024C1.80348 6.34575 1.49318 10.752 1.18287 14.4757C0.732662 21.1706 0.732662 27.8883 1.18287 34.5833C1.27264 36.6791 1.5847 38.7594 2.11378 40.7893C2.48793 42.3565 3.2449 43.8065 4.31693 45.0094C5.58069 46.2614 7.19152 47.1046 8.94043 47.4298C15.6303 48.2556 22.371 48.5978 29.1101 48.4538C39.9707 48.6089 49.497 48.4538 60.7609 47.5849C62.5528 47.2797 64.209 46.4354 65.5086 45.1646C66.3773 44.2955 67.0262 43.2317 67.4014 42.0616C68.5111 38.6563 69.0562 35.0925 69.015 31.5113C69.1391 29.7736 69.1391 19.2854 69.1391 17.4235ZM27.993 33.3731V14.1654L46.3629 23.8158C41.2119 26.6706 34.4163 29.8977 27.993 33.3731Z" fill="#F56522"/>
</svg>
