<svg width="70" height="49" viewBox="0 0 70 49" fill="none" xmlns="http://www.w3.org/2000/svg">
<path d="M69.1391 17.3659C69.2926 12.9244 68.3212 8.51615 66.3154 4.55043C64.9544 2.9232 63.0656 1.82508 60.9782 1.44741C52.3441 0.663974 43.6742 0.34287 35.0058 0.485472C26.369 0.336398 17.7304 0.64714 9.12662 1.41638C7.4256 1.7258 5.85143 2.52367 4.5962 3.71262C1.80348 6.28813 1.49318 10.6944 1.18287 14.4181C0.732662 21.113 0.732662 27.8307 1.18287 34.5257C1.27264 36.6214 1.5847 38.7018 2.11378 40.7317C2.48793 42.2989 3.2449 43.7489 4.31693 44.9518C5.58069 46.2037 7.19152 47.047 8.94043 47.3722C15.6303 48.1979 22.371 48.5402 29.1101 48.3962C39.9707 48.5513 49.497 48.3962 60.7609 47.5273C62.5528 47.2221 64.209 46.3778 65.5086 45.107C66.3773 44.2379 67.0262 43.1741 67.4014 42.0039C68.5111 38.5987 69.0562 35.0349 69.015 31.4537C69.1391 29.716 69.1391 19.2277 69.1391 17.3659ZM27.993 33.3155V14.1077L46.3629 23.7582C41.2119 26.6129 34.4163 29.8401 27.993 33.3155Z" fill="#FF7A50"/>
</svg>
