<svg width="24" height="24" viewBox="0 0 24 24" fill="none" xmlns="http://www.w3.org/2000/svg"><path d="m20.25 7.299-1.341 3.577h-2.984L14.582 7.3h5.668Z" fill="#00AF7E"/><path d="M4.237 16.243H7.77L6.427 19.82H2.865l1.372-3.578ZM6.295 10.876h3.488l-.671 1.789H5.609l.686-1.789ZM19.383 19.821l-3.561-.001-3.355-8.944L11.125 7.3H7.667L9.21 3.273h3.829l1.544 4.026 1.371 3.577 3.429 8.945Z" fill="#141A23"/><path d="m11.125 7.299-1.342 3.577H3.342L2 7.3h9.125ZM13.138 12.665l1.341 3.578H3.342L2 12.665h11.138ZM20.25 12.665l-1.341 3.578h-.897l-1.372-3.578h3.61Z" fill="#00AF7E"/><path d="M21.124 19.853a.852.852 0 0 1-.625-.253.857.857 0 0 1-.252-.623c0-.245.084-.452.252-.62a.845.845 0 0 1 .625-.255c.247 0 .454.084.622.254.17.169.254.375.254.621a.847.847 0 0 1-.254.623.844.844 0 0 1-.622.253Zm.526-.341a.73.73 0 0 0 .213-.535.727.727 0 0 0-.213-.533.713.713 0 0 0-.526-.218.71.71 0 0 0-.527.218.726.726 0 0 0-.213.533.731.731 0 0 0 .74.75.715.715 0 0 0 .526-.215Zm-.428-.502h-.268v.394h-.15v-.898h.353c.224 0 .336.077.336.232 0 .113-.055.185-.166.215.095.021.142.084.142.187v.073c0 .032.005.054.014.065.01.01.032.016.067.016h.016v.11h-.093c-.103 0-.154-.044-.154-.13v-.17c0-.063-.033-.094-.098-.094Zm-.07-.386h-.198v.285h.21c.114 0 .171-.05.171-.15 0-.09-.06-.135-.182-.135Z" fill="#141A23"/></svg>
