<svg width="24" height="24" viewBox="0 0 24 24" fill="none" xmlns="http://www.w3.org/2000/svg"><path fill-rule="evenodd" clip-rule="evenodd" d="M18.931 18.896C17.069 20.27 14.371 21 12.048 21c-3.264 0-6.19-1.204-8.41-3.208-.168-.157-.018-.372.192-.25 2.394 1.394 5.36 2.232 8.413 2.232a16.735 16.735 0 0 0 6.418-1.312c.315-.134.58.207.27.435Zm.774-.885c-.236-.304-1.573-.143-2.172-.073-.183.022-.21-.137-.046-.251 1.07-.748 2.81-.533 3.014-.281.204.251-.053 2.002-1.052 2.837-.154.128-.3.06-.225-.11.225-.56.728-1.817.49-2.122" fill="#F90"/><path fill-rule="evenodd" clip-rule="evenodd" d="M13.37 10.799c0 .951.025 1.745-.456 2.59-.394.686-1.013 1.11-1.691 1.11-.939 0-1.488-.715-1.488-1.77 0-2.08 1.866-2.46 3.636-2.46v.53Zm2.466 5.953a.51.51 0 0 1-.578.059c-.81-.674-.959-.987-1.402-1.629-1.34 1.367-2.292 1.776-4.028 1.776-2.058 0-3.656-1.268-3.656-3.807 0-1.982 1.072-3.332 2.605-3.992 1.326-.584 3.18-.686 4.595-.843v-.31c0-.58.044-1.268-.299-1.769-.295-.45-.866-.635-1.371-.635-.931 0-1.76.478-1.962 1.467-.041.225-.203.436-.426.446L6.939 7.25c-.2-.045-.422-.206-.364-.507C7.123 3.866 9.72 3 12.045 3c1.189 0 2.742.316 3.68 1.216 1.189 1.11 1.076 2.59 1.076 4.202v3.807c0 1.144.474 1.645.92 2.264.155.225.19.484-.01.65-.63.532-1.254 1.073-1.872 1.62l-.003-.006" fill="#221F1F"/></svg>
