<svg width="24" height="24" viewBox="0 0 24 24" fill="none" xmlns="http://www.w3.org/2000/svg"><path d="M14.848 4.885c-.632.755-1.643 1.351-2.653 1.266-.127-1.022.368-2.107.947-2.778.632-.777 1.737-1.33 2.632-1.373.105 1.064-.305 2.107-.926 2.885ZM15.764 6.353c-1.464-.085-2.717.841-3.412.841-.705 0-1.768-.798-2.926-.777-1.506.022-2.906.884-3.674 2.257-1.58 2.746-.41 6.812 1.116 9.047.747 1.107 1.642 2.32 2.821 2.278 1.116-.043 1.558-.734 2.906-.734 1.358 0 1.747.734 2.926.713 1.221-.022 1.99-1.107 2.738-2.214.852-1.256 1.2-2.48 1.22-2.544-.02-.022-2.357-.926-2.379-3.651-.02-2.278 1.843-3.364 1.927-3.427-1.053-1.576-2.695-1.746-3.264-1.789Z" fill="#240F21"/></svg>
