<?xml version="1.0" encoding="utf-8"?>
<!-- Generator: Adobe Illustrator 26.0.3, SVG Export Plug-In . SVG Version: 6.00 Build 0)  -->
<svg version="1.0" id="katman_1" xmlns="http://www.w3.org/2000/svg" xmlns:xlink="http://www.w3.org/1999/xlink" x="0px" y="0px"
	 viewBox="0 0 600 450" style="enable-background:new 0 0 600 450;" xml:space="preserve">
<style type="text/css">
	.st0{fill:#F2F2F2;}
	.st1{fill:#010202;}
</style>
<path class="st0" d="M126.4,91.1h347.4c15.3,0,27.7,12.4,27.7,27.7v213.1c0,15.3-12.4,27.7-27.7,27.7H126.4
	c-15.3,0-27.7-12.4-27.7-27.7V118.8C98.7,103.5,111.1,91.1,126.4,91.1z"/>
<path class="st1" d="M242.6,161.9c6.7,0,11.9,1.4,15.8,4.2c3.8,2.8,5.7,7.1,5.8,12.8c0,2.8-0.6,5.6-1.9,8.1c-1.1,2.3-3,4.2-5.3,5.3
	v0.4c2.6,1.2,4.8,3.1,6.4,5.6c1,1.5,1.7,3.1,2.2,4.8c0.6,2,0.9,4.2,0.8,6.3c0.1,3.2-0.6,6.3-1.9,9.1c-1.2,2.6-3.1,4.8-5.3,6.5
	c-2.3,1.8-4.9,3.1-7.7,3.9c-2.9,0.9-6,1.3-9,1.3h-36.6v-68.5H242.6z M223.5,187.1h16.1c2,0.2,3.9-0.4,5.4-1.7c1-1.1,1.6-2.6,1.5-4.1
	c0-1.4-0.5-2.8-1.5-3.9c-1.5-1.3-3.5-1.9-5.4-1.7h-16.1V187.1z M223.5,216.5h16.3c2.5,0.2,5-0.5,6.9-2.1c1.4-1.5,2.1-3.4,2-5.5
	c0.2-2.3-0.7-4.5-2.4-6c-1.9-1.4-4.2-2.1-6.5-2h-16.3V216.5z"/>
<path class="st1" d="M283.1,230.4h-18.6l24.2-68.4h18l24.8,68.4h-19.6l-3.3-11.9h-22.1L283.1,230.4z M297.6,179.9h-0.4l-7.1,25.4
	h14.5L297.6,179.9z"/>
<path class="st1" d="M352.1,189.9h-0.4v40.5h-17.6v-68.5h19.5l23.3,38.2h0.4v-38.2h17.6v68.5h-17.7L352.1,189.9z"/>
<path class="st1" d="M419.4,161.9v24l22.5-24h23.2L437.5,188l29.2,42.4h-22.1l-20.2-30.4l-5.1,4.9v25.5h-17.6v-68.5H419.4z"/>
<path class="st1" d="M166.8,240.9v11.5h-12v40.3h-12.7v-40.3h-12v-11.5H166.8z"/>
<path class="st1" d="M197.3,240.9c1.8,0,3.7,0.4,5.3,1.1c1.6,0.7,3.1,1.8,4.2,3.2c1.2,1.4,2.1,3,2.7,4.8c0.7,1.9,1,3.9,1,5.9
	c0.1,3-0.7,5.9-2.2,8.5c-1.5,2.4-3.6,4.2-6.1,5.4l9.4,22.9h-13.5l-7.8-21.1h-10.2v21.1h-12.7v-51.8H197.3z M193.5,260.8
	c1.2,0.1,2.4-0.4,3.1-1.4c0.7-0.9,1-2,1-3.1c0-0.5-0.1-1.1-0.2-1.6c-0.1-0.5-0.4-1-0.7-1.5c-0.3-0.4-0.8-0.8-1.3-1.1
	c-0.6-0.3-1.2-0.5-1.9-0.4h-13.3v9.1L193.5,260.8z"/>
<path class="st1" d="M221.7,292.7h-13.4l17.4-51.8h13l17.8,51.8h-14.1l-2.4-9h-15.9L221.7,292.7z M232.2,254.5H232l-5.1,19.2h10.4
	L232.2,254.5z"/>
<path class="st1" d="M269.5,262.1h-0.3v30.6h-12.7v-51.8h14l16.8,28.9h0.3v-28.9h12.7v51.8h-12.8L269.5,262.1z"/>
<path class="st1" d="M322,294c-2.8,0.1-5.6-0.3-8.3-1.1c-2.2-0.7-4.2-1.7-6-3c-1.6-1.3-3-2.8-4-4.7c-1-1.9-1.8-3.9-2.3-5.9l12.1-4.9
	c0.1,2.6,1.1,5,2.9,6.8c1.9,1.6,4.3,2.4,6.7,2.3c0.7,0,1.4-0.1,2.1-0.2c0.7-0.1,1.3-0.3,1.9-0.7c0.6-0.3,1-0.8,1.4-1.4
	c0.4-0.6,0.6-1.4,0.6-2.1c0-0.7-0.1-1.4-0.3-2.1c-0.3-0.7-0.7-1.3-1.2-1.7c-0.7-0.6-1.5-1.1-2.4-1.5c-1.3-0.6-2.6-1-3.9-1.4
	c-2.8-0.8-5.5-1.8-8.1-2.9c-2.1-0.9-4-2.1-5.8-3.6c-1.5-1.3-2.7-2.9-3.5-4.7c-0.8-2-1.2-4.1-1.2-6.2c0-2.3,0.5-4.6,1.5-6.6
	c1-1.9,2.4-3.6,4.2-4.9c1.9-1.4,4-2.4,6.3-3c2.6-0.7,5.3-1,8-1c2.4,0,4.9,0.2,7.2,0.8c1.9,0.5,3.7,1.3,5.3,2.4
	c1.5,1,2.8,2.3,3.8,3.8c1.1,1.7,1.9,3.4,2.6,5.3l-10.9,4.8c-0.4-2-1.4-3.8-2.8-5.2c-3-2-6.8-2.1-9.9-0.3c-0.9,0.7-1.4,1.7-1.5,2.8
	c0,0.7,0.1,1.3,0.4,1.9c0.3,0.6,0.8,1.2,1.4,1.6c0.8,0.6,1.7,1.1,2.7,1.4c1.5,0.6,2.9,1,4.4,1.4c2.4,0.7,4.8,1.4,6.9,2.1
	c2,0.7,3.9,1.7,5.6,3c1.6,1.3,2.9,2.9,3.8,4.7c1,2.3,1.5,4.9,1.4,7.4c0.1,2.5-0.5,4.9-1.6,7.2c-1.1,2-2.6,3.8-4.5,5.1
	c-2,1.4-4.3,2.5-6.7,3.1C327.5,293.7,324.7,294.1,322,294z"/>
<path class="st1" d="M356.7,260.1h19.7v11.5h-19.7v21.1H344v-51.8h38.4v11.5h-25.7V260.1z"/>
<path class="st1" d="M383.4,240.9h38.4v11.5h-25.7v7h22.5v11.5h-22.5v10.4h26.4v11.5h-39.1V240.9z"/>
<path class="st1" d="M453.3,240.9c1.8,0,3.7,0.4,5.3,1.1c1.6,0.7,3.1,1.8,4.2,3.2c1.2,1.4,2.1,3,2.7,4.8c0.7,1.9,1,3.9,1,5.9
	c0.1,3-0.7,5.9-2.2,8.5c-1.5,2.4-3.6,4.2-6.1,5.4l9.4,22.9h-13.5l-7.8-21.1h-10.2v21.1h-12.7v-51.8H453.3z M449.5,260.8
	c1.2,0.1,2.4-0.4,3.1-1.4c0.7-0.9,1-2,1-3.1c0-0.5-0.1-1.1-0.2-1.6c-0.1-0.5-0.4-1-0.7-1.5c-0.3-0.4-0.8-0.8-1.3-1.1
	c-0.6-0.3-1.2-0.5-1.9-0.4h-13.3v9.1L449.5,260.8z"/>
<rect x="129.8" y="161.9" class="st1" width="69.3" height="13.9"/>
<rect x="129.8" y="188" class="st1" width="69.3" height="13.9"/>
<rect x="129.8" y="216.6" class="st1" width="69.3" height="13.9"/>
</svg>
