<svg version="1.1" id="Layer_1" xmlns="http://www.w3.org/2000/svg" xmlns:xlink="http://www.w3.org/1999/xlink" x="0px" y="0px"
	 width="100%" viewBox="0 0 416 416" enable-background="new 0 0 416 416" xml:space="preserve">
<path fill="#FFFFFF" opacity="1.000000" stroke="none" 
	d="
M271.000000,417.000000 
	C180.666672,417.000000 90.833351,417.000000 1.000024,417.000000 
	C1.000016,278.333374 1.000016,139.666718 1.000008,1.000061 
	C139.666626,1.000041 278.333252,1.000041 416.999908,1.000021 
	C416.999939,139.666611 416.999939,278.333221 416.999969,416.999908 
	C368.500000,417.000000 320.000000,417.000000 271.000000,417.000000 
M181.499924,353.813019 
	C239.927841,353.813019 298.355743,353.813019 356.637024,353.813019 
	C356.637024,346.840393 356.637024,340.446838 356.637024,333.875000 
	C350.644196,333.875000 345.020630,333.875000 338.899292,333.875000 
	C338.899292,327.462982 338.899292,321.229584 338.899292,314.640564 
	C334.642548,314.640564 330.891693,314.640564 326.796082,314.640564 
	C326.796082,305.327576 326.796082,296.395752 326.796082,287.091553 
	C323.697784,287.091553 320.941559,287.091553 318.054596,287.091553 
	C318.054596,254.959503 318.054596,223.211655 318.054596,190.938324 
	C321.113922,190.938324 323.991119,190.938324 327.266113,190.938324 
	C327.266113,184.517563 327.266113,178.615433 327.266113,172.375427 
	C336.779907,172.375427 345.862823,172.375427 355.148499,172.375427 
	C355.148499,163.183289 354.989990,154.354385 355.234009,145.536621 
	C355.320007,142.428986 354.284149,140.945419 351.569427,139.517212 
	C305.153992,115.098091 258.819977,90.524033 212.376450,66.158737 
	C210.584824,65.218803 207.470291,65.224129 205.661255,66.144058 
	C191.657684,73.265083 177.828110,80.727966 163.936722,88.069977 
	C131.456955,105.236542 98.964981,122.380096 66.516182,139.604980 
	C65.086792,140.363754 63.004700,141.804428 62.970318,142.978531 
	C62.684132,152.751328 62.807957,162.536148 62.807957,172.647781 
	C72.408112,172.647781 81.499252,172.647781 91.008255,172.647781 
	C91.008255,178.897324 91.008255,184.825150 91.008255,191.079041 
	C94.173737,191.079041 96.931389,191.079041 99.796204,191.079041 
	C99.796204,223.295593 99.796204,255.167267 99.796204,287.418945 
	C96.713791,287.418945 93.956688,287.418945 90.854706,287.418945 
	C90.854706,296.727539 90.854706,305.659821 90.854706,314.987549 
	C86.758476,314.987549 83.012794,314.987549 78.941559,314.987549 
	C78.941559,321.482269 78.941559,327.581451 78.941559,334.043884 
	C72.853790,334.043884 67.107018,334.043884 61.289944,334.043884 
	C61.289944,340.810089 61.289944,347.193481 61.289944,353.813019 
	C101.225037,353.813019 140.862473,353.813019 181.499924,353.813019 
z"/>
<path fill="#040404" opacity="1.000000" stroke="none" 
	d="
M180.999908,353.813019 
	C140.862473,353.813019 101.225037,353.813019 61.289944,353.813019 
	C61.289944,347.193481 61.289944,340.810089 61.289944,334.043884 
	C67.107018,334.043884 72.853790,334.043884 78.941559,334.043884 
	C78.941559,327.581451 78.941559,321.482269 78.941559,314.987549 
	C83.012794,314.987549 86.758476,314.987549 90.854706,314.987549 
	C90.854706,305.659821 90.854706,296.727539 90.854706,287.418945 
	C93.956688,287.418945 96.713791,287.418945 99.796204,287.418945 
	C99.796204,255.167267 99.796204,223.295593 99.796204,191.079041 
	C96.931389,191.079041 94.173737,191.079041 91.008255,191.079041 
	C91.008255,184.825150 91.008255,178.897324 91.008255,172.647781 
	C81.499252,172.647781 72.408112,172.647781 62.807957,172.647781 
	C62.807957,162.536148 62.684132,152.751328 62.970318,142.978531 
	C63.004700,141.804428 65.086792,140.363754 66.516182,139.604980 
	C98.964981,122.380096 131.456955,105.236542 163.936722,88.069977 
	C177.828110,80.727966 191.657684,73.265083 205.661255,66.144058 
	C207.470291,65.224129 210.584824,65.218803 212.376450,66.158737 
	C258.819977,90.524033 305.153992,115.098091 351.569427,139.517212 
	C354.284149,140.945419 355.320007,142.428986 355.234009,145.536621 
	C354.989990,154.354385 355.148499,163.183289 355.148499,172.375427 
	C345.862823,172.375427 336.779907,172.375427 327.266113,172.375427 
	C327.266113,178.615433 327.266113,184.517563 327.266113,190.938324 
	C323.991119,190.938324 321.113922,190.938324 318.054596,190.938324 
	C318.054596,223.211655 318.054596,254.959503 318.054596,287.091553 
	C320.941559,287.091553 323.697784,287.091553 326.796082,287.091553 
	C326.796082,296.395752 326.796082,305.327576 326.796082,314.640564 
	C330.891693,314.640564 334.642548,314.640564 338.899292,314.640564 
	C338.899292,321.229584 338.899292,327.462982 338.899292,333.875000 
	C345.020630,333.875000 350.644196,333.875000 356.637024,333.875000 
	C356.637024,340.446838 356.637024,346.840393 356.637024,353.813019 
	C298.355743,353.813019 239.927841,353.813019 180.999908,353.813019 
M144.940475,274.492798 
	C144.940475,278.614288 144.940475,282.735809 144.940475,287.221130 
	C148.154083,287.221130 150.909698,287.221130 154.165710,287.221130 
	C154.165710,296.646454 154.165710,305.702637 154.165710,314.534729 
	C191.089859,314.534729 227.485092,314.534729 264.224274,314.534729 
	C264.224274,305.250885 264.224274,296.314667 264.224274,286.997833 
	C267.301331,286.997833 270.047791,286.997833 272.793640,286.997833 
	C272.793640,254.859207 272.793640,223.114899 272.793640,191.001343 
	C269.812469,191.001343 267.059540,191.001343 263.920532,191.001343 
	C263.920532,184.710205 263.920532,178.781342 263.920532,172.910095 
	C227.107300,172.910095 190.709381,172.910095 153.883972,172.910095 
	C153.883972,179.055191 153.883972,184.977142 153.883972,191.235840 
	C150.703888,191.235840 147.951584,191.235840 144.940475,191.235840 
	C144.940475,218.887878 144.940475,246.190979 144.940475,274.492798 
M140.587357,121.652451 
	C138.855560,121.652451 137.123749,121.652451 135.393250,121.652451 
	C135.393250,132.826935 135.393250,143.219406 135.393250,153.934280 
	C142.535873,153.934280 149.487274,154.258423 156.394043,153.842072 
	C163.147736,153.434967 166.984009,148.139145 164.875122,142.239166 
	C164.050522,139.932220 161.602295,138.205643 159.966736,136.299988 
	C163.071960,134.382355 164.841751,131.536270 163.722214,127.676788 
	C162.576233,123.726097 159.597198,121.826492 155.511200,121.762054 
	C150.863297,121.688759 146.214279,121.685860 140.587357,121.652451 
M218.003128,141.867401 
	C218.076096,140.340439 218.149078,138.813477 218.244934,136.807510 
	C218.839142,137.453613 218.957092,137.554337 219.041672,137.677887 
	C221.383072,141.098145 223.726379,144.517151 226.058578,147.943680 
	C230.924286,155.092422 231.043991,155.143051 239.692047,153.395813 
	C239.692047,142.966003 239.692047,132.536194 239.692047,121.982880 
	C236.442551,121.982880 233.407974,121.982880 229.816437,121.982880 
	C229.816437,127.581154 229.816437,132.865906 229.816437,138.931061 
	C226.822815,134.543579 223.941589,131.204025 222.068787,127.371681 
	C219.167587,121.434860 214.723343,120.636162 209.031647,122.093239 
	C209.031647,132.714249 209.031647,143.249359 209.031647,153.827957 
	C212.094742,153.827957 214.852737,153.827957 218.003250,153.827957 
	C218.003250,150.023056 218.003250,146.400314 218.003128,141.867401 
M268.751099,151.024094 
	C272.079956,157.155258 277.474304,152.496368 282.897919,154.679626 
	C278.179260,146.886780 274.269470,140.429779 269.446960,132.465469 
	C273.377625,129.274200 277.428528,125.985306 281.450714,122.719742 
	C269.613342,117.923271 264.340698,125.987198 257.878601,132.729446 
	C257.878601,129.052765 257.878601,125.376083 257.878601,121.817642 
	C254.369858,121.817642 251.408691,121.817642 248.225983,121.817642 
	C248.225983,132.542938 248.225983,143.111115 248.225983,153.829147 
	C251.524002,153.829147 254.606934,153.829147 258.144043,153.829147 
	C257.181091,148.331772 258.606506,143.933228 263.626770,141.135315 
	C265.174774,144.226822 266.720184,147.313110 268.751099,151.024094 
M134.685028,267.499573 
	C134.685028,242.084702 134.685028,216.669830 134.685028,191.216888 
	C132.097916,191.216888 130.154465,191.216888 128.046204,191.216888 
	C128.046204,223.247864 128.046204,255.100403 128.046204,286.798889 
	C130.387573,286.798889 132.436295,286.798889 134.685013,286.798889 
	C134.685013,280.447540 134.685013,274.473419 134.685028,267.499573 
M290.203217,235.500092 
	C290.203217,220.743759 290.203217,205.987427 290.203217,191.231903 
	C287.682220,191.231903 285.744934,191.231903 283.614105,191.231903 
	C283.614105,223.263016 283.614105,255.101624 283.614105,286.987122 
	C285.898224,286.987122 287.842743,286.987122 290.203217,286.987122 
	C290.203217,270.039459 290.203217,253.269791 290.203217,235.500092 
M186.463547,148.921722 
	C188.251129,148.921722 190.038696,148.921722 191.667557,148.921722 
	C193.397552,154.711609 193.397552,154.711609 203.470276,153.622055 
	C200.630875,145.968140 197.827225,138.418320 195.029236,130.866409 
	C191.451645,121.210335 191.453445,121.206688 181.259598,121.774780 
	C180.949142,121.792076 180.650146,122.014656 180.260010,122.177284 
	C176.358734,132.587112 172.436646,143.052490 168.389313,153.852066 
	C172.066650,153.852066 175.173141,153.852066 178.829834,153.852066 
	C178.546234,148.936401 181.726990,148.446655 186.463547,148.921722 
M117.297195,225.500153 
	C117.297195,214.084549 117.297195,202.668945 117.297195,191.323227 
	C114.673920,191.323227 112.745445,191.323227 110.778473,191.323227 
	C110.778473,223.316330 110.778473,255.055801 110.778473,286.810852 
	C113.095078,286.810852 115.160545,286.810852 117.297195,286.810852 
	C117.297195,266.490936 117.297195,246.495560 117.297195,225.500153 
M300.662170,279.483612 
	C300.662170,281.926941 300.662170,284.370270 300.662170,286.805786 
	C303.186310,286.805786 305.242523,286.805786 307.027649,286.805786 
	C307.027649,254.745819 307.027649,223.017822 307.027649,191.337708 
	C304.762878,191.337708 302.844940,191.337708 300.991699,191.337708 
	C300.849823,191.917160 300.705719,192.231369 300.705475,192.545654 
	C300.683777,221.193802 300.673126,249.841965 300.662170,279.483612 
z"/>
<path fill="#FFFFFF" opacity="1.000000" stroke="none" 
	d="
M144.940475,273.993439 
	C144.940475,246.190979 144.940475,218.887878 144.940475,191.235840 
	C147.951584,191.235840 150.703888,191.235840 153.883972,191.235840 
	C153.883972,184.977142 153.883972,179.055191 153.883972,172.910095 
	C190.709381,172.910095 227.107300,172.910095 263.920532,172.910095 
	C263.920532,178.781342 263.920532,184.710205 263.920532,191.001343 
	C267.059540,191.001343 269.812469,191.001343 272.793640,191.001343 
	C272.793640,223.114899 272.793640,254.859207 272.793640,286.997833 
	C270.047791,286.997833 267.301331,286.997833 264.224274,286.997833 
	C264.224274,296.314667 264.224274,305.250885 264.224274,314.534729 
	C227.485092,314.534729 191.089859,314.534729 154.165710,314.534729 
	C154.165710,305.702637 154.165710,296.646454 154.165710,287.221130 
	C150.909698,287.221130 148.154083,287.221130 144.940475,287.221130 
	C144.940475,282.735809 144.940475,278.614288 144.940475,273.993439 
z"/>
<path fill="#F9F9F9" opacity="1.000000" stroke="none" 
	d="
M141.076538,121.652412 
	C146.214279,121.685860 150.863297,121.688759 155.511200,121.762054 
	C159.597198,121.826492 162.576233,123.726097 163.722214,127.676788 
	C164.841751,131.536270 163.071960,134.382355 159.966736,136.299988 
	C161.602295,138.205643 164.050522,139.932220 164.875122,142.239166 
	C166.984009,148.139145 163.147736,153.434967 156.394043,153.842072 
	C149.487274,154.258423 142.535873,153.934280 135.393250,153.934280 
	C135.393250,143.219406 135.393250,132.826935 135.393250,121.652451 
	C137.123749,121.652451 138.855560,121.652451 141.076538,121.652412 
M146.008911,146.878387 
	C148.164719,146.912033 150.389481,147.274887 152.447983,146.843811 
	C153.516541,146.620041 154.953339,145.027740 155.008911,143.988693 
	C155.062592,142.985016 153.694519,141.183060 152.706207,140.990906 
	C150.395462,140.541656 147.937927,140.847382 145.392853,140.847382 
	C145.392853,142.962112 145.392853,144.617615 146.008911,146.878387 
M145.395691,133.271255 
	C147.991592,133.324905 150.598831,133.503525 153.168808,133.270859 
	C153.482971,133.242401 153.980026,130.039719 153.744751,129.946747 
	C151.584091,129.092896 149.288315,128.567093 147.010818,128.036102 
	C146.623459,127.945778 146.135864,128.285431 145.367340,128.531006 
	C145.367340,129.819336 145.367340,131.103821 145.395691,133.271255 
z"/>
<path fill="#FBFBFB" opacity="1.000000" stroke="none" 
	d="
M218.003189,142.322479 
	C218.003250,146.400314 218.003250,150.023056 218.003250,153.827957 
	C214.852737,153.827957 212.094742,153.827957 209.031647,153.827957 
	C209.031647,143.249359 209.031647,132.714249 209.031647,122.093239 
	C214.723343,120.636162 219.167587,121.434860 222.068787,127.371681 
	C223.941589,131.204025 226.822815,134.543579 229.816437,138.931061 
	C229.816437,132.865906 229.816437,127.581154 229.816437,121.982880 
	C233.407974,121.982880 236.442551,121.982880 239.692047,121.982880 
	C239.692047,132.536194 239.692047,142.966003 239.692902,153.396454 
	C231.043991,155.143051 230.924286,155.092422 226.058578,147.943680 
	C223.726379,144.517151 221.383072,141.098145 219.041672,137.677887 
	C218.957092,137.554337 218.839142,137.453613 218.244934,136.807510 
	C218.149078,138.813477 218.076096,140.340439 218.003189,142.322479 
z"/>
<path fill="#FCFCFC" opacity="1.000000" stroke="none" 
	d="
M268.508362,150.711761 
	C266.720184,147.313110 265.174774,144.226822 263.626770,141.135315 
	C258.606506,143.933228 257.181091,148.331772 258.144043,153.829147 
	C254.606934,153.829147 251.524002,153.829147 248.225983,153.829147 
	C248.225983,143.111115 248.225983,132.542938 248.225983,121.817642 
	C251.408691,121.817642 254.369858,121.817642 257.878601,121.817642 
	C257.878601,125.376083 257.878601,129.052765 257.878601,132.729446 
	C264.340698,125.987198 269.613342,117.923271 281.450714,122.719742 
	C277.428528,125.985306 273.377625,129.274200 269.446960,132.465469 
	C274.269470,140.429779 278.179260,146.886780 282.897919,154.679626 
	C277.474304,152.496368 272.079956,157.155258 268.508362,150.711761 
z"/>
<path fill="#F0F0F0" opacity="1.000000" stroke="none" 
	d="
M134.685028,267.999420 
	C134.685013,274.473419 134.685013,280.447540 134.685013,286.798889 
	C132.436295,286.798889 130.387573,286.798889 128.046204,286.798889 
	C128.046204,255.100403 128.046204,223.247864 128.046204,191.216888 
	C130.154465,191.216888 132.097916,191.216888 134.685028,191.216888 
	C134.685028,216.669830 134.685028,242.084702 134.685028,267.999420 
z"/>
<path fill="#F1F1F1" opacity="1.000000" stroke="none" 
	d="
M290.203217,236.000107 
	C290.203217,253.269791 290.203217,270.039459 290.203217,286.987122 
	C287.842743,286.987122 285.898224,286.987122 283.614105,286.987122 
	C283.614105,255.101624 283.614105,223.263016 283.614105,191.231903 
	C285.744934,191.231903 287.682220,191.231903 290.203217,191.231903 
	C290.203217,205.987427 290.203217,220.743759 290.203217,236.000107 
z"/>
<path fill="#FAFAFA" opacity="1.000000" stroke="none" 
	d="
M186.008453,148.921997 
	C181.726990,148.446655 178.546234,148.936401 178.829834,153.852066 
	C175.173141,153.852066 172.066650,153.852066 168.389313,153.852066 
	C172.436646,143.052490 176.358734,132.587112 180.260010,122.177284 
	C180.650146,122.014656 180.949142,121.792076 181.259598,121.774780 
	C191.453445,121.206688 191.451645,121.210335 195.029236,130.866409 
	C197.827225,138.418320 200.630875,145.968140 203.470276,153.622055 
	C193.397552,154.711609 193.397552,154.711609 191.667557,148.921722 
	C190.038696,148.921722 188.251129,148.921722 186.008453,148.921997 
M187.041519,133.618744 
	C186.645355,132.792786 186.249207,131.966827 185.537323,130.482574 
	C184.404297,134.691803 183.474686,138.145416 182.515991,141.707001 
	C185.109100,141.707001 187.030502,141.707001 188.978607,141.707001 
	C188.978607,141.001602 189.093338,140.473984 188.958603,140.020477 
	C188.398895,138.136368 187.763916,136.274628 187.041519,133.618744 
z"/>
<path fill="#FEFEFE" opacity="1.000000" stroke="none" 
	d="
M117.297195,226.000153 
	C117.297195,246.495560 117.297195,266.490936 117.297195,286.810852 
	C115.160545,286.810852 113.095078,286.810852 110.778473,286.810852 
	C110.778473,255.055801 110.778473,223.316330 110.778473,191.323227 
	C112.745445,191.323227 114.673920,191.323227 117.297195,191.323227 
	C117.297195,202.668945 117.297195,214.084549 117.297195,226.000153 
z"/>
<path fill="#FFFFFF" opacity="1.000000" stroke="none" 
	d="
M300.661926,278.986877 
	C300.673126,249.841965 300.683777,221.193802 300.705475,192.545654 
	C300.705719,192.231369 300.849823,191.917160 300.991699,191.337708 
	C302.844940,191.337708 304.762878,191.337708 307.027649,191.337708 
	C307.027649,223.017822 307.027649,254.745819 307.027649,286.805786 
	C305.242523,286.805786 303.186310,286.805786 300.662170,286.805786 
	C300.662170,284.370270 300.662170,281.926941 300.661926,278.986877 
z"/>
<path fill="#111111" opacity="1.000000" stroke="none" 
	d="
M145.700882,146.575745 
	C145.392853,144.617615 145.392853,142.962112 145.392853,140.847382 
	C147.937927,140.847382 150.395462,140.541656 152.706207,140.990906 
	C153.694519,141.183060 155.062592,142.985016 155.008911,143.988693 
	C154.953339,145.027740 153.516541,146.620041 152.447983,146.843811 
	C150.389481,147.274887 148.164719,146.912033 145.700882,146.575745 
z"/>
<path fill="#121212" opacity="1.000000" stroke="none" 
	d="
M145.381516,132.829773 
	C145.367340,131.103821 145.367340,129.819336 145.367340,128.531006 
	C146.135864,128.285431 146.623459,127.945778 147.010818,128.036102 
	C149.288315,128.567093 151.584091,129.092896 153.744751,129.946747 
	C153.980026,130.039719 153.482971,133.242401 153.168808,133.270859 
	C150.598831,133.503525 147.991592,133.324905 145.381516,132.829773 
z"/>
<path fill="#151515" opacity="1.000000" stroke="none" 
	d="
M187.099045,134.011703 
	C187.763916,136.274628 188.398895,138.136368 188.958603,140.020477 
	C189.093338,140.473984 188.978607,141.001602 188.978607,141.707001 
	C187.030502,141.707001 185.109100,141.707001 182.515991,141.707001 
	C183.474686,138.145416 184.404297,134.691803 185.537323,130.482574 
	C186.249207,131.966827 186.645355,132.792786 187.099045,134.011703 
z"/>
</svg>