<?xml version="1.0" encoding="UTF-8"?>
<!DOCTYPE svg PUBLIC "-//W3C//DTD SVG 1.1//EN" "http://www.w3.org/Graphics/SVG/1.1/DTD/svg11.dtd">
<svg xmlns="http://www.w3.org/2000/svg" version="1.1" width="768px" height="768px" style="shape-rendering:geometricPrecision; text-rendering:geometricPrecision; image-rendering:optimizeQuality; fill-rule:evenodd; clip-rule:evenodd" xmlns:xlink="http://www.w3.org/1999/xlink">
<g><path style="opacity:1" fill="#fefefe" d="M -0.5,-0.5 C 255.5,-0.5 511.5,-0.5 767.5,-0.5C 767.5,255.5 767.5,511.5 767.5,767.5C 511.5,767.5 255.5,767.5 -0.5,767.5C -0.5,511.5 -0.5,255.5 -0.5,-0.5 Z"/></g>
<g><path style="opacity:1" fill="#030303" d="M 412.5,55.5 C 412.973,56.9063 413.973,57.573 415.5,57.5C 437.97,70.9895 456.47,88.6561 471,110.5C 473.422,118.869 472.588,126.869 468.5,134.5C 467.094,134.973 466.427,135.973 466.5,137.5C 466.167,138.167 465.833,138.833 465.5,139.5C 464.094,139.973 463.427,140.973 463.5,142.5C 462.833,143.5 462.167,144.5 461.5,145.5C 460.094,145.973 459.427,146.973 459.5,148.5C 439.716,178.875 413.382,201.542 380.5,216.5C 379.509,209.687 379.175,202.687 379.5,195.5C 380.611,181.724 383.611,168.39 388.5,155.5C 390.104,154.713 390.771,153.38 390.5,151.5C 386.84,151.159 383.507,151.825 380.5,153.5C 372.504,155.166 364.504,156.833 356.5,158.5C 353.933,158.721 351.599,159.388 349.5,160.5C 315.157,169.851 286.824,188.518 264.5,216.5C 258.466,224.568 253.466,233.235 249.5,242.5C 248.094,242.973 247.427,243.973 247.5,245.5C 245.357,253.43 242.524,261.097 239,268.5C 237.751,275.493 236.584,282.493 235.5,289.5C 234.71,290.609 234.21,291.942 234,293.5C 232.525,282.836 232.358,272.169 233.5,261.5C 233.5,260.833 233.5,260.167 233.5,259.5C 235.145,254.766 235.811,249.766 235.5,244.5C 240.495,218.849 250.662,195.516 266,174.5C 298.713,135.718 339.546,109.384 388.5,95.5C 389.5,95.5 390.5,95.5 391.5,95.5C 391.706,92.5049 391.04,89.8383 389.5,87.5C 389.5,87.1667 389.5,86.8333 389.5,86.5C 388.538,82.6052 387.204,78.9385 385.5,75.5C 383.694,68.9407 382.194,62.274 381,55.5C 380.333,50.5 380.333,45.5 381,40.5C 391.586,45.2352 402.086,50.2352 412.5,55.5 Z"/></g>
<g><path style="opacity:1" fill="#818181" d="M 412.5,55.5 C 414.027,55.427 415.027,56.0937 415.5,57.5C 413.973,57.573 412.973,56.9063 412.5,55.5 Z"/></g>
<g><path style="opacity:1" fill="#959595" d="M 385.5,75.5 C 387.204,78.9385 388.538,82.6052 389.5,86.5C 387.01,83.3743 385.677,79.7076 385.5,75.5 Z"/></g>
<g><path style="opacity:1" fill="#9a9a9a" d="M 389.5,87.5 C 391.04,89.8383 391.706,92.5049 391.5,95.5C 390.5,95.5 389.5,95.5 388.5,95.5C 389.091,94.8485 389.757,94.1818 390.5,93.5C 389.652,91.5914 389.318,89.5914 389.5,87.5 Z"/></g>
<g><path style="opacity:1" fill="#818181" d="M 468.5,134.5 C 468.573,136.027 467.906,137.027 466.5,137.5C 466.427,135.973 467.094,134.973 468.5,134.5 Z"/></g>
<g><path style="opacity:1" fill="#818181" d="M 465.5,139.5 C 465.573,141.027 464.906,142.027 463.5,142.5C 463.427,140.973 464.094,139.973 465.5,139.5 Z"/></g>
<g><path style="opacity:1" fill="#818181" d="M 461.5,145.5 C 461.573,147.027 460.906,148.027 459.5,148.5C 459.427,146.973 460.094,145.973 461.5,145.5 Z"/></g>
<g><path style="opacity:1" fill="#353535" d="M 388.5,155.5 C 388.5,154.5 388.5,153.5 388.5,152.5C 385.873,153.092 383.206,153.425 380.5,153.5C 383.507,151.825 386.84,151.159 390.5,151.5C 390.771,153.38 390.104,154.713 388.5,155.5 Z"/></g>
<g><path style="opacity:1" fill="#5d5d5d" d="M 510.5,156.5 C 509.833,157.5 509.167,158.5 508.5,159.5C 508.421,156.729 508.921,154.063 510,151.5C 510.494,153.134 510.66,154.801 510.5,156.5 Z"/></g>
<g><path style="opacity:1" fill="#8c8c8c" d="M 356.5,158.5 C 354.562,160.163 352.228,160.829 349.5,160.5C 351.599,159.388 353.933,158.721 356.5,158.5 Z"/></g>
<g><path style="opacity:1" fill="#030303" d="M 510.5,156.5 C 511.396,166.468 511.729,176.468 511.5,186.5C 510.383,191.973 509.717,197.64 509.5,203.5C 509.471,207.64 508.804,211.64 507.5,215.5C 506.388,217.599 505.721,219.933 505.5,222.5C 493.825,262.728 470.825,295.228 436.5,320C 423.4,329.3 409.733,337.466 395.5,344.5C 393.326,344.75 391.659,345.75 390.5,347.5C 384.273,349.281 378.273,351.615 372.5,354.5C 370.033,354.755 368.033,355.755 366.5,357.5C 364.883,358.038 363.216,358.371 361.5,358.5C 357.114,359.39 356.448,361.39 359.5,364.5C 365.112,378.113 368.779,392.279 370.5,407C 370.167,408.833 369.833,410.667 369.5,412.5C 334.833,401.162 305.833,381.496 282.5,353.5C 282.573,351.973 281.906,350.973 280.5,350.5C 275.793,341.79 275.293,332.79 279,323.5C 289.047,304.631 301.547,287.631 316.5,272.5C 321.105,269.564 325.105,265.898 328.5,261.5C 339.731,251.202 352.398,242.869 366.5,236.5C 367.498,244.807 367.831,253.14 367.5,261.5C 365.843,269.377 364.176,277.377 362.5,285.5C 361.936,290.759 360.603,295.759 358.5,300.5C 372.784,299.433 386.784,296.433 400.5,291.5C 402.553,291.598 404.22,290.931 405.5,289.5C 429.199,280.664 449.866,267.33 467.5,249.5C 471.5,247.5 474.5,244.5 476.5,240.5C 494.23,216.314 504.897,189.314 508.5,159.5C 509.167,158.5 509.833,157.5 510.5,156.5 Z"/></g>
<g><path style="opacity:1" fill="#919191" d="M 511.5,186.5 C 511.872,192.43 511.205,198.097 509.5,203.5C 509.717,197.64 510.383,191.973 511.5,186.5 Z"/></g>
<g><path style="opacity:1" fill="#353535" d="M 379.5,195.5 C 379.175,202.687 379.509,209.687 380.5,216.5C 380.44,217.043 380.107,217.376 379.5,217.5C 378.181,210.01 378.181,202.677 379.5,195.5 Z"/></g>
<g><path style="opacity:1" fill="#a1a1a1" d="M 507.5,215.5 C 507.829,218.228 507.163,220.562 505.5,222.5C 505.721,219.933 506.388,217.599 507.5,215.5 Z"/></g>
<g><path style="opacity:1" fill="#818181" d="M 249.5,242.5 C 249.573,244.027 248.906,245.027 247.5,245.5C 247.427,243.973 248.094,242.973 249.5,242.5 Z"/></g>
<g><path style="opacity:1" fill="#373737" d="M 476.5,240.5 C 474.5,244.5 471.5,247.5 467.5,249.5C 470.167,246.167 473.167,243.167 476.5,240.5 Z"/></g>
<g><path style="opacity:1" fill="#414141" d="M 235.5,244.5 C 235.811,249.766 235.145,254.766 233.5,259.5C 233.608,254.29 234.275,249.29 235.5,244.5 Z"/></g>
<g><path style="opacity:1" fill="#b7b7b7" d="M 367.5,261.5 C 367.672,270.02 366.006,278.02 362.5,285.5C 364.176,277.377 365.843,269.377 367.5,261.5 Z"/></g>
<g><path style="opacity:1" fill="#343434" d="M 328.5,261.5 C 325.105,265.898 321.105,269.564 316.5,272.5C 319.895,268.102 323.895,264.436 328.5,261.5 Z"/></g>
<g><path style="opacity:1" fill="#848484" d="M 233.5,261.5 C 232.358,272.169 232.525,282.836 234,293.5C 234.21,291.942 234.71,290.609 235.5,289.5C 235.736,292.829 234.903,295.829 233,298.5C 232.539,290.331 232.039,282.164 231.5,274C 231.394,269.573 232.06,265.406 233.5,261.5 Z"/></g>
<g><path style="opacity:1" fill="#858585" d="M 405.5,289.5 C 404.22,290.931 402.553,291.598 400.5,291.5C 401.78,290.069 403.447,289.402 405.5,289.5 Z"/></g>
<g><path style="opacity:1" fill="#a9a9a9" d="M 395.5,344.5 C 394.514,346.408 392.848,347.408 390.5,347.5C 391.659,345.75 393.326,344.75 395.5,344.5 Z"/></g>
<g><path style="opacity:1" fill="#818181" d="M 280.5,350.5 C 281.906,350.973 282.573,351.973 282.5,353.5C 281.094,353.027 280.427,352.027 280.5,350.5 Z"/></g>
<g><path style="opacity:1" fill="#a9a9a9" d="M 372.5,354.5 C 370.967,356.245 368.967,357.245 366.5,357.5C 368.033,355.755 370.033,354.755 372.5,354.5 Z"/></g>
<g><path style="opacity:1" fill="#a1a1a1" d="M 361.5,358.5 C 360.28,360.282 359.614,362.282 359.5,364.5C 356.448,361.39 357.114,359.39 361.5,358.5 Z"/></g>
<g><path style="opacity:1" fill="#b5b5b5" d="M 493.5,437.5 C 504.654,436.505 515.988,436.172 527.5,436.5C 527.832,494.002 527.499,551.336 526.5,608.5C 526.5,551.5 526.5,494.5 526.5,437.5C 515.833,437.5 505.167,437.5 494.5,437.5C 494.167,437.5 493.833,437.5 493.5,437.5 Z"/></g>
<g><path style="opacity:1" fill="#7d7d7d" d="M 664.5,437.5 C 679.672,436.174 695.005,436.174 710.5,437.5C 710.376,438.107 710.043,438.44 709.5,438.5C 694.676,437.504 679.676,437.171 664.5,437.5 Z"/></g>
<g><path style="opacity:1" fill="#4d4d4d" d="M 52.5,437.5 C 52.5,494.167 52.5,550.833 52.5,607.5C 79.8333,607.5 107.167,607.5 134.5,607.5C 134.5,607.833 134.5,608.167 134.5,608.5C 106.833,608.5 79.1667,608.5 51.5,608.5C 51.1677,551.331 51.501,494.331 52.5,437.5 Z"/></g>
<g><path style="opacity:1" fill="#020202" d="M 52.5,437.5 C 86.549,437.028 120.549,437.528 154.5,439C 174.417,444.748 185.417,457.914 187.5,478.5C 187.414,482.857 187.08,487.19 186.5,491.5C 185.576,494.796 184.576,498.129 183.5,501.5C 182.094,501.973 181.427,502.973 181.5,504.5C 177.996,509.593 173.329,513.259 167.5,515.5C 174.33,519.147 180.497,523.813 186,529.5C 186.366,531.452 187.199,533.118 188.5,534.5C 189.664,538.659 190.997,542.659 192.5,546.5C 193.833,553.167 193.833,559.833 192.5,566.5C 191.232,568.905 190.565,571.572 190.5,574.5C 186.117,584.561 179.451,592.894 170.5,599.5C 165.945,601.803 161.278,603.803 156.5,605.5C 154.621,606.341 152.621,606.675 150.5,606.5C 145.187,607.098 139.854,607.431 134.5,607.5C 107.167,607.5 79.8333,607.5 52.5,607.5C 52.5,550.833 52.5,494.167 52.5,437.5 Z"/></g>
<g><path style="opacity:1" fill="#030303" d="M 362.5,598.5 C 362.755,600.967 363.755,602.967 365.5,604.5C 365.5,605.5 365.5,606.5 365.5,607.5C 352.421,607.814 339.421,607.48 326.5,606.5C 325.637,604.579 324.971,602.579 324.5,600.5C 324.59,597.848 323.924,595.515 322.5,593.5C 321.188,586.814 319.188,580.314 316.5,574C 295.169,573.5 273.836,573.333 252.5,573.5C 251.253,580.233 249.253,586.566 246.5,592.5C 244.928,595.215 243.928,598.215 243.5,601.5C 242.27,603.297 241.604,605.297 241.5,607.5C 228.788,608.146 216.455,607.48 204.5,605.5C 224.179,549.462 243.845,493.462 263.5,437.5C 277.833,437.5 292.167,437.5 306.5,437.5C 324.841,491.326 343.508,544.992 362.5,598.5 Z"/></g>
<g><path style="opacity:1" fill="#292929" d="M 425.5,437.5 C 413.167,437.5 400.833,437.5 388.5,437.5C 388.5,494.167 388.5,550.833 388.5,607.5C 399.167,607.5 409.833,607.5 420.5,607.5C 409.679,608.495 398.679,608.828 387.5,608.5C 387.5,551.167 387.5,493.833 387.5,436.5C 400.344,436.171 413.011,436.505 425.5,437.5 Z"/></g>
<g><path style="opacity:1" fill="#010101" d="M 425.5,437.5 C 447.434,476.016 469.434,514.682 491.5,553.5C 491.541,555.745 492.375,556.412 494,555.5C 494.5,516.168 494.667,476.835 494.5,437.5C 505.167,437.5 515.833,437.5 526.5,437.5C 526.5,494.5 526.5,551.5 526.5,608.5C 514.322,608.828 502.322,608.495 490.5,607.5C 490.573,605.973 489.906,604.973 488.5,604.5C 487.833,603.167 487.167,601.833 486.5,600.5C 486.573,598.973 485.906,597.973 484.5,597.5C 481.167,591.5 477.833,585.5 474.5,579.5C 474.573,577.973 473.906,576.973 472.5,576.5C 471.4,575.395 470.733,574.062 470.5,572.5C 470.573,570.973 469.906,569.973 468.5,569.5C 467.833,568.167 467.167,566.833 466.5,565.5C 466.573,563.973 465.906,562.973 464.5,562.5C 463.833,561.167 463.167,559.833 462.5,558.5C 462.573,556.973 461.906,555.973 460.5,555.5C 459.833,554.167 459.167,552.833 458.5,551.5C 458.573,549.973 457.906,548.973 456.5,548.5C 456.167,547.833 455.833,547.167 455.5,546.5C 455.573,544.973 454.906,543.973 453.5,543.5C 452.5,541.5 451.5,539.5 450.5,537.5C 450.573,535.973 449.906,534.973 448.5,534.5C 447.4,533.395 446.733,532.062 446.5,530.5C 446.573,528.973 445.906,527.973 444.5,527.5C 443.087,524.339 441.42,521.339 439.5,518.5C 439.573,516.973 438.906,515.973 437.5,515.5C 436.471,513.483 435.471,511.483 434.5,509.5C 434.573,507.973 433.906,506.973 432.5,506.5C 432.167,505.833 431.833,505.167 431.5,504.5C 431.573,502.973 430.906,501.973 429.5,501.5C 429.267,499.938 428.6,498.605 427.5,497.5C 427.573,495.973 426.906,494.973 425.5,494.5C 424.5,492.5 423.5,490.5 422.5,488.5C 422.631,487.624 422.298,486.957 421.5,486.5C 420.5,526.828 420.167,567.161 420.5,607.5C 409.833,607.5 399.167,607.5 388.5,607.5C 388.5,550.833 388.5,494.167 388.5,437.5C 400.833,437.5 413.167,437.5 425.5,437.5 Z"/></g>
<g><path style="opacity:1" fill="#191919" d="M 493.5,437.5 C 493.833,437.5 494.167,437.5 494.5,437.5C 494.667,476.835 494.5,516.168 494,555.5C 492.375,556.412 491.541,555.745 491.5,553.5C 492.117,553.611 492.617,553.944 493,554.5C 493.5,515.501 493.667,476.501 493.5,437.5 Z"/></g>
<g><path style="opacity:1" fill="#4d4d4d" d="M 564.5,437.5 C 564.5,494.167 564.5,550.833 564.5,607.5C 576.167,607.5 587.833,607.5 599.5,607.5C 587.678,608.495 575.678,608.828 563.5,608.5C 563.168,551.331 563.501,494.331 564.5,437.5 Z"/></g>
<g><path style="opacity:1" fill="#020202" d="M 564.5,437.5 C 576.167,437.5 587.833,437.5 599.5,437.5C 599.167,460.176 599.5,482.843 600.5,505.5C 601.107,505.376 601.44,505.043 601.5,504.5C 609.188,495.481 617.188,486.814 625.5,478.5C 630.167,475.833 633.833,472.167 636.5,467.5C 638.167,465.5 639.833,463.5 641.5,461.5C 645.833,459.167 649.167,455.833 651.5,451.5C 655.378,446.411 659.711,441.745 664.5,437.5C 679.676,437.171 694.676,437.504 709.5,438.5C 703.833,444.5 698.167,450.5 692.5,456.5C 678.5,469.833 664.833,483.5 651.5,497.5C 648.015,500.485 644.681,503.652 641.5,507C 665.403,540.377 689.403,573.544 713.5,606.5C 698.676,607.496 683.676,607.829 668.5,607.5C 651.5,583.5 634.5,559.5 617.5,535.5C 616.749,534.427 615.749,534.26 614.5,535C 609.63,539.702 604.963,544.535 600.5,549.5C 599.503,568.659 599.17,587.993 599.5,607.5C 587.833,607.5 576.167,607.5 564.5,607.5C 564.5,550.833 564.5,494.167 564.5,437.5 Z"/></g>
<g><path style="opacity:1" fill="#bebebe" d="M 599.5,437.5 C 600.167,459.833 600.833,482.167 601.5,504.5C 601.44,505.043 601.107,505.376 600.5,505.5C 599.5,482.843 599.167,460.176 599.5,437.5 Z"/></g>
<g><path style="opacity:1" fill="#373737" d="M 651.5,451.5 C 649.167,455.833 645.833,459.167 641.5,461.5C 644.5,457.833 647.833,454.5 651.5,451.5 Z"/></g>
<g><path style="opacity:1" fill="#f9f9f9" d="M 152.5,478.5 C 152.587,483.537 152.254,488.537 151.5,493.5C 147.408,498.736 142.074,502.236 135.5,504C 119.17,504.5 102.837,504.667 86.5,504.5C 86.5,491.833 86.5,479.167 86.5,466.5C 103.17,466.333 119.837,466.5 136.5,467C 144.005,468.03 149.338,471.863 152.5,478.5 Z"/></g>
<g><path style="opacity:1" fill="#333333" d="M 636.5,467.5 C 633.833,472.167 630.167,475.833 625.5,478.5C 628.833,474.5 632.5,470.833 636.5,467.5 Z"/></g>
<g><path style="opacity:1" fill="#a7a7a7" d="M 287.5,484.5 C 286.868,482.257 285.534,480.591 283.5,479.5C 283.354,477.058 284.187,476.391 286,477.5C 286.977,479.74 287.477,482.073 287.5,484.5 Z"/></g>
<g><path style="opacity:1" fill="#fafafa" d="M 283.5,479.5 C 285.534,480.591 286.868,482.257 287.5,484.5C 291.061,496.188 294.727,507.854 298.5,519.5C 298.861,523.915 300.194,527.915 302.5,531.5C 303.566,533.701 304.233,536.035 304.5,538.5C 304.5,539.833 304.5,541.167 304.5,542.5C 290.459,543.149 276.792,542.482 263.5,540.5C 264.797,536.267 266.131,531.933 267.5,527.5C 269.453,524.859 270.953,521.859 272,518.5C 272.494,516.866 272.66,515.199 272.5,513.5C 274.308,506.239 276.642,499.239 279.5,492.5C 281.61,488.498 282.943,484.165 283.5,479.5 Z"/></g>
<g><path style="opacity:1" fill="#999999" d="M 283.5,479.5 C 282.943,484.165 281.61,488.498 279.5,492.5C 280.057,487.835 281.39,483.502 283.5,479.5 Z"/></g>
<g><path style="opacity:1" fill="#969696" d="M 152.5,478.5 C 153.162,480.304 153.495,482.304 153.5,484.5C 153.657,487.814 152.991,490.814 151.5,493.5C 152.254,488.537 152.587,483.537 152.5,478.5 Z"/></g>
<g><path style="opacity:1" fill="#979797" d="M 187.5,478.5 C 188.861,482.93 188.527,487.263 186.5,491.5C 187.08,487.19 187.414,482.857 187.5,478.5 Z"/></g>
<g><path style="opacity:1" fill="#7e7e7e" d="M 422.5,488.5 C 421.833,528.167 421.167,567.833 420.5,607.5C 420.167,567.161 420.5,526.828 421.5,486.5C 422.298,486.957 422.631,487.624 422.5,488.5 Z"/></g>
<g><path style="opacity:1" fill="#dedede" d="M 692.5,456.5 C 680.089,470.414 667.089,483.914 653.5,497C 652.906,497.464 652.239,497.631 651.5,497.5C 664.833,483.5 678.5,469.833 692.5,456.5 Z"/></g>
<g><path style="opacity:1" fill="#818181" d="M 425.5,494.5 C 426.906,494.973 427.573,495.973 427.5,497.5C 426.094,497.027 425.427,496.027 425.5,494.5 Z"/></g>
<g><path style="opacity:1" fill="#818181" d="M 183.5,501.5 C 183.573,503.027 182.906,504.027 181.5,504.5C 181.427,502.973 182.094,501.973 183.5,501.5 Z"/></g>
<g><path style="opacity:1" fill="#818181" d="M 429.5,501.5 C 430.906,501.973 431.573,502.973 431.5,504.5C 430.094,504.027 429.427,503.027 429.5,501.5 Z"/></g>
<g><path style="opacity:1" fill="#818181" d="M 432.5,506.5 C 433.906,506.973 434.573,507.973 434.5,509.5C 433.094,509.027 432.427,508.027 432.5,506.5 Z"/></g>
<g><path style="opacity:1" fill="#818181" d="M 437.5,515.5 C 438.906,515.973 439.573,516.973 439.5,518.5C 438.094,518.027 437.427,517.027 437.5,515.5 Z"/></g>
<g><path style="opacity:1" fill="#9e9e9e" d="M 272.5,513.5 C 272.66,515.199 272.494,516.866 272,518.5C 270.953,521.859 269.453,524.859 267.5,527.5C 268.796,522.607 270.462,517.94 272.5,513.5 Z"/></g>
<g><path style="opacity:1" fill="#949494" d="M 298.5,519.5 C 300.405,523.216 301.739,527.216 302.5,531.5C 300.194,527.915 298.861,523.915 298.5,519.5 Z"/></g>
<g><path style="opacity:1" fill="#818181" d="M 444.5,527.5 C 445.906,527.973 446.573,528.973 446.5,530.5C 445.094,530.027 444.427,529.027 444.5,527.5 Z"/></g>
<g><path style="opacity:1" fill="#fafafa" d="M 86.5,532.5 C 103.503,532.333 120.503,532.5 137.5,533C 157.265,538.643 162.432,550.81 153,569.5C 148.866,574.964 143.366,577.797 136.5,578C 119.837,578.5 103.17,578.667 86.5,578.5C 86.5,563.167 86.5,547.833 86.5,532.5 Z"/></g>
<g><path style="opacity:1" fill="#8d8d8d" d="M 188.5,534.5 C 191.196,537.921 192.53,541.921 192.5,546.5C 190.997,542.659 189.664,538.659 188.5,534.5 Z"/></g>
<g><path style="opacity:1" fill="#818181" d="M 448.5,534.5 C 449.906,534.973 450.573,535.973 450.5,537.5C 449.094,537.027 448.427,536.027 448.5,534.5 Z"/></g>
<g><path style="opacity:1" fill="#cbcbcb" d="M 617.5,535.5 C 611.833,540.167 606.167,544.833 600.5,549.5C 604.963,544.535 609.63,539.702 614.5,535C 615.749,534.26 616.749,534.427 617.5,535.5 Z"/></g>
<g><path style="opacity:1" fill="#b6b6b6" d="M 304.5,538.5 C 305.451,539.919 305.784,541.585 305.5,543.5C 291.167,543.5 276.833,543.5 262.5,543.5C 262.263,542.209 262.596,541.209 263.5,540.5C 276.792,542.482 290.459,543.149 304.5,542.5C 304.5,541.167 304.5,539.833 304.5,538.5 Z"/></g>
<g><path style="opacity:1" fill="#818181" d="M 453.5,543.5 C 454.906,543.973 455.573,544.973 455.5,546.5C 454.094,546.027 453.427,545.027 453.5,543.5 Z"/></g>
<g><path style="opacity:1" fill="#818181" d="M 456.5,548.5 C 457.906,548.973 458.573,549.973 458.5,551.5C 457.094,551.027 456.427,550.027 456.5,548.5 Z"/></g>
<g><path style="opacity:1" fill="#818181" d="M 460.5,555.5 C 461.906,555.973 462.573,556.973 462.5,558.5C 461.094,558.027 460.427,557.027 460.5,555.5 Z"/></g>
<g><path style="opacity:1" fill="#818181" d="M 464.5,562.5 C 465.906,562.973 466.573,563.973 466.5,565.5C 465.094,565.027 464.427,564.027 464.5,562.5 Z"/></g>
<g><path style="opacity:1" fill="#9c9c9c" d="M 192.5,566.5 C 192.706,569.495 192.04,572.162 190.5,574.5C 190.565,571.572 191.232,568.905 192.5,566.5 Z"/></g>
<g><path style="opacity:1" fill="#818181" d="M 468.5,569.5 C 469.906,569.973 470.573,570.973 470.5,572.5C 469.094,572.027 468.427,571.027 468.5,569.5 Z"/></g>
<g><path style="opacity:1" fill="#818181" d="M 472.5,576.5 C 473.906,576.973 474.573,577.973 474.5,579.5C 473.094,579.027 472.427,578.027 472.5,576.5 Z"/></g>
<g><path style="opacity:1" fill="#949494" d="M 246.5,592.5 C 246.472,595.916 245.472,598.916 243.5,601.5C 243.928,598.215 244.928,595.215 246.5,592.5 Z"/></g>
<g><path style="opacity:1" fill="#9d9d9d" d="M 322.5,593.5 C 323.924,595.515 324.59,597.848 324.5,600.5C 323.076,598.485 322.41,596.152 322.5,593.5 Z"/></g>
<g><path style="opacity:1" fill="#969696" d="M 362.5,598.5 C 364.245,600.033 365.245,602.033 365.5,604.5C 363.755,602.967 362.755,600.967 362.5,598.5 Z"/></g>
<g><path style="opacity:1" fill="#818181" d="M 484.5,597.5 C 485.906,597.973 486.573,598.973 486.5,600.5C 485.094,600.027 484.427,599.027 484.5,597.5 Z"/></g>
<g><path style="opacity:1" fill="#b7b7b7" d="M 170.5,599.5 C 166.871,603.609 162.204,605.609 156.5,605.5C 161.278,603.803 165.945,601.803 170.5,599.5 Z"/></g>
<g><path style="opacity:1" fill="#818181" d="M 488.5,604.5 C 489.906,604.973 490.573,605.973 490.5,607.5C 489.094,607.027 488.427,606.027 488.5,604.5 Z"/></g>
<g><path style="opacity:1" fill="#4d4d4d" d="M 713.5,606.5 C 714.043,606.56 714.376,606.893 714.5,607.5C 699.005,608.826 683.672,608.826 668.5,607.5C 683.676,607.829 698.676,607.496 713.5,606.5 Z"/></g>
<g><path style="opacity:1" fill="#959595" d="M 150.5,606.5 C 145.447,608.26 140.114,608.927 134.5,608.5C 134.5,608.167 134.5,607.833 134.5,607.5C 139.854,607.431 145.187,607.098 150.5,606.5 Z"/></g>
<g><path style="opacity:1" fill="#4f4f4f" d="M 204.5,605.5 C 216.455,607.48 228.788,608.146 241.5,607.5C 229.011,608.495 216.344,608.829 203.5,608.5C 203.263,607.209 203.596,606.209 204.5,605.5 Z"/></g>
<g><path style="opacity:1" fill="#4f4f4f" d="M 326.5,606.5 C 339.421,607.48 352.421,607.814 365.5,607.5C 359.913,608.186 353.58,608.519 346.5,608.5C 339.465,608.497 332.798,607.83 326.5,606.5 Z"/></g>
<g><path style="opacity:1" fill="#9c9c9c" d="M 438.5,634.5 C 430.826,633.207 423.159,633.207 415.5,634.5C 415.918,633.778 416.584,633.278 417.5,633C 420.5,632.833 423.5,632.667 426.5,632.5C 430.797,632.278 434.797,632.945 438.5,634.5 Z"/></g>
<g><path style="opacity:1" fill="#080808" d="M 438.5,634.5 C 450.754,636.952 458.087,644.285 460.5,656.5C 460.5,657.833 460.5,659.167 460.5,660.5C 454.833,660.5 449.167,660.5 443.5,660.5C 443.737,659.209 443.404,658.209 442.5,657.5C 441.758,655.574 440.758,653.741 439.5,652C 432.871,648.69 425.871,647.69 418.5,649C 410.42,651.892 408.42,657.058 412.5,664.5C 412.973,665.906 413.973,666.573 415.5,666.5C 425.482,668.995 435.482,671.495 445.5,674C 463.207,680.071 468.374,691.905 461,709.5C 458.591,715.41 454.425,719.41 448.5,721.5C 446.033,721.755 444.033,722.755 442.5,724.5C 441.167,724.5 439.833,724.5 438.5,724.5C 431.833,725.833 425.167,725.833 418.5,724.5C 401.794,722.465 393.127,713.132 392.5,696.5C 398.167,696.5 403.833,696.5 409.5,696.5C 410.771,705.926 416.271,710.592 426,710.5C 431.769,710.177 437.269,708.844 442.5,706.5C 445.866,702.571 446.366,698.238 444,693.5C 443.097,692.299 441.931,691.465 440.5,691C 427.54,688.261 414.873,684.594 402.5,680C 393.9,672.807 391.066,663.64 394,652.5C 397.511,642.158 404.677,636.158 415.5,634.5C 423.159,633.207 430.826,633.207 438.5,634.5 Z"/></g>
<g><path style="opacity:1" fill="#878787" d="M 326.5,635.5 C 320.167,635.5 313.833,635.5 307.5,635.5C 307.5,664.5 307.5,693.5 307.5,722.5C 306.502,693.338 306.169,664.005 306.5,634.5C 313.354,634.176 320.021,634.509 326.5,635.5 Z"/></g>
<g><path style="opacity:1" fill="#4d4d4d" d="M 478.5,635.5 C 478.5,635.833 478.5,636.167 478.5,636.5C 478.5,665.167 478.5,693.833 478.5,722.5C 484.167,722.5 489.833,722.5 495.5,722.5C 495.172,710.322 495.505,698.322 496.5,686.5C 496.5,698.833 496.5,711.167 496.5,723.5C 490.167,723.5 483.833,723.5 477.5,723.5C 477.169,693.995 477.502,664.662 478.5,635.5 Z"/></g>
<g><path style="opacity:1" fill="#1e1e1e" d="M 478.5,636.5 C 478.5,636.167 478.5,635.833 478.5,635.5C 499.167,635.5 519.833,635.5 540.5,635.5C 540.5,640.167 540.5,644.833 540.5,649.5C 539.515,645.366 539.182,641.032 539.5,636.5C 519.167,636.5 498.833,636.5 478.5,636.5 Z"/></g>
<g><path style="opacity:1" fill="#030303" d="M 52.5,635.5 C 75.8333,635.5 99.1667,635.5 122.5,635.5C 122.5,640.5 122.5,645.5 122.5,650.5C 113.651,650.174 104.984,650.507 96.5,651.5C 96.5,675.5 96.5,699.5 96.5,723.5C 90.5,723.5 84.5,723.5 78.5,723.5C 78.5,699.833 78.5,676.167 78.5,652.5C 70.2312,650.53 61.5645,649.864 52.5,650.5C 52.5,645.5 52.5,640.5 52.5,635.5 Z"/></g>
<g><path style="opacity:1" fill="#050505" d="M 177.5,689.5 C 169.016,688.507 160.349,688.174 151.5,688.5C 151.5,699.833 151.5,711.167 151.5,722.5C 145.5,722.5 139.5,722.5 133.5,722.5C 133.5,693.5 133.5,664.5 133.5,635.5C 151.503,635.333 169.503,635.5 187.5,636C 204.911,643.2 210.078,655.7 203,673.5C 200.408,676.762 197.241,679.262 193.5,681C 197,683.167 199.833,686 202,689.5C 203.251,698.759 203.918,708.092 204,717.5C 204.98,718.981 206.147,720.315 207.5,721.5C 200.532,722.497 193.532,722.83 186.5,722.5C 185.913,713.844 185.413,705.178 185,696.5C 183.913,692.578 181.413,690.244 177.5,689.5 Z"/></g>
<g><path style="opacity:1" fill="#060606" d="M 275.5,664.5 C 275.935,667.157 276.935,669.491 278.5,671.5C 282.05,681.482 285.383,691.482 288.5,701.5C 289.129,704.397 290.129,707.064 291.5,709.5C 293.405,713.216 294.739,717.216 295.5,721.5C 289.355,722.49 283.022,722.823 276.5,722.5C 275.662,722.158 275.328,721.492 275.5,720.5C 275.072,717.215 274.072,714.215 272.5,711.5C 271.85,709.565 271.517,707.565 271.5,705.5C 260.167,705.5 248.833,705.5 237.5,705.5C 236.032,711.237 234.365,716.903 232.5,722.5C 226.167,722.5 219.833,722.5 213.5,722.5C 223.655,693.544 233.655,664.544 243.5,635.5C 250.863,635.169 258.197,635.503 265.5,636.5C 268.645,645.937 271.978,655.27 275.5,664.5 Z"/></g>
<g><path style="opacity:1" fill="#030303" d="M 326.5,635.5 C 337.355,654.069 348.021,672.736 358.5,691.5C 358.932,692.71 359.599,693.71 360.5,694.5C 360.56,695.043 360.893,695.376 361.5,695.5C 362.5,675.511 362.833,655.511 362.5,635.5C 367.833,635.5 373.167,635.5 378.5,635.5C 378.5,664.5 378.5,693.5 378.5,722.5C 372.132,722.83 365.798,722.496 359.5,721.5C 358.237,719.971 357.237,718.305 356.5,716.5C 356.573,714.973 355.906,713.973 354.5,713.5C 353.833,712.167 353.167,710.833 352.5,709.5C 352.573,707.973 351.906,706.973 350.5,706.5C 349.833,705.167 349.167,703.833 348.5,702.5C 348.573,700.973 347.906,699.973 346.5,699.5C 345.833,698.167 345.167,696.833 344.5,695.5C 344.573,693.973 343.906,692.973 342.5,692.5C 341.4,691.395 340.733,690.062 340.5,688.5C 340.573,686.973 339.906,685.973 338.5,685.5C 337.833,684.167 337.167,682.833 336.5,681.5C 336.573,679.973 335.906,678.973 334.5,678.5C 334.167,677.833 333.833,677.167 333.5,676.5C 333.573,674.973 332.906,673.973 331.5,673.5C 329.873,669.611 327.873,665.944 325.5,662.5C 325.44,661.957 325.107,661.624 324.5,661.5C 323.5,681.822 323.167,702.156 323.5,722.5C 318.167,722.5 312.833,722.5 307.5,722.5C 307.5,693.5 307.5,664.5 307.5,635.5C 313.833,635.5 320.167,635.5 326.5,635.5 Z"/></g>
<g><path style="opacity:1" fill="#4d4d4d" d="M 361.5,635.5 C 361.833,635.5 362.167,635.5 362.5,635.5C 362.833,655.511 362.5,675.511 361.5,695.5C 360.893,695.376 360.56,695.043 360.5,694.5C 361.497,675.007 361.83,655.34 361.5,635.5 Z"/></g>
<g><path style="opacity:1" fill="#bebebe" d="M 361.5,635.5 C 361.83,655.34 361.497,675.007 360.5,694.5C 359.599,693.71 358.932,692.71 358.5,691.5C 360.163,673.022 361.163,654.356 361.5,635.5 Z"/></g>
<g><path style="opacity:1" fill="#010101" d="M 478.5,636.5 C 498.833,636.5 519.167,636.5 539.5,636.5C 539.182,641.032 539.515,645.366 540.5,649.5C 540.5,649.833 540.5,650.167 540.5,650.5C 525.833,650.5 511.167,650.5 496.5,650.5C 496.176,657.354 496.509,664.021 497.5,670.5C 509.655,671.495 521.989,671.829 534.5,671.5C 534.5,676.5 534.5,681.5 534.5,686.5C 521.833,686.5 509.167,686.5 496.5,686.5C 495.505,698.322 495.172,710.322 495.5,722.5C 489.833,722.5 484.167,722.5 478.5,722.5C 478.5,693.833 478.5,665.167 478.5,636.5 Z"/></g>
<g><path style="opacity:1" fill="#020202" d="M 616.5,635.5 C 616.5,640.5 616.5,645.5 616.5,650.5C 600.991,650.17 585.658,650.504 570.5,651.5C 570.5,657.5 570.5,663.5 570.5,669.5C 584.5,669.5 598.5,669.5 612.5,669.5C 612.5,674.5 612.5,679.5 612.5,684.5C 598.323,684.171 584.323,684.504 570.5,685.5C 570.5,692.5 570.5,699.5 570.5,706.5C 586.132,708.485 602.132,709.151 618.5,708.5C 618.5,713.167 618.5,717.833 618.5,722.5C 596.833,722.5 575.167,722.5 553.5,722.5C 553.737,721.209 553.404,720.209 552.5,719.5C 552.5,691.5 552.5,663.5 552.5,635.5C 573.833,635.5 595.167,635.5 616.5,635.5 Z"/></g>
<g><path style="opacity:1" fill="#040404" d="M 707.5,721.5 C 701.021,722.491 694.354,722.824 687.5,722.5C 686.732,721.737 686.232,720.737 686,719.5C 685.667,711.833 685.333,704.167 685,696.5C 684.208,694.413 683.041,692.579 681.5,691C 671.914,689.58 662.247,689.08 652.5,689.5C 651.505,700.321 651.172,711.321 651.5,722.5C 645.833,722.5 640.167,722.5 634.5,722.5C 634.5,693.5 634.5,664.5 634.5,635.5C 652.17,635.333 669.836,635.5 687.5,636C 705.12,643.098 710.287,655.598 703,673.5C 700.408,676.762 697.241,679.262 693.5,681C 697,683.167 699.833,686 702,689.5C 703.235,697.423 703.902,705.423 704,713.5C 704.004,716.792 705.17,719.458 707.5,721.5 Z"/></g>
<g><path style="opacity:1" fill="#606060" d="M 52.5,635.5 C 52.5,640.5 52.5,645.5 52.5,650.5C 61.5645,649.864 70.2312,650.53 78.5,652.5C 69.5839,651.529 60.5839,651.196 51.5,651.5C 51.1786,645.974 51.5119,640.64 52.5,635.5 Z"/></g>
<g><path style="opacity:1" fill="#606060" d="M 122.5,635.5 C 123.488,640.64 123.821,645.974 123.5,651.5C 114.5,651.5 105.5,651.5 96.5,651.5C 104.984,650.507 113.651,650.174 122.5,650.5C 122.5,645.5 122.5,640.5 122.5,635.5 Z"/></g>
<g><path style="opacity:1" fill="#5f5f5f" d="M 616.5,635.5 C 617.488,640.64 617.821,645.974 617.5,651.5C 602.167,651.5 586.833,651.5 571.5,651.5C 571.167,651.5 570.833,651.5 570.5,651.5C 585.658,650.504 600.991,650.17 616.5,650.5C 616.5,645.5 616.5,640.5 616.5,635.5 Z"/></g>
<g><path style="opacity:1" fill="#8f8f8f" d="M 180.5,651.5 C 171.167,651.5 161.833,651.5 152.5,651.5C 152.201,659.253 152.534,666.92 153.5,674.5C 151.533,666.903 150.866,658.903 151.5,650.5C 161.348,650.173 171.014,650.506 180.5,651.5 Z"/></g>
<g><path style="opacity:1" fill="#f8f8f8" d="M 180.5,651.5 C 182.389,652.604 184.055,653.937 185.5,655.5C 186.36,659.434 186.693,663.434 186.5,667.5C 184.898,670.823 182.231,672.989 178.5,674C 170.173,674.5 161.84,674.666 153.5,674.5C 152.534,666.92 152.201,659.253 152.5,651.5C 161.833,651.5 171.167,651.5 180.5,651.5 Z"/></g>
<g><path style="opacity:1" fill="#a2a2a2" d="M 540.5,650.5 C 526.343,651.496 512.01,651.829 497.5,651.5C 497.5,657.5 497.5,663.5 497.5,669.5C 510.011,669.171 522.345,669.505 534.5,670.5C 522.167,670.5 509.833,670.5 497.5,670.5C 496.509,664.021 496.176,657.354 496.5,650.5C 511.167,650.5 525.833,650.5 540.5,650.5 Z"/></g>
<g><path style="opacity:1" fill="#f9f9f9" d="M 653.5,650.5 C 662.506,650.334 671.506,650.5 680.5,651C 687.188,654.559 689.355,660.059 687,667.5C 685.543,669.658 683.71,671.491 681.5,673C 680.552,673.483 679.552,673.649 678.5,673.5C 669.833,673.5 661.167,673.5 652.5,673.5C 652.201,665.747 652.534,658.08 653.5,650.5 Z"/></g>
<g><path style="opacity:1" fill="#bdbdbd" d="M 257.5,663.5 C 256.069,663.119 255.236,662.119 255,660.5C 254.051,662.093 252.885,663.426 251.5,664.5C 253.374,653.528 255.374,653.194 257.5,663.5 Z"/></g>
<g><path style="opacity:1" fill="#9e9e9e" d="M 185.5,655.5 C 186.117,655.611 186.617,655.944 187,656.5C 187.81,660.358 187.643,664.024 186.5,667.5C 186.693,663.434 186.36,659.434 185.5,655.5 Z"/></g>
<g><path style="opacity:1" fill="#f6f6f6" d="M 257.5,663.5 C 257.5,663.833 257.5,664.167 257.5,664.5C 257.861,668.915 259.194,672.915 261.5,676.5C 262.899,679.699 263.899,683.032 264.5,686.5C 264.5,687.5 264.5,688.5 264.5,689.5C 257.833,689.5 251.167,689.5 244.5,689.5C 244.5,688.5 244.5,687.5 244.5,686.5C 244.767,684.035 245.434,681.701 246.5,679.5C 248.655,677.383 249.655,674.716 249.5,671.5C 249.767,669.035 250.434,666.701 251.5,664.5C 252.885,663.426 254.051,662.093 255,660.5C 255.236,662.119 256.069,663.119 257.5,663.5 Z"/></g>
<g><path style="opacity:1" fill="#5e5e5e" d="M 460.5,656.5 C 461.451,657.919 461.784,659.585 461.5,661.5C 455.167,661.5 448.833,661.5 442.5,661.5C 442.5,660.167 442.5,658.833 442.5,657.5C 443.404,658.209 443.737,659.209 443.5,660.5C 449.167,660.5 454.833,660.5 460.5,660.5C 460.5,659.167 460.5,657.833 460.5,656.5 Z"/></g>
<g><path style="opacity:1" fill="#565656" d="M 325.5,662.5 C 324.503,682.66 324.17,702.993 324.5,723.5C 318.642,723.822 312.975,723.489 307.5,722.5C 312.833,722.5 318.167,722.5 323.5,722.5C 323.167,702.156 323.5,681.822 324.5,661.5C 325.107,661.624 325.44,661.957 325.5,662.5 Z"/></g>
<g><path style="opacity:1" fill="#949494" d="M 275.5,664.5 C 277.448,666.32 278.448,668.654 278.5,671.5C 276.935,669.491 275.935,667.157 275.5,664.5 Z"/></g>
<g><path style="opacity:1" fill="#818181" d="M 412.5,664.5 C 414.027,664.427 415.027,665.094 415.5,666.5C 413.973,666.573 412.973,665.906 412.5,664.5 Z"/></g>
<g><path style="opacity:1" fill="#949494" d="M 257.5,664.5 C 259.405,668.216 260.739,672.216 261.5,676.5C 259.194,672.915 257.861,668.915 257.5,664.5 Z"/></g>
<g><path style="opacity:1" fill="#bdbdbd" d="M 570.5,651.5 C 570.833,651.5 571.167,651.5 571.5,651.5C 571.5,657.167 571.5,662.833 571.5,668.5C 585.344,668.171 599.01,668.504 612.5,669.5C 598.5,669.5 584.5,669.5 570.5,669.5C 570.5,663.5 570.5,657.5 570.5,651.5 Z"/></g>
<g><path style="opacity:1" fill="#585858" d="M 497.5,670.5 C 509.833,670.5 522.167,670.5 534.5,670.5C 535.833,675.833 535.833,681.167 534.5,686.5C 534.5,681.5 534.5,676.5 534.5,671.5C 521.989,671.829 509.655,671.495 497.5,670.5 Z"/></g>
<g><path style="opacity:1" fill="#959595" d="M 249.5,671.5 C 249.655,674.716 248.655,677.383 246.5,679.5C 247.129,676.603 248.129,673.936 249.5,671.5 Z"/></g>
<g><path style="opacity:1" fill="#6b6b6b" d="M 653.5,650.5 C 652.534,658.08 652.201,665.747 652.5,673.5C 661.167,673.5 669.833,673.5 678.5,673.5C 669.682,674.493 660.682,674.827 651.5,674.5C 650.866,666.097 651.533,658.097 653.5,650.5 Z"/></g>
<g><path style="opacity:1" fill="#818181" d="M 331.5,673.5 C 332.906,673.973 333.573,674.973 333.5,676.5C 332.094,676.027 331.427,675.027 331.5,673.5 Z"/></g>
<g><path style="opacity:1" fill="#818181" d="M 334.5,678.5 C 335.906,678.973 336.573,679.973 336.5,681.5C 335.094,681.027 334.427,680.027 334.5,678.5 Z"/></g>
<g><path style="opacity:1" fill="#747474" d="M 612.5,669.5 C 613.488,674.64 613.821,679.974 613.5,685.5C 599.167,685.5 584.833,685.5 570.5,685.5C 584.323,684.504 598.323,684.171 612.5,684.5C 612.5,679.5 612.5,674.5 612.5,669.5 Z"/></g>
<g><path style="opacity:1" fill="#818181" d="M 338.5,685.5 C 339.906,685.973 340.573,686.973 340.5,688.5C 339.094,688.027 338.427,687.027 338.5,685.5 Z"/></g>
<g><path style="opacity:1" fill="#7c7c7c" d="M 177.5,689.5 C 169.167,689.5 160.833,689.5 152.5,689.5C 152.828,700.679 152.495,711.679 151.5,722.5C 151.5,711.167 151.5,699.833 151.5,688.5C 160.349,688.174 169.016,688.507 177.5,689.5 Z"/></g>
<g><path style="opacity:1" fill="#535353" d="M 244.5,686.5 C 244.5,687.5 244.5,688.5 244.5,689.5C 251.167,689.5 257.833,689.5 264.5,689.5C 264.5,688.5 264.5,687.5 264.5,686.5C 265.434,687.568 265.768,688.901 265.5,690.5C 258.167,690.5 250.833,690.5 243.5,690.5C 243.232,688.901 243.566,687.568 244.5,686.5 Z"/></g>
<g><path style="opacity:1" fill="#595959" d="M 652.5,689.5 C 652.5,700.833 652.5,712.167 652.5,723.5C 646.31,723.823 640.31,723.49 634.5,722.5C 640.167,722.5 645.833,722.5 651.5,722.5C 651.172,711.321 651.505,700.321 652.5,689.5 Z"/></g>
<g><path style="opacity:1" fill="#818181" d="M 342.5,692.5 C 343.906,692.973 344.573,693.973 344.5,695.5C 343.094,695.027 342.427,694.027 342.5,692.5 Z"/></g>
<g><path style="opacity:1" fill="#818181" d="M 346.5,699.5 C 347.906,699.973 348.573,700.973 348.5,702.5C 347.094,702.027 346.427,701.027 346.5,699.5 Z"/></g>
<g><path style="opacity:1" fill="#8c8c8c" d="M 288.5,701.5 C 290.655,703.617 291.655,706.284 291.5,709.5C 290.129,707.064 289.129,704.397 288.5,701.5 Z"/></g>
<g><path style="opacity:1" fill="#818181" d="M 350.5,706.5 C 351.906,706.973 352.573,707.973 352.5,709.5C 351.094,709.027 350.427,708.027 350.5,706.5 Z"/></g>
<g><path style="opacity:1" fill="#818181" d="M 354.5,713.5 C 355.906,713.973 356.573,714.973 356.5,716.5C 355.094,716.027 354.427,715.027 354.5,713.5 Z"/></g>
<g><path style="opacity:1" fill="#a0a0a0" d="M 272.5,711.5 C 274.072,714.215 275.072,717.215 275.5,720.5C 273.132,718.044 272.132,715.044 272.5,711.5 Z"/></g>
<g><path style="opacity:1" fill="#7e7f7e" d="M 295.5,721.5 C 296.043,721.56 296.376,721.893 296.5,722.5C 289.678,723.818 283.011,723.818 276.5,722.5C 283.022,722.823 289.355,722.49 295.5,721.5 Z"/></g>
<g><path style="opacity:1" fill="#a9a9a9" d="M 448.5,721.5 C 446.967,723.245 444.967,724.245 442.5,724.5C 444.033,722.755 446.033,721.755 448.5,721.5 Z"/></g>
<g><path style="opacity:1" fill="#4d4d4d" d="M 570.5,706.5 C 586.756,707.484 603.089,707.818 619.5,707.5C 619.5,712.833 619.5,718.167 619.5,723.5C 597.167,723.5 574.833,723.5 552.5,723.5C 552.5,722.167 552.5,720.833 552.5,719.5C 553.404,720.209 553.737,721.209 553.5,722.5C 575.167,722.5 596.833,722.5 618.5,722.5C 618.5,717.833 618.5,713.167 618.5,708.5C 602.132,709.151 586.132,708.485 570.5,706.5 Z"/></g>
<g><path style="opacity:1" fill="#828282" d="M 707.5,721.5 C 708.043,721.56 708.376,721.893 708.5,722.5C 701.344,723.819 694.344,723.819 687.5,722.5C 694.354,722.824 701.021,722.491 707.5,721.5 Z"/></g>
<g><path style="opacity:1" fill="#5a5a5a" d="M 418.5,724.5 C 425.167,725.833 431.833,725.833 438.5,724.5C 435.474,726.019 432.141,726.685 428.5,726.5C 424.859,726.685 421.526,726.019 418.5,724.5 Z"/></g>
</svg>
