<?xml version="1.0" standalone="no"?>
<!DOCTYPE svg PUBLIC "-//W3C//DTD SVG 20010904//EN"
 "http://www.w3.org/TR/2001/REC-SVG-20010904/DTD/svg10.dtd">
<svg version="1.0" xmlns="http://www.w3.org/2000/svg"
 width="800.000000pt" height="292.000000pt" viewBox="0 0 800.000000 292.000000"
 preserveAspectRatio="xMidYMid meet">
<metadata>
Created by potrace 1.16, written by Peter Selinger 2001-2019
</metadata>
<g transform="translate(0.000000,292.000000) scale(0.100000,-0.100000)"
fill="#000000" stroke="none">
<path d="M1975 2742 c-6 -5 -39 -21 -75 -37 -36 -15 -92 -40 -125 -55 -33 -15
-121 -53 -195 -85 -74 -32 -168 -73 -208 -91 -41 -19 -75 -34 -77 -34 -2 0
-36 -15 -77 -34 -40 -18 -128 -57 -196 -86 -67 -29 -127 -61 -132 -71 -16 -29
-13 -254 4 -268 10 -8 310 -10 1117 -9 l1104 3 0 143 0 144 -65 27 c-63 27
-123 54 -205 91 -22 10 -96 43 -165 73 -69 30 -204 89 -300 132 -96 42 -191
84 -210 92 -19 9 -62 29 -96 44 -63 30 -84 34 -99 21z"/>
<path d="M3785 2227 c-3 -7 -4 -145 -3 -307 l3 -295 166 0 c160 1 166 2 210
27 100 59 121 199 40 272 -27 25 -26 37 4 82 48 70 25 158 -54 211 -32 22 -44
23 -198 23 -122 0 -165 -3 -168 -13z m326 -96 c32 -32 37 -65 14 -97 -23 -34
-65 -45 -156 -42 l-84 3 -3 69 c-2 38 -1 75 2 83 4 10 30 13 101 13 93 0 98
-1 126 -29z m12 -251 c51 -40 43 -126 -14 -155 -19 -10 -60 -15 -129 -15
l-100 0 0 95 0 95 109 0 c93 0 112 -3 134 -20z"/>
<path d="M5349 2231 c-2 -6 -2 -145 1 -308 l5 -298 40 0 40 0 5 93 c5 91 16
117 44 106 6 -3 35 -43 64 -89 30 -47 60 -92 68 -100 17 -17 89 -21 99 -5 3 5
-30 64 -75 131 -44 67 -80 132 -80 144 0 15 23 43 70 84 39 35 70 69 70 77 0
10 -14 14 -56 14 -56 0 -58 -1 -118 -60 -33 -34 -65 -62 -71 -63 -6 -1 -12 53
-15 138 l-5 140 -41 3 c-23 2 -44 -2 -45 -7z"/>
<path d="M4460 2077 c-61 -20 -110 -72 -110 -117 0 -17 6 -20 39 -20 31 0 44
6 61 27 17 22 31 27 78 31 71 5 109 -18 99 -60 -6 -22 -15 -27 -49 -33 -145
-22 -163 -28 -200 -65 -34 -34 -38 -43 -38 -90 0 -47 4 -56 39 -91 37 -37 41
-39 105 -39 47 0 78 6 111 22 l45 22 16 -22 c12 -18 24 -22 52 -20 33 3 37 6
34 28 -1 14 -5 101 -8 193 -6 158 -8 171 -30 197 -39 46 -161 64 -244 37z
m170 -283 c0 -37 -47 -80 -98 -89 -75 -12 -129 37 -84 78 21 19 80 35 140 36
39 1 42 -1 42 -25z"/>
<path d="M4993 2071 c-37 -17 -43 -18 -54 -5 -8 10 -26 14 -48 12 l-36 -3 0
-225 0 -225 40 0 40 0 5 145 c6 153 15 188 52 214 29 20 87 21 116 0 21 -15
22 -21 22 -174 0 -87 3 -165 6 -174 7 -19 69 -22 80 -4 4 6 7 92 6 190 0 192
-4 209 -56 244 -40 25 -124 28 -173 5z"/>
<path d="M1978 1900 c-124 -3 -191 -9 -199 -17 -24 -24 -6 -93 25 -93 37 -1
37 -6 37 -426 0 -225 0 -415 -1 -422 0 -7 -14 -18 -31 -24 -53 -18 -59 -81 -9
-108 11 -6 98 -10 208 -10 184 0 189 1 210 23 12 13 22 33 22 44 0 26 -25 53
-50 53 -10 0 -21 7 -24 16 -3 9 -6 199 -6 423 0 423 1 431 42 431 36 0 51 66
21 92 -26 22 -41 23 -245 18z"/>
<path d="M2716 1902 c-202 -3 -220 -8 -214 -66 2 -23 11 -35 33 -45 17 -8 33
-19 37 -25 12 -18 10 -804 -2 -827 -6 -10 -17 -19 -25 -19 -42 0 -59 -66 -25
-100 19 -19 33 -20 215 -20 182 0 196 1 215 20 20 20 26 55 12 77 -4 6 -20 16
-35 22 l-27 11 0 425 0 425 25 6 c44 11 60 68 28 96 -26 22 -40 23 -237 20z"/>
<path d="M1056 1878 c-29 -40 -12 -76 42 -92 l22 -7 0 -425 c0 -396 -1 -425
-17 -430 -35 -11 -48 -22 -58 -49 -8 -24 -6 -30 18 -51 28 -24 32 -24 221 -24
l193 0 23 25 c20 21 22 30 14 52 -9 25 -22 36 -56 47 -17 5 -18 34 -18 429 l0
424 32 9 c43 13 58 52 34 88 l-16 26 -210 0 c-205 0 -209 0 -224 -22z"/>
<path d="M3748 1219 c-21 -12 -24 -52 -5 -67 7 -6 51 -12 97 -14 l85 -3 3
-258 2 -258 25 -11 c19 -8 31 -8 50 0 l25 11 2 258 3 258 85 3 c46 2 90 8 97
14 16 13 17 50 1 66 -15 15 -444 16 -470 1z"/>
<path d="M6104 1196 c-26 -26 -34 -42 -34 -69 0 -50 -9 -67 -35 -67 -13 0 -26
-7 -29 -16 -10 -25 4 -64 23 -64 37 0 41 -19 41 -196 0 -166 1 -173 21 -179
11 -4 31 -4 45 -1 l24 6 0 179 c0 193 -1 191 56 191 21 0 24 5 24 35 0 36 -3
38 -52 49 -21 5 -28 12 -28 30 0 30 33 60 59 53 28 -7 51 13 54 48 l2 30 -68
3 c-66 3 -69 2 -103 -32z"/>
<path d="M4440 1061 c-9 -6 -36 -8 -64 -4 -35 4 -50 2 -57 -8 -5 -8 -9 -107
-9 -220 0 -226 2 -234 57 -227 l28 3 5 155 c7 205 18 227 106 221 26 -2 33 3
44 29 9 22 10 34 2 42 -15 15 -94 21 -112 9z"/>
<path d="M4718 1060 c-42 -13 -84 -47 -98 -80 -17 -41 -7 -60 32 -60 25 0 39
8 60 32 24 30 31 33 82 32 59 0 96 -21 96 -54 0 -27 -19 -37 -104 -49 -138
-20 -186 -58 -186 -149 0 -61 31 -104 87 -123 43 -14 136 -5 166 16 29 20 43
19 67 -5 21 -21 55 -26 78 -11 11 6 11 16 3 47 -6 22 -11 102 -11 180 0 130
-2 144 -23 175 -13 19 -38 39 -57 46 -40 13 -152 15 -192 3z m170 -279 c5 -30
-57 -91 -94 -92 -49 -2 -68 2 -87 19 -43 39 1 79 103 92 70 9 74 8 78 -19z"/>
<path d="M5252 1055 c-25 -11 -39 -12 -53 -4 -11 5 -34 9 -52 7 l-32 -3 -3
-221 -2 -222 22 -6 c35 -9 45 -7 62 10 13 13 16 42 16 160 l0 144 29 32 c25
28 36 33 72 32 73 -2 79 -18 79 -205 l0 -159 25 -12 c19 -8 31 -8 50 0 l25 12
-1 142 c0 187 -8 232 -46 270 -26 26 -40 31 -94 34 -44 3 -75 0 -97 -11z"/>
<path d="M5673 1059 c-79 -23 -114 -147 -55 -200 33 -31 67 -46 157 -69 86
-23 105 -44 72 -78 -18 -18 -35 -24 -70 -24 -56 0 -82 14 -102 52 -28 54 -109
29 -88 -27 36 -99 167 -142 281 -93 64 28 87 62 87 127 0 68 -30 101 -117 127
-118 35 -153 51 -153 72 0 49 107 55 150 8 33 -36 89 -31 93 7 4 36 -40 86
-86 99 -45 12 -125 12 -169 -1z"/>
<path d="M6422 1062 c-37 -11 -91 -60 -113 -104 -18 -35 -20 -55 -17 -138 3
-92 5 -100 34 -137 97 -120 303 -109 370 20 19 36 11 47 -34 47 -26 0 -44 -8
-67 -29 -29 -28 -53 -35 -117 -32 -36 1 -100 65 -96 94 3 21 8 22 163 27 l160
5 3 40 c7 87 -53 184 -126 205 -40 11 -124 12 -160 2z m158 -101 c15 -11 25
-28 25 -42 0 -24 -2 -24 -104 -27 -119 -3 -135 4 -105 45 39 53 128 64 184 24z"/>
<path d="M6922 1054 c-18 -12 -26 -13 -37 -4 -8 6 -26 10 -42 8 l-28 -3 -3
-222 c-2 -215 -2 -222 18 -228 11 -3 29 -3 40 0 18 6 20 15 20 120 0 193 31
272 100 259 35 -7 59 14 60 52 0 35 -86 47 -128 18z"/>
<path d="M903 714 c-21 -21 -24 -32 -20 -62 12 -71 -80 -66 1116 -66 1038 0
1081 1 1101 19 27 25 27 88 0 115 -20 20 -33 20 -1095 20 l-1076 0 -26 -26z"/>
<path d="M753 501 c-18 -15 -23 -30 -23 -70 l0 -51 1270 0 1270 0 0 48 c0 27
-7 57 -16 70 l-15 22 -1232 0 c-1190 -1 -1233 -1 -1254 -19z"/>
</g>
</svg>
