<svg version="1.1" id="Layer_1" xmlns="http://www.w3.org/2000/svg" xmlns:xlink="http://www.w3.org/1999/xlink" x="0px" y="0px"
	 width="100%" viewBox="0 0 2048 1365" enable-background="new 0 0 2048 1365" xml:space="preserve">
<path fill="#F2F2F2" opacity="1.000000" stroke="none" 
	d="
M1.000013,1253.000000 
	C1.000000,873.631775 1.000000,494.263519 1.344778,114.751808 
	C2.120445,113.948654 2.745966,113.344391 2.952110,112.620674 
	C5.011387,105.391182 6.398475,97.904861 9.134480,90.946846 
	C15.177899,75.577667 23.378212,61.523819 34.334148,48.869335 
	C45.165451,36.358795 57.705658,26.295847 71.826447,18.061996 
	C84.629745,10.596375 98.451233,5.660931 113.035240,2.884673 
	C113.460991,2.803625 113.682999,1.652299 114.000000,1.000000 
	C721.034912,1.000000 1328.069824,1.000000 1935.248291,1.344680 
	C1935.885498,2.110362 1936.330078,2.816153 1936.880005,2.911175 
	C1956.172852,6.244397 1973.848389,13.841036 1989.447388,25.325705 
	C1999.495605,32.723549 2008.314941,41.898006 2017.148071,50.808514 
	C2025.972290,59.710163 2032.196655,70.609947 2036.872925,82.118248 
	C2040.949097,92.149666 2043.683838,102.724709 2047.105835,113.028145 
	C2047.265503,113.508751 2048.347656,113.683022 2049.000000,113.999985 
	C2049.000000,493.368256 2049.000000,872.736511 2048.655762,1252.248291 
	C2046.817261,1257.746338 2045.532349,1263.170288 2043.787842,1268.441895 
	C2039.291748,1282.027344 2032.987061,1294.781494 2024.875244,1306.553101 
	C2013.032227,1323.739258 1997.876587,1337.463135 1979.878784,1347.982422 
	C1966.661011,1355.707886 1952.549194,1361.192505 1937.463013,1364.083740 
	C1936.874512,1364.196289 1936.483276,1365.337891 1936.000000,1366.000000 
	C1328.965088,1366.000000 721.930176,1366.000000 114.751724,1365.655884 
	C113.949005,1364.880615 113.345390,1364.254272 112.622070,1364.048218 
	C105.391281,1361.988647 97.921036,1360.567749 90.940666,1357.872681 
	C75.560036,1351.934204 61.644768,1343.553955 48.984558,1332.742676 
	C36.366699,1321.967651 26.204412,1309.431030 18.073854,1295.174683 
	C10.743231,1282.320923 5.331979,1268.671631 2.883677,1253.963623 
	C2.814733,1253.549316 1.652480,1253.317017 1.000013,1253.000000 
M802.919434,1025.827026 
	C824.503052,1025.827026 846.086731,1025.827026 868.277710,1025.827026 
	C868.277710,973.684021 868.277710,922.189087 868.277710,870.694092 
	C870.345947,872.078857 871.390564,873.714905 872.374207,875.386902 
	C901.001160,924.045471 929.663879,972.683044 958.155945,1021.420410 
	C960.208374,1024.931030 962.450256,1026.060425 966.391479,1026.015625 
	C984.387939,1025.810547 1002.387939,1025.925537 1020.386719,1025.925537 
	C1022.154297,1025.925537 1023.921936,1025.925537 1025.787598,1025.925537 
	C1025.787598,937.861877 1025.787598,850.442200 1025.787598,762.872986 
	C1004.305542,762.872986 983.058838,762.872986 961.099365,762.872986 
	C961.099365,811.784119 961.099365,860.401367 961.099365,909.018677 
	C958.909180,907.663391 957.919312,906.017578 956.954224,904.357422 
	C930.257263,858.430847 903.535950,812.518372 876.930481,766.538818 
	C875.220093,763.582947 873.367065,762.458008 869.902527,762.487915 
	C849.405457,762.664795 828.906067,762.575134 808.407471,762.575134 
	C806.790527,762.575134 805.173584,762.575134 803.248413,762.575134 
	C803.248413,765.174500 803.248352,767.154175 803.248352,769.133789 
	C803.248352,851.794739 803.256958,934.455750 803.196838,1017.116638 
	C803.195435,1019.065369 802.424561,1021.013611 802.035217,1022.207458 
	C772.828064,937.216614 743.592529,852.235535 714.510437,767.201965 
	C713.254700,763.530151 711.641968,762.444092 707.850403,762.486145 
	C689.021484,762.694946 670.187866,762.686157 651.358643,762.490784 
	C647.720886,762.453125 646.236023,763.605835 645.089539,767.038147 
	C620.729492,839.966919 596.236145,912.851074 571.759949,985.740967 
	C569.920654,991.218262 568.015930,996.673462 565.753113,1003.272034 
	C552.645081,971.330811 540.000793,940.519592 527.322632,909.625671 
	C529.138977,908.593628 530.428345,907.855652 531.722595,907.126282 
	C547.779968,898.077637 558.852173,884.896790 564.993286,867.477112 
	C569.413269,854.939514 570.312439,842.052368 568.892456,829.018127 
	C565.432983,797.263062 545.516785,761.372375 497.153992,762.370850 
	C450.179291,763.340637 403.168854,762.581299 356.174133,762.581299 
	C354.373444,762.581299 352.572784,762.581299 350.596680,762.581299 
	C350.596680,850.579529 350.596680,938.115784 350.596680,1025.542236 
	C372.197662,1025.542236 393.430786,1025.542236 415.107483,1025.542236 
	C415.107483,989.746460 415.107483,954.330322 415.107483,918.675476 
	C431.040192,918.675476 446.526154,918.789246 462.008087,918.589783 
	C465.558990,918.544006 467.169891,919.571350 468.414795,923.005493 
	C477.830597,948.978577 487.490417,974.863159 497.083954,1000.771729 
	C500.185883,1009.148926 503.317413,1017.515259 506.448975,1025.923096 
	C545.720276,1025.923096 584.539368,1025.886719 623.357971,1025.993774 
	C626.398315,1026.002197 626.808960,1024.385254 627.395020,1022.150818 
	C630.730469,1009.432739 634.267151,996.766602 637.492676,984.021362 
	C638.231567,981.101562 639.280090,980.000916 642.448547,980.019470 
	C666.778320,980.161926 691.109497,980.151672 715.439514,980.028992 
	C718.478699,980.013672 719.731018,980.848877 720.497986,983.901917 
	C723.741455,996.814087 727.231201,1009.667175 730.879150,1022.471069 
	C731.273865,1023.856201 733.272217,1025.769653 734.535034,1025.775879 
	C757.021057,1025.888672 779.508484,1025.743896 802.919434,1025.827026 
M546.027283,561.500000 
	C546.027283,610.260559 546.027283,659.021118 546.027283,707.949097 
	C547.757812,708.025635 548.898743,708.120300 550.039673,708.120239 
	C611.195068,708.118896 672.350525,708.110657 733.505920,708.100403 
	C749.279785,708.097778 764.745911,705.881836 779.731323,700.972717 
	C812.312988,690.299072 837.068176,671.028992 848.453186,637.400269 
	C854.178467,620.489197 855.312439,603.033997 852.767273,585.563904 
	C848.504517,556.304565 835.081604,532.764771 808.016541,518.524475 
	C807.202454,518.096191 806.523987,517.410034 805.118225,516.337402 
	C806.926758,515.193054 808.217773,514.319092 809.561279,513.535034 
	C819.308350,507.846771 826.784546,500.009583 832.059570,490.027527 
	C838.637451,477.579987 841.924866,464.323914 842.392334,450.268707 
	C843.741943,409.687531 824.419922,381.861389 786.052979,368.620941 
	C767.044617,362.061096 747.238953,360.425629 727.572693,360.190704 
	C668.758484,359.488220 609.930603,359.936401 551.108032,359.947968 
	C549.508728,359.948273 547.909424,360.093414 546.027283,360.184723 
	C546.027283,427.242279 546.027283,493.871124 546.027283,561.500000 
M1225.500000,360.949524 
	C1216.402588,360.949524 1207.305176,360.949524 1198.182983,360.949524 
	C1198.182983,477.298248 1198.182983,593.018921 1198.182983,708.778687 
	C1228.000122,708.778687 1257.547485,708.778687 1287.712036,708.778687 
	C1287.712036,640.115967 1287.712036,571.798462 1287.712036,503.480896 
	C1290.220581,505.055298 1291.665405,506.973877 1292.926025,509.006622 
	C1333.470581,574.387634 1374.017700,639.767090 1414.459229,705.211792 
	C1416.252441,708.113647 1418.112183,709.227051 1421.550659,709.207825 
	C1448.376343,709.058044 1475.203369,709.128967 1502.029907,709.115051 
	C1503.618530,709.114258 1505.207031,708.969238 1506.664795,708.897705 
	C1506.664795,592.665710 1506.664795,476.952545 1506.664795,361.348236 
	C1476.795044,361.348236 1447.260010,361.348236 1417.245850,361.348236 
	C1417.245850,426.131348 1417.245850,490.516846 1417.245850,554.902344 
	C1415.052856,553.871704 1413.879883,552.433960 1412.921875,550.865051 
	C1375.090210,488.900940 1337.257324,426.937469 1299.528320,364.910919 
	C1297.766846,362.015137 1295.956787,360.833649 1292.482666,360.861206 
	C1270.489624,361.035522 1248.494507,360.949585 1225.500000,360.949524 
M1541.610229,499.499756 
	C1541.610229,569.250000 1541.610229,639.000183 1541.610229,708.760376 
	C1571.735962,708.760376 1601.276611,708.760376 1631.045898,708.760376 
	C1631.045898,706.579529 1631.045898,704.762939 1631.045898,702.946350 
	C1631.045898,663.288269 1631.029297,623.630127 1631.098145,583.972107 
	C1631.101440,582.105652 1631.240601,579.618347 1632.377441,578.474670 
	C1640.317993,570.486389 1648.538208,562.776184 1656.917969,554.738037 
	C1658.237427,556.642212 1659.287964,558.104614 1660.284058,559.603149 
	C1692.550415,608.150024 1724.833374,656.686035 1757.018188,705.287048 
	C1758.859253,708.067261 1760.752441,709.228455 1764.197998,709.213806 
	C1798.356689,709.068359 1832.516235,709.125732 1866.675537,709.125732 
	C1868.095581,709.125732 1869.515747,709.125732 1872.029785,709.125732 
	C1822.182495,636.743530 1772.945557,565.247742 1723.619385,493.622223 
	C1770.311157,449.466339 1816.663208,405.631866 1863.909790,360.951447 
	C1824.407104,360.951447 1786.429443,360.902863 1748.453003,361.095093 
	C1746.557251,361.104645 1744.288086,362.842590 1742.838135,364.383087 
	C1707.093750,402.360657 1671.434204,440.417877 1635.776489,478.476959 
	C1634.696777,479.629425 1633.796875,480.950348 1632.813110,482.192719 
	C1632.410522,481.956848 1632.008057,481.720947 1631.605469,481.485077 
	C1631.605469,441.441101 1631.605469,401.397156 1631.605469,361.260803 
	C1601.343750,361.260803 1571.611450,361.260803 1541.610229,361.260803 
	C1541.610229,407.214813 1541.610229,452.857269 1541.610229,499.499756 
M1108.500000,709.126587 
	C1133.630127,709.126587 1158.760254,709.126587 1184.271484,709.126587 
	C1183.845825,707.578674 1183.619995,706.463806 1183.236816,705.405945 
	C1142.137329,591.976929 1101.016846,478.555603 1059.971680,365.106995 
	C1058.966919,362.329803 1057.667603,361.311798 1054.638428,361.325195 
	C1026.812500,361.448212 998.985413,361.455322 971.159546,361.320190 
	C967.901855,361.304382 966.624634,362.419861 965.567993,365.413086 
	C925.629211,478.548981 885.591309,591.649902 845.582031,704.760925 
	C845.123047,706.058411 844.863464,707.426392 844.471680,708.909729 
	C876.168945,708.909729 907.289917,708.909729 938.637268,708.909729 
	C943.791016,690.874939 949.091248,673.029236 953.894531,655.050842 
	C955.176331,650.253052 956.922546,648.548767 962.172668,648.595947 
	C995.495178,648.895447 1028.822754,648.879150 1062.145752,648.607605 
	C1067.173096,648.566650 1068.863281,650.252930 1070.052979,654.831482 
	C1074.404663,671.580139 1079.333618,688.178345 1083.738403,704.914001 
	C1084.652588,708.387207 1086.086670,709.371094 1089.508301,709.206665 
	C1095.492920,708.919189 1101.501465,709.126526 1108.500000,709.126587 
M1716.463867,1006.499023 
	C1716.463867,977.389465 1716.463867,948.279907 1716.463867,918.896912 
	C1718.420166,918.807739 1719.879517,918.684875 1721.338867,918.683411 
	C1735.503784,918.668823 1749.671753,918.837463 1763.831421,918.565735 
	C1767.598877,918.493469 1768.908569,919.952515 1770.091309,923.187561 
	C1782.092773,956.012085 1794.311523,988.757080 1806.283447,1021.592224 
	C1807.525635,1024.999512 1809.133179,1026.042969 1812.694092,1026.010010 
	C1832.356567,1025.828003 1852.021606,1025.927246 1871.685791,1025.913696 
	C1873.091553,1025.912720 1874.497314,1025.778442 1876.537964,1025.673584 
	C1860.538696,986.676880 1844.769287,948.240540 1829.036255,909.892822 
	C1829.499756,909.446289 1829.703369,909.163757 1829.978027,909.000916 
	C1830.836670,908.491699 1831.722046,908.027832 1832.597046,907.546387 
	C1850.596191,897.644470 1862.308594,882.751038 1867.990112,863.044250 
	C1871.562988,850.651367 1871.953369,838.060425 1870.036987,825.411011 
	C1865.207642,793.536072 1844.477783,761.556519 1799.120239,762.390259 
	C1752.142090,763.253723 1705.135620,762.582336 1658.141602,762.582336 
	C1656.201904,762.582336 1654.262085,762.582336 1652.327271,762.582336 
	C1652.327271,850.665771 1652.327271,938.189453 1652.327271,1025.662109 
	C1673.822266,1025.662109 1694.914307,1025.662109 1716.463867,1025.662109 
	C1716.463867,1019.439392 1716.463867,1013.468811 1716.463867,1006.499023 
M1448.547485,823.499634 
	C1448.547485,890.949402 1448.547485,958.399170 1448.547485,1025.976074 
	C1515.044678,1025.976074 1581.061157,1025.976074 1646.975830,1025.976074 
	C1646.975830,1006.497681 1646.975830,987.411377 1646.975830,967.846436 
	C1602.277954,967.846436 1557.874268,967.846436 1513.471436,967.846436 
	C1513.471436,949.985046 1513.471436,932.609314 1513.471436,914.836548 
	C1551.615601,914.836548 1589.367920,914.836548 1627.276611,914.836548 
	C1627.276611,895.325134 1627.276611,876.217102 1627.276611,856.521057 
	C1589.139404,856.521057 1551.233765,856.521057 1513.465332,856.521057 
	C1513.465332,844.357178 1513.465332,832.785706 1513.465332,820.743774 
	C1557.088867,820.743774 1600.326782,820.743774 1643.549316,820.743774 
	C1643.549316,801.165649 1643.549316,782.070923 1643.549316,762.855713 
	C1578.510132,762.855713 1513.761475,762.855713 1448.547485,762.855713 
	C1448.547485,782.920654 1448.547485,802.710083 1448.547485,823.499634 
M1109.089111,824.804199 
	C1110.995605,818.229919 1115.217163,813.809021 1121.685913,811.685669 
	C1125.624268,810.392944 1129.607666,808.946533 1133.681396,808.410095 
	C1147.331421,806.613037 1166.707275,809.864441 1175.109131,827.665222 
	C1177.283325,832.271729 1179.082886,837.054993 1181.200806,842.105469 
	C1199.368652,834.100708 1217.567871,826.082153 1235.779053,818.058289 
	C1226.733765,790.583557 1210.549561,770.069214 1182.624023,761.605286 
	C1170.826294,758.029602 1158.176147,756.475281 1145.810425,755.741150 
	C1124.505249,754.476074 1103.464722,757.074646 1083.812988,766.080383 
	C1056.869629,778.427917 1040.322754,798.808472 1038.454712,829.089966 
	C1036.660156,858.181213 1047.471924,881.519348 1072.511230,897.379700 
	C1078.815674,901.373108 1085.326172,905.333618 1092.245850,908.003967 
	C1108.064453,914.108582 1124.331665,919.052490 1140.142700,925.174927 
	C1148.588501,928.445190 1157.162964,932.221558 1164.432983,937.489441 
	C1174.841309,945.031677 1175.221191,962.051758 1166.334351,971.361694 
	C1161.702637,976.213989 1155.637573,977.710266 1149.233643,978.620483 
	C1122.208374,982.461487 1100.393311,968.326782 1094.479126,942.929993 
	C1093.740479,939.757385 1093.346558,936.504456 1092.745483,933.013855 
	C1072.231323,941.326294 1052.076782,949.492981 1031.865234,957.682800 
	C1040.034912,992.862000 1059.849609,1016.991943 1094.795044,1027.003052 
	C1127.789551,1036.455200 1160.458496,1034.583862 1192.236572,1021.782654 
	C1227.184082,1007.704651 1244.283813,981.697388 1243.703369,944.232605 
	C1243.351562,921.513062 1236.285767,901.269775 1217.566650,887.312378 
	C1208.507324,880.557373 1197.971191,875.275208 1187.381104,871.206848 
	C1173.439941,865.851074 1158.647705,862.754883 1144.490479,857.901978 
	C1135.129028,854.692932 1125.832886,850.817261 1117.264038,845.916992 
	C1109.911621,841.712280 1107.258545,834.184387 1109.089111,824.804199 
M1312.938843,919.593506 
	C1314.655396,919.293030 1316.371338,918.733521 1318.088501,918.730469 
	C1347.912598,918.677002 1377.736938,918.691772 1407.561157,918.691772 
	C1409.296021,918.691772 1411.030884,918.691833 1412.701904,918.691833 
	C1412.701904,898.753967 1412.701904,879.656433 1412.701904,860.076172 
	C1379.373657,860.076172 1346.311768,860.076172 1313.130615,860.076172 
	C1313.130615,846.865051 1313.130615,834.141296 1313.130615,820.923828 
	C1356.630127,820.923828 1399.842407,820.923828 1443.051025,820.923828 
	C1443.051025,801.207703 1443.051025,781.990356 1443.051025,762.876831 
	C1377.907837,762.876831 1313.150269,762.876831 1248.395752,762.876831 
	C1248.395752,850.599060 1248.395752,938.012939 1248.395752,1025.666260 
	C1269.878296,1025.666260 1291.104126,1025.666260 1312.852783,1025.666260 
	C1312.852783,990.464844 1312.852783,955.523132 1312.938843,919.593506 
M288.499786,431.653534 
	C362.721375,431.653534 436.942993,431.653534 511.080994,431.653534 
	C511.080994,407.629272 511.080994,384.407349 511.080994,361.228943 
	C393.633820,361.228943 276.560638,361.228943 159.353210,361.228943 
	C159.353210,384.735596 159.353210,407.961945 159.353210,431.653534 
	C202.257202,431.653534 244.878479,431.653534 288.499786,431.653534 
M497.487488,639.001648 
	C384.753174,639.001648 272.018860,639.001648 159.458008,639.001648 
	C159.458008,663.007080 159.458008,686.234924 159.458008,709.435791 
	C276.908630,709.435791 393.970001,709.435791 511.186157,709.435791 
	C511.186157,685.857178 511.186157,662.593811 511.186157,639.001648 
	C506.774658,639.001648 502.628204,639.001648 497.487488,639.001648 
M211.499908,564.221191 
	C311.389618,564.221191 411.279297,564.221191 511.076416,564.221191 
	C511.076416,540.372131 511.076416,517.158752 511.076416,493.921997 
	C393.659698,493.921997 276.610596,493.921997 159.350174,493.921997 
	C159.350174,517.376282 159.350174,540.597229 159.350174,564.221191 
	C176.582504,564.221191 193.541199,564.221191 211.499908,564.221191 
M221.725281,915.499878 
	C221.725281,952.226257 221.725281,988.952698 221.725281,1025.647461 
	C243.596725,1025.647461 264.680634,1025.647461 286.333710,1025.647461 
	C286.333710,957.339661 286.333710,889.307129 286.333710,820.911865 
	C306.837708,820.911865 326.773041,820.911865 346.888794,820.911865 
	C346.888794,801.326355 346.888794,782.108582 346.888794,762.925903 
	C284.725372,762.925903 222.858841,762.925903 160.944153,762.925903 
	C160.944153,782.365723 160.944153,801.456055 160.944153,821.091064 
	C181.217270,821.091064 201.267441,821.091064 221.725266,821.091064 
	C221.725266,852.590149 221.725266,883.544922 221.725281,915.499878 
z"/>
<path fill="#000000" opacity="1.000000" stroke="none" 
	d="
M1.000013,1253.468628 
	C1.652480,1253.317017 2.814733,1253.549316 2.883677,1253.963623 
	C5.331979,1268.671631 10.743231,1282.320923 18.073854,1295.174683 
	C26.204412,1309.431030 36.366699,1321.967651 48.984558,1332.742676 
	C61.644768,1343.553955 75.560036,1351.934204 90.940666,1357.872681 
	C97.921036,1360.567749 105.391281,1361.988647 112.622070,1364.048218 
	C113.345390,1364.254272 113.949005,1364.880615 114.304092,1365.655884 
	C76.406372,1366.000000 38.812737,1366.000000 1.000000,1366.000000 
	C1.000000,1328.645996 1.000000,1291.291626 1.000013,1253.468628 
z"/>
<path fill="#000000" opacity="1.000000" stroke="none" 
	d="
M1936.468628,1366.000000 
	C1936.483276,1365.337891 1936.874512,1364.196289 1937.463013,1364.083740 
	C1952.549194,1361.192505 1966.661011,1355.707886 1979.878784,1347.982422 
	C1997.876587,1337.463135 2013.032227,1323.739258 2024.875244,1306.553101 
	C2032.987061,1294.781494 2039.291748,1282.027344 2043.787842,1268.441895 
	C2045.532349,1263.170288 2046.817261,1257.746338 2048.655762,1252.695923 
	C2049.000000,1290.593628 2049.000000,1328.187256 2049.000000,1366.000000 
	C2011.645996,1366.000000 1974.291626,1366.000000 1936.468628,1366.000000 
z"/>
<path fill="#000000" opacity="1.000000" stroke="none" 
	d="
M2049.000000,113.531326 
	C2048.347656,113.683022 2047.265503,113.508751 2047.105835,113.028145 
	C2043.683838,102.724709 2040.949097,92.149666 2036.872925,82.118248 
	C2032.196655,70.609947 2025.972290,59.710163 2017.148071,50.808514 
	C2008.314941,41.898006 1999.495605,32.723549 1989.447388,25.325705 
	C1973.848389,13.841036 1956.172852,6.244397 1936.880005,2.911175 
	C1936.330078,2.816153 1935.885498,2.110362 1935.695923,1.344680 
	C1973.593628,1.000000 2011.187134,1.000000 2049.000000,1.000000 
	C2049.000000,38.353943 2049.000000,75.708313 2049.000000,113.531326 
z"/>
<path fill="#000000" opacity="1.000000" stroke="none" 
	d="
M113.531342,1.000000 
	C113.682999,1.652299 113.460991,2.803625 113.035240,2.884673 
	C98.451233,5.660931 84.629745,10.596375 71.826447,18.061996 
	C57.705658,26.295847 45.165451,36.358795 34.334148,48.869335 
	C23.378212,61.523819 15.177899,75.577667 9.134480,90.946846 
	C6.398475,97.904861 5.011387,105.391182 2.952110,112.620674 
	C2.745966,113.344391 2.120445,113.948654 1.344778,114.304176 
	C1.000000,76.406380 1.000000,38.812759 1.000000,1.000000 
	C38.353943,1.000000 75.708313,1.000000 113.531342,1.000000 
z"/>
<path fill="#020303" opacity="1.000000" stroke="none" 
	d="
M546.027283,561.000000 
	C546.027283,493.871124 546.027283,427.242279 546.027283,360.184723 
	C547.909424,360.093414 549.508728,359.948273 551.108032,359.947968 
	C609.930603,359.936401 668.758484,359.488220 727.572693,360.190704 
	C747.238953,360.425629 767.044617,362.061096 786.052979,368.620941 
	C824.419922,381.861389 843.741943,409.687531 842.392334,450.268707 
	C841.924866,464.323914 838.637451,477.579987 832.059570,490.027527 
	C826.784546,500.009583 819.308350,507.846771 809.561279,513.535034 
	C808.217773,514.319092 806.926758,515.193054 805.118225,516.337402 
	C806.523987,517.410034 807.202454,518.096191 808.016541,518.524475 
	C835.081604,532.764771 848.504517,556.304565 852.767273,585.563904 
	C855.312439,603.033997 854.178467,620.489197 848.453186,637.400269 
	C837.068176,671.028992 812.312988,690.299072 779.731323,700.972717 
	C764.745911,705.881836 749.279785,708.097778 733.505920,708.100403 
	C672.350525,708.110657 611.195068,708.118896 550.039673,708.120239 
	C548.898743,708.120300 547.757812,708.025635 546.027283,707.949097 
	C546.027283,659.021118 546.027283,610.260559 546.027283,561.000000 
M691.499634,638.545959 
	C701.658997,638.607971 711.818726,638.633667 721.977661,638.739990 
	C740.492981,638.933899 755.972107,630.274048 761.011963,615.681152 
	C768.368591,594.380493 763.621582,567.909973 732.847473,560.755493 
	C728.667786,559.783875 724.298645,559.236389 720.010132,559.192993 
	C703.187866,559.022888 686.362854,559.134888 669.538818,559.139221 
	C658.401001,559.142029 647.263123,559.139771 635.845703,559.139771 
	C635.845703,585.685547 635.845703,611.902893 635.845703,638.545898 
	C654.259705,638.545898 672.379639,638.545898 691.499634,638.545959 
M694.500000,431.069916 
	C675.041870,431.069916 655.583740,431.069916 635.854675,431.069916 
	C635.854675,450.549164 635.854675,469.586304 635.854675,488.928375 
	C666.108032,488.928375 696.072632,489.335999 726.014526,488.691162 
	C735.556458,488.485657 743.936951,483.694946 748.908508,474.695648 
	C759.915100,454.771667 746.357666,431.795837 722.989014,431.026947 
	C713.836365,430.725769 704.663574,431.037384 694.500000,431.069916 
z"/>
<path fill="#020303" opacity="1.000000" stroke="none" 
	d="
M1226.000000,360.949524 
	C1248.494507,360.949585 1270.489624,361.035522 1292.482666,360.861206 
	C1295.956787,360.833649 1297.766846,362.015137 1299.528320,364.910919 
	C1337.257324,426.937469 1375.090210,488.900940 1412.921875,550.865051 
	C1413.879883,552.433960 1415.052856,553.871704 1417.245850,554.902344 
	C1417.245850,490.516846 1417.245850,426.131348 1417.245850,361.348236 
	C1447.260010,361.348236 1476.795044,361.348236 1506.664795,361.348236 
	C1506.664795,476.952545 1506.664795,592.665710 1506.664795,708.897705 
	C1505.207031,708.969238 1503.618530,709.114258 1502.029907,709.115051 
	C1475.203369,709.128967 1448.376343,709.058044 1421.550659,709.207825 
	C1418.112183,709.227051 1416.252441,708.113647 1414.459229,705.211792 
	C1374.017700,639.767090 1333.470581,574.387634 1292.926025,509.006622 
	C1291.665405,506.973877 1290.220581,505.055298 1287.712036,503.480896 
	C1287.712036,571.798462 1287.712036,640.115967 1287.712036,708.778687 
	C1257.547485,708.778687 1228.000122,708.778687 1198.182983,708.778687 
	C1198.182983,593.018921 1198.182983,477.298248 1198.182983,360.949524 
	C1207.305176,360.949524 1216.402588,360.949524 1226.000000,360.949524 
z"/>
<path fill="#020303" opacity="1.000000" stroke="none" 
	d="
M801.995483,1025.654663 
	C779.508484,1025.743896 757.021057,1025.888672 734.535034,1025.775879 
	C733.272217,1025.769653 731.273865,1023.856201 730.879150,1022.471069 
	C727.231201,1009.667175 723.741455,996.814087 720.497986,983.901917 
	C719.731018,980.848877 718.478699,980.013672 715.439514,980.028992 
	C691.109497,980.151672 666.778320,980.161926 642.448547,980.019470 
	C639.280090,980.000916 638.231567,981.101562 637.492676,984.021362 
	C634.267151,996.766602 630.730469,1009.432739 627.395020,1022.150818 
	C626.808960,1024.385254 626.398315,1026.002197 623.357971,1025.993774 
	C584.539368,1025.886719 545.720276,1025.923096 506.448975,1025.923096 
	C503.317413,1017.515259 500.185883,1009.148926 497.083954,1000.771729 
	C487.490417,974.863159 477.830597,948.978577 468.414795,923.005493 
	C467.169891,919.571350 465.558990,918.544006 462.008087,918.589783 
	C446.526154,918.789246 431.040192,918.675476 415.107483,918.675476 
	C415.107483,954.330322 415.107483,989.746460 415.107483,1025.542236 
	C393.430786,1025.542236 372.197662,1025.542236 350.596680,1025.542236 
	C350.596680,938.115784 350.596680,850.579529 350.596680,762.581299 
	C352.572784,762.581299 354.373444,762.581299 356.174133,762.581299 
	C403.168854,762.581299 450.179291,763.340637 497.153992,762.370850 
	C545.516785,761.372375 565.432983,797.263062 568.892456,829.018127 
	C570.312439,842.052368 569.413269,854.939514 564.993286,867.477112 
	C558.852173,884.896790 547.779968,898.077637 531.722595,907.126282 
	C530.428345,907.855652 529.138977,908.593628 527.322632,909.625671 
	C540.000793,940.519592 552.645081,971.330811 565.753113,1003.272034 
	C568.015930,996.673462 569.920654,991.218262 571.759949,985.740967 
	C596.236145,912.851074 620.729492,839.966919 645.089539,767.038147 
	C646.236023,763.605835 647.720886,762.453125 651.358643,762.490784 
	C670.187866,762.686157 689.021484,762.694946 707.850403,762.486145 
	C711.641968,762.444092 713.254700,763.530151 714.510437,767.201965 
	C743.592529,852.235535 772.828064,937.216614 802.018921,1022.921265 
	C802.000244,1024.308350 801.997864,1024.981445 801.995483,1025.654663 
M458.500275,817.433167 
	C444.247375,817.433167 429.994476,817.433167 415.752533,817.433167 
	C415.752533,833.240112 415.752533,848.407837 415.752533,863.790466 
	C437.980438,863.790466 459.769257,863.771240 481.558014,863.798462 
	C492.733551,863.812439 499.069794,859.554077 502.424622,849.643433 
	C505.975616,839.153198 503.228363,826.891174 495.372009,821.549011 
	C492.115417,819.334778 487.857330,817.794983 483.942322,817.513916 
	C475.834839,816.931824 467.652100,817.398010 458.500275,817.433167 
M656.143738,916.619873 
	C655.111084,920.633667 654.078430,924.647461 652.963745,928.979858 
	C670.550049,928.979858 687.807800,928.979858 705.612732,928.979858 
	C696.965820,896.439880 688.414429,864.259216 679.863037,832.078613 
	C679.467407,832.081848 679.071716,832.085083 678.676086,832.088318 
	C671.235413,860.002197 663.794800,887.916138 656.143738,916.619873 
z"/>
<path fill="#020303" opacity="1.000000" stroke="none" 
	d="
M1541.610229,498.999756 
	C1541.610229,452.857269 1541.610229,407.214813 1541.610229,361.260803 
	C1571.611450,361.260803 1601.343750,361.260803 1631.605469,361.260803 
	C1631.605469,401.397156 1631.605469,441.441101 1631.605469,481.485077 
	C1632.008057,481.720947 1632.410522,481.956848 1632.813110,482.192719 
	C1633.796875,480.950348 1634.696777,479.629425 1635.776489,478.476959 
	C1671.434204,440.417877 1707.093750,402.360657 1742.838135,364.383087 
	C1744.288086,362.842590 1746.557251,361.104645 1748.453003,361.095093 
	C1786.429443,360.902863 1824.407104,360.951447 1863.909790,360.951447 
	C1816.663208,405.631866 1770.311157,449.466339 1723.619385,493.622223 
	C1772.945557,565.247742 1822.182495,636.743530 1872.029785,709.125732 
	C1869.515747,709.125732 1868.095581,709.125732 1866.675537,709.125732 
	C1832.516235,709.125732 1798.356689,709.068359 1764.197998,709.213806 
	C1760.752441,709.228455 1758.859253,708.067261 1757.018188,705.287048 
	C1724.833374,656.686035 1692.550415,608.150024 1660.284058,559.603149 
	C1659.287964,558.104614 1658.237427,556.642212 1656.917969,554.738037 
	C1648.538208,562.776184 1640.317993,570.486389 1632.377441,578.474670 
	C1631.240601,579.618347 1631.101440,582.105652 1631.098145,583.972107 
	C1631.029297,623.630127 1631.045898,663.288269 1631.045898,702.946350 
	C1631.045898,704.762939 1631.045898,706.579529 1631.045898,708.760376 
	C1601.276611,708.760376 1571.735962,708.760376 1541.610229,708.760376 
	C1541.610229,639.000183 1541.610229,569.250000 1541.610229,498.999756 
z"/>
<path fill="#020303" opacity="1.000000" stroke="none" 
	d="
M1108.000000,709.126587 
	C1101.501465,709.126526 1095.492920,708.919189 1089.508301,709.206665 
	C1086.086670,709.371094 1084.652588,708.387207 1083.738403,704.914001 
	C1079.333618,688.178345 1074.404663,671.580139 1070.052979,654.831482 
	C1068.863281,650.252930 1067.173096,648.566650 1062.145752,648.607605 
	C1028.822754,648.879150 995.495178,648.895447 962.172668,648.595947 
	C956.922546,648.548767 955.176331,650.253052 953.894531,655.050842 
	C949.091248,673.029236 943.791016,690.874939 938.637268,708.909729 
	C907.289917,708.909729 876.168945,708.909729 844.471680,708.909729 
	C844.863464,707.426392 845.123047,706.058411 845.582031,704.760925 
	C885.591309,591.649902 925.629211,478.548981 965.567993,365.413086 
	C966.624634,362.419861 967.901855,361.304382 971.159546,361.320190 
	C998.985413,361.455322 1026.812500,361.448212 1054.638428,361.325195 
	C1057.667603,361.311798 1058.966919,362.329803 1059.971680,365.106995 
	C1101.016846,478.555603 1142.137329,591.976929 1183.236816,705.405945 
	C1183.619995,706.463806 1183.845825,707.578674 1184.271484,709.126587 
	C1158.760254,709.126587 1133.630127,709.126587 1108.000000,709.126587 
M986.348267,537.805725 
	C982.360474,552.169983 978.372742,566.534241 974.302124,581.196899 
	C999.068481,581.196899 1023.222107,581.196899 1047.794067,581.196899 
	C1035.845703,537.894043 1024.033936,495.086060 1012.222107,452.278046 
	C1011.583252,452.285034 1010.944397,452.291992 1010.305603,452.298950 
	C1002.414551,480.546631 994.523560,508.794342 986.348267,537.805725 
z"/>
<path fill="#030404" opacity="1.000000" stroke="none" 
	d="
M802.457458,1025.740845 
	C801.997864,1024.981445 802.000244,1024.308350 802.007568,1023.298584 
	C802.424561,1021.013611 803.195435,1019.065369 803.196838,1017.116638 
	C803.256958,934.455750 803.248352,851.794739 803.248352,769.133789 
	C803.248352,767.154175 803.248413,765.174500 803.248413,762.575134 
	C805.173584,762.575134 806.790527,762.575134 808.407471,762.575134 
	C828.906067,762.575134 849.405457,762.664795 869.902527,762.487915 
	C873.367065,762.458008 875.220093,763.582947 876.930481,766.538818 
	C903.535950,812.518372 930.257263,858.430847 956.954224,904.357422 
	C957.919312,906.017578 958.909180,907.663391 961.099365,909.018677 
	C961.099365,860.401367 961.099365,811.784119 961.099365,762.872986 
	C983.058838,762.872986 1004.305542,762.872986 1025.787598,762.872986 
	C1025.787598,850.442200 1025.787598,937.861877 1025.787598,1025.925537 
	C1023.921936,1025.925537 1022.154297,1025.925537 1020.386719,1025.925537 
	C1002.387939,1025.925537 984.387939,1025.810547 966.391479,1026.015625 
	C962.450256,1026.060425 960.208374,1024.931030 958.155945,1021.420410 
	C929.663879,972.683044 901.001160,924.045471 872.374207,875.386902 
	C871.390564,873.714905 870.345947,872.078857 868.277710,870.694092 
	C868.277710,922.189087 868.277710,973.684021 868.277710,1025.827026 
	C846.086731,1025.827026 824.503052,1025.827026 802.457458,1025.740845 
z"/>
<path fill="#020303" opacity="1.000000" stroke="none" 
	d="
M1716.463867,1006.998596 
	C1716.463867,1013.468811 1716.463867,1019.439392 1716.463867,1025.662109 
	C1694.914307,1025.662109 1673.822266,1025.662109 1652.327271,1025.662109 
	C1652.327271,938.189453 1652.327271,850.665771 1652.327271,762.582336 
	C1654.262085,762.582336 1656.201904,762.582336 1658.141602,762.582336 
	C1705.135620,762.582336 1752.142090,763.253723 1799.120239,762.390259 
	C1844.477783,761.556519 1865.207642,793.536072 1870.036987,825.411011 
	C1871.953369,838.060425 1871.562988,850.651367 1867.990112,863.044250 
	C1862.308594,882.751038 1850.596191,897.644470 1832.597046,907.546387 
	C1831.722046,908.027832 1830.836670,908.491699 1829.978027,909.000916 
	C1829.703369,909.163757 1829.499756,909.446289 1829.036255,909.892822 
	C1844.769287,948.240540 1860.538696,986.676880 1876.537964,1025.673584 
	C1874.497314,1025.778442 1873.091553,1025.912720 1871.685791,1025.913696 
	C1852.021606,1025.927246 1832.356567,1025.828003 1812.694092,1026.010010 
	C1809.133179,1026.042969 1807.525635,1024.999512 1806.283447,1021.592224 
	C1794.311523,988.757080 1782.092773,956.012085 1770.091309,923.187561 
	C1768.908569,919.952515 1767.598877,918.493469 1763.831421,918.565735 
	C1749.671753,918.837463 1735.503784,918.668823 1721.338867,918.683411 
	C1719.879517,918.684875 1718.420166,918.807739 1716.463867,918.896912 
	C1716.463867,948.279907 1716.463867,977.389465 1716.463867,1006.998596 
M1716.989136,860.233643 
	C1716.534668,863.150330 1717.907471,863.847107 1720.658081,863.836853 
	C1742.450928,863.755798 1764.244385,863.844177 1786.037476,863.799866 
	C1791.456177,863.788818 1796.090698,861.774658 1799.634888,857.551575 
	C1806.772705,849.046204 1807.497925,834.312073 1800.958862,825.381226 
	C1797.244263,820.307861 1792.147339,817.331665 1785.662964,817.335754 
	C1764.702515,817.348999 1743.742188,817.400757 1722.781738,817.436829 
	C1720.991089,817.439941 1719.200439,817.437256 1716.989136,817.437256 
	C1716.989136,831.741150 1716.989136,845.512756 1716.989136,860.233643 
z"/>
<path fill="#020303" opacity="1.000000" stroke="none" 
	d="
M1448.547485,822.999634 
	C1448.547485,802.710083 1448.547485,782.920654 1448.547485,762.855713 
	C1513.761475,762.855713 1578.510132,762.855713 1643.549316,762.855713 
	C1643.549316,782.070923 1643.549316,801.165649 1643.549316,820.743774 
	C1600.326782,820.743774 1557.088867,820.743774 1513.465332,820.743774 
	C1513.465332,832.785706 1513.465332,844.357178 1513.465332,856.521057 
	C1551.233765,856.521057 1589.139404,856.521057 1627.276611,856.521057 
	C1627.276611,876.217102 1627.276611,895.325134 1627.276611,914.836548 
	C1589.367920,914.836548 1551.615601,914.836548 1513.471436,914.836548 
	C1513.471436,932.609314 1513.471436,949.985046 1513.471436,967.846436 
	C1557.874268,967.846436 1602.277954,967.846436 1646.975830,967.846436 
	C1646.975830,987.411377 1646.975830,1006.497681 1646.975830,1025.976074 
	C1581.061157,1025.976074 1515.044678,1025.976074 1448.547485,1025.976074 
	C1448.547485,958.399170 1448.547485,890.949402 1448.547485,822.999634 
z"/>
<path fill="#020303" opacity="1.000000" stroke="none" 
	d="
M1109.015137,825.186646 
	C1107.258545,834.184387 1109.911621,841.712280 1117.264038,845.916992 
	C1125.832886,850.817261 1135.129028,854.692932 1144.490479,857.901978 
	C1158.647705,862.754883 1173.439941,865.851074 1187.381104,871.206848 
	C1197.971191,875.275208 1208.507324,880.557373 1217.566650,887.312378 
	C1236.285767,901.269775 1243.351562,921.513062 1243.703369,944.232605 
	C1244.283813,981.697388 1227.184082,1007.704651 1192.236572,1021.782654 
	C1160.458496,1034.583862 1127.789551,1036.455200 1094.795044,1027.003052 
	C1059.849609,1016.991943 1040.034912,992.862000 1031.865234,957.682800 
	C1052.076782,949.492981 1072.231323,941.326294 1092.745483,933.013855 
	C1093.346558,936.504456 1093.740479,939.757385 1094.479126,942.929993 
	C1100.393311,968.326782 1122.208374,982.461487 1149.233643,978.620483 
	C1155.637573,977.710266 1161.702637,976.213989 1166.334351,971.361694 
	C1175.221191,962.051758 1174.841309,945.031677 1164.432983,937.489441 
	C1157.162964,932.221558 1148.588501,928.445190 1140.142700,925.174927 
	C1124.331665,919.052490 1108.064453,914.108582 1092.245850,908.003967 
	C1085.326172,905.333618 1078.815674,901.373108 1072.511230,897.379700 
	C1047.471924,881.519348 1036.660156,858.181213 1038.454712,829.089966 
	C1040.322754,798.808472 1056.869629,778.427917 1083.812988,766.080383 
	C1103.464722,757.074646 1124.505249,754.476074 1145.810425,755.741150 
	C1158.176147,756.475281 1170.826294,758.029602 1182.624023,761.605286 
	C1210.549561,770.069214 1226.733765,790.583557 1235.779053,818.058289 
	C1217.567871,826.082153 1199.368652,834.100708 1181.200806,842.105469 
	C1179.082886,837.054993 1177.283325,832.271729 1175.109131,827.665222 
	C1166.707275,809.864441 1147.331421,806.613037 1133.681396,808.410095 
	C1129.607666,808.946533 1125.624268,810.392944 1121.685913,811.685669 
	C1115.217163,813.809021 1110.995605,818.229919 1109.015137,825.186646 
z"/>
<path fill="#030404" opacity="1.000000" stroke="none" 
	d="
M1312.895752,920.087402 
	C1312.852783,955.523132 1312.852783,990.464844 1312.852783,1025.666260 
	C1291.104126,1025.666260 1269.878296,1025.666260 1248.395752,1025.666260 
	C1248.395752,938.012939 1248.395752,850.599060 1248.395752,762.876831 
	C1313.150269,762.876831 1377.907837,762.876831 1443.051025,762.876831 
	C1443.051025,781.990356 1443.051025,801.207703 1443.051025,820.923828 
	C1399.842407,820.923828 1356.630127,820.923828 1313.130615,820.923828 
	C1313.130615,834.141296 1313.130615,846.865051 1313.130615,860.076172 
	C1346.311768,860.076172 1379.373657,860.076172 1412.701904,860.076172 
	C1412.701904,879.656433 1412.701904,898.753967 1412.701904,918.691833 
	C1411.030884,918.691833 1409.296021,918.691772 1407.561157,918.691772 
	C1377.736938,918.691772 1347.912598,918.677002 1318.088501,918.730469 
	C1316.371338,918.733521 1314.655396,919.293030 1312.895752,920.087402 
z"/>
<path fill="#030404" opacity="1.000000" stroke="none" 
	d="
M287.999756,431.653534 
	C244.878479,431.653534 202.257202,431.653534 159.353210,431.653534 
	C159.353210,407.961945 159.353210,384.735596 159.353210,361.228943 
	C276.560638,361.228943 393.633820,361.228943 511.080994,361.228943 
	C511.080994,384.407349 511.080994,407.629272 511.080994,431.653534 
	C436.942993,431.653534 362.721375,431.653534 287.999756,431.653534 
z"/>
<path fill="#030404" opacity="1.000000" stroke="none" 
	d="
M497.984619,639.001648 
	C502.628204,639.001648 506.774658,639.001648 511.186157,639.001648 
	C511.186157,662.593811 511.186157,685.857178 511.186157,709.435791 
	C393.970001,709.435791 276.908630,709.435791 159.458008,709.435791 
	C159.458008,686.234924 159.458008,663.007080 159.458008,639.001648 
	C272.018860,639.001648 384.753174,639.001648 497.984619,639.001648 
z"/>
<path fill="#010202" opacity="1.000000" stroke="none" 
	d="
M210.999893,564.221191 
	C193.541199,564.221191 176.582504,564.221191 159.350174,564.221191 
	C159.350174,540.597229 159.350174,517.376282 159.350174,493.921997 
	C276.610596,493.921997 393.659698,493.921997 511.076416,493.921997 
	C511.076416,517.158752 511.076416,540.372131 511.076416,564.221191 
	C411.279297,564.221191 311.389618,564.221191 210.999893,564.221191 
z"/>
<path fill="#010202" opacity="1.000000" stroke="none" 
	d="
M221.725281,914.999817 
	C221.725266,883.544922 221.725266,852.590149 221.725266,821.091064 
	C201.267441,821.091064 181.217270,821.091064 160.944153,821.091064 
	C160.944153,801.456055 160.944153,782.365723 160.944153,762.925903 
	C222.858841,762.925903 284.725372,762.925903 346.888794,762.925903 
	C346.888794,782.108582 346.888794,801.326355 346.888794,820.911865 
	C326.773041,820.911865 306.837708,820.911865 286.333710,820.911865 
	C286.333710,889.307129 286.333710,957.339661 286.333710,1025.647461 
	C264.680634,1025.647461 243.596725,1025.647461 221.725281,1025.647461 
	C221.725281,988.952698 221.725281,952.226257 221.725281,914.999817 
z"/>
<path fill="#F0F0F0" opacity="1.000000" stroke="none" 
	d="
M690.999634,638.545898 
	C672.379639,638.545898 654.259705,638.545898 635.845703,638.545898 
	C635.845703,611.902893 635.845703,585.685547 635.845703,559.139771 
	C647.263123,559.139771 658.401001,559.142029 669.538818,559.139221 
	C686.362854,559.134888 703.187866,559.022888 720.010132,559.192993 
	C724.298645,559.236389 728.667786,559.783875 732.847473,560.755493 
	C763.621582,567.909973 768.368591,594.380493 761.011963,615.681152 
	C755.972107,630.274048 740.492981,638.933899 721.977661,638.739990 
	C711.818726,638.633667 701.658997,638.607971 690.999634,638.545898 
z"/>
<path fill="#F0F0F0" opacity="1.000000" stroke="none" 
	d="
M695.000000,431.069916 
	C704.663574,431.037384 713.836365,430.725769 722.989014,431.026947 
	C746.357666,431.795837 759.915100,454.771667 748.908508,474.695648 
	C743.936951,483.694946 735.556458,488.485657 726.014526,488.691162 
	C696.072632,489.335999 666.108032,488.928375 635.854675,488.928375 
	C635.854675,469.586304 635.854675,450.549164 635.854675,431.069916 
	C655.583740,431.069916 675.041870,431.069916 695.000000,431.069916 
z"/>
<path fill="#EDEDED" opacity="1.000000" stroke="none" 
	d="
M459.000305,817.433167 
	C467.652100,817.398010 475.834839,816.931824 483.942322,817.513916 
	C487.857330,817.794983 492.115417,819.334778 495.372009,821.549011 
	C503.228363,826.891174 505.975616,839.153198 502.424622,849.643433 
	C499.069794,859.554077 492.733551,863.812439 481.558014,863.798462 
	C459.769257,863.771240 437.980438,863.790466 415.752533,863.790466 
	C415.752533,848.407837 415.752533,833.240112 415.752533,817.433167 
	C429.994476,817.433167 444.247375,817.433167 459.000305,817.433167 
z"/>
<path fill="#EEEEEE" opacity="1.000000" stroke="none" 
	d="
M656.248901,916.224976 
	C663.794800,887.916138 671.235413,860.002197 678.676086,832.088318 
	C679.071716,832.085083 679.467407,832.081848 679.863037,832.078613 
	C688.414429,864.259216 696.965820,896.439880 705.612732,928.979858 
	C687.807800,928.979858 670.550049,928.979858 652.963745,928.979858 
	C654.078430,924.647461 655.111084,920.633667 656.248901,916.224976 
z"/>
<path fill="#EEEEEE" opacity="1.000000" stroke="none" 
	d="
M986.490417,537.423889 
	C994.523560,508.794342 1002.414551,480.546631 1010.305603,452.298950 
	C1010.944397,452.291992 1011.583252,452.285034 1012.222107,452.278046 
	C1024.033936,495.086060 1035.845703,537.894043 1047.794067,581.196899 
	C1023.222107,581.196899 999.068481,581.196899 974.302124,581.196899 
	C978.372742,566.534241 982.360474,552.169983 986.490417,537.423889 
z"/>
<path fill="#EEEEEE" opacity="1.000000" stroke="none" 
	d="
M1716.989136,859.759033 
	C1716.989136,845.512756 1716.989136,831.741150 1716.989136,817.437256 
	C1719.200439,817.437256 1720.991089,817.439941 1722.781738,817.436829 
	C1743.742188,817.400757 1764.702515,817.348999 1785.662964,817.335754 
	C1792.147339,817.331665 1797.244263,820.307861 1800.958862,825.381226 
	C1807.497925,834.312073 1806.772705,849.046204 1799.634888,857.551575 
	C1796.090698,861.774658 1791.456177,863.788818 1786.037476,863.799866 
	C1764.244385,863.844177 1742.450928,863.755798 1720.658081,863.836853 
	C1717.907471,863.847107 1716.534668,863.150330 1716.989136,859.759033 
z"/>
</svg>