<svg width="24" height="24" viewBox="0 0 24 24" fill="none" xmlns="http://www.w3.org/2000/svg"><path d="M20.73 14.177A8.999 8.999 0 1 1 3.269 9.821a8.999 8.999 0 0 1 17.463 4.356Z" fill="#F7931A"/><path d="M16.276 10.765c.188-1.324-.765-2.035-2.069-2.51l.423-1.794-1.032-.272-.412 1.747c-.27-.072-.55-.14-.827-.206l.415-1.758-1.032-.272-.423 1.793a32.968 32.968 0 0 1-.659-.164l.001-.006-1.423-.376-.275 1.166s.766.186.75.198c.418.11.494.403.481.634l-.482 2.044a.828.828 0 0 1 .108.036l-.11-.029-.674 2.863c-.051.134-.181.335-.473.259.01.016-.75-.198-.75-.198L7.3 15.17l1.343.354c.25.066.495.135.736.2l-.427 1.814 1.03.273.424-1.795c.282.08.555.155.822.226l-.421 1.786 1.032.272.427-1.81c1.76.352 3.084.21 3.64-1.474.45-1.356-.021-2.138-.947-2.648.674-.164 1.182-.633 1.317-1.603Zm-2.358 3.498c-.319 1.356-2.477.623-3.177.44l.567-2.404c.7.185 2.944.55 2.61 1.964Zm.32-3.517c-.292 1.233-2.088.606-2.67.453l.513-2.18c.583.154 2.46.44 2.156 1.727Z" fill="#FCFCFD"/></svg>
