<svg width="24" height="24" viewBox="0 0 24 24" fill="none" xmlns="http://www.w3.org/2000/svg"><path d="M11.063 3.026c-1.657.21-3.153.834-4.547 1.899-.904.68-1.054 1.036-.65 1.515.255.307.631.211 1.262-.307.763-.623 1.817-1.18 2.853-1.486 1.412-.422 3.154-.365 4.566.163a8.272 8.272 0 0 1 2.363 1.362c.33.278.697.537.81.575.46.154.894-.412.687-.892-.066-.134-.367-.47-.687-.738a9.223 9.223 0 0 0-3.785-1.91c-.66-.153-2.288-.258-2.872-.181ZM7.947 7.658c-.226.183-.226.211-.226 1.9 0 2.129.113 2.59.81 3.337.763.825 1.902 1.218 3.521 1.218 2.1 0 3.465-.68 4.086-2.023.226-.509.245-.643.273-2.331l-.07-1.535a.79.79 0 0 0-.035-.196l-.04-.129a.508.508 0 0 0-.192-.29c-.271-.174-.646-.168-.868.059-.17.173-.188.316-.188 1.726 0 1.295-.029 1.602-.189 2.043-.386 1.055-1.007 1.362-2.73 1.362-1.27 0-1.713-.096-2.25-.508-.565-.432-.697-.902-.744-2.753-.047-1.86-.103-2.062-.621-2.062-.179 0-.414.086-.537.182ZM3.532 9.567c-.443.364-.678 2.427-.433 3.875.433 2.58 1.657 4.661 3.624 6.148.782.585 2.514 1.41 2.966 1.41.264 0 .537-.336.546-.652.01-.413-.198-.604-.932-.883-.687-.249-1.714-.882-2.373-1.438-1.741-1.497-2.833-4.307-2.55-6.56.234-1.804.234-1.631-.048-1.862-.32-.259-.527-.268-.8-.038Zm16.184.201c-.208.163-.217.24-.18.749.104 1.314.048 2.944-.131 3.625-.631 2.37-2.382 4.383-4.585 5.285-.33.134-.66.317-.716.403-.3.384 0 1.074.471 1.074.292-.01 1.158-.384 2.005-.873.904-.527 2.25-1.803 2.815-2.676.885-1.362 1.337-2.628 1.554-4.412.15-1.18-.047-2.762-.386-3.127-.254-.278-.556-.297-.848-.048Zm-8.088 5.093c-.17.173-.188.317-.188 1.756 0 1.793.047 1.928.612 1.928s.612-.135.612-1.928c0-1.439-.019-1.583-.188-1.756a.689.689 0 0 0-.424-.191.689.689 0 0 0-.424.191Z" fill="#00A5B3"/></svg>
