<svg width="24" height="24" fill="none" xmlns="http://www.w3.org/2000/svg"><path fill-rule="evenodd" clip-rule="evenodd" d="M8.308 9.705a1.464 1.464 0 0 0 2.05-.318l1.71-2.368a1.465 1.465 0 0 0-.318-2.05 1.464 1.464 0 0 0-2.05.318L7.97 7.656a1.486 1.486 0 0 0 .338 2.05Zm7.84-3.343a1.464 1.464 0 0 0-2.05.319l-6.885 9.472a1.464 1.464 0 0 0 .319 2.05 1.464 1.464 0 0 0 2.05-.318l6.884-9.473a1.447 1.447 0 0 0-.318-2.05ZM7.65 5.606a1.464 1.464 0 0 0-.318-2.05 1.464 1.464 0 0 0-2.05.319 1.464 1.464 0 0 0 .319 2.05 1.464 1.464 0 0 0 2.05-.32ZM18.098 18.62a1.464 1.464 0 0 0-2.05.319 1.464 1.464 0 0 0 .319 2.05 1.464 1.464 0 0 0 2.049-.32 1.464 1.464 0 0 0-.318-2.049ZM15.41 14.86a1.464 1.464 0 0 0-2.049.318l-1.731 2.369a1.465 1.465 0 0 0 .318 2.05 1.464 1.464 0 0 0 2.05-.32l1.73-2.367a1.464 1.464 0 0 0-.318-2.05Z" fill="#05C0C7"/></svg>