<svg fill="none" xmlns="http://www.w3.org/2000/svg" viewBox="0 0 24 24"><rect x="3.25" y="3.25" width="17.5" height="17.5" rx=".75" fill="url(#a)" stroke="#fff" stroke-width=".5"/><path d="M16.486 7.112c.008-1.152-.935-2.091-2.105-2.098-1.17-.008-2.125.92-2.133 2.07-.007 1.152.935 2.092 2.106 2.1 1.17.007 2.125-.92 2.132-2.072Z" fill="url(#b)"/><path d="M11.994 10.158a4.533 4.533 0 0 0-2.125.525v-5h-2.37v8.895c0 .874.264 1.73.758 2.456a4.478 4.478 0 0 0 2.016 1.63 4.561 4.561 0 0 0 2.596.251 4.516 4.516 0 0 0 2.3-1.21 4.399 4.399 0 0 0 1.23-2.263 4.356 4.356 0 0 0-.254-2.554 4.438 4.438 0 0 0-1.655-1.985 4.546 4.546 0 0 0-2.496-.745Zm0 6.548c-.428 0-.846-.125-1.202-.359a2.136 2.136 0 0 1-.796-.955 2.096 2.096 0 0 1 .469-2.318 2.195 2.195 0 0 1 2.356-.461c.395.16.733.433.97.783a2.103 2.103 0 0 1-.268 2.687 2.165 2.165 0 0 1-1.53.623Z" fill="#fff"/><defs><linearGradient id="a" x1="12" y1="20.874" x2="12" y2="3.072" gradientUnits="userSpaceOnUse"><stop stop-color="#5A5A5A"/><stop offset=".146" stop-color="#484848"/><stop offset=".52" stop-color="#212121"/><stop offset=".817" stop-color="#080808"/><stop offset="1"/></linearGradient><linearGradient id="b" x1="12.857" y1="8.561" x2="15.829" y2="5.584" gradientUnits="userSpaceOnUse"><stop stop-color="#E52F08"/><stop offset="1" stop-color="#E94F96"/></linearGradient></defs></svg>
