<svg width="24" height="24" viewBox="0 0 24 24" fill="none" xmlns="http://www.w3.org/2000/svg"><path fill-rule="evenodd" clip-rule="evenodd" d="M21.09 4.727v.91c0 .545-.363.908-.908.908-.546 0-.91-.363-.91-.909v-.909c0-.545-.363-.909-.908-.909H4.727c-.545 0-.909.364-.909.91v14.545c0 .545.364.909.91.909h13.636c.545 0 .909-.364.909-.91v-.908c0-.546.363-.91.909-.91.545 0 .909.364.909.91v.909c0 1.545-1.182 2.727-2.727 2.727H4.727C3.182 22 2 20.818 2 19.273V4.727C2 3.182 3.182 2 4.727 2h13.637c1.545 0 2.727 1.182 2.727 2.727ZM15.637 12a.91.91 0 1 1-1.818 0 .91.91 0 0 1 1.818 0ZM22 9.686v-.33a.974.974 0 0 0-.992-.992h-8.925a.974.974 0 0 0-.992.991v5.29c0 .562.43.991.992.991h8.925c.562 0 .992-.43.992-.991V9.686Zm-1.818 1.157v-.33c0-.199-.132-.331-.33-.331H13.24c-.199 0-.33.132-.33.33v2.976c0 .198.131.33.33.33h6.611c.199 0 .33-.132.33-.33v-2.645Z" fill="currentColor"/></svg>
