<svg version="1.1" id="Layer_1" xmlns="http://www.w3.org/2000/svg" xmlns:xlink="http://www.w3.org/1999/xlink" x="0px" y="0px"
	 width="100%" viewBox="0 0 512 512" enable-background="new 0 0 512 512" xml:space="preserve">
<path fill="#000000" opacity="1.000000" stroke="none" 
	d="
M1.000001,386.000000 
	C1.000000,335.312439 1.000000,284.624878 1.468657,233.468658 
	C172.291550,233.000000 342.645782,233.000000 513.000000,233.000000 
	C513.000000,283.687561 513.000000,334.375122 512.624023,385.656006 
	C508.531738,407.562592 489.284943,424.806763 467.016144,424.853699 
	C329.075928,425.144623 191.134796,425.009216 53.193974,424.958069 
	C48.788437,424.956421 44.303246,424.751434 39.992367,423.925385 
	C25.821733,421.209808 14.628613,413.926819 7.645814,401.066162 
	C5.035534,396.258575 3.192744,391.034271 1.000001,386.000000 
M286.500000,306.000000 
	C294.931702,306.000000 303.363373,306.000000 311.708313,306.000000 
	C311.708313,295.681824 311.708313,285.942474 311.708313,276.288147 
	C224.349701,276.288147 137.283035,276.288147 50.291679,276.288147 
	C50.291679,286.318176 50.291679,296.057556 50.291679,306.000000 
	C128.888779,306.000000 207.194382,306.000000 286.500000,306.000000 
M190.500000,337.000000 
	C143.740601,337.000000 96.981209,337.000000 50.288216,337.000000 
	C50.288216,347.311157 50.288216,357.050415 50.288216,366.715332 
	C137.643356,366.715332 224.709991,366.715332 311.711792,366.715332 
	C311.711792,356.688843 311.711792,346.949585 311.711792,337.000000 
	C271.449310,337.000000 231.474655,337.000000 190.500000,337.000000 
z"/>
<path fill="#000000" opacity="1.000000" stroke="none" 
	d="
M513.000000,128.000000 
	C513.000000,149.354233 513.000000,170.708450 512.531372,192.531342 
	C341.708466,193.000000 171.354233,193.000000 1.000000,193.000000 
	C1.000000,171.645767 1.000000,150.291550 1.375867,128.344116 
	C3.651386,122.854065 5.011327,117.655609 7.548801,113.115234 
	C16.220514,97.598656 30.079674,89.205208 47.490562,89.167229 
	C185.267090,88.866592 323.044556,88.990028 460.821716,89.042152 
	C465.560577,89.043945 470.450714,89.032646 475.009277,90.120979 
	C488.338928,93.303352 499.453339,100.009979 506.065887,112.548340 
	C508.694061,117.531807 510.707001,122.839760 513.000000,128.000000 
z"/>
<path fill="#FFFFFF" opacity="1.000000" stroke="none" 
	d="
M513.000000,127.531342 
	C510.707001,122.839760 508.694061,117.531807 506.065887,112.548340 
	C499.453339,100.009979 488.338928,93.303352 475.009277,90.120979 
	C470.450714,89.032646 465.560577,89.043945 460.821716,89.042152 
	C323.044556,88.990028 185.267090,88.866592 47.490562,89.167229 
	C30.079674,89.205208 16.220514,97.598656 7.548801,113.115234 
	C5.011327,117.655609 3.651386,122.854065 1.375867,127.875450 
	C1.000000,85.690842 1.000000,43.381683 1.000000,1.036263 
	C171.545013,1.036263 342.090057,1.036263 513.000000,1.036263 
	C513.000000,43.020191 513.000000,85.041435 513.000000,127.531342 
z"/>
<path fill="#FFFFFF" opacity="1.000000" stroke="none" 
	d="
M1.000001,386.468658 
	C3.192744,391.034271 5.035534,396.258575 7.645814,401.066162 
	C14.628613,413.926819 25.821733,421.209808 39.992367,423.925385 
	C44.303246,424.751434 48.788437,424.956421 53.193974,424.958069 
	C191.134796,425.009216 329.075928,425.144623 467.016144,424.853699 
	C489.284943,424.806763 508.531738,407.562592 512.624023,386.124695 
	C513.000000,428.309143 513.000000,470.618286 513.000000,512.963745 
	C342.455078,512.963745 171.910156,512.963745 1.000000,512.963745 
	C1.000000,470.979797 1.000000,428.958557 1.000001,386.468658 
z"/>
<path fill="#FFFFFF" opacity="1.000000" stroke="none" 
	d="
M1.000000,193.468658 
	C171.354233,193.000000 341.708466,193.000000 512.531372,193.000000 
	C513.000000,206.020889 513.000000,219.041794 513.000000,232.531342 
	C342.645782,233.000000 172.291550,233.000000 1.468657,233.000000 
	C1.000000,219.979111 1.000000,206.958206 1.000000,193.468658 
z"/>
<path fill="#FFFFFF" opacity="1.000000" stroke="none" 
	d="
M286.000000,306.000000 
	C207.194382,306.000000 128.888779,306.000000 50.291679,306.000000 
	C50.291679,296.057556 50.291679,286.318176 50.291679,276.288147 
	C137.283035,276.288147 224.349701,276.288147 311.708313,276.288147 
	C311.708313,285.942474 311.708313,295.681824 311.708313,306.000000 
	C303.363373,306.000000 294.931702,306.000000 286.000000,306.000000 
z"/>
<path fill="#FFFFFF" opacity="1.000000" stroke="none" 
	d="
M191.000000,337.000000 
	C231.474655,337.000000 271.449310,337.000000 311.711792,337.000000 
	C311.711792,346.949585 311.711792,356.688843 311.711792,366.715332 
	C224.709991,366.715332 137.643356,366.715332 50.288216,366.715332 
	C50.288216,357.050415 50.288216,347.311157 50.288216,337.000000 
	C96.981209,337.000000 143.740601,337.000000 191.000000,337.000000 
z"/>
</svg>