<?xml version="1.0" encoding="UTF-8"?>
<!DOCTYPE svg PUBLIC "-//W3C//DTD SVG 1.1//EN" "http://www.w3.org/Graphics/SVG/1.1/DTD/svg11.dtd">
<svg xmlns="http://www.w3.org/2000/svg" version="1.1" width="512px" height="512px" style="shape-rendering:geometricPrecision; text-rendering:geometricPrecision; image-rendering:optimizeQuality; fill-rule:evenodd; clip-rule:evenodd" xmlns:xlink="http://www.w3.org/1999/xlink">
<g><path style="opacity:0.991" fill="#000000" d="M 511.5,126.5 C 511.5,148.167 511.5,169.833 511.5,191.5C 340.833,191.5 170.167,191.5 -0.5,191.5C -0.5,169.833 -0.5,148.167 -0.5,126.5C 4.93033,105.084 18.597,92.2504 40.5,88C 183.833,87.3333 327.167,87.3333 470.5,88C 492.403,92.2504 506.07,105.084 511.5,126.5 Z"/></g>
<g><path style="opacity:0.986" fill="#000000" d="M -0.5,231.5 C 170.167,231.5 340.833,231.5 511.5,231.5C 511.5,282.5 511.5,333.5 511.5,384.5C 506.07,405.916 492.403,418.75 470.5,423C 327.167,423.667 183.833,423.667 40.5,423C 18.597,418.75 4.93033,405.916 -0.5,384.5C -0.5,333.5 -0.5,282.5 -0.5,231.5 Z M 48.5,274.5 C 135.833,274.5 223.167,274.5 310.5,274.5C 310.5,284.5 310.5,294.5 310.5,304.5C 223.167,304.5 135.833,304.5 48.5,304.5C 48.5,294.5 48.5,284.5 48.5,274.5 Z M 48.5,335.5 C 135.833,335.5 223.167,335.5 310.5,335.5C 310.5,345.5 310.5,355.5 310.5,365.5C 223.167,365.5 135.833,365.5 48.5,365.5C 48.5,355.5 48.5,345.5 48.5,335.5 Z"/></g>
</svg>
