<svg width="24" height="24" viewBox="0 0 24 24" fill="none" xmlns="http://www.w3.org/2000/svg"><path d="M12.194 15.692h-.774a.726.726 0 0 0-.465-.683C9.175 14.3 3.085 11.18 7.943 3l.823 2.351c-1.443 1.662-1.204 3.435-.52 4.498.527.824 1.414 1.148 1.414 1.148l.064-.035a5.277 5.277 0 0 1 2.463-.613c.86 0 1.704.211 2.464.613l.063.035s.887-.324 1.415-1.148c.683-1.063.923-2.836-.52-4.498L16.431 3c4.864 8.18-1.225 11.298-3.013 12.01a.733.733 0 0 0-.464.682h-.76Z" fill="#000"/><path d="M19.389 11.715h-.866c-.81 1.675-2.175 2.773-3.316 3.442a.689.689 0 0 0-.324.584.65.65 0 0 1-.098.338l-.521.831a.846.846 0 0 0-.092.218l-.78 3.865h.126l1.914-2.647.106-1.239a.408.408 0 0 1 .437-.373l1.21.091a.19.19 0 0 0 .176-.077l.465-.591a.204.204 0 0 0-.014-.268l-.535-.549 2.112-3.625ZM10.998 21l-.782-3.865a.5.5 0 0 0-.091-.218l-.528-.845a.692.692 0 0 1-.092-.352.666.666 0 0 0-.324-.556c-1.14-.676-2.506-1.767-3.308-3.442H5l2.126 3.625-.535.55a.203.203 0 0 0-.014.267l.464.591a.19.19 0 0 0 .176.078l1.211-.092a.404.404 0 0 1 .437.373l.105 1.24L10.885 21h.113Z" fill="#000"/></svg>
