<svg width="24" height="24" viewBox="0 0 24 24" fill="none" xmlns="http://www.w3.org/2000/svg"><path d="M3.845 9.236c-1.552 0-2.845.672-2.845 2.7 0 1.607.87 2.618 2.885 2.618 2.372 0 2.524-1.595 2.524-1.595H5.26s-.246.859-1.444.859c-.976 0-1.678-.673-1.678-1.617h4.392v-.592c0-.934-.58-2.373-2.684-2.373Zm-.04.757c.929 0 1.562.581 1.562 1.452H2.162c0-.924.827-1.452 1.643-1.452Z" fill="#E53238"/><path d="M6.528 7.273v6.263c0 .356-.024.855-.024.855H7.6s.04-.359.04-.687c0 0 .54.866 2.014.866 1.55 0 2.604-1.1 2.604-2.675 0-1.465-.968-2.643-2.602-2.643-1.53 0-2.006.843-2.006.843V7.273H6.528Zm2.845 2.753c1.053 0 1.723.798 1.723 1.87 0 1.148-.773 1.899-1.715 1.899-1.124 0-1.73-.896-1.73-1.89 0-.925.543-1.879 1.722-1.879Z" fill="#0064D2"/><path d="M14.983 9.236c-2.335 0-2.485 1.305-2.485 1.514h1.162s.061-.762 1.242-.762c.768 0 1.363.359 1.363 1.048v.246h-1.363c-1.808 0-2.764.54-2.764 1.636 0 1.079.883 1.666 2.077 1.666 1.627 0 2.151-.918 2.151-.918 0 .365.028.725.028.725h1.033s-.04-.446-.04-.732v-2.466c0-1.616-1.278-1.957-2.404-1.957Zm1.282 2.782v.327c0 .427-.258 1.488-1.777 1.488-.832 0-1.188-.423-1.188-.915 0-.894 1.2-.9 2.965-.9Z" fill="#F5AF02"/><path d="M16.761 9.441h1.307l1.876 3.837 1.872-3.837H23l-3.41 6.832H18.35l.983-1.905-2.571-4.927Z" fill="#86B817"/></svg>
