<svg width="24" height="24" fill="none" xmlns="http://www.w3.org/2000/svg"><path d="M14.446 18.318c-2.604 0-4.854-1.42-5.974-3.5h4.937c.57 0 1.037-.45 1.037-1s-.467-1-1.037-1H7.787a6.402 6.402 0 0 1-.083-1c0-.34.031-.67.083-1h5.622c.57 0 1.037-.45 1.037-1s-.467-1-1.037-1H8.471c1.12-2.08 3.38-3.5 5.974-3.5 1.296 0 2.51.36 3.547.97.518.31 1.192.26 1.628-.16.601-.58.467-1.53-.26-1.96a9.628 9.628 0 0 0-4.915-1.35c-4.066 0-7.51 2.51-8.795 6H3.037c-.57 0-1.037.45-1.037 1s.467 1 1.037 1h2.137a7.969 7.969 0 0 0 0 2H3.037c-.57 0-1.037.45-1.037 1s.467 1 1.037 1h2.614c1.286 3.49 4.729 6 8.795 6 1.804 0 3.484-.49 4.916-1.35.715-.43.85-1.39.248-1.97-.435-.42-1.11-.47-1.628-.15-1.026.62-2.23.97-3.536.97Z" fill="#FFC20D"/></svg>
