<svg width="24" height="24" viewBox="0 0 24 24" fill="none" xmlns="http://www.w3.org/2000/svg"><path fill-rule="evenodd" clip-rule="evenodd" d="M9.822 20.73a8.999 8.999 0 1 0 4.355-17.462 8.999 8.999 0 0 0-4.355 17.463Zm-.59-6.997c.628 1.167 1.89 1.964 3.351 1.964.734 0 1.409-.196 1.985-.544a.75.75 0 0 1 .913.084.696.696 0 0 1-.14 1.106 5.334 5.334 0 0 1-2.758.757c-2.28 0-4.213-1.408-4.935-3.367H6.182a.573.573 0 0 1-.582-.56c0-.31.262-.562.582-.562H7.38a4.473 4.473 0 0 1 0-1.122h-1.2a.573.573 0 0 1-.581-.561c0-.309.262-.561.582-.561h1.466C8.37 8.408 10.302 7 12.583 7c1.007 0 1.956.28 2.759.758.407.24.483.774.145 1.1a.759.759 0 0 1-.913.09 3.918 3.918 0 0 0-1.99-.545c-1.455 0-2.724.797-3.353 1.964h2.77c.32 0 .582.252.582.56a.574.574 0 0 1-.582.562H8.847a3.59 3.59 0 0 0-.046.561c0 .19.017.376.046.561h3.154c.32 0 .582.253.582.561a.574.574 0 0 1-.582.561h-2.77Z" fill="#FFC20D"/></svg>
