<svg version="1.1" id="Layer_1" xmlns="http://www.w3.org/2000/svg" xmlns:xlink="http://www.w3.org/1999/xlink" x="0px" y="0px"
	 width="100%" viewBox="0 0 850 400" enable-background="new 0 0 850 400" xml:space="preserve">
<path fill="#FEFEFE" opacity="1.000000" stroke="none" 
	d="
M626.000000,401.000000 
	C417.333344,401.000000 209.166672,401.000000 1.000000,401.000000 
	C1.000000,267.666656 1.000000,134.333328 1.000000,1.000000 
	C284.333344,1.000000 567.666687,1.000000 851.000000,1.000000 
	C851.000000,134.333328 851.000000,267.666656 851.000000,401.000000 
	C776.166687,401.000000 701.333313,401.000000 626.000000,401.000000 
M264.761719,169.994705 
	C264.731110,169.671967 264.700531,169.349213 264.801056,168.094757 
	C264.742340,160.408630 264.683624,152.722488 264.835754,144.422897 
	C264.550903,143.975754 264.266052,143.528610 263.069611,142.856125 
	C247.741318,142.762466 232.413025,142.668808 217.158600,141.693939 
	C217.122772,134.853302 217.086945,128.012650 217.956711,120.937889 
	C233.318710,120.836609 248.680695,120.735329 264.747772,120.834564 
	C265.916656,120.699394 267.085571,120.564217 268.331299,120.454964 
	C268.331299,120.454964 268.409821,120.474998 268.860016,119.708649 
	C268.888336,113.293671 269.003510,106.877312 268.901001,100.464424 
	C268.861542,97.997726 268.326508,95.538956 267.099213,92.850319 
	C244.413574,92.940277 221.727936,93.030243 198.301651,93.026695 
	C191.110672,94.968796 186.648468,99.297050 185.860413,107.933739 
	C185.849915,136.639084 185.825974,165.344452 185.843460,194.049774 
	C185.846085,198.351212 186.042923,202.652496 186.051804,207.698654 
	C187.494812,213.751297 190.765396,218.140137 197.862167,220.069107 
	C200.164597,220.320663 202.466415,220.783951 204.769547,220.790558 
	C224.702927,220.847595 244.636597,220.839584 264.570007,220.783966 
	C265.924072,220.780197 267.276642,220.234344 268.911011,219.251038 
	C268.844330,218.515625 268.777679,217.780197 268.869720,216.114243 
	C268.869720,208.393661 268.869720,200.673096 268.869720,192.929825 
	C251.773682,192.929825 235.369446,192.929825 218.689774,192.751465 
	C218.689774,192.751465 218.421509,192.940460 217.980225,192.552002 
	C217.658752,192.330933 217.337296,192.109863 217.140488,190.972687 
	C217.157074,185.491714 217.058853,180.006256 217.273209,174.533035 
	C217.324982,173.210770 218.410080,171.928970 219.939743,170.805237 
	C234.052933,170.672562 248.166107,170.539886 262.733032,170.797424 
	C263.256317,170.628723 263.779572,170.460007 264.353729,170.214966 
	C264.353729,170.214966 264.362488,170.306290 264.761719,169.994705 
M122.969116,69.760933 
	C122.766281,69.903854 122.641541,70.097168 122.556076,70.449913 
	C122.556076,70.449913 122.447250,70.489365 121.802277,70.853401 
	C120.926170,70.700417 120.050072,70.547432 119.129875,70.126877 
	C119.129875,70.126877 118.884079,70.012306 118.748932,69.520943 
	C118.372116,69.189560 117.995300,68.858177 117.508003,68.497223 
	C117.508003,68.497223 117.480911,68.386101 117.243011,67.911079 
	C116.832130,67.597435 116.421249,67.283791 115.804428,66.450768 
	C115.276840,65.938271 114.749260,65.425774 114.071259,64.378242 
	C113.779274,64.168739 113.487282,63.959236 113.110222,63.978909 
	C113.110222,63.978909 113.233055,63.767544 112.980415,63.116131 
	C110.903870,61.771648 108.962326,59.652908 106.719536,59.261829 
	C103.244408,58.655869 99.563774,59.228439 95.323952,59.169769 
	C94.892334,59.239552 94.460724,59.309330 93.352478,59.144314 
	C92.748741,59.653217 92.144997,60.162125 91.541260,60.671028 
	C92.703773,62.003513 93.866295,63.335999 95.106522,65.019531 
	C95.106522,65.019531 95.410995,65.210762 95.674431,65.856842 
	C96.036156,66.138351 96.397881,66.419861 96.756058,66.891502 
	C96.756058,66.891502 96.905907,67.008591 97.036880,67.646317 
	C98.019272,68.777428 99.001663,69.908539 100.105507,71.494820 
	C100.245987,71.800728 100.477852,72.000671 100.926697,72.678680 
	C101.475624,73.239464 102.024544,73.800247 102.809006,74.183861 
	C102.809006,74.183861 102.612846,74.403831 102.711945,74.839035 
	C102.852608,75.122192 103.073830,75.310875 103.473724,75.477203 
	C103.473724,75.477203 103.507515,75.594193 103.742661,76.185364 
	C105.119255,77.840134 106.495842,79.494896 107.973862,81.036560 
	C107.973862,81.036560 107.843132,81.113960 108.079262,81.849579 
	C109.627296,82.542297 111.143288,83.729767 112.729530,83.832504 
	C117.031021,84.111115 121.405983,83.544365 125.670746,84.027863 
	C131.020554,84.634377 134.597672,82.801437 137.073914,77.749191 
	C137.073914,77.749191 137.163193,77.378464 137.718994,77.097206 
	C138.160385,76.407196 138.601776,75.717178 138.997864,75.002647 
	C138.997864,75.002647 139.029373,75.043724 139.597031,74.743530 
	C140.437912,73.522888 141.278778,72.302254 142.013977,71.027176 
	C142.013977,71.027176 142.091492,71.117310 142.589752,70.882271 
	C142.889954,70.428032 143.190155,69.973793 143.501709,69.417671 
	C143.501709,69.417671 143.601791,69.395493 144.094833,69.039993 
	C145.058899,67.690399 146.022949,66.340805 147.000000,65.000000 
	C147.000000,65.000000 146.991043,64.986893 147.518387,64.735184 
	C147.783234,64.227272 148.048080,63.719360 148.128723,63.108330 
	C148.128723,63.108330 148.272614,63.262821 148.931427,62.949898 
	C149.683838,61.849747 150.436249,60.749596 151.565399,59.098591 
	C146.817581,59.098591 142.974823,59.465012 139.231705,59.010612 
	C133.940201,58.368252 130.310959,60.321751 127.975922,64.988770 
	C127.975922,64.988770 127.782654,64.765602 127.217270,64.967407 
	C126.766220,65.613045 126.315178,66.258675 125.952805,66.957436 
	C125.952805,66.957436 125.918938,66.859772 125.409218,67.034386 
	C125.248840,67.344833 125.088463,67.655281 124.997375,67.991417 
	C124.997375,67.991417 124.953308,67.932076 124.469757,68.143135 
	C124.146347,68.552345 123.822937,68.961563 123.402130,69.501617 
	C123.402130,69.501617 123.292801,69.622665 122.969116,69.760933 
M611.000244,332.291748 
	C610.679382,332.310211 610.358459,332.328674 609.106323,332.201691 
	C600.305176,332.282288 591.504089,332.362885 582.410583,332.090790 
	C582.146790,331.718903 581.882935,331.347015 581.799316,330.056641 
	C581.731079,306.046783 581.662781,282.036896 581.301270,257.269775 
	C576.181641,257.199738 571.059631,257.006409 565.943359,257.107025 
	C562.979004,257.165344 560.023926,257.696716 556.869934,258.933380 
	C556.861572,274.368927 556.813660,289.804626 556.856201,305.240021 
	C556.898254,320.497833 557.031616,335.755371 557.125427,351.498840 
	C557.125427,351.498840 557.514771,351.788574 557.514771,351.788574 
	C557.514771,351.788574 557.968018,351.614990 558.631348,351.775238 
	C559.078552,351.715698 559.525818,351.656158 560.466858,351.773041 
	C560.630859,351.712555 560.794922,351.652100 561.885681,351.766815 
	C577.609924,351.713440 593.334106,351.660065 609.805115,351.835388 
	C613.669739,350.438873 611.685852,347.722778 611.711853,344.743469 
	C611.686584,342.141815 611.661316,339.540131 611.844055,336.235657 
	C611.643555,335.092041 611.443115,333.948456 611.140930,332.778320 
	C611.140930,332.778320 611.239075,332.740540 611.000244,332.291748 
M666.638916,339.914734 
	C666.981445,340.381561 667.324036,340.848389 667.702148,341.183685 
	C667.702148,341.183685 667.587463,341.257294 667.748413,341.897858 
	C668.465088,342.981964 669.181763,344.066071 669.939331,345.059387 
	C669.939331,345.059387 669.844421,345.089661 669.969116,345.751923 
	C670.933533,347.230621 671.897949,348.709290 672.903870,350.087280 
	C672.903870,350.087280 672.802063,350.125885 673.000610,350.941803 
	C680.621216,351.353638 688.241821,351.765442 695.819641,352.174957 
	C695.819641,319.920959 695.819641,288.610016 695.819641,256.633118 
	C688.297546,257.109741 681.184937,257.560455 673.839966,258.921753 
	C673.899292,277.272064 673.958618,295.622345 673.576660,314.306030 
	C672.768066,313.341217 671.789734,312.473145 671.176270,311.397095 
	C661.536133,294.488678 651.971558,277.537109 642.287048,260.654266 
	C641.477905,259.243805 639.975769,257.284485 638.723816,257.229980 
	C631.300720,256.906769 623.856323,257.070465 616.291260,257.070465 
	C616.291260,288.842957 616.291260,320.071075 616.291260,351.520935 
	C623.902649,351.520935 631.273315,351.520935 639.020874,351.520935 
	C639.020874,332.125061 639.020874,313.078400 639.020874,292.527771 
	C648.237671,308.212677 656.699097,322.612091 665.215271,337.582581 
	C665.652832,338.189240 666.090393,338.795868 666.724060,339.213440 
	C666.724060,339.213440 666.484009,339.342072 666.638916,339.914734 
M336.665710,318.708679 
	C336.665710,318.708679 336.965485,318.999115 337.006989,319.727753 
	C341.429047,329.205780 345.790771,338.712891 350.337006,348.130981 
	C351.033478,349.573730 352.543915,351.619904 353.741486,351.664215 
	C362.094055,351.972778 370.463379,351.827332 379.539856,351.827332 
	C372.532715,336.543610 365.918427,322.116821 359.287445,307.653656 
	C360.059937,307.059662 360.561615,306.634644 361.101135,306.264862 
	C371.853699,298.895142 375.689362,287.775330 371.929993,274.849213 
	C368.923218,264.510803 359.472870,257.399933 347.377563,257.184784 
	C332.585541,256.921600 317.784027,257.188324 302.140076,257.427277 
	C302.028473,288.098145 301.894867,318.769012 301.938812,349.439667 
	C301.939850,350.166412 303.930450,350.890289 305.909210,351.808533 
	C310.941467,351.745209 315.973755,351.681854 321.784180,351.801208 
	C322.651245,350.797394 324.208557,349.832092 324.267059,348.783173 
	C324.533905,343.999207 324.378265,339.191711 324.377197,334.392700 
	C324.375763,328.019775 324.376831,321.646851 324.376831,315.060883 
	C328.404938,315.060883 331.685333,315.060883 334.998077,315.003113 
	C334.998077,315.003113 334.939972,315.034790 335.110016,315.643127 
	C335.636230,316.529541 336.162476,317.415955 336.674011,318.126556 
	C336.674011,318.126556 336.618469,318.294006 336.665710,318.708679 
M140.581284,124.366821 
	C140.581284,124.366821 140.519440,124.473595 140.738266,125.140556 
	C142.107193,128.225021 143.476135,131.309479 144.750870,134.714630 
	C144.750870,134.714630 144.906342,135.010498 144.888916,135.884705 
	C145.221085,136.196945 145.551834,136.780212 145.885635,136.781952 
	C155.283432,136.831055 164.681534,136.821426 174.381851,136.821426 
	C174.309616,128.711487 173.315353,121.307922 169.087326,113.941353 
	C163.546143,103.526001 154.807693,97.037964 143.719742,93.596786 
	C133.435425,90.405022 122.933609,89.442696 112.193092,90.764366 
	C91.297997,93.335609 75.521294,103.316093 66.760254,122.777107 
	C58.214382,141.760147 58.093040,161.475037 63.516827,181.306061 
	C66.336266,191.614792 71.430779,200.813278 79.723839,207.697235 
	C98.761772,223.500381 120.550751,225.109604 143.234024,218.251709 
	C163.047043,212.261536 175.418991,194.747375 176.126724,173.089020 
	C176.383530,171.013931 176.104584,169.694229 173.377731,169.770035 
	C164.272491,170.023163 155.160797,170.043716 145.343002,170.452530 
	C144.369232,174.298904 143.798981,178.305527 142.346970,181.961990 
	C137.770111,193.487579 126.604790,198.646194 114.672264,195.149551 
	C106.895081,192.870590 101.835907,187.611282 98.963295,180.319260 
	C93.139282,165.535141 93.120674,150.356812 97.866402,135.430298 
	C103.937828,116.334106 120.689148,110.580460 137.905945,121.723907 
	C138.758118,122.615997 139.610291,123.508080 140.581284,124.366821 
M492.989288,348.998932 
	C492.989288,348.998932 492.929016,349.049835 493.321350,349.632080 
	C495.891815,350.316559 498.462280,351.001068 501.676727,351.812469 
	C502.106628,351.746521 502.536560,351.680573 503.884949,351.836365 
	C518.608582,351.762146 533.332153,351.687897 548.894104,351.726379 
	C549.322449,351.136963 550.114380,350.552826 550.123047,349.957306 
	C550.213684,343.705109 550.179016,337.451141 550.179016,331.000214 
	C537.479858,331.000214 525.243469,331.000214 512.338013,330.460266 
	C512.338013,325.400116 512.338013,320.339996 512.338013,314.937927 
	C522.510437,314.937927 532.474365,314.976227 542.437378,314.896820 
	C543.940002,314.884857 545.438232,314.323883 547.163452,313.099579 
	C547.075256,307.061157 546.987061,301.022736 546.820007,294.424988 
	C546.311768,294.458191 545.803528,294.491425 544.578918,294.249695 
	C533.711304,294.202911 522.843750,294.156128 511.899384,293.163788 
	C512.259094,287.795868 512.618835,282.427948 513.900452,277.263092 
	C525.849487,277.263092 537.798584,277.263092 549.945740,277.263092 
	C549.945740,270.578918 549.945740,264.298798 549.618286,257.212402 
	C533.003540,257.170044 516.388611,257.061279 499.774261,257.123657 
	C494.436737,257.143677 490.707336,259.798553 488.586823,265.720886 
	C488.416107,266.525085 488.097198,267.329071 488.096191,268.133484 
	C488.066650,292.008301 488.057648,315.883209 488.100739,339.757965 
	C488.102722,340.850891 488.618317,341.942871 488.886993,343.724274 
	C489.051025,344.143005 489.215057,344.561737 489.601715,345.556458 
	C490.719727,346.727722 491.837738,347.898987 492.989288,348.998932 
M758.840515,333.980774 
	C760.543274,339.857086 762.246033,345.733429 764.044556,351.940460 
	C765.795532,351.841614 767.414368,351.750214 769.890320,351.809875 
	C771.916138,351.757416 773.942017,351.704926 776.886169,351.853119 
	C781.484436,351.853119 786.082642,351.853119 791.429565,351.853119 
	C789.539673,346.390930 787.879089,341.591614 786.155396,336.905640 
	C786.155396,336.905640 786.275269,336.856049 786.258972,336.056610 
	C783.175598,326.370087 780.092163,316.683563 777.001282,306.223663 
	C771.926758,289.905273 766.852234,273.586914 761.773804,257.256165 
	C749.773987,257.256165 738.153259,257.256165 726.341370,257.256165 
	C716.887146,288.683380 707.470215,319.986694 697.948303,351.638916 
	C707.061523,351.638916 715.659119,351.638916 724.338135,351.638916 
	C726.305176,345.371033 728.230103,339.237396 731.070618,333.170227 
	C740.273438,333.185303 749.476318,333.200348 758.840515,333.980774 
M581.584534,60.022491 
	C581.383545,59.808506 581.182495,59.594524 580.240234,59.187057 
	C579.482849,59.256733 578.725403,59.326408 577.504150,59.200363 
	C577.347046,59.259464 577.189941,59.318562 576.105774,59.222157 
	C570.712341,59.271629 565.318909,59.321106 559.180603,59.158939 
	C558.196716,59.237133 556.671570,58.935375 556.309998,59.450432 
	C550.801758,67.297386 545.445740,75.251190 539.575012,83.884636 
	C545.521790,83.884636 550.166504,83.987473 554.801514,83.820961 
	C556.164246,83.772011 557.860718,83.334236 558.789856,82.437813 
	C565.707336,75.764206 572.470215,68.930283 579.798218,61.946709 
	C580.248352,61.385658 580.698486,60.824604 581.584534,60.022491 
M490.269470,218.739868 
	C490.269470,218.739868 490.245392,218.777573 490.194000,218.037506 
	C479.288239,192.354507 468.449860,166.642441 457.396729,141.023010 
	C455.909485,137.575821 455.907349,135.141693 458.289093,132.050171 
	C467.418732,120.199753 476.254242,108.122513 485.171448,96.109062 
	C485.789520,95.276367 486.178101,94.273277 486.832184,93.053307 
	C474.982788,93.053307 463.671326,92.911026 452.370544,93.193726 
	C450.492889,93.240700 448.064636,94.695801 446.902924,96.254486 
	C437.267944,109.182220 427.895172,122.305122 418.358856,135.307220 
	C417.540375,136.423157 416.114105,137.093353 415.101654,137.046600 
	C415.032501,122.698074 414.963318,108.349556 414.552094,93.212585 
	C403.838165,93.159508 393.124207,93.089233 382.410309,93.095299 
	C381.754852,93.095665 381.099701,93.700111 380.200500,94.928947 
	C380.200500,136.777023 380.200500,178.625092 380.200500,220.577545 
	C391.968872,220.577545 403.204498,220.577545 415.016266,220.577545 
	C415.016266,210.225388 415.016266,200.114578 415.610260,189.693649 
	C421.177765,182.197113 426.745270,174.700592 432.589539,166.831390 
	C433.591705,169.125366 434.330353,170.779968 435.040192,172.446808 
	C441.644531,187.955246 448.243896,203.465790 454.907135,219.667282 
	C455.884552,220.049576 456.860901,220.760513 457.839508,220.763611 
	C468.222260,220.796585 478.605316,220.717056 489.780243,220.883957 
	C490.868652,220.821625 491.957092,220.759293 493.966644,220.839401 
	C502.964630,220.794983 511.962646,220.750580 521.801270,220.897751 
	C523.706299,220.897751 525.611328,220.897751 527.747925,220.897751 
	C528.158325,219.076981 528.503662,217.544983 529.106689,215.288208 
	C531.086060,208.558533 533.065369,201.828857 535.972168,195.169388 
	C548.310181,195.104919 560.648132,195.040451 573.599243,195.379486 
	C576.113281,203.803833 578.627319,212.228180 581.119446,220.578888 
	C593.229431,220.578888 605.140869,220.578888 617.388062,220.578888 
	C617.075867,219.128464 616.924561,217.996704 616.587830,216.923050 
	C605.934998,182.952271 595.303589,148.974686 584.565186,115.030945 
	C582.235413,107.666855 579.512024,100.427315 576.071594,92.855087 
	C562.013489,92.848351 547.955200,92.812080 533.897461,92.884491 
	C532.613586,92.891098 531.333313,93.594017 529.699890,94.646095 
	C526.580994,104.795265 523.408020,114.928192 520.353577,125.096733 
	C511.855988,153.386490 503.407593,181.691040 494.512360,210.561020 
	C493.111481,213.293884 491.710602,216.026749 490.269470,218.739868 
M421.644073,257.547852 
	C421.644073,257.547852 421.539551,257.565369 421.136902,258.348175 
	C421.136902,264.795624 421.136902,271.243042 421.136902,278.233246 
	C427.207642,278.233246 432.935516,278.233246 439.131958,278.233246 
	C439.131958,302.992340 439.131958,327.205872 439.131958,351.590668 
	C448.184662,351.590668 456.750275,351.590668 465.834961,351.590668 
	C465.834961,327.127014 465.834961,302.915924 465.834961,278.078064 
	C472.061737,278.078064 477.789215,278.078064 483.580902,278.078064 
	C483.580902,273.660675 483.580902,269.874359 483.755829,265.201080 
	C483.680206,262.815338 483.604614,260.429565 483.467346,257.420959 
	C482.658508,257.397339 481.849670,257.373718 480.110229,257.197144 
	C461.728271,257.250122 443.346344,257.303101 424.315796,257.153168 
	C423.460297,257.289032 422.604767,257.424896 421.644073,257.547852 
M754.420410,174.727539 
	C754.420410,177.116470 754.420410,179.505386 754.420410,182.319427 
	C715.412842,182.319427 676.840454,182.319427 637.794434,182.319427 
	C637.794434,187.045563 637.794006,191.338547 637.794495,195.631531 
	C637.796265,210.959915 646.145813,220.502289 661.348755,220.674484 
	C696.985535,221.078094 732.631531,221.047226 768.270081,220.750000 
	C782.657654,220.630020 792.408630,211.046951 792.618408,197.580475 
	C792.893250,179.930374 792.747803,162.273209 792.672852,144.619583 
	C792.668884,143.680695 791.642029,142.746124 790.330933,141.490112 
	C754.885498,141.467041 719.440063,141.441330 683.994629,141.434509 
	C683.009338,141.434311 682.024048,141.636475 680.223999,141.407394 
	C678.656799,141.259521 677.089600,141.111649 675.660034,140.976761 
	C675.660034,137.968445 675.660034,135.571899 675.660034,132.568497 
	C714.910156,132.568497 753.769226,132.568497 792.705688,132.568497 
	C792.705688,126.961006 792.784119,121.967247 792.690613,116.976715 
	C792.435120,103.338783 783.123535,93.346497 769.515442,93.250130 
	C733.040161,92.991844 696.561218,93.043961 660.085083,93.231079 
	C648.404907,93.290993 639.641907,101.581032 637.854919,113.925583 
	C637.854919,133.851837 637.854919,153.778076 637.854919,173.719498 
	C638.722778,173.943787 639.180908,174.166077 639.638916,174.165771 
	C677.752380,174.139725 715.865906,174.096420 754.420410,174.727539 
M320.115479,90.525993 
	C312.994354,92.638092 305.358337,93.743813 298.858124,97.069504 
	C284.847443,104.237740 278.380920,116.479523 278.778534,132.254196 
	C279.159729,147.378189 286.282074,158.159897 299.901306,164.589752 
	C303.647186,166.358246 307.576111,167.774734 311.500183,169.122299 
	C318.725555,171.603561 326.072906,173.740784 333.245453,176.360703 
	C337.545868,177.931503 340.730469,180.951218 340.661560,185.970581 
	C340.597260,190.656509 337.133606,194.177795 331.474030,195.869141 
	C318.567047,199.726318 306.831970,196.072968 297.994781,185.432480 
	C296.748199,183.931488 295.548523,182.391510 294.111877,180.601334 
	C287.048859,186.191086 280.214813,191.599625 273.451538,196.952194 
	C290.827240,225.526566 333.470459,226.750397 351.940216,216.107162 
	C365.125824,208.508942 372.104065,197.125473 372.855072,181.990005 
	C373.594604,167.084915 368.954437,154.657318 355.272491,147.121124 
	C350.511322,144.498596 345.254181,142.689087 340.082703,140.920013 
	C333.008453,138.500061 325.725220,136.684891 318.675354,134.202118 
	C314.104523,132.592392 310.291260,129.712799 310.446899,124.144409 
	C310.557892,120.173668 315.043121,116.150894 320.548248,115.010384 
	C329.713959,113.111488 337.706085,115.631363 344.291260,122.208084 
	C345.898010,123.812790 346.857788,126.065323 348.117981,128.024567 
	C355.934509,121.510155 362.163757,116.318604 368.634735,110.925598 
	C356.207825,95.149086 340.166443,89.114388 320.115479,90.525993 
M244.536179,255.829193 
	C231.784897,258.025604 221.806412,264.536133 215.727036,275.941132 
	C206.447128,293.350403 206.058228,311.541168 214.285004,329.277100 
	C227.093246,356.890137 266.548859,361.473480 285.693024,337.857086 
	C295.805695,325.382080 297.513397,310.573792 295.801544,295.296234 
	C292.754852,268.106049 271.366547,251.507187 244.536179,255.829193 
M68.961067,327.453217 
	C66.118507,329.699219 63.275940,331.945190 60.478176,334.155792 
	C73.040253,354.236908 106.000893,359.504608 123.883125,344.731049 
	C137.198288,333.730652 139.822098,304.521881 117.525383,295.697205 
	C112.901779,293.867249 108.054848,292.607422 103.336105,291.010254 
	C99.409668,289.681213 95.282402,288.686218 91.670227,286.748779 
	C86.241699,283.837158 86.351570,277.574768 92.019463,275.136078 
	C95.306580,273.721771 99.716888,272.928467 102.986542,273.929810 
	C107.877319,275.427673 112.208679,278.752167 117.331276,281.608185 
	C121.215515,278.444397 125.823540,274.691071 130.397766,270.965271 
	C118.358223,252.267670 91.854874,252.648163 78.327324,260.614807 
	C68.364395,266.482178 63.716114,275.413544 64.185837,286.838745 
	C64.643715,297.976013 70.049660,306.086823 80.317993,310.608765 
	C84.413071,312.412140 88.741623,313.691467 92.982018,315.156891 
	C96.752380,316.459869 100.643799,317.464447 104.303619,319.019928 
	C107.591499,320.417297 110.653046,322.497894 109.979233,326.818207 
	C109.324890,331.013672 106.274117,333.112579 102.416138,333.752441 
	C93.042351,335.307159 84.435173,334.177094 78.217026,325.854828 
	C77.367767,324.718201 76.345024,323.711212 75.315773,322.545868 
	C73.214264,324.178009 71.379143,325.603241 68.961067,327.453217 
M192.879623,260.439880 
	C189.716949,259.444641 186.570038,257.652435 183.388947,257.589569 
	C168.131836,257.287994 152.865494,257.454132 137.535828,257.454132 
	C137.535828,288.965668 137.535828,320.319336 137.535828,351.452332 
	C145.186188,351.452332 152.424530,351.452332 160.058441,351.452332 
	C160.058441,339.451294 160.058441,327.852753 160.058441,316.290405 
	C167.083786,315.836212 173.715515,315.617432 180.298355,314.930328 
	C189.131302,314.008392 197.345505,311.531921 202.651260,303.585938 
	C211.549911,290.259186 207.071198,269.395172 192.879623,260.439880 
M696.451355,76.979446 
	C705.865723,87.946175 720.588318,89.373138 731.008179,80.328804 
	C740.756531,71.867348 741.561584,56.450562 732.764587,46.694271 
	C724.757385,37.813965 710.575073,36.509235 701.005493,43.772499 
	C690.886597,51.452698 688.866821,64.696831 696.451355,76.979446 
M332.545166,250.873032 
	C335.777374,250.557312 340.202393,251.463058 342.014648,249.693298 
	C347.136078,244.691925 351.186218,238.593597 355.725769,232.842117 
	C345.857697,230.042038 338.759399,233.171860 333.358978,242.281372 
	C328.077240,233.107803 321.004242,229.844025 311.271942,232.919296 
	C314.606781,237.257294 318.084442,241.282135 320.976959,245.690887 
	C323.613190,249.709091 326.738129,251.874359 332.545166,250.873032 
M386.627563,319.499664 
	C386.627563,330.124084 386.627563,340.748535 386.627563,351.552612 
	C394.994659,351.552612 402.888580,351.552612 410.954285,351.552612 
	C410.954285,320.053711 410.954285,288.826813 410.954285,257.389526 
	C402.824829,257.389526 394.936035,257.389526 386.627716,257.389526 
	C386.627716,277.916962 386.627716,298.208282 386.627563,319.499664 
z"/>
<path fill="#FE2D10" opacity="1.000000" stroke="none" 
	d="
M638.109070,113.020920 
	C639.641907,101.581032 648.404907,93.290993 660.085083,93.231079 
	C696.561218,93.043961 733.040161,92.991844 769.515442,93.250130 
	C783.123535,93.346497 792.435120,103.338783 792.690613,116.976715 
	C792.784119,121.967247 792.705688,126.961006 792.705688,132.568497 
	C753.769226,132.568497 714.910156,132.568497 675.660034,132.568497 
	C675.660034,135.571899 675.660034,137.968445 675.660034,140.976761 
	C677.089600,141.111649 678.656799,141.259521 680.810791,141.893524 
	C682.337646,142.587524 683.277466,142.976303 684.217651,142.977158 
	C718.482361,143.008804 752.747009,143.018097 787.011597,142.954407 
	C788.372253,142.951874 789.731506,142.207993 791.091370,141.809540 
	C791.642029,142.746124 792.668884,143.680695 792.672852,144.619583 
	C792.747803,162.273209 792.893250,179.930374 792.618408,197.580475 
	C792.408630,211.046951 782.657654,220.630020 768.270081,220.750000 
	C732.631531,221.047226 696.985535,221.078094 661.348755,220.674484 
	C646.145813,220.502289 637.796265,210.959915 637.794495,195.631531 
	C637.794006,191.338547 637.794434,187.045563 637.794434,182.319427 
	C676.840454,182.319427 715.412842,182.319427 754.420410,182.319427 
	C754.420410,179.505386 754.420410,177.116470 753.920654,174.079987 
	C751.615234,173.287872 749.809509,173.018555 748.003723,173.017242 
	C713.551086,172.992233 679.097900,172.902039 644.646545,173.111069 
	C639.898804,173.139877 638.837402,171.644073 638.903992,167.187012 
	C639.147766,150.879761 639.027039,134.566544 638.960938,118.255905 
	C638.953857,116.509789 638.406067,114.765862 638.109070,113.020920 
z"/>
<path fill="#2A4788" opacity="1.000000" stroke="none" 
	d="
M494.939819,209.989761 
	C503.407593,181.691040 511.855988,153.386490 520.353577,125.096733 
	C523.408020,114.928192 526.580994,104.795265 530.340576,94.324615 
	C544.570618,94.000031 558.160217,94.027733 571.749268,93.955658 
	C573.490906,93.946426 575.229858,93.418190 576.970032,93.130386 
	C579.512024,100.427315 582.235413,107.666855 584.565186,115.030945 
	C595.303589,148.974686 605.934998,182.952271 616.587830,216.923050 
	C616.924561,217.996704 617.075867,219.128464 617.388062,220.578888 
	C605.140869,220.578888 593.229431,220.578888 581.119446,220.578888 
	C578.627319,212.228180 576.113281,203.803833 573.000610,194.880554 
	C560.650085,194.260269 548.898376,194.120087 537.146240,194.064743 
	C536.447327,194.061447 535.745300,194.738632 535.044678,195.099167 
	C533.065369,201.828857 531.086060,208.558533 528.682739,215.825470 
	C525.826050,217.810547 523.393311,219.258362 520.960632,220.706161 
	C511.962646,220.750580 502.964630,220.794983 493.537292,220.454102 
	C493.718567,216.709106 494.329193,213.349442 494.939819,209.989761 
M543.747192,162.035934 
	C543.766724,164.294693 540.253479,168.006836 544.408875,168.502884 
	C551.310059,169.326706 558.404846,168.528839 566.114075,168.402634 
	C561.925049,153.800781 558.117493,140.528687 554.309937,127.256599 
	C553.991638,127.288712 553.673340,127.320824 553.354980,127.352936 
	C550.218262,138.656860 547.081482,149.960800 543.747192,162.035934 
z"/>
<path fill="#2B4788" opacity="1.000000" stroke="none" 
	d="
M414.970184,137.970612 
	C416.114105,137.093353 417.540375,136.423157 418.358856,135.307220 
	C427.895172,122.305122 437.267944,109.182220 446.902924,96.254486 
	C448.064636,94.695801 450.492889,93.240700 452.370544,93.193726 
	C463.671326,92.911026 474.982788,93.053307 486.832184,93.053307 
	C486.178101,94.273277 485.789520,95.276367 485.171448,96.109062 
	C476.254242,108.122513 467.418732,120.199753 458.289093,132.050171 
	C455.907349,135.141693 455.909485,137.575821 457.396729,141.023010 
	C468.449860,166.642441 479.288239,192.354507 489.738220,218.473816 
	C477.803223,218.932007 466.323944,218.953857 454.844666,218.975723 
	C448.243896,203.465790 441.644531,187.955246 435.040192,172.446808 
	C434.330353,170.779968 433.591705,169.125366 432.589539,166.831390 
	C426.745270,174.700592 421.177765,182.197113 414.916260,189.941742 
	C413.815247,191.682404 413.088165,193.168304 413.056885,194.668701 
	C412.925110,200.987198 412.696991,207.329605 413.102234,213.624756 
	C413.398346,218.224533 411.680817,219.306992 407.418671,219.086823 
	C400.948364,218.752594 394.428314,218.690475 387.966888,219.101517 
	C383.119720,219.409851 381.869965,217.803024 381.894440,213.016220 
	C382.088470,175.089752 382.023041,137.161804 381.936401,99.234535 
	C381.932434,97.496391 380.963776,95.760460 380.444458,94.023491 
	C381.099701,93.700111 381.754852,93.095665 382.410309,93.095299 
	C393.124207,93.089233 403.838165,93.159508 414.402191,93.682983 
	C414.185211,108.195023 414.107391,122.236656 414.090240,136.278366 
	C414.089569,136.842087 414.663818,137.406509 414.970184,137.970612 
z"/>
<path fill="#2B4788" opacity="1.000000" stroke="none" 
	d="
M175.879486,173.969757 
	C175.418991,194.747375 163.047043,212.261536 143.234024,218.251709 
	C120.550751,225.109604 98.761772,223.500381 79.723839,207.697235 
	C71.430779,200.813278 66.336266,191.614792 63.516827,181.306061 
	C58.093040,161.475037 58.214382,141.760147 66.760254,122.777107 
	C75.521294,103.316093 91.297997,93.335609 112.193092,90.764366 
	C122.933609,89.442696 133.435425,90.405022 143.719742,93.596786 
	C154.807693,97.037964 163.546143,103.526001 169.082138,114.698120 
	C170.591385,122.043037 172.105835,128.631180 173.572281,135.010498 
	C163.108719,135.010498 154.007523,135.010498 144.906342,135.010498 
	C144.906342,135.010498 144.750870,134.714630 144.851440,134.122086 
	C143.474503,130.510895 141.996979,127.492241 140.519440,124.473595 
	C140.519440,124.473595 140.581284,124.366821 140.664764,123.985489 
	C139.728012,122.781212 138.707794,121.958275 137.687576,121.135338 
	C120.689148,110.580460 103.937828,116.334106 97.866402,135.430298 
	C93.120674,150.356812 93.139282,165.535141 98.963295,180.319260 
	C101.835907,187.611282 106.895081,192.870590 114.672264,195.149551 
	C126.604790,198.646194 137.770111,193.487579 142.346970,181.961990 
	C143.798981,178.305527 144.369232,174.298904 146.007874,170.571594 
	C154.607742,170.792191 162.552002,170.715729 170.470840,171.127594 
	C172.317993,171.223679 174.078903,172.978256 175.879486,173.969757 
z"/>
<path fill="#2B4788" opacity="1.000000" stroke="none" 
	d="
M320.552643,90.409294 
	C340.166443,89.114388 356.207825,95.149086 368.634735,110.925598 
	C362.163757,116.318604 355.934509,121.510155 348.117981,128.024567 
	C346.857788,126.065323 345.898010,123.812790 344.291260,122.208084 
	C337.706085,115.631363 329.713959,113.111488 320.548248,115.010384 
	C315.043121,116.150894 310.557892,120.173668 310.446899,124.144409 
	C310.291260,129.712799 314.104523,132.592392 318.675354,134.202118 
	C325.725220,136.684891 333.008453,138.500061 340.082703,140.920013 
	C345.254181,142.689087 350.511322,144.498596 355.272491,147.121124 
	C368.954437,154.657318 373.594604,167.084915 372.855072,181.990005 
	C372.104065,197.125473 365.125824,208.508942 351.940216,216.107162 
	C333.470459,226.750397 290.827240,225.526566 273.451538,196.952194 
	C280.214813,191.599625 287.048859,186.191086 294.111877,180.601334 
	C295.548523,182.391510 296.748199,183.931488 297.994781,185.432480 
	C306.831970,196.072968 318.567047,199.726318 331.474030,195.869141 
	C337.133606,194.177795 340.597260,190.656509 340.661560,185.970581 
	C340.730469,180.951218 337.545868,177.931503 333.245453,176.360703 
	C326.072906,173.740784 318.725555,171.603561 311.500183,169.122299 
	C307.576111,167.774734 303.647186,166.358246 299.901306,164.589752 
	C286.282074,158.159897 279.159729,147.378189 278.778534,132.254196 
	C278.380920,116.479523 284.847443,104.237740 298.858124,97.069504 
	C305.358337,93.743813 312.994354,92.638092 320.552643,90.409294 
z"/>
<path fill="#2B4789" opacity="1.000000" stroke="none" 
	d="
M218.421509,192.940460 
	C218.421509,192.940460 218.689774,192.751465 219.114487,193.151352 
	C221.010025,193.701035 222.480469,193.976547 223.951721,193.980820 
	C236.259979,194.016479 248.577332,194.272537 260.872253,193.866135 
	C265.592773,193.710098 266.642822,196.204071 266.859131,199.640823 
	C267.166656,204.526199 266.756104,209.457214 267.073242,214.341415 
	C267.322571,218.181503 265.848755,219.102005 262.209717,219.073730 
	C242.251389,218.918655 222.291199,218.980072 202.331802,219.033615 
	C200.571487,219.038330 198.812469,219.521484 197.052841,219.782425 
	C190.765396,218.140137 187.494812,213.751297 186.367081,207.012909 
	C186.789749,205.678223 186.990799,205.029327 186.991089,204.380325 
	C187.004578,173.161224 187.011414,141.942108 186.959503,110.723083 
	C186.957443,109.487724 186.377396,108.253326 186.066666,107.018486 
	C186.648468,99.297050 191.110672,94.968796 198.979843,93.346909 
	C200.638748,93.777733 201.618866,93.979202 202.600266,93.985596 
	C224.010208,94.125252 245.420303,94.250153 266.830536,94.311378 
	C267.224945,94.312508 267.621643,93.506157 268.017273,93.076569 
	C268.326508,95.538956 268.861542,97.997726 268.901001,100.464424 
	C269.003510,106.877312 268.888336,113.293671 268.477173,119.701370 
	C265.728973,119.462608 263.364563,119.042740 260.998138,119.030914 
	C247.904922,118.965523 234.810303,118.926804 221.718933,119.095207 
	C220.154343,119.115334 218.606659,120.447815 217.051132,121.172005 
	C217.086945,128.012650 217.122772,134.853302 217.317230,142.517014 
	C218.421173,143.559326 219.365875,143.966461 220.311890,143.969513 
	C233.796387,144.013229 247.281143,144.023224 260.765503,143.964569 
	C261.838654,143.959915 262.909363,143.389130 263.981201,143.081451 
	C264.266052,143.528610 264.550903,143.975754 264.368591,144.858337 
	C263.601257,151.341797 262.966217,157.398041 263.114532,163.435043 
	C263.219574,167.710098 262.178864,169.246597 257.613617,169.110275 
	C246.312500,168.772751 234.993774,168.937454 223.684174,169.072357 
	C222.123474,169.090958 220.574417,170.085709 219.019989,170.628571 
	C218.410080,171.928970 217.324982,173.210770 217.273209,174.533035 
	C217.058853,180.006256 217.157074,185.491714 217.252090,191.676544 
	C217.716293,192.567078 218.068909,192.753769 218.421509,192.940460 
z"/>
<path fill="#2B4788" opacity="1.000000" stroke="none" 
	d="
M665.160522,337.011505 
	C656.699097,322.612091 648.237671,308.212677 639.020874,292.527771 
	C639.020874,313.078400 639.020874,332.125061 639.020874,351.520935 
	C631.273315,351.520935 623.902649,351.520935 616.291260,351.520935 
	C616.291260,320.071075 616.291260,288.842957 616.291260,257.070465 
	C623.856323,257.070465 631.300720,256.906769 638.723816,257.229980 
	C639.975769,257.284485 641.477905,259.243805 642.287048,260.654266 
	C651.971558,277.537109 661.536133,294.488678 671.176270,311.397095 
	C671.789734,312.473145 672.768066,313.341217 674.094482,313.849609 
	C674.742371,311.582489 674.981750,309.772003 674.985352,307.961090 
	C675.017822,291.643066 675.008972,275.324951 675.478516,259.003906 
	C680.435852,258.977081 685.049561,259.592834 689.385681,258.761200 
	C694.382446,257.802887 695.056824,259.820740 695.043396,263.927582 
	C694.958008,290.046753 695.000000,316.166382 695.000000,342.285858 
	C695.000000,344.585907 695.000000,346.885986 695.000000,350.125885 
	C687.328918,350.125885 680.065491,350.125885 672.802063,350.125885 
	C672.802063,350.125885 672.903870,350.087280 672.918457,349.750854 
	C671.903442,347.972809 670.873962,346.531250 669.844421,345.089661 
	C669.844421,345.089661 669.939331,345.059387 669.943726,344.727478 
	C669.161255,343.349457 668.374390,342.303375 667.587463,341.257294 
	C667.587463,341.257294 667.702148,341.183685 667.759399,340.895020 
	C667.372437,340.184937 666.928223,339.763489 666.484009,339.342072 
	C666.484009,339.342072 666.724060,339.213440 666.745850,338.978271 
	C666.231934,338.165924 665.696228,337.588715 665.160522,337.011505 
z"/>
<path fill="#2B4788" opacity="1.000000" stroke="none" 
	d="
M775.967834,351.652466 
	C773.942017,351.704926 771.916138,351.757416 769.393311,351.451721 
	C765.778992,350.677338 764.450317,348.683411 763.725952,345.784851 
	C762.650574,341.481812 761.254578,337.258942 759.703857,332.702301 
	C749.753845,332.274780 740.095093,332.143951 730.435913,332.064117 
	C730.345154,332.063354 730.248718,332.742188 730.154968,333.103760 
	C728.230103,339.237396 726.305176,345.371033 724.338135,351.638916 
	C715.659119,351.638916 707.061523,351.638916 697.948303,351.638916 
	C707.470215,319.986694 716.887146,288.683380 726.341370,257.256165 
	C738.153259,257.256165 749.773987,257.256165 761.773804,257.256165 
	C766.852234,273.586914 771.926758,289.905273 776.762085,306.838745 
	C778.267517,313.770294 779.840698,320.141144 781.822571,326.382233 
	C782.965637,329.981842 784.769043,333.371765 786.275269,336.856049 
	C786.275269,336.856049 786.155396,336.905640 786.116943,337.276123 
	C786.891663,341.619720 787.704834,345.592804 788.614197,350.036285 
	C786.612244,350.036285 784.853821,349.837524 783.160217,350.083801 
	C780.737976,350.436066 778.362976,351.113739 775.967834,351.652466 
M748.117004,312.827515 
	C749.541992,312.745056 750.967041,312.662598 752.766052,312.558472 
	C749.967590,302.532501 747.277710,292.895630 744.587891,283.258759 
	C744.275024,283.238678 743.962219,283.218567 743.649353,283.198456 
	C740.951843,292.899261 738.254333,302.600098 735.409912,312.829224 
	C739.940918,312.829224 743.575195,312.829224 748.117004,312.827515 
z"/>
<path fill="#2B4788" opacity="1.000000" stroke="none" 
	d="
M302.986633,257.225922 
	C317.784027,257.188324 332.585541,256.921600 347.377563,257.184784 
	C359.472870,257.399933 368.923218,264.510803 371.929993,274.849213 
	C375.689362,287.775330 371.853699,298.895142 361.101135,306.264862 
	C360.561615,306.634644 360.059937,307.059662 359.287445,307.653656 
	C365.918427,322.116821 372.532715,336.543610 379.539856,351.827332 
	C370.463379,351.827332 362.094055,351.972778 353.741486,351.664215 
	C352.543915,351.619904 351.033478,349.573730 350.337006,348.130981 
	C345.790771,338.712891 341.429047,329.205780 337.154266,319.253113 
	C337.073853,318.616943 336.846161,318.455475 336.618469,318.294006 
	C336.618469,318.294006 336.674011,318.126556 336.773010,317.836731 
	C336.227997,316.709534 335.583984,315.872162 334.939972,315.034790 
	C334.939972,315.034790 334.998077,315.003113 334.934570,314.680420 
	C332.757812,314.218750 330.488739,314.526794 328.561157,313.854980 
	C323.277985,312.013550 323.009644,315.236084 323.001678,318.897644 
	C322.982941,327.525848 323.134094,336.157654 322.907593,344.779907 
	C322.847321,347.074524 321.670319,349.339783 321.006012,351.618530 
	C315.973755,351.681854 310.941467,351.745209 305.343689,351.364716 
	C304.186768,348.791870 303.089203,346.664948 303.080444,344.533539 
	C302.961182,315.431366 302.992462,286.328552 302.986633,257.225922 
M329.723999,274.164581 
	C328.131622,274.261353 326.539246,274.358124 324.555084,274.478729 
	C324.555084,280.503235 324.609222,286.111359 324.533325,291.717743 
	C324.492462,294.739044 326.037872,296.060699 328.819733,295.758148 
	C333.171143,295.284882 337.560455,294.833130 341.810944,293.844452 
	C346.745697,292.696625 349.063110,289.302002 348.922791,284.398529 
	C348.781708,279.469116 346.393951,276.059174 341.523346,275.102661 
	C337.974182,274.405640 334.279388,274.450043 329.723999,274.164581 
z"/>
<path fill="#2B4787" opacity="1.000000" stroke="none" 
	d="
M244.968643,255.788406 
	C271.366547,251.507187 292.754852,268.106049 295.801544,295.296234 
	C297.513397,310.573792 295.805695,325.382080 285.693024,337.857086 
	C266.548859,361.473480 227.093246,356.890137 214.285004,329.277100 
	C206.058228,311.541168 206.447128,293.350403 215.727036,275.941132 
	C221.806412,264.536133 231.784897,258.025604 244.968643,255.788406 
M272.233337,310.672272 
	C273.582886,301.217712 272.797516,291.997711 268.081940,283.568695 
	C261.186005,271.242340 244.033356,270.840759 237.564667,283.246002 
	C230.458252,296.874268 230.480682,311.342377 237.670593,324.936401 
	C243.904633,336.723175 260.384430,336.897430 267.301117,325.503052 
	C269.800720,321.385193 270.587616,316.227722 272.233337,310.672272 
z"/>
<path fill="#2C4787" opacity="1.000000" stroke="none" 
	d="
M69.252541,327.240845 
	C71.379143,325.603241 73.214264,324.178009 75.315773,322.545868 
	C76.345024,323.711212 77.367767,324.718201 78.217026,325.854828 
	C84.435173,334.177094 93.042351,335.307159 102.416138,333.752441 
	C106.274117,333.112579 109.324890,331.013672 109.979233,326.818207 
	C110.653046,322.497894 107.591499,320.417297 104.303619,319.019928 
	C100.643799,317.464447 96.752380,316.459869 92.982018,315.156891 
	C88.741623,313.691467 84.413071,312.412140 80.317993,310.608765 
	C70.049660,306.086823 64.643715,297.976013 64.185837,286.838745 
	C63.716114,275.413544 68.364395,266.482178 78.327324,260.614807 
	C91.854874,252.648163 118.358223,252.267670 130.397766,270.965271 
	C125.823540,274.691071 121.215515,278.444397 117.331276,281.608185 
	C112.208679,278.752167 107.877319,275.427673 102.986542,273.929810 
	C99.716888,272.928467 95.306580,273.721771 92.019463,275.136078 
	C86.351570,277.574768 86.241699,283.837158 91.670227,286.748779 
	C95.282402,288.686218 99.409668,289.681213 103.336105,291.010254 
	C108.054848,292.607422 112.901779,293.867249 117.525383,295.697205 
	C139.822098,304.521881 137.198288,333.730652 123.883125,344.731049 
	C106.000893,359.504608 73.040253,354.236908 60.478176,334.155792 
	C63.275940,331.945190 66.118507,329.699219 69.252541,327.240845 
z"/>
<path fill="#2C4889" opacity="1.000000" stroke="none" 
	d="
M193.201202,260.634277 
	C207.071198,269.395172 211.549911,290.259186 202.651260,303.585938 
	C197.345505,311.531921 189.131302,314.008392 180.298355,314.930328 
	C173.715515,315.617432 167.083786,315.836212 160.058441,316.290405 
	C160.058441,327.852753 160.058441,339.451294 160.058441,351.452332 
	C152.424530,351.452332 145.186188,351.452332 137.535828,351.452332 
	C137.535828,320.319336 137.535828,288.965668 137.535828,257.454132 
	C152.865494,257.454132 168.131836,257.287994 183.388947,257.589569 
	C186.570038,257.652435 189.716949,259.444641 193.201202,260.634277 
M183.125778,287.275635 
	C183.028519,280.356354 180.741287,276.713013 175.169571,276.130219 
	C170.301590,275.621033 165.338211,276.024017 160.155853,276.024017 
	C160.155853,283.013824 160.155853,289.858063 160.155853,296.837524 
	C164.884369,296.837524 169.345367,297.123596 173.753448,296.762909 
	C178.913345,296.340698 182.359222,293.569733 183.125778,287.275635 
z"/>
<path fill="#2A4788" opacity="1.000000" stroke="none" 
	d="
M512.978577,277.060028 
	C512.618835,282.427948 512.259094,287.795868 512.054565,294.020691 
	C513.714294,295.251678 515.213623,295.922638 516.724121,295.948700 
	C523.510498,296.065918 530.300110,295.999939 537.088501,296.000000 
	C545.995117,296.000061 545.917175,296.001099 546.038452,304.944763 
	C546.079407,307.972290 546.624084,310.993042 546.938538,314.016876 
	C545.438232,314.323883 543.940002,314.884857 542.437378,314.896820 
	C532.474365,314.976227 522.510437,314.937927 512.338013,314.937927 
	C512.338013,320.339996 512.338013,325.400116 512.961548,331.031738 
	C515.227295,331.735992 516.869080,331.976685 518.511841,331.983673 
	C527.329102,332.021240 536.148010,331.920746 544.962280,332.085754 
	C546.293945,332.110687 548.746765,333.282379 548.744690,333.917267 
	C548.727112,339.290039 548.259827,344.661346 547.463501,350.033081 
	C533.892822,350.033478 520.785706,349.980743 507.680267,350.104065 
	C506.104431,350.118896 504.537506,351.087891 502.966461,351.614624 
	C502.536560,351.680573 502.106628,351.746521 501.247498,351.412170 
	C498.188507,350.357880 495.558777,349.703857 492.929016,349.049805 
	C492.929016,349.049835 492.989288,348.998932 492.977936,348.647919 
	C493.343658,345.489929 491.779694,344.782684 489.379089,344.980469 
	C489.215057,344.561737 489.051025,344.143005 489.196289,343.089355 
	C489.659119,341.650604 489.945892,340.846924 489.946716,340.042969 
	C489.971161,316.265320 489.981628,292.487640 489.926971,268.710083 
	C489.924133,267.475037 489.328094,266.241394 489.008270,265.007080 
	C490.707336,259.798553 494.436737,257.143677 499.774261,257.123657 
	C516.388611,257.061279 533.003540,257.170044 549.493225,257.913849 
	C549.243713,263.082977 548.951355,267.554474 549.053467,272.016968 
	C549.122620,275.039215 548.084656,276.103851 545.032288,276.052551 
	C536.061707,275.901764 527.086304,275.944885 518.114319,276.047882 
	C516.398743,276.067566 514.690308,276.706696 512.978577,277.060028 
z"/>
<path fill="#2D4889" opacity="1.000000" stroke="none" 
	d="
M483.580872,266.088043 
	C483.580902,269.874359 483.580902,273.660675 483.580902,278.078064 
	C477.789215,278.078064 472.061737,278.078064 465.834961,278.078064 
	C465.834961,302.915924 465.834961,327.127014 465.834961,351.590668 
	C456.750275,351.590668 448.184662,351.590668 439.131958,351.590668 
	C439.131958,327.205872 439.131958,302.992340 439.131958,278.233246 
	C432.935516,278.233246 427.207642,278.233246 421.136902,278.233246 
	C421.136902,271.243042 421.136902,264.795624 421.661072,258.297119 
	C423.959167,258.497589 425.732330,258.961670 427.507050,258.967621 
	C444.153442,259.023438 460.800720,259.076965 477.446136,258.937653 
	C480.836273,258.909302 482.397034,259.806244 482.046051,263.407654 
	C481.807007,265.860565 482.000397,268.355652 482.000397,270.831879 
	C482.201202,270.816071 482.402008,270.800262 482.602814,270.784485 
	C482.928833,269.218994 483.254852,267.653503 483.580872,266.088043 
z"/>
<path fill="#2C4989" opacity="1.000000" stroke="none" 
	d="
M557.064697,258.015198 
	C560.023926,257.696716 562.979004,257.165344 565.943359,257.107025 
	C571.059631,257.006409 576.181641,257.199738 581.089966,257.785095 
	C580.585388,259.194397 580.038086,260.087860 580.036133,260.982544 
	C579.987549,283.092224 579.970886,305.202148 580.064880,327.311523 
	C580.070068,328.534912 581.077942,329.753998 581.619141,330.975098 
	C581.882935,331.347015 582.146790,331.718903 582.824219,332.652924 
	C588.479248,333.477783 593.718811,333.913269 598.962280,333.967560 
	C610.194519,334.083923 610.037964,334.003998 610.088440,345.322876 
	C610.105286,349.079773 608.928040,350.117096 605.251221,350.075195 
	C590.162415,349.903229 575.070374,350.025024 559.584839,349.938324 
	C558.792725,348.005737 558.054016,346.174500 558.049011,344.341187 
	C557.975464,317.461487 558.018555,290.581451 557.960327,263.701660 
	C557.956177,261.805511 557.376648,259.910645 557.064697,258.015198 
z"/>
<path fill="#FD2C10" opacity="1.000000" stroke="none" 
	d="
M696.242554,76.676315 
	C688.866821,64.696831 690.886597,51.452698 701.005493,43.772499 
	C710.575073,36.509235 724.757385,37.813965 732.764587,46.694271 
	C741.561584,56.450562 740.756531,71.867348 731.008179,80.328804 
	C720.588318,89.373138 705.865723,87.946175 696.242554,76.676315 
z"/>
<path fill="#2C4787" opacity="1.000000" stroke="none" 
	d="
M95.410995,65.210762 
	C95.410995,65.210762 95.106522,65.019531 95.059006,64.505424 
	C94.684029,62.453911 94.356567,60.916512 94.029106,59.379112 
	C94.460724,59.309330 94.892334,59.239552 95.777916,59.599876 
	C101.898941,61.275833 107.565994,62.521687 113.233055,63.767540 
	C113.233055,63.767544 113.110222,63.978909 113.208359,64.143120 
	C113.611549,64.509308 113.916611,64.711288 114.221672,64.913277 
	C114.749260,65.425774 115.276840,65.938271 115.941071,67.026703 
	C116.545441,67.863800 117.013176,68.124947 117.480911,68.386101 
	C117.480911,68.386101 117.508003,68.497223 117.488266,68.805351 
	C117.940376,69.413086 118.412224,69.712700 118.884079,70.012306 
	C118.884079,70.012306 119.129875,70.126877 119.241455,70.623161 
	C120.384438,70.909416 121.415848,70.699387 122.447250,70.489365 
	C122.447250,70.489365 122.556076,70.449913 122.831810,70.477066 
	C123.169296,70.210365 123.231049,69.916512 123.292801,69.622665 
	C123.292801,69.622665 123.402130,69.501617 123.765076,69.502075 
	C124.403114,68.979057 124.678215,68.455566 124.953308,67.932076 
	C124.953308,67.932076 124.997375,67.991417 125.204315,67.873016 
	C125.580482,67.456329 125.749710,67.158051 125.918938,66.859772 
	C125.918938,66.859772 125.952805,66.957436 126.255074,66.913910 
	C126.965782,66.168793 127.374222,65.467194 127.782654,64.765602 
	C127.782654,64.765602 127.975922,64.988770 128.251801,64.914017 
	C133.104279,60.414455 138.837662,60.601383 144.523743,61.066097 
	C145.824509,61.172409 147.025635,62.498249 148.272614,63.262821 
	C148.272614,63.262821 148.128723,63.108330 147.919281,63.233543 
	C147.470261,63.901470 147.230652,64.444183 146.991043,64.986893 
	C146.991043,64.986893 147.000000,65.000000 146.637405,65.035530 
	C145.383804,66.512543 144.492798,67.954018 143.601791,69.395493 
	C143.601791,69.395493 143.501709,69.417671 143.170258,69.441025 
	C142.589691,70.015366 142.340591,70.566338 142.091492,71.117310 
	C142.091492,71.117310 142.013977,71.027176 141.701416,71.072708 
	C140.602356,72.426743 139.815857,73.735229 139.029358,75.043716 
	C139.029373,75.043724 138.997864,75.002647 138.670807,75.063950 
	C137.950226,75.876328 137.556717,76.627396 137.163193,77.378464 
	C137.163193,77.378464 137.073914,77.749191 136.575989,77.874512 
	C134.045212,79.481522 132.032288,82.190735 129.975937,82.224113 
	C122.606285,82.343773 115.221931,81.557610 107.843132,81.113968 
	C107.843132,81.113960 107.973862,81.036560 107.956360,80.719620 
	C106.461746,78.799858 104.984627,77.197029 103.507515,75.594193 
	C103.507515,75.594193 103.473724,75.477203 103.498703,75.167801 
	C103.220070,74.706871 102.916458,74.555351 102.612846,74.403831 
	C102.612846,74.403831 102.809006,74.183861 102.775665,73.918701 
	C102.095253,73.133904 101.448181,72.614273 100.801102,72.094635 
	C100.477852,72.000671 100.245987,71.800728 100.047256,70.897583 
	C98.961296,69.203094 97.933601,68.105843 96.905907,67.008591 
	C96.905907,67.008591 96.756058,66.891502 96.692963,66.426743 
	C96.223579,65.711571 95.817291,65.461166 95.410995,65.210762 
z"/>
<path fill="#324A87" opacity="1.000000" stroke="none" 
	d="
M332.082397,250.872925 
	C326.738129,251.874359 323.613190,249.709091 320.976959,245.690887 
	C318.084442,241.282135 314.606781,237.257294 311.271942,232.919296 
	C321.004242,229.844025 328.077240,233.107803 333.358978,242.281372 
	C338.759399,233.171860 345.857697,230.042038 355.725769,232.842117 
	C351.186218,238.593597 347.136078,244.691925 342.014648,249.693298 
	C340.202393,251.463058 335.777374,250.557312 332.082397,250.872925 
z"/>
<path fill="#304988" opacity="1.000000" stroke="none" 
	d="
M579.281555,62.146667 
	C572.470215,68.930283 565.707336,75.764206 558.789856,82.437813 
	C557.860718,83.334236 556.164246,83.772011 554.801514,83.820961 
	C550.166504,83.987473 545.521790,83.884636 539.575012,83.884636 
	C545.445740,75.251190 550.801758,67.297386 556.309998,59.450432 
	C556.671570,58.935375 558.196716,59.237133 559.359131,59.478722 
	C559.398621,60.156490 559.259644,60.514473 559.120667,60.872459 
	C559.271362,60.920242 559.420044,61.001999 559.572998,61.010906 
	C566.142273,61.393547 572.711914,61.769711 579.281555,62.146667 
z"/>
<path fill="#20387C" opacity="1.000000" stroke="none" 
	d="
M380.322479,94.476219 
	C380.963776,95.760460 381.932434,97.496391 381.936401,99.234535 
	C382.023041,137.161804 382.088470,175.089752 381.894440,213.016220 
	C381.869965,217.803024 383.119720,219.409851 387.966888,219.101517 
	C394.428314,218.690475 400.948364,218.752594 407.418671,219.086823 
	C411.680817,219.306992 413.398346,218.224533 413.102234,213.624756 
	C412.696991,207.329605 412.925110,200.987198 413.056885,194.668701 
	C413.088165,193.168304 413.815247,191.682404 414.619263,190.096802 
	C415.016266,200.114578 415.016266,210.225388 415.016266,220.577545 
	C403.204498,220.577545 391.968872,220.577545 380.200500,220.577545 
	C380.200500,178.625092 380.200500,136.777023 380.322479,94.476219 
z"/>
<path fill="#273C74" opacity="1.000000" stroke="none" 
	d="
M386.627625,318.999634 
	C386.627716,298.208282 386.627716,277.916962 386.627716,257.389526 
	C394.936035,257.389526 402.824829,257.389526 410.954285,257.389526 
	C410.954285,288.826813 410.954285,320.053711 410.954285,351.552612 
	C402.888580,351.552612 394.994659,351.552612 386.627563,351.552612 
	C386.627563,340.748535 386.627563,330.124084 386.627625,318.999634 
M388.001221,311.500000 
	C388.001068,322.994507 388.075897,334.489868 387.949707,345.983002 
	C387.916779,348.981537 388.852051,350.197876 391.947632,350.050842 
	C396.102844,349.853485 400.297852,349.730774 404.432922,350.081451 
	C408.751953,350.447693 410.140411,349.133881 410.104065,344.598663 
	C409.886353,317.446716 409.999573,290.292175 409.984894,263.138489 
	C409.984100,261.687622 409.830322,260.236816 409.759918,258.999542 
	C403.741974,258.999542 398.081665,259.187592 392.441559,258.931335 
	C388.871246,258.769104 387.906097,260.096924 387.938141,263.523071 
	C388.084656,279.180878 388.001709,294.840820 388.001221,311.500000 
z"/>
<path fill="#20387C" opacity="1.000000" stroke="none" 
	d="
M197.457504,219.925766 
	C198.812469,219.521484 200.571487,219.038330 202.331802,219.033615 
	C222.291199,218.980072 242.251389,218.918655 262.209717,219.073730 
	C265.848755,219.102005 267.322571,218.181503 267.073242,214.341415 
	C266.756104,209.457214 267.166656,204.526199 266.859131,199.640823 
	C266.642822,196.204071 265.592773,193.710098 260.872253,193.866135 
	C248.577332,194.272537 236.259979,194.016479 223.951721,193.980820 
	C222.480469,193.976547 221.010025,193.701035 219.252197,193.240540 
	C235.369446,192.929825 251.773682,192.929825 268.869720,192.929825 
	C268.869720,200.673096 268.869720,208.393661 268.589661,216.768692 
	C268.416412,218.262299 268.523163,219.101440 268.629913,219.940613 
	C267.276642,220.234344 265.924072,220.780197 264.570007,220.783966 
	C244.636597,220.839584 224.702927,220.847595 204.769547,220.790558 
	C202.466415,220.783951 200.164597,220.320663 197.457504,219.925766 
z"/>
<path fill="#FC1F02" opacity="1.000000" stroke="none" 
	d="
M790.711182,141.649826 
	C789.731506,142.207993 788.372253,142.951874 787.011597,142.954407 
	C752.747009,143.018097 718.482361,143.008804 684.217651,142.977158 
	C683.277466,142.976303 682.337646,142.587524 681.218201,142.061951 
	C682.024048,141.636475 683.009338,141.434311 683.994629,141.434509 
	C719.440063,141.441330 754.885498,141.467041 790.711182,141.649826 
z"/>
<path fill="#2D3B7A" opacity="1.000000" stroke="none" 
	d="
M672.901367,350.533844 
	C680.065491,350.125885 687.328918,350.125885 695.000000,350.125885 
	C695.000000,346.885986 695.000000,344.585907 695.000000,342.285858 
	C695.000000,316.166382 694.958008,290.046753 695.043396,263.927582 
	C695.056824,259.820740 694.382446,257.802887 689.385681,258.761200 
	C685.049561,259.592834 680.435852,258.977081 675.378296,258.789795 
	C674.627136,258.308777 674.380737,258.119629 674.072388,258.011139 
	C681.184937,257.560455 688.297546,257.109741 695.819641,256.633118 
	C695.819641,288.610016 695.819641,319.920959 695.819641,352.174957 
	C688.241821,351.765442 680.621216,351.353638 672.901367,350.533844 
z"/>
<path fill="#F72011" opacity="1.000000" stroke="none" 
	d="
M637.981995,113.473251 
	C638.406067,114.765862 638.953857,116.509789 638.960938,118.255905 
	C639.027039,134.566544 639.147766,150.879761 638.903992,167.187012 
	C638.837402,171.644073 639.898804,173.139877 644.646545,173.111069 
	C679.097900,172.902039 713.551086,172.992233 748.003723,173.017242 
	C749.809509,173.018555 751.615234,173.287872 753.700195,173.743378 
	C715.865906,174.096420 677.752380,174.139725 639.638916,174.165771 
	C639.180908,174.166077 638.722778,173.943787 637.854919,173.719498 
	C637.854919,153.778076 637.854919,133.851837 637.981995,113.473251 
z"/>
<path fill="#20387C" opacity="1.000000" stroke="none" 
	d="
M559.979492,350.038696 
	C575.070374,350.025024 590.162415,349.903229 605.251221,350.075195 
	C608.928040,350.117096 610.105286,349.079773 610.088440,345.322876 
	C610.037964,334.003998 610.194519,334.083923 598.962280,333.967560 
	C593.718811,333.913269 588.479248,333.477783 582.970459,332.829285 
	C591.504089,332.362885 600.305176,332.282288 609.728760,332.442444 
	C610.351257,332.683197 610.787354,332.831848 610.787354,332.831848 
	C610.787354,332.831848 611.239075,332.740540 611.239075,332.740540 
	C611.239075,332.740540 611.140930,332.778320 611.106689,333.148560 
	C611.260376,334.658691 611.448242,335.798584 611.636108,336.938477 
	C611.661316,339.540131 611.686584,342.141815 611.403809,345.467773 
	C610.416687,347.996918 609.737488,349.801819 609.058350,351.606689 
	C593.334106,351.660065 577.609924,351.713440 561.312988,351.511963 
	C560.527527,351.087891 560.289551,350.969452 560.014038,350.686005 
	C560.001709,350.470276 559.979492,350.038696 559.979492,350.038696 
z"/>
<path fill="#42538A" opacity="1.000000" stroke="none" 
	d="
M488.797546,265.363983 
	C489.328094,266.241394 489.924133,267.475037 489.926971,268.710083 
	C489.981628,292.487640 489.971161,316.265320 489.946716,340.042969 
	C489.945892,340.846924 489.659119,341.650604 489.200134,342.744873 
	C488.618317,341.942871 488.102722,340.850891 488.100739,339.757965 
	C488.057648,315.883209 488.066650,292.008301 488.096191,268.133484 
	C488.097198,267.329071 488.416107,266.525085 488.797546,265.363983 
z"/>
<path fill="#20387C" opacity="1.000000" stroke="none" 
	d="
M581.709229,330.515869 
	C581.077942,329.753998 580.070068,328.534912 580.064880,327.311523 
	C579.970886,305.202148 579.987549,283.092224 580.036133,260.982544 
	C580.038086,260.087860 580.585388,259.194397 581.236572,258.163696 
	C581.662781,282.036896 581.731079,306.046783 581.709229,330.515869 
z"/>
<path fill="#233877" opacity="1.000000" stroke="none" 
	d="
M483.668335,265.644562 
	C483.254852,267.653503 482.928833,269.218994 482.602814,270.784485 
	C482.402008,270.800262 482.201202,270.816071 482.000397,270.831879 
	C482.000397,268.355652 481.807007,265.860565 482.046051,263.407654 
	C482.397034,259.806244 480.836273,258.909302 477.446136,258.937653 
	C460.800720,259.076965 444.153442,259.023438 427.507050,258.967621 
	C425.732330,258.961670 423.959167,258.497589 421.862427,257.905701 
	C421.539551,257.565369 421.644073,257.547852 422.015198,257.707214 
	C423.245667,257.696381 424.105011,257.526215 424.964386,257.356018 
	C443.346344,257.303101 461.728271,257.250122 480.763702,257.466064 
	C482.121124,257.837921 482.825073,257.940857 483.529022,258.043823 
	C483.604614,260.429565 483.680206,262.815338 483.668335,265.644562 
z"/>
<path fill="#20387C" opacity="1.000000" stroke="none" 
	d="
M219.479858,170.716888 
	C220.574417,170.085709 222.123474,169.090958 223.684174,169.072357 
	C234.993774,168.937454 246.312500,168.772751 257.613617,169.110275 
	C262.178864,169.246597 263.219574,167.710098 263.114532,163.435043 
	C262.966217,157.398041 263.601257,151.341797 264.263153,145.165070 
	C264.683624,152.722488 264.742340,160.408630 264.564911,168.733719 
	C264.150848,169.690613 264.162109,170.001816 264.362488,170.306290 
	C264.362488,170.306290 264.353729,170.214966 263.817688,170.213287 
	C262.947540,170.276810 262.613434,170.341995 262.279297,170.407196 
	C248.166107,170.539886 234.052933,170.672562 219.479858,170.716888 
z"/>
<path fill="#233877" opacity="1.000000" stroke="none" 
	d="
M217.503922,121.054947 
	C218.606659,120.447815 220.154343,119.115334 221.718933,119.095207 
	C234.810303,118.926804 247.904922,118.965523 260.998138,119.030914 
	C263.364563,119.042740 265.728973,119.462608 268.252075,120.084549 
	C268.409821,120.474998 268.331299,120.454964 267.942932,120.294388 
	C266.383911,120.300552 265.213318,120.467300 264.042694,120.634048 
	C248.680695,120.735329 233.318710,120.836609 217.503922,121.054947 
z"/>
<path fill="#233670" opacity="1.000000" stroke="none" 
	d="
M185.963531,107.476112 
	C186.377396,108.253326 186.957443,109.487724 186.959503,110.723083 
	C187.011414,141.942108 187.004578,173.161224 186.991089,204.380325 
	C186.990799,205.029327 186.789749,205.678223 186.416138,206.640518 
	C186.042923,202.652496 185.846085,198.351212 185.843460,194.049774 
	C185.825974,165.344452 185.849915,136.639084 185.963531,107.476112 
z"/>
<path fill="#2D3B7A" opacity="1.000000" stroke="none" 
	d="
M302.563354,257.326599 
	C302.992462,286.328552 302.961182,315.431366 303.080444,344.533539 
	C303.089203,346.664948 304.186768,348.791870 304.885620,351.268188 
	C303.930450,350.890289 301.939850,350.166412 301.938812,349.439667 
	C301.894867,318.769012 302.028473,288.098145 302.563354,257.326599 
z"/>
<path fill="#233670" opacity="1.000000" stroke="none" 
	d="
M559.584839,349.938324 
	C559.979492,350.038696 560.001709,350.470276 559.981934,350.859039 
	C559.962158,351.247803 559.973022,351.596619 559.973022,351.596619 
	C559.525818,351.656158 559.078552,351.715698 558.209351,351.536072 
	C557.600464,351.123169 557.379639,351.028564 557.124939,351.013031 
	C557.031616,335.755371 556.898254,320.497833 556.856201,305.240021 
	C556.813660,289.804626 556.861572,274.368927 556.967285,258.474274 
	C557.376648,259.910645 557.956177,261.805511 557.960327,263.701660 
	C558.018555,290.581451 557.975464,317.461487 558.049011,344.341187 
	C558.054016,346.174500 558.792725,348.005737 559.584839,349.938324 
z"/>
<path fill="#2D3B7A" opacity="1.000000" stroke="none" 
	d="
M321.395081,351.709869 
	C321.670319,349.339783 322.847321,347.074524 322.907593,344.779907 
	C323.134094,336.157654 322.982941,327.525848 323.001678,318.897644 
	C323.009644,315.236084 323.277985,312.013550 328.561157,313.854980 
	C330.488739,314.526794 332.757812,314.218750 334.918396,314.709320 
	C331.685333,315.060883 328.404938,315.060883 324.376831,315.060883 
	C324.376831,321.646851 324.375763,328.019775 324.377197,334.392700 
	C324.378265,339.191711 324.533905,343.999207 324.267059,348.783173 
	C324.208557,349.832092 322.651245,350.797394 321.395081,351.709869 
z"/>
<path fill="#42538A" opacity="1.000000" stroke="none" 
	d="
M503.425720,351.725494 
	C504.537506,351.087891 506.104431,350.118896 507.680267,350.104065 
	C520.785706,349.980743 533.892822,350.033478 547.490295,350.296143 
	C548.006104,350.910706 548.030945,351.262177 548.055786,351.613647 
	C533.332153,351.687897 518.608582,351.762146 503.425720,351.725494 
z"/>
<path fill="#42538A" opacity="1.000000" stroke="none" 
	d="
M144.897629,135.447601 
	C154.007523,135.010498 163.108719,135.010498 173.572281,135.010498 
	C172.105835,128.631180 170.591385,122.043037 169.119736,115.035660 
	C173.315353,121.307922 174.309616,128.711487 174.381851,136.821426 
	C164.681534,136.821426 155.283432,136.831055 145.885635,136.781952 
	C145.551834,136.780212 145.221085,136.196945 144.897629,135.447601 
z"/>
<path fill="#233877" opacity="1.000000" stroke="none" 
	d="
M547.051025,313.558228 
	C546.624084,310.993042 546.079407,307.972290 546.038452,304.944763 
	C545.917175,296.001099 545.995117,296.000061 537.088501,296.000000 
	C530.300110,295.999939 523.510498,296.065918 516.724121,295.948700 
	C515.213623,295.922638 513.714294,295.251678 512.092957,294.493469 
	C522.843750,294.156128 533.711304,294.202911 545.327026,294.545166 
	C546.349731,294.888519 546.624268,294.936432 546.898804,294.984314 
	C546.987061,301.022736 547.075256,307.061157 547.051025,313.558228 
z"/>
<path fill="#233670" opacity="1.000000" stroke="none" 
	d="
M267.558228,92.963440 
	C267.621643,93.506157 267.224945,94.312508 266.830536,94.311378 
	C245.420303,94.250153 224.010208,94.125252 202.600266,93.985596 
	C201.618866,93.979202 200.638748,93.777733 199.350159,93.393661 
	C221.727936,93.030243 244.413574,92.940277 267.558228,92.963440 
z"/>
<path fill="#20387C" opacity="1.000000" stroke="none" 
	d="
M454.875916,219.321503 
	C466.323944,218.953857 477.803223,218.932007 489.763916,218.843857 
	C490.245392,218.777573 490.269470,218.739868 490.125580,218.990326 
	C489.650574,219.716675 489.319427,220.192566 488.988281,220.668488 
	C478.605316,220.717056 468.222260,220.796585 457.839508,220.763611 
	C456.860901,220.760513 455.884552,220.049576 454.875916,219.321503 
z"/>
<path fill="#42538A" opacity="1.000000" stroke="none" 
	d="
M107.961197,81.481773 
	C115.221931,81.557610 122.606285,82.343773 129.975937,82.224113 
	C132.032288,82.190735 134.045212,79.481522 136.423203,77.988586 
	C134.597672,82.801437 131.020554,84.634377 125.670746,84.027863 
	C121.405983,83.544365 117.031021,84.111115 112.729530,83.832504 
	C111.143288,83.729767 109.627296,82.542297 107.961197,81.481773 
z"/>
<path fill="#233670" opacity="1.000000" stroke="none" 
	d="
M548.474976,351.670013 
	C548.030945,351.262177 548.006104,350.910706 547.954346,350.296173 
	C548.259827,344.661346 548.727112,339.290039 548.744690,333.917267 
	C548.746765,333.282379 546.293945,332.110687 544.962280,332.085754 
	C536.148010,331.920746 527.329102,332.021240 518.511841,331.983673 
	C516.869080,331.976685 515.227295,331.735992 513.296082,331.301697 
	C525.243469,331.000214 537.479858,331.000214 550.179016,331.000214 
	C550.179016,337.451141 550.213684,343.705109 550.123047,349.957306 
	C550.114380,350.552826 549.322449,351.136963 548.474976,351.670013 
z"/>
<path fill="#233877" opacity="1.000000" stroke="none" 
	d="
M673.956177,258.466431 
	C674.380737,258.119629 674.627136,258.308777 674.911987,258.792725 
	C675.008972,275.324951 675.017822,291.643066 674.985352,307.961090 
	C674.981750,309.772003 674.742371,311.582489 674.315186,313.682922 
	C673.958618,295.622345 673.899292,277.272064 673.956177,258.466431 
z"/>
<path fill="#233670" opacity="1.000000" stroke="none" 
	d="
M513.439514,277.161560 
	C514.690308,276.706696 516.398743,276.067566 518.114319,276.047882 
	C527.086304,275.944885 536.061707,275.901764 545.032288,276.052551 
	C548.084656,276.103851 549.122620,275.039215 549.053467,272.016968 
	C548.951355,267.554474 549.243713,263.082977 549.656982,258.316986 
	C549.945740,264.298798 549.945740,270.578918 549.945740,277.263092 
	C537.798584,277.263092 525.849487,277.263092 513.439514,277.161560 
z"/>
<path fill="#42538A" opacity="1.000000" stroke="none" 
	d="
M148.602020,63.106361 
	C147.025635,62.498249 145.824509,61.172409 144.523743,61.066097 
	C138.837662,60.601383 133.104279,60.414455 128.146439,64.810577 
	C130.310959,60.321751 133.940201,58.368252 139.231705,59.010612 
	C142.974823,59.465012 146.817581,59.098591 151.565399,59.098591 
	C150.436249,60.749596 149.683838,61.849747 148.602020,63.106361 
z"/>
<path fill="#42538A" opacity="1.000000" stroke="none" 
	d="
M786.267090,336.456329 
	C784.769043,333.371765 782.965637,329.981842 781.822571,326.382233 
	C779.840698,320.141144 778.267517,313.770294 776.765869,307.225464 
	C780.092163,316.683563 783.175598,326.370087 786.267090,336.456329 
z"/>
<path fill="#42538A" opacity="1.000000" stroke="none" 
	d="
M776.427002,351.752808 
	C778.362976,351.113739 780.737976,350.436066 783.160217,350.083801 
	C784.853821,349.837524 786.612244,350.036285 788.614197,350.036285 
	C787.704834,345.592804 786.891663,341.619720 786.148560,337.219482 
	C787.879089,341.591614 789.539673,346.390930 791.429565,351.853119 
	C786.082642,351.853119 781.484436,351.853119 776.427002,351.752808 
z"/>
<path fill="#233670" opacity="1.000000" stroke="none" 
	d="
M576.520813,92.992737 
	C575.229858,93.418190 573.490906,93.946426 571.749268,93.955658 
	C558.160217,94.027733 544.570618,94.000031 530.516235,93.988373 
	C531.333313,93.594017 532.613586,92.891098 533.897461,92.884491 
	C547.955200,92.812080 562.013489,92.848351 576.520813,92.992737 
z"/>
<path fill="#233670" opacity="1.000000" stroke="none" 
	d="
M263.525391,142.968781 
	C262.909363,143.389130 261.838654,143.959915 260.765503,143.964569 
	C247.281143,144.023224 233.796387,144.013229 220.311890,143.969513 
	C219.365875,143.966461 218.421173,143.559326 217.280304,142.957626 
	C232.413025,142.668808 247.741318,142.762466 263.525391,142.968781 
z"/>
<path fill="#233877" opacity="1.000000" stroke="none" 
	d="
M579.539917,62.046688 
	C572.711914,61.769711 566.142273,61.393547 559.572998,61.010906 
	C559.420044,61.001999 559.271362,60.920242 559.120667,60.872459 
	C559.259644,60.514473 559.398621,60.156490 559.731567,59.584541 
	C565.318909,59.321106 570.712341,59.271629 576.654907,59.430763 
	C577.204102,59.639374 577.639832,59.703602 577.639832,59.703602 
	C577.639832,59.703602 577.968018,59.396084 577.968018,59.396084 
	C578.725403,59.326408 579.482849,59.256733 580.622437,59.510254 
	C581.004639,59.833450 581.148621,60.263554 581.148621,60.263554 
	C580.698486,60.824604 580.248352,61.385658 579.539917,62.046688 
z"/>
<path fill="#233670" opacity="1.000000" stroke="none" 
	d="
M415.035919,137.508606 
	C414.663818,137.406509 414.089569,136.842087 414.090240,136.278366 
	C414.107391,122.236656 414.185211,108.195023 414.573212,94.077202 
	C414.963318,108.349556 415.032501,122.698074 415.035919,137.508606 
z"/>
<path fill="#42538A" opacity="1.000000" stroke="none" 
	d="
M759.994995,333.001953 
	C761.254578,337.258942 762.650574,341.481812 763.725952,345.784851 
	C764.450317,348.683411 765.778992,350.677338 768.964722,351.376190 
	C767.414368,351.750214 765.795532,351.841614 764.044556,351.940460 
	C762.246033,345.733429 760.543274,339.857086 759.085327,333.523285 
	C759.551819,333.044495 759.773438,333.023224 759.994995,333.001953 
z"/>
<path fill="#233670" opacity="1.000000" stroke="none" 
	d="
M535.508423,195.134277 
	C535.745300,194.738632 536.447327,194.061447 537.146240,194.064743 
	C548.898376,194.120087 560.650085,194.260269 572.694031,194.678802 
	C560.648132,195.040451 548.310181,195.104919 535.508423,195.134277 
z"/>
<path fill="#42538A" opacity="1.000000" stroke="none" 
	d="
M113.106735,63.441833 
	C107.565994,62.521687 101.898941,61.275833 96.101074,59.665649 
	C99.563774,59.228439 103.244408,58.655869 106.719536,59.261829 
	C108.962326,59.652908 110.903870,61.771648 113.106735,63.441833 
z"/>
<path fill="#233670" opacity="1.000000" stroke="none" 
	d="
M176.003113,173.529388 
	C174.078903,172.978256 172.317993,171.223679 170.470840,171.127594 
	C162.552002,170.715729 154.607742,170.792191 146.362167,170.422012 
	C155.160797,170.043716 164.272491,170.023163 173.377731,169.770035 
	C176.104584,169.694229 176.383530,171.013931 176.003113,173.529388 
z"/>
<path fill="#233670" opacity="1.000000" stroke="none" 
	d="
M759.703796,332.702332 
	C759.773438,333.023224 759.551819,333.044495 759.004639,333.140625 
	C749.476318,333.200348 740.273438,333.185303 730.612793,333.136993 
	C730.248718,332.742188 730.345154,332.063354 730.435913,332.064117 
	C740.095093,332.143951 749.753845,332.274780 759.703796,332.702332 
z"/>
<path fill="#455C8E" opacity="1.000000" stroke="none" 
	d="
M489.384277,220.776215 
	C489.319427,220.192566 489.650574,219.716675 490.145691,219.000183 
	C491.710602,216.026749 493.111481,213.293884 494.726074,210.275391 
	C494.329193,213.349442 493.718567,216.709106 493.076721,220.382874 
	C491.957092,220.759293 490.868652,220.821625 489.384277,220.776215 
z"/>
<path fill="#455C8E" opacity="1.000000" stroke="none" 
	d="
M521.380981,220.801956 
	C523.393311,219.258362 525.826050,217.810547 528.553894,216.187866 
	C528.503662,217.544983 528.158325,219.076981 527.747925,220.897751 
	C525.611328,220.897751 523.706299,220.897751 521.380981,220.801956 
z"/>
<path fill="#42538A" opacity="1.000000" stroke="none" 
	d="
M493.125183,349.340942 
	C495.558777,349.703857 498.188507,350.357880 500.925507,351.348724 
	C498.462280,351.001068 495.891815,350.316559 493.125183,349.340942 
z"/>
<path fill="#42538A" opacity="1.000000" stroke="none" 
	d="
M140.628845,124.807076 
	C141.996979,127.492241 143.474503,130.510895 144.898544,133.961746 
	C143.476135,131.309479 142.107193,128.225021 140.628845,124.807076 
z"/>
<path fill="#42538A" opacity="1.000000" stroke="none" 
	d="
M93.690796,59.261711 
	C94.356567,60.916512 94.684029,62.453911 95.020157,64.329895 
	C93.866295,63.335999 92.703773,62.003513 91.541260,60.671028 
	C92.144997,60.162125 92.748741,59.653217 93.690796,59.261711 
z"/>
<path fill="#42538A" opacity="1.000000" stroke="none" 
	d="
M103.625092,75.889778 
	C104.984627,77.197029 106.461746,78.799858 107.905647,80.776176 
	C106.495842,79.494896 105.119255,77.840134 103.625092,75.889778 
z"/>
<path fill="#42538A" opacity="1.000000" stroke="none" 
	d="
M489.490387,345.268463 
	C491.779694,344.782684 493.343658,345.489929 492.961151,348.683594 
	C491.837738,347.898987 490.719727,346.727722 489.490387,345.268463 
z"/>
<path fill="#2D3B7A" opacity="1.000000" stroke="none" 
	d="
M669.906738,345.420776 
	C670.873962,346.531250 671.903442,347.972809 672.897705,349.801178 
	C671.897949,348.709290 670.933533,347.230621 669.906738,345.420776 
z"/>
<path fill="#42538A" opacity="1.000000" stroke="none" 
	d="
M143.848312,69.217743 
	C144.492798,67.954018 145.383804,66.512543 146.630905,65.031136 
	C146.022949,66.340805 145.058899,67.690399 143.848312,69.217743 
z"/>
<path fill="#42538A" opacity="1.000000" stroke="none" 
	d="
M96.971390,67.327454 
	C97.933601,68.105843 98.961296,69.203094 99.986526,70.669998 
	C99.001663,69.908539 98.019272,68.777428 96.971390,67.327454 
z"/>
<path fill="#2C4989" opacity="1.000000" stroke="none" 
	d="
M609.431763,351.721039 
	C609.737488,349.801819 610.416687,347.996918 611.181030,345.775848 
	C611.685852,347.722778 613.669739,350.438873 609.431763,351.721039 
z"/>
<path fill="#42538A" opacity="1.000000" stroke="none" 
	d="
M139.313202,74.893623 
	C139.815857,73.735229 140.602356,72.426743 141.754242,71.099930 
	C141.278778,72.302254 140.437912,73.522888 139.313202,74.893623 
z"/>
<path fill="#42538A" opacity="1.000000" stroke="none" 
	d="
M137.796753,121.429626 
	C138.707794,121.958275 139.728012,122.781212 140.605347,124.002151 
	C139.610291,123.508080 138.758118,122.615997 137.796753,121.429626 
z"/>
<path fill="#2D3B7A" opacity="1.000000" stroke="none" 
	d="
M667.667969,341.577576 
	C668.374390,342.303375 669.161255,343.349457 669.923340,344.772858 
	C669.181763,344.066071 668.465088,342.981964 667.667969,341.577576 
z"/>
<path fill="#2D3B7A" opacity="1.000000" stroke="none" 
	d="
M335.024994,315.338959 
	C335.583984,315.872162 336.227997,316.709534 336.780334,317.924622 
	C336.162476,317.415955 335.636230,316.529541 335.024994,315.338959 
z"/>
<path fill="#42538A" opacity="1.000000" stroke="none" 
	d="
M100.863899,72.386658 
	C101.448181,72.614273 102.095253,73.133904 102.657898,74.007286 
	C102.024544,73.800247 101.475624,73.239464 100.863899,72.386658 
z"/>
<path fill="#2D3B7A" opacity="1.000000" stroke="none" 
	d="
M665.187866,337.297058 
	C665.696228,337.588715 666.231934,338.165924 666.647827,339.072815 
	C666.090393,338.795868 665.652832,338.189240 665.187866,337.297058 
z"/>
<path fill="#2C4989" opacity="1.000000" stroke="none" 
	d="
M611.740112,336.587067 
	C611.448242,335.798584 611.260376,334.658691 611.157593,333.161804 
	C611.443115,333.948456 611.643555,335.092041 611.740112,336.587067 
z"/>
<path fill="#2B4789" opacity="1.000000" stroke="none" 
	d="
M264.395233,120.734306 
	C265.213318,120.467300 266.383911,120.300552 267.904480,120.281418 
	C267.085571,120.564217 265.916656,120.699394 264.395233,120.734306 
z"/>
<path fill="#42538A" opacity="1.000000" stroke="none" 
	d="
M127.499962,64.866501 
	C127.374222,65.467194 126.965782,66.168793 126.210739,66.887344 
	C126.315178,66.258675 126.766220,65.613045 127.499962,64.866501 
z"/>
<path fill="#42538A" opacity="1.000000" stroke="none" 
	d="
M122.124763,70.671379 
	C121.415848,70.699387 120.384438,70.909416 119.263504,70.756943 
	C120.050072,70.547432 120.926170,70.700417 122.124763,70.671379 
z"/>
<path fill="#2B4789" opacity="1.000000" stroke="none" 
	d="
M268.770447,219.595825 
	C268.523163,219.101440 268.416412,218.262299 268.510315,217.233963 
	C268.777679,217.780197 268.844330,218.515625 268.770447,219.595825 
z"/>
<path fill="#42538A" opacity="1.000000" stroke="none" 
	d="
M137.441101,77.237839 
	C137.556717,76.627396 137.950226,75.876328 138.693451,75.076218 
	C138.601776,75.717178 138.160385,76.407196 137.441101,77.237839 
z"/>
<path fill="#2D4889" opacity="1.000000" stroke="none" 
	d="
M424.640076,257.254578 
	C424.105011,257.526215 423.245667,257.696381 422.067780,257.713654 
	C422.604767,257.424896 423.460297,257.289032 424.640076,257.254578 
z"/>
<path fill="#2D4889" opacity="1.000000" stroke="none" 
	d="
M483.498169,257.732391 
	C482.825073,257.940857 482.121124,257.837921 481.229004,257.542542 
	C481.849670,257.373718 482.658508,257.397339 483.498169,257.732391 
z"/>
<path fill="#42538A" opacity="1.000000" stroke="none" 
	d="
M117.361961,68.148590 
	C117.013176,68.124947 116.545441,67.863800 116.044037,67.286392 
	C116.421249,67.283791 116.832130,67.597435 117.361961,68.148590 
z"/>
<path fill="#42538A" opacity="1.000000" stroke="none" 
	d="
M124.711533,68.037605 
	C124.678215,68.455566 124.403114,68.979057 123.813774,69.436661 
	C123.822937,68.961563 124.146347,68.552345 124.711533,68.037605 
z"/>
<path fill="#42538A" opacity="1.000000" stroke="none" 
	d="
M147.254715,64.861038 
	C147.230652,64.444183 147.470261,63.901470 148.011398,63.285103 
	C148.048080,63.719360 147.783234,64.227272 147.254715,64.861038 
z"/>
<path fill="#42538A" opacity="1.000000" stroke="none" 
	d="
M118.816505,69.766624 
	C118.412224,69.712700 117.940376,69.413086 117.543503,68.820137 
	C117.995300,68.858177 118.372116,69.189560 118.816505,69.766624 
z"/>
<path fill="#42538A" opacity="1.000000" stroke="none" 
	d="
M142.340622,70.999786 
	C142.340591,70.566338 142.589691,70.015366 143.164566,69.491974 
	C143.190155,69.973793 142.889954,70.428032 142.340622,70.999786 
z"/>
<path fill="#2D3B7A" opacity="1.000000" stroke="none" 
	d="
M666.561462,339.628418 
	C666.928223,339.763489 667.372437,340.184937 667.741638,340.960785 
	C667.324036,340.848389 666.981445,340.381561 666.561462,339.628418 
z"/>
<path fill="#2B4789" opacity="1.000000" stroke="none" 
	d="
M262.506165,170.602310 
	C262.613434,170.341995 262.947540,170.276810 263.792267,170.251465 
	C263.779572,170.460007 263.256317,170.628723 262.506165,170.602310 
z"/>
<path fill="#20387C" opacity="1.000000" stroke="none" 
	d="
M218.200867,192.746231 
	C218.068909,192.753769 217.716293,192.567078 217.189758,192.134583 
	C217.337296,192.109863 217.658752,192.330933 218.200867,192.746231 
z"/>
<path fill="#2B4789" opacity="1.000000" stroke="none" 
	d="
M264.562103,170.150497 
	C264.162109,170.001816 264.150848,169.690613 264.499359,169.199585 
	C264.700531,169.349213 264.731110,169.671967 264.562103,170.150497 
z"/>
<path fill="#2C4989" opacity="1.000000" stroke="none" 
	d="
M557.125183,351.255920 
	C557.379639,351.028564 557.600464,351.123169 557.877686,351.455933 
	C557.968018,351.614990 557.514771,351.788574 557.514771,351.788574 
	C557.514771,351.788574 557.125427,351.498840 557.125183,351.255920 
z"/>
<path fill="#2C4989" opacity="1.000000" stroke="none" 
	d="
M560.219971,351.684814 
	C559.973022,351.596619 559.962158,351.247803 559.994263,351.074768 
	C560.289551,350.969452 560.527527,351.087891 560.849609,351.424377 
	C560.794922,351.652100 560.630859,351.712555 560.219971,351.684814 
z"/>
<path fill="#304988" opacity="1.000000" stroke="none" 
	d="
M577.736084,59.298225 
	C577.968018,59.396084 577.639832,59.703602 577.639832,59.703602 
	C577.639832,59.703602 577.204102,59.639374 577.118530,59.508518 
	C577.189941,59.318562 577.347046,59.259464 577.736084,59.298225 
z"/>
<path fill="#304988" opacity="1.000000" stroke="none" 
	d="
M581.366577,60.143021 
	C581.148621,60.263554 581.004639,59.833450 580.993042,59.606995 
	C581.182495,59.594524 581.383545,59.808506 581.366577,60.143021 
z"/>
<path fill="#2C4989" opacity="1.000000" stroke="none" 
	d="
M611.119629,332.516144 
	C611.239075,332.740540 610.787354,332.831848 610.787354,332.831848 
	C610.787354,332.831848 610.351257,332.683197 610.194458,332.515167 
	C610.358459,332.328674 610.679382,332.310211 611.119629,332.516144 
z"/>
<path fill="#42538A" opacity="1.000000" stroke="none" 
	d="
M114.146469,64.645760 
	C113.916611,64.711288 113.611549,64.509308 113.250893,64.028534 
	C113.487282,63.959236 113.779274,64.168739 114.146469,64.645760 
z"/>
<path fill="#2D3B7A" opacity="1.000000" stroke="none" 
	d="
M336.642090,318.501343 
	C336.846161,318.455475 337.073853,318.616943 337.133514,318.888794 
	C336.965485,318.999115 336.665710,318.708679 336.642090,318.501343 
z"/>
<path fill="#42538A" opacity="1.000000" stroke="none" 
	d="
M95.542709,65.533798 
	C95.817291,65.461166 96.223579,65.711571 96.694740,66.331680 
	C96.397881,66.419861 96.036156,66.138351 95.542709,65.533798 
z"/>
<path fill="#2A4788" opacity="1.000000" stroke="none" 
	d="
M546.859375,294.704651 
	C546.624268,294.936432 546.349731,294.888519 545.685181,294.682617 
	C545.803528,294.491425 546.311768,294.458191 546.859375,294.704651 
z"/>
<path fill="#42538A" opacity="1.000000" stroke="none" 
	d="
M125.664078,66.947083 
	C125.749710,67.158051 125.580482,67.456329 125.169670,67.860168 
	C125.088463,67.655281 125.248840,67.344833 125.664078,66.947083 
z"/>
<path fill="#42538A" opacity="1.000000" stroke="none" 
	d="
M123.130959,69.691803 
	C123.231049,69.916512 123.169296,70.210365 122.851219,70.422531 
	C122.641541,70.097168 122.766281,69.903854 123.130959,69.691803 
z"/>
<path fill="#42538A" opacity="1.000000" stroke="none" 
	d="
M102.662399,74.621429 
	C102.916458,74.555351 103.220070,74.706871 103.449646,75.131744 
	C103.073830,75.310875 102.852608,75.122192 102.662399,74.621429 
z"/>
<path fill="#F2F4F8" opacity="1.000000" stroke="none" 
	d="
M543.845947,161.650330 
	C547.081482,149.960800 550.218262,138.656860 553.354980,127.352936 
	C553.673340,127.320824 553.991638,127.288712 554.309937,127.256599 
	C558.117493,140.528687 561.925049,153.800781 566.114075,168.402634 
	C558.404846,168.528839 551.310059,169.326706 544.408875,168.502884 
	C540.253479,168.006836 543.766724,164.294693 543.845947,161.650330 
z"/>
<path fill="#F2F4F8" opacity="1.000000" stroke="none" 
	d="
M747.663208,312.828369 
	C743.575195,312.829224 739.940918,312.829224 735.409912,312.829224 
	C738.254333,302.600098 740.951843,292.899261 743.649353,283.198456 
	C743.962219,283.218567 744.275024,283.238678 744.587891,283.258759 
	C747.277710,292.895630 749.967590,302.532501 752.766052,312.558472 
	C750.967041,312.662598 749.541992,312.745056 747.663208,312.828369 
z"/>
<path fill="#F6F8FA" opacity="1.000000" stroke="none" 
	d="
M330.186768,274.164246 
	C334.279388,274.450043 337.974182,274.405640 341.523346,275.102661 
	C346.393951,276.059174 348.781708,279.469116 348.922791,284.398529 
	C349.063110,289.302002 346.745697,292.696625 341.810944,293.844452 
	C337.560455,294.833130 333.171143,295.284882 328.819733,295.758148 
	C326.037872,296.060699 324.492462,294.739044 324.533325,291.717743 
	C324.609222,286.111359 324.555084,280.503235 324.555084,274.478729 
	C326.539246,274.358124 328.131622,274.261353 330.186768,274.164246 
z"/>
<path fill="#FCFCFD" opacity="1.000000" stroke="none" 
	d="
M272.194702,311.108459 
	C270.587616,316.227722 269.800720,321.385193 267.301117,325.503052 
	C260.384430,336.897430 243.904633,336.723175 237.670593,324.936401 
	C230.480682,311.342377 230.458252,296.874268 237.564667,283.246002 
	C244.033356,270.840759 261.186005,271.242340 268.081940,283.568695 
	C272.797516,291.997711 273.582886,301.217712 272.194702,311.108459 
z"/>
<path fill="#FCFCFD" opacity="1.000000" stroke="none" 
	d="
M183.109283,287.697021 
	C182.359222,293.569733 178.913345,296.340698 173.753448,296.762909 
	C169.345367,297.123596 164.884369,296.837524 160.155853,296.837524 
	C160.155853,289.858063 160.155853,283.013824 160.155853,276.024017 
	C165.338211,276.024017 170.301590,275.621033 175.169571,276.130219 
	C180.741287,276.713013 183.028519,280.356354 183.109283,287.697021 
z"/>
<path fill="#2A4689" opacity="1.000000" stroke="none" 
	d="
M388.001221,311.000000 
	C388.001709,294.840820 388.084656,279.180878 387.938141,263.523071 
	C387.906097,260.096924 388.871246,258.769104 392.441559,258.931335 
	C398.081665,259.187592 403.741974,258.999542 409.759918,258.999542 
	C409.830322,260.236816 409.984100,261.687622 409.984894,263.138489 
	C409.999573,290.292175 409.886353,317.446716 410.104065,344.598663 
	C410.140411,349.133881 408.751953,350.447693 404.432922,350.081451 
	C400.297852,349.730774 396.102844,349.853485 391.947632,350.050842 
	C388.852051,350.197876 387.916779,348.981537 387.949707,345.983002 
	C388.075897,334.489868 388.001068,322.994507 388.001221,311.000000 
z"/>
</svg>