<?xml version="1.0" standalone="no"?>
<!DOCTYPE svg PUBLIC "-//W3C//DTD SVG 20010904//EN"
 "http://www.w3.org/TR/2001/REC-SVG-20010904/DTD/svg10.dtd">
<svg version="1.0" xmlns="http://www.w3.org/2000/svg"
 width="542.000000pt" height="244.000000pt" viewBox="0 0 542.000000 244.000000"
 preserveAspectRatio="xMidYMid meet">
<metadata>
Created by potrace 1.16, written by Peter Selinger 2001-2019
</metadata>
<g transform="translate(0.000000,244.000000) scale(0.100000,-0.100000)"
fill="#000000" stroke="none">
<path d="M4248 2327 c-68 -41 -98 -113 -78 -187 47 -173 284 -172 330 1 39
145 -124 264 -252 186z"/>
<path d="M210 2131 c0 -15 137 -178 155 -185 24 -9 74 -7 94 3 26 14 141 157
141 175 0 12 -10 16 -42 16 -40 0 -56 -7 -122 -54 -25 -18 -27 -18 -52 0 -68
48 -81 54 -126 54 -27 0 -48 -4 -48 -9z"/>
<path d="M3257 2118 c-37 -34 -137 -157 -137 -168 0 -6 24 -10 53 -10 l52 0
84 84 c97 98 101 116 22 116 -38 0 -56 -5 -74 -22z"/>
<path d="M315 1901 c-98 -16 -196 -85 -239 -170 -46 -89 -62 -329 -30 -456 32
-128 111 -218 216 -250 61 -18 263 -21 321 -4 61 17 77 39 77 109 l0 60 -150
0 c-185 0 -212 8 -241 76 -27 60 -36 213 -20 310 23 131 47 145 259 152 l152
5 0 51 c0 63 -18 92 -68 106 -51 14 -216 21 -277 11z"/>
<path d="M1557 1900 c-59 -15 -111 -46 -146 -86 -42 -47 -51 -73 -51 -142 0
-140 45 -194 242 -293 149 -75 175 -98 158 -143 -5 -14 -21 -31 -35 -36 -15
-6 -105 -10 -201 -10 l-174 0 0 -51 c0 -104 75 -134 309 -127 155 6 187 16
257 80 102 94 96 272 -11 367 -37 32 -127 80 -228 121 -31 13 -66 32 -77 42
-26 24 -26 60 0 83 17 16 44 19 180 23 l160 5 0 49 c0 65 -11 82 -62 103 -51
20 -261 30 -321 15z"/>
<path d="M3951 1900 c-40 -9 -77 -35 -105 -74 -20 -25 -21 -43 -24 -252 l-3
-224 390 0 391 0 0 -45 0 -45 -390 0 -390 0 0 -55 c0 -31 6 -70 14 -88 17 -42
66 -83 114 -97 50 -13 724 -13 774 0 48 14 97 55 114 97 10 24 14 88 14 243
l0 210 -395 0 -395 0 0 45 0 45 395 0 395 0 0 53 c-1 72 -29 129 -81 164 l-43
28 -370 2 c-204 1 -386 -2 -405 -7z"/>
<path d="M742 1877 c-22 -23 -22 -26 -22 -421 l0 -397 25 -24 24 -25 251 0
c299 0 290 -4 290 110 l0 70 -190 0 -190 0 0 95 0 95 160 0 160 0 0 85 0 85
-160 0 -160 0 0 85 0 85 149 0 c145 0 197 8 213 33 4 7 8 42 8 80 l0 67 -268
0 c-268 0 -269 0 -290 -23z"/>
<path d="M2097 1882 c-15 -17 -17 -62 -17 -445 l0 -427 100 0 100 0 2 197 3
198 133 -187 c73 -103 141 -192 152 -198 11 -6 103 -10 219 -10 235 0 215 -10
252 133 l23 87 116 0 116 0 23 -87 c35 -135 33 -133 151 -133 68 0 100 4 100
11 0 23 -232 854 -242 867 -8 8 -50 12 -149 12 -121 0 -139 -2 -148 -17 -12
-24 -231 -818 -231 -840 -1 -17 -1 -17 -11 0 -6 11 -76 109 -155 219 -79 110
-144 203 -144 207 0 4 65 96 145 205 80 109 145 204 145 212 0 11 -22 14 -108
14 -100 0 -110 -2 -129 -22 -11 -13 -73 -101 -139 -196 l-119 -173 -3 195 -2
196 -84 0 c-68 0 -86 -3 -99 -18z m1124 -355 l36 -132 -75 -3 c-41 -2 -76 -1
-78 0 -1 2 14 65 34 140 20 76 39 135 42 132 3 -3 21 -65 41 -137z"/>
<path d="M2256 824 c-3 -9 -6 -130 -6 -270 l0 -254 50 0 50 0 0 270 0 270 -44
0 c-31 0 -46 -5 -50 -16z"/>
<path d="M1672 755 c-14 -30 -30 -47 -47 -51 -19 -5 -25 -13 -25 -35 0 -24 4
-29 25 -29 l25 0 0 -135 c0 -184 11 -205 108 -205 57 0 68 7 77 43 7 26 6 27
-34 27 -55 0 -61 15 -61 154 l0 116 50 0 50 0 0 35 0 35 -50 0 -50 0 0 45 c0
40 -2 45 -23 45 -17 0 -28 -11 -45 -45z"/>
<path d="M113 710 c-43 -14 -83 -63 -83 -103 0 -52 32 -92 97 -121 88 -41 108
-53 112 -72 6 -32 -28 -44 -121 -44 -85 0 -88 -1 -88 -23 0 -40 18 -47 117
-47 111 0 154 17 179 68 20 43 13 96 -17 128 -11 12 -47 33 -78 45 -81 33
-103 48 -99 73 3 19 10 21 96 24 89 3 92 4 92 26 0 13 -7 29 -15 36 -20 16
-149 23 -192 10z"/>
<path d="M523 701 c-34 -16 -42 -17 -47 -5 -3 9 -20 14 -46 14 l-40 0 0 -265
0 -265 45 0 45 0 0 82 c0 81 0 81 20 63 14 -12 41 -20 78 -23 77 -5 120 22
145 93 23 65 19 185 -9 240 -37 75 -114 102 -191 66z m87 -81 c26 -26 33 -58
28 -137 -4 -57 -8 -69 -32 -89 -32 -28 -44 -29 -91 -10 l-35 15 0 109 c0 103
1 110 23 120 36 17 85 14 107 -8z"/>
<path d="M905 711 c-47 -12 -71 -31 -97 -75 -32 -56 -34 -203 -3 -255 34 -58
67 -75 148 -79 132 -6 187 53 187 202 0 136 -49 202 -157 211 -26 2 -61 1 -78
-4z m97 -72 c55 -30 67 -195 16 -248 -26 -29 -88 -28 -114 0 -16 18 -19 37
-19 116 0 91 1 96 28 119 31 26 57 30 89 13z"/>
<path d="M1350 709 c-13 -6 -32 -17 -41 -25 -15 -13 -17 -13 -22 6 -4 16 -13
20 -46 20 l-41 0 0 -205 0 -205 50 0 50 0 0 150 c0 169 -3 162 83 175 l48 7
-3 42 c-3 36 -6 41 -28 43 -14 1 -36 -2 -50 -8z"/>
<path d="M1955 705 c-72 -26 -105 -88 -105 -201 0 -148 56 -204 205 -204 72 0
88 3 105 20 41 41 28 50 -70 50 -83 0 -93 2 -115 25 -14 13 -25 31 -25 39 0 8
-3 21 -6 30 -5 14 9 16 121 16 l127 0 -4 80 c-3 73 -6 82 -34 111 -47 47 -125
60 -199 34z"/>
<path d="M2589 711 c-14 -5 -35 -13 -46 -19 -17 -9 -22 -9 -27 3 -3 10 -19 15
-46 15 l-40 0 0 -205 0 -205 45 0 45 0 0 158 0 159 25 11 c39 18 90 15 108 -6
14 -16 17 -43 17 -170 l0 -152 45 0 45 0 0 165 c0 188 -8 217 -65 241 -37 15
-66 17 -106 5z"/>
<path d="M2900 713 c-33 -7 -50 -21 -50 -44 0 -16 8 -19 58 -19 61 0 129 -13
143 -27 5 -5 12 -23 15 -41 6 -31 5 -32 -28 -32 -58 0 -151 -29 -180 -57 -37
-36 -45 -82 -22 -130 11 -21 30 -43 44 -50 37 -19 111 -16 153 6 27 14 37 15
37 6 0 -16 22 -25 61 -25 l29 0 0 155 c0 178 -9 214 -62 241 -33 17 -149 27
-198 17z"/>
<path d="M1460 506 l0 -206 45 0 45 0 -2 203 -3 202 -42 3 -43 3 0 -205z"/>
</g>
</svg>
