<?xml version="1.0" encoding="UTF-8"?>
<!DOCTYPE svg PUBLIC "-//W3C//DTD SVG 1.1//EN" "http://www.w3.org/Graphics/SVG/1.1/DTD/svg11.dtd">
<svg xmlns="http://www.w3.org/2000/svg" version="1.1" width="542px" height="244px" style="shape-rendering:geometricPrecision; text-rendering:geometricPrecision; image-rendering:optimizeQuality; fill-rule:evenodd; clip-rule:evenodd" xmlns:xlink="http://www.w3.org/1999/xlink">
<g><path style="opacity:0.95" fill="#000000" d="M 427.5,8.5 C 444.632,7.12648 451.799,14.7931 449,31.5C 443.998,41.5036 436.165,44.6703 425.5,41C 414.728,33.2522 413.061,23.9189 420.5,13C 422.898,11.4758 425.231,9.97576 427.5,8.5 Z"/></g>
<g><path style="opacity:0.878" fill="#000000" d="M 20.5,29.5 C 23.8499,29.335 27.1832,29.5017 30.5,30C 33.9681,31.9698 37.3015,34.1365 40.5,36.5C 43.6985,34.1365 47.0319,31.9698 50.5,30C 53.4816,29.502 56.4816,29.3354 59.5,29.5C 59.6567,30.8734 59.49,32.2068 59,33.5C 54.8333,38.3333 50.6667,43.1667 46.5,48C 42.5,50 38.5,50 34.5,48C 28.8244,42.5051 24.1577,36.3384 20.5,29.5 Z"/></g>
<g><path style="opacity:0.866" fill="#000000" d="M 327.5,29.5 C 330.85,29.335 334.183,29.5017 337.5,30C 338.517,31.0495 338.684,32.2161 338,33.5C 332.833,38.6667 327.667,43.8333 322.5,49C 318.789,49.8253 315.122,49.6586 311.5,48.5C 316.164,41.5113 321.497,35.1779 327.5,29.5 Z"/></g>
<g><path style="opacity:0.948" fill="#000000" d="M 35.5,52.5 C 44.7317,52.1122 53.7317,53.2788 62.5,56C 63.7014,56.9025 64.5348,58.0692 65,59.5C 65.4986,63.1516 65.6653,66.8183 65.5,70.5C 57.16,70.3336 48.8267,70.5003 40.5,71C 34.1632,70.7507 29.3299,73.2507 26,78.5C 23.1444,90.0915 22.811,101.758 25,113.5C 25.7718,119.235 28.9385,122.735 34.5,124C 44.828,124.5 55.1613,124.666 65.5,124.5C 65.6655,128.514 65.4988,132.514 65,136.5C 62.7322,139.722 59.5655,141.556 55.5,142C 19.835,148.651 2.16834,133.985 2.5,98C 0.763515,82.5653 5.43018,69.5653 16.5,59C 22.4588,55.2925 28.7921,53.1258 35.5,52.5 Z"/></g>
<g><path style="opacity:0.946" fill="#000000" d="M 158.5,52.5 C 164.842,52.3338 171.175,52.5005 177.5,53C 182.519,53.1176 187.185,54.4509 191.5,57C 192.126,57.7504 192.626,58.5838 193,59.5C 193.499,63.1516 193.665,66.8183 193.5,70.5C 182.456,70.1811 171.456,70.6811 160.5,72C 156.369,76.026 156.702,79.6927 161.5,83C 169.739,86.119 177.739,89.7857 185.5,94C 198.582,103.493 201.749,115.66 195,130.5C 189.964,136.879 183.464,140.713 175.5,142C 164.783,142.875 154.116,142.541 143.5,141C 135.457,138.423 132.457,132.923 134.5,124.5C 146.505,124.667 158.505,124.5 170.5,124C 177.072,120.957 177.739,116.957 172.5,112C 163.833,107.667 155.167,103.333 146.5,99C 135.973,90.4009 132.806,79.5676 137,66.5C 142.188,58.6641 149.355,53.9974 158.5,52.5 Z"/></g>
<g><path style="opacity:0.949" fill="#000000" d="M 397.5,52.5 C 415.64,52.8699 433.64,52.8699 451.5,52.5C 458.894,52.4083 466.227,52.9083 473.5,54C 482.611,59.1234 486.278,66.9567 484.5,77.5C 458.167,77.5 431.833,77.5 405.5,77.5C 405.5,80.5 405.5,83.5 405.5,86.5C 431.833,86.5 458.167,86.5 484.5,86.5C 484.667,100.837 484.5,115.171 484,129.5C 482.257,134.91 478.757,138.744 473.5,141C 460.053,142.13 446.553,142.63 433,142.5C 419.447,142.63 405.947,142.13 392.5,141C 383.005,136.06 379.339,128.226 381.5,117.5C 407.5,117.5 433.5,117.5 459.5,117.5C 459.5,114.5 459.5,111.5 459.5,108.5C 433.5,108.5 407.5,108.5 381.5,108.5C 381.333,94.1628 381.5,79.8295 382,65.5C 384.643,58.014 389.809,53.6807 397.5,52.5 Z"/></g>
<g><path style="opacity:0.944" fill="#000000" d="M 75.5,53.5 C 93.5,53.5 111.5,53.5 129.5,53.5C 129.666,58.1785 129.499,62.8452 129,67.5C 128.5,68.6667 127.667,69.5 126.5,70C 115.244,71.4334 103.91,71.9334 92.5,71.5C 92.5,77.1667 92.5,82.8333 92.5,88.5C 103.167,88.5 113.833,88.5 124.5,88.5C 124.5,94.1667 124.5,99.8333 124.5,105.5C 113.833,105.5 103.167,105.5 92.5,105.5C 92.5,111.833 92.5,118.167 92.5,124.5C 105.167,124.5 117.833,124.5 130.5,124.5C 130.666,129.179 130.499,133.845 130,138.5C 129.5,140.333 128.333,141.5 126.5,142C 109.833,142.667 93.1667,142.667 76.5,142C 75.0692,141.535 73.9025,140.701 73,139.5C 71.3511,112.253 71.0178,84.92 72,57.5C 73.3756,56.2949 74.5423,54.9616 75.5,53.5 Z"/></g>
<g><path style="opacity:0.955" fill="#000000" d="M 210.5,53.5 C 216.167,53.5 221.833,53.5 227.5,53.5C 227.333,66.5043 227.5,79.5043 228,92.5C 236.779,79.3883 245.945,66.5549 255.5,54C 262.826,53.5003 270.159,53.3337 277.5,53.5C 277.159,56.5158 275.993,59.1825 274,61.5C 265.011,72.8122 256.511,84.4789 248.5,96.5C 258.862,111.029 269.028,125.696 279,140.5C 286.319,111.386 294.486,82.553 303.5,54C 312.833,53.3333 322.167,53.3333 331.5,54C 340.987,83.106 349.32,112.606 356.5,142.5C 349.825,142.666 343.158,142.5 336.5,142C 334.683,140.2 333.516,138.034 333,135.5C 331.67,130.516 330.504,125.516 329.5,120.5C 321.5,120.5 313.5,120.5 305.5,120.5C 304.496,125.516 303.33,130.516 302,135.5C 301.484,138.034 300.317,140.2 298.5,142C 284.833,142.667 271.167,142.667 257.5,142C 255.714,141.215 254.214,140.049 253,138.5C 244.912,126.657 236.579,114.991 228,103.5C 227.5,116.496 227.333,129.496 227.5,142.5C 220.833,142.5 214.167,142.5 207.5,142.5C 207.333,113.831 207.5,85.1647 208,56.5C 209.045,55.6266 209.878,54.6266 210.5,53.5 Z M 316.5,76.5 C 317.117,76.6107 317.617,76.944 318,77.5C 320.273,86.4286 322.773,95.262 325.5,104C 320.136,104.829 314.802,104.663 309.5,103.5C 312.306,94.609 314.639,85.609 316.5,76.5 Z"/></g>
<g><path style="opacity:0.814" fill="#000000" d="M 118.5,158.5 C 123.347,157.84 127.181,159.507 130,163.5C 132.682,158.764 136.515,157.431 141.5,159.5C 138.645,162.52 135.979,165.687 133.5,169C 131.167,169.667 128.833,169.667 126.5,169C 123.452,165.71 120.785,162.21 118.5,158.5 Z"/></g>
<g><path style="opacity:0.9" fill="#000000" d="M 146.5,159.5 C 149.167,159.5 151.833,159.5 154.5,159.5C 154.5,162.5 154.5,165.5 154.5,168.5C 151.5,168.5 148.5,168.5 145.5,168.5C 145.264,165.391 145.597,162.391 146.5,159.5 Z"/></g>
<g><path style="opacity:0.841" fill="#000000" d="M 225.5,159.5 C 228.5,159.5 231.5,159.5 234.5,159.5C 234.5,177.5 234.5,195.5 234.5,213.5C 231.167,213.5 227.833,213.5 224.5,213.5C 224.193,195.453 224.527,177.453 225.5,159.5 Z"/></g>
<g><path style="opacity:0.903" fill="#000000" d="M 168.5,163.5 C 170.167,163.5 171.833,163.5 173.5,163.5C 173.5,166.5 173.5,169.5 173.5,172.5C 176.833,172.5 180.167,172.5 183.5,172.5C 183.5,174.833 183.5,177.167 183.5,179.5C 180.167,179.5 176.833,179.5 173.5,179.5C 173.334,187.507 173.5,195.507 174,203.5C 174.374,204.416 174.874,205.25 175.5,206C 178.146,206.497 180.813,206.664 183.5,206.5C 183.55,209.198 182.55,211.364 180.5,213C 175.771,213.996 171.271,213.496 167,211.5C 166.333,210.167 165.667,208.833 165,207.5C 164.5,198.173 164.334,188.839 164.5,179.5C 162.833,179.5 161.167,179.5 159.5,179.5C 159.5,177.5 159.5,175.5 159.5,173.5C 161.582,173.528 163.416,172.861 165,171.5C 166.454,168.929 167.62,166.262 168.5,163.5 Z"/></g>
<g><path style="opacity:0.876" fill="#000000" d="M 13.5,171.5 C 18.9127,171.229 24.2461,171.729 29.5,173C 31.229,174.789 31.8957,176.956 31.5,179.5C 25.4908,179.334 19.4908,179.501 13.5,180C 12.1667,181.667 12.1667,183.333 13.5,185C 18.3489,187.59 23.3489,189.924 28.5,192C 34.7236,197.844 35.0569,204.01 29.5,210.5C 27.8333,211.333 26.1667,212.167 24.5,213C 17.8333,213.667 11.1667,213.667 4.5,213C 2.77099,211.211 2.10433,209.044 2.5,206.5C 8.50924,206.666 14.5092,206.499 20.5,206C 23.473,204.776 24.1397,202.776 22.5,200C 17.1667,197.333 11.8333,194.667 6.5,192C -0.394843,181.964 1.93849,175.131 13.5,171.5 Z"/></g>
<g><path style="opacity:0.911" fill="#000000" d="M 55.5,171.5 C 65.785,171.284 71.6183,176.284 73,186.5C 74.1819,194.147 73.1819,201.48 70,208.5C 65.4256,213.15 59.9256,214.65 53.5,213C 51.1523,212.654 49.3189,211.487 48,209.5C 47.5006,214.823 47.334,220.156 47.5,225.5C 44.5,225.5 41.5,225.5 38.5,225.5C 38.5,207.833 38.5,190.167 38.5,172.5C 41.1873,172.336 43.854,172.503 46.5,173C 47.1258,173.75 47.6258,174.584 48,175.5C 50.5138,173.996 53.0138,172.662 55.5,171.5 Z M 51.5,179.5 C 57.156,178.243 60.9893,180.243 63,185.5C 63.8508,191.253 63.5174,196.92 62,202.5C 57.7356,207.45 53.069,207.783 48,203.5C 47.1687,196.144 47.3354,188.811 48.5,181.5C 49.7387,181.058 50.7387,180.391 51.5,179.5 Z"/></g>
<g><path style="opacity:0.895" fill="#000000" d="M 92.5,171.5 C 102.917,170.446 109.75,174.779 113,184.5C 113.877,191.249 113.544,197.916 112,204.5C 110.373,209.062 107.206,211.895 102.5,213C 82.736,215.229 74.5693,206.396 78,186.5C 79.387,177.949 84.2204,172.949 92.5,171.5 Z M 93.5,178.5 C 99.4468,177.946 102.947,180.613 104,186.5C 104.772,191.904 104.439,197.238 103,202.5C 100.089,206.277 96.2558,207.444 91.5,206C 89.5125,204.681 88.3459,202.848 88,200.5C 87.1392,194.415 87.4725,188.415 89,182.5C 90.3968,180.93 91.8968,179.596 93.5,178.5 Z"/></g>
<g><path style="opacity:0.858" fill="#000000" d="M 136.5,171.5 C 138.467,171.261 140.301,171.594 142,172.5C 142.497,175.146 142.664,177.813 142.5,180.5C 138.073,180.551 133.907,181.551 130,183.5C 129.5,193.494 129.334,203.494 129.5,213.5C 126.167,213.5 122.833,213.5 119.5,213.5C 119.5,199.833 119.5,186.167 119.5,172.5C 122.187,172.336 124.854,172.503 127.5,173C 128.191,174.067 128.691,175.234 129,176.5C 131.17,174.177 133.67,172.51 136.5,171.5 Z"/></g>
<g><path style="opacity:0.898" fill="#000000" d="M 198.5,171.5 C 214.877,171.221 221.544,179.221 218.5,195.5C 210.14,195.169 201.807,195.502 193.5,196.5C 193.875,200.763 195.875,203.929 199.5,206C 205.491,206.499 211.491,206.666 217.5,206.5C 217.528,208.582 216.861,210.416 215.5,212C 189.908,217.406 180.074,207.239 186,181.5C 188.432,175.882 192.599,172.549 198.5,171.5 Z M 199.5,178.5 C 207.04,178.372 210.373,182.039 209.5,189.5C 204.125,189.828 198.792,189.495 193.5,188.5C 194.003,184.144 196.003,180.811 199.5,178.5 Z"/></g>
<g><path style="opacity:0.918" fill="#000000" d="M 260.5,171.5 C 267.358,170.714 272.191,173.381 275,179.5C 275.5,190.828 275.667,202.162 275.5,213.5C 272.5,213.5 269.5,213.5 266.5,213.5C 266.666,203.161 266.5,192.828 266,182.5C 261.863,178.841 257.363,178.508 252.5,181.5C 251.501,192.146 251.168,202.813 251.5,213.5C 248.5,213.5 245.5,213.5 242.5,213.5C 242.5,199.833 242.5,186.167 242.5,172.5C 245.187,172.336 247.854,172.503 250.5,173C 251.126,173.75 251.626,174.584 252,175.5C 254.738,173.711 257.572,172.378 260.5,171.5 Z"/></g>
<g><path style="opacity:0.89" fill="#000000" d="M 291.5,171.5 C 295.514,171.334 299.514,171.501 303.5,172C 309.648,172.476 313.482,175.643 315,181.5C 315.5,192.161 315.667,202.828 315.5,213.5C 313.143,213.663 310.81,213.497 308.5,213C 307.151,212.228 306.318,211.061 306,209.5C 300,213.718 293.5,214.552 286.5,212C 279.577,204.956 279.91,198.289 287.5,192C 293.612,189.611 299.945,188.444 306.5,188.5C 306.775,184.79 305.442,181.957 302.5,180C 296.565,178.761 290.565,178.261 284.5,178.5C 284.535,173.798 286.868,171.465 291.5,171.5 Z M 298.5,194.5 C 301.167,194.5 303.833,194.5 306.5,194.5C 307.687,204.59 303.354,208.09 293.5,205C 290.833,202.333 290.833,199.667 293.5,197C 295.315,196.243 296.981,195.41 298.5,194.5 Z"/></g>
<g><path style="opacity:0.929" fill="#000000" d="M 145.5,172.5 C 148.448,172.223 151.281,172.556 154,173.5C 154.5,186.829 154.667,200.163 154.5,213.5C 151.5,213.5 148.5,213.5 145.5,213.5C 145.5,199.833 145.5,186.167 145.5,172.5 Z"/></g>
</svg>
