<?xml version="1.0" standalone="no"?>
<!DOCTYPE svg PUBLIC "-//W3C//DTD SVG 20010904//EN"
 "http://www.w3.org/TR/2001/REC-SVG-20010904/DTD/svg10.dtd">
<svg version="1.0" xmlns="http://www.w3.org/2000/svg"
 width="542.000000pt" height="244.000000pt" viewBox="0 0 542.000000 244.000000"
 preserveAspectRatio="xMidYMid meet">

<g transform="translate(0.000000,244.000000) scale(0.100000,-0.100000)"
fill="#000000" stroke="none">
<path d="M4260 2328 c-59 -31 -82 -65 -88 -132 -12 -141 133 -230 253 -156 73
45 98 169 49 238 -25 34 -98 72 -139 72 -17 0 -51 -10 -75 -22z"/>
<path d="M220 2124 c0 -9 64 -89 109 -136 31 -33 41 -38 81 -38 40 0 50 5 81
38 45 47 109 127 109 136 0 14 -108 6 -120 -9 -7 -9 -26 -25 -42 -36 l-29 -21
-46 36 c-39 30 -54 36 -95 36 -26 0 -48 -3 -48 -6z"/>
<path d="M3200 2048 c-38 -46 -70 -86 -70 -90 0 -5 24 -8 54 -8 l54 0 75 82
c42 45 73 86 71 90 -3 4 -30 8 -59 8 l-54 0 -71 -82z"/>
<path d="M348 1898 c-74 -7 -158 -41 -199 -80 -77 -72 -119 -198 -119 -355 0
-307 126 -453 391 -453 178 0 239 30 239 119 l0 49 -159 4 c-178 3 -195 9
-236 79 -18 30 -20 52 -20 194 0 179 8 211 59 248 28 20 45 22 194 25 l162 4
0 47 c0 53 -20 88 -58 102 -41 16 -179 25 -254 17z"/>
<path d="M770 1893 c-39 -14 -40 -24 -40 -438 0 -396 0 -402 21 -421 19 -17
41 -19 238 -22 306 -5 321 1 321 124 l0 54 -190 0 -190 0 0 100 0 100 160 0
160 0 0 80 0 80 -160 0 -160 0 0 90 0 90 165 0 c201 0 205 2 205 105 l0 65
-257 -1 c-142 0 -265 -3 -273 -6z"/>
<path d="M1555 1893 c-152 -33 -229 -169 -179 -316 24 -72 85 -123 236 -197
146 -72 170 -96 153 -147 -15 -41 -64 -51 -247 -52 l-158 -1 0 -48 c0 -90 59
-117 260 -117 165 0 228 17 294 79 50 46 66 90 66 179 0 135 -62 200 -284 293
-124 52 -151 90 -101 139 24 24 27 25 186 25 l161 0 -4 57 c-6 63 -24 85 -86
103 -36 10 -256 12 -297 3z"/>
<path d="M2130 1893 c-8 -3 -23 -12 -32 -21 -17 -14 -18 -48 -18 -434 0 -230
1 -418 3 -419 1 0 46 -2 99 -5 l98 -6 2 202 3 202 131 -184 c73 -101 140 -190
149 -198 12 -10 51 -16 123 -18 99 -4 105 -3 100 14 -3 11 -73 115 -157 231
l-152 212 73 98 c139 189 228 315 228 324 0 5 -47 9 -104 9 l-104 0 -28 -33
c-16 -18 -81 -108 -144 -200 l-115 -166 -3 200 -2 199 -68 -1 c-37 0 -74 -3
-82 -6z"/>
<path d="M3044 1892 c-11 -7 -244 -835 -244 -866 0 -13 13 -16 69 -16 121 0
128 3 150 75 11 35 23 79 26 99 4 20 12 39 18 43 12 8 225 6 237 -2 4 -3 11
-21 15 -41 3 -20 15 -64 26 -99 22 -72 29 -75 150 -75 62 0 69 2 69 19 0 21
-225 845 -235 861 -7 12 -264 13 -281 2z m180 -353 c20 -74 36 -138 36 -142 0
-4 -37 -7 -83 -7 l-83 0 40 150 c22 83 43 147 47 143 4 -5 23 -69 43 -144z"/>
<path d="M3925 1886 c-44 -19 -80 -60 -93 -104 -7 -24 -12 -114 -12 -231 l0
-191 395 0 395 0 0 -55 0 -55 -396 0 -397 0 6 -60 c7 -79 31 -118 92 -150 l49
-25 366 0 c421 0 435 2 486 78 l29 42 3 213 3 212 -395 0 -396 0 0 50 0 50
396 0 397 0 -6 60 c-10 90 -45 145 -110 169 -44 17 -773 14 -812 -3z"/>
<path d="M1200 841 c0 -4 18 -29 41 -55 53 -60 75 -60 128 2 23 26 41 50 41
55 0 13 -47 7 -60 -9 -29 -34 -49 -36 -81 -10 -30 25 -69 35 -69 17z"/>
<path d="M1470 819 c-6 -11 -10 -30 -8 -42 2 -18 10 -23 46 -25 l42 -3 0 45
c0 46 0 46 -35 46 -24 0 -37 -6 -45 -21z"/>
<path d="M2267 833 c-4 -3 -7 -125 -7 -270 l0 -263 40 0 40 0 0 270 0 270 -33
0 c-19 0 -37 -3 -40 -7z"/>
<path d="M1678 755 c-15 -30 -31 -48 -51 -54 -22 -8 -28 -16 -25 -33 2 -15 11
-24 24 -26 21 -3 22 -9 26 -141 3 -109 7 -143 21 -164 33 -51 149 -47 155 5 3
25 0 27 -40 30 l-43 3 -3 138 -3 137 46 0 c43 0 45 1 45 30 0 29 -2 30 -45 30
l-45 0 0 45 c0 38 -3 45 -20 45 -14 0 -27 -14 -42 -45z"/>
<path d="M92 695 c-45 -19 -68 -73 -52 -121 10 -29 64 -84 83 -84 4 0 32 -12
62 -26 52 -25 56 -29 53 -58 -4 -37 -22 -44 -130 -45 -71 -1 -78 -3 -78 -21 0
-28 37 -40 123 -40 82 0 148 24 168 61 6 13 12 40 12 61 0 51 -38 91 -110 118
-74 27 -93 41 -93 67 0 32 29 43 114 43 80 0 89 7 56 40 -17 17 -33 20 -97 20
-45 -1 -92 -7 -111 -15z"/>
<path d="M390 445 l0 -265 45 0 45 0 0 80 0 80 37 -20 c50 -26 102 -26 144 3
52 34 73 87 73 182 1 134 -49 205 -146 205 -24 0 -56 -8 -74 -19 -30 -18 -31
-18 -42 0 -8 13 -24 19 -47 19 l-35 0 0 -265z m224 176 c43 -48 43 -185 0
-228 -26 -25 -68 -30 -109 -11 -25 11 -25 13 -25 124 0 128 3 133 76 134 28 0
46 -6 58 -19z"/>
<path d="M870 691 c-67 -35 -102 -142 -80 -244 26 -128 143 -184 260 -124 62
31 83 71 88 171 3 70 0 87 -20 126 -33 64 -76 90 -152 90 -41 0 -73 -6 -96
-19z m149 -60 c25 -25 34 -75 29 -158 -4 -57 -8 -69 -32 -89 -35 -31 -80 -31
-110 -1 -44 44 -44 200 0 248 23 26 87 26 113 0z"/>
<path d="M1210 506 l0 -206 40 0 40 0 0 150 c0 170 -2 166 90 177 l50 6 0 40
0 40 -46 -6 c-28 -3 -54 -13 -67 -25 l-21 -21 -11 22 c-7 15 -21 23 -43 25
l-32 3 0 -205z"/>
<path d="M1462 508 l3 -203 40 0 40 0 3 189 c2 130 -1 193 -9 202 -6 8 -27 14
-45 14 l-34 0 2 -202z"/>
<path d="M1950 699 c-68 -27 -106 -110 -97 -215 6 -86 32 -133 87 -161 76 -39
230 -27 230 18 0 17 -8 19 -62 19 -90 0 -135 15 -153 50 -24 46 -20 70 13 71
15 0 70 1 122 2 l95 2 3 57 c4 74 -16 118 -67 146 -42 24 -125 29 -171 11z
m132 -66 c11 -10 18 -30 18 -55 l0 -38 -80 0 c-87 0 -90 2 -70 57 6 15 18 34
27 41 24 17 83 15 105 -5z"/>
<path d="M2430 504 l0 -205 43 3 42 3 3 155 c2 131 5 157 19 168 22 16 108 16
122 -1 6 -8 12 -75 13 -168 l3 -154 43 -3 42 -3 0 161 c0 172 -7 203 -52 234
-32 23 -115 21 -155 -4 -32 -19 -33 -19 -43 0 -8 14 -21 20 -45 20 l-35 0 0
-206z"/>
<path d="M2878 700 c-10 -6 -18 -20 -18 -30 0 -18 7 -20 76 -20 72 0 111 -10
126 -34 10 -14 10 -66 1 -66 -39 0 -143 -25 -174 -40 -46 -24 -59 -46 -59 -99
0 -31 7 -49 29 -73 27 -30 34 -33 89 -33 46 0 67 5 90 22 29 21 30 21 35 3 5
-20 47 -36 72 -26 12 4 15 30 14 148 0 224 -19 251 -172 256 -53 1 -99 -2
-109 -8z m192 -253 c0 -48 -3 -55 -25 -65 -62 -28 -125 -6 -125 43 0 44 34 62
138 74 8 1 12 -16 12 -52z"/>
</g>
</svg>
