<svg width="24" height="24" viewBox="0 0 24 24" fill="none" xmlns="http://www.w3.org/2000/svg"><path fill-rule="evenodd" clip-rule="evenodd" d="M21 12.024c0-.614-.052-1.226-.158-1.83h-8.66v3.466h4.96a4.162 4.162 0 0 1-1.834 2.735v2.25h2.96C20.001 17.078 21 14.762 21 12.024Z" fill="#4285F4"/><path fill-rule="evenodd" clip-rule="evenodd" d="M12.182 20.818c2.478 0 4.565-.797 6.086-2.172l-2.96-2.25c-.824.547-1.885.86-3.126.86-2.395 0-4.428-1.583-5.155-3.715h-3.05v2.319c1.56 3.04 4.734 4.958 8.205 4.958Z" fill="#34A853"/><path fill-rule="evenodd" clip-rule="evenodd" d="M7.027 13.54a5.29 5.29 0 0 1 0-3.444V7.777h-3.05a8.84 8.84 0 0 0 0 8.082l3.05-2.318Z" fill="#FBBC04"/><path fill-rule="evenodd" clip-rule="evenodd" d="M12.182 6.381a5.041 5.041 0 0 1 3.523 1.35l2.62-2.569a8.923 8.923 0 0 0-6.143-2.343c-3.471 0-6.646 1.918-8.204 4.958l3.05 2.319c.726-2.133 2.759-3.715 5.154-3.715Z" fill="#EA4335"/></svg>
