<?xml version="1.0" standalone="no"?>
<!DOCTYPE svg PUBLIC "-//W3C//DTD SVG 20010904//EN"
 "http://www.w3.org/TR/2001/REC-SVG-20010904/DTD/svg10.dtd">
<svg version="1.0" xmlns="http://www.w3.org/2000/svg"
 width="550.000000pt" height="340.000000pt" viewBox="0 0 550.000000 340.000000"
 preserveAspectRatio="xMidYMid meet">

<g transform="translate(0.000000,340.000000) scale(0.100000,-0.100000)"
fill="#000000" stroke="none">
<path d="M1142 2429 c-117 -15 -249 -77 -340 -160 -109 -100 -192 -269 -192
-391 l0 -38 109 0 108 0 5 -48 c15 -159 162 -304 338 -334 l70 -12 0 -102 0
-103 58 6 c189 17 371 122 471 272 76 116 95 180 95 326 0 106 -3 128 -27 188
-85 217 -277 367 -508 397 -84 11 -99 11 -187 -1z m195 -410 c55 -27 89 -68
108 -131 60 -202 -222 -343 -363 -182 -51 57 -69 118 -52 178 36 128 185 194
307 135z"/>
<path d="M2076 2324 c-14 -14 -16 -73 -16 -499 0 -426 2 -485 16 -499 20 -20
53 -20 82 0 l22 15 0 477 c0 416 -2 480 -16 500 -18 26 -65 30 -88 6z"/>
<path d="M3536 2322 c-15 -17 -16 -63 -14 -503 l3 -483 27 -15 c20 -12 34 -13
55 -5 l28 9 3 494 c1 356 -1 498 -9 507 -17 20 -73 17 -93 -4z"/>
<path d="M4155 2320 c-76 -12 -182 -53 -234 -91 -124 -89 -137 -275 -25 -367
57 -47 149 -70 370 -92 303 -31 364 -59 364 -165 0 -88 -70 -148 -213 -180
-130 -29 -295 -13 -396 37 -45 23 -82 64 -100 111 -9 23 -16 27 -49 27 -55 0
-78 -27 -62 -74 53 -162 346 -263 610 -211 115 22 142 32 208 75 65 41 100 88
120 156 17 58 15 85 -9 149 -41 109 -126 143 -437 174 -232 24 -244 26 -295
58 -114 71 -72 206 80 258 47 16 85 20 203 20 143 0 146 -1 210 -32 49 -24 71
-42 90 -72 26 -43 54 -57 89 -46 35 11 44 40 25 82 -38 79 -138 147 -251 171
-75 16 -228 22 -298 12z"/>
<path d="M2453 2295 l-23 -16 0 -460 c0 -298 4 -467 10 -480 7 -13 21 -19 43
-19 63 0 65 9 66 223 l1 127 158 0 157 0 164 -171 c91 -94 175 -175 188 -180
35 -13 73 8 73 40 0 20 -35 62 -139 171 l-139 145 49 11 c27 6 75 27 107 46
191 118 169 412 -40 519 -93 48 -121 52 -393 56 -228 4 -263 2 -282 -12z m578
-118 c97 -37 157 -132 146 -229 -11 -91 -76 -147 -197 -173 -93 -20 -430 -22
-430 -2 -1 16 -1 421 0 427 0 3 98 3 217 0 175 -5 227 -9 264 -23z"/>
<path d="M4330 1055 c0 -103 2 -115 19 -125 29 -15 61 -12 61 5 0 9 -9 15 -25
15 -24 0 -25 3 -25 55 0 48 2 55 20 55 11 0 20 7 20 15 0 8 -9 15 -20 15 -17
0 -20 7 -20 40 0 29 -4 40 -15 40 -12 0 -15 -19 -15 -115z"/>
<path d="M2070 965 c0 -104 2 -125 15 -125 11 0 15 11 15 43 0 43 0 43 34 39
60 -7 76 10 76 81 0 36 -5 68 -12 75 -7 7 -38 12 -70 12 l-58 0 0 -125z m111
88 c15 -85 7 -103 -41 -103 l-40 0 0 55 0 55 40 0 c22 0 41 -3 41 -7z"/>
<path d="M2450 1075 c0 -11 12 -15 45 -15 33 0 45 -4 45 -15 0 -11 -11 -15
-36 -15 -50 0 -74 -15 -74 -49 0 -42 28 -61 88 -61 l52 0 0 69 c0 85 -12 101
-76 101 -32 0 -44 -4 -44 -15z m92 -95 c-4 -27 -8 -30 -42 -30 -27 0 -40 5
-44 17 -9 23 19 43 59 43 29 0 31 -2 27 -30z"/>
<path d="M2790 1022 c0 -86 17 -108 80 -99 40 5 41 4 38 -21 -3 -25 -7 -27
-55 -30 -38 -2 -53 -7 -53 -18 0 -10 13 -14 49 -14 75 0 81 11 81 141 0 119
-17 152 -22 42 l-3 -68 -42 -3 -43 -3 0 70 c0 56 -3 71 -15 71 -12 0 -15 -14
-15 -68z"/>
<path d="M3167 1083 c-4 -3 -7 -42 -7 -85 0 -59 3 -79 13 -76 7 3 13 29 15 71
3 67 3 67 32 67 l30 0 0 -70 c0 -40 4 -70 10 -70 6 0 10 30 10 71 l0 70 33 -3
32 -3 3 -68 c2 -48 7 -67 15 -64 19 6 21 114 2 143 -14 22 -22 24 -99 24 -45
0 -86 -3 -89 -7z"/>
<path d="M3602 1078 c-20 -20 -15 -128 6 -144 25 -19 122 -19 122 1 0 12 -13
15 -55 15 -50 0 -55 2 -55 23 0 21 4 22 55 19 l55 -4 0 39 c0 51 -14 63 -70
63 -25 0 -51 -5 -58 -12z m106 -40 c3 -15 -4 -18 -42 -18 -40 0 -46 3 -46 21
0 18 5 20 42 17 31 -2 44 -8 46 -20z"/>
<path d="M3960 1004 c0 -64 3 -85 13 -82 7 3 13 29 15 72 l3 67 42 -3 42 -3 3
-67 c2 -38 7 -68 12 -68 15 0 12 144 -2 158 -7 7 -38 12 -70 12 l-58 0 0 -86z"/>
<path d="M4633 1083 c-7 -2 -13 -19 -13 -38 0 -32 1 -33 60 -46 45 -10 60 -17
58 -29 -2 -11 -19 -16 -61 -18 -42 -2 -57 -7 -57 -17 0 -12 14 -15 58 -15 66
0 82 11 82 55 0 29 -3 32 -56 45 -30 8 -55 20 -55 25 0 6 26 11 56 13 40 2 55
7 55 17 0 12 -14 15 -57 14 -32 0 -64 -3 -70 -6z"/>
</g>
</svg>
