<svg version="1.1" id="Layer_1" xmlns="http://www.w3.org/2000/svg" xmlns:xlink="http://www.w3.org/1999/xlink" x="0px" y="0px"
	 width="100%" viewBox="0 0 2000 820" enable-background="new 0 0 2000 820" xml:space="preserve">
<path fill="#FFFFFF" opacity="1.000000" stroke="none" 
	d="
M1563.000000,821.000000 
	C1042.000122,821.000000 521.500183,821.000000 1.000210,821.000000 
	C1.000140,547.666809 1.000140,274.333618 1.000070,1.000319 
	C667.666443,1.000213 1334.332886,1.000213 2000.999512,1.000107 
	C2000.999634,274.333038 2000.999634,547.666077 2000.999756,820.999512 
	C1855.166626,821.000000 1709.333374,821.000000 1563.000000,821.000000 
M29.024500,307.969330 
	C29.945694,321.738708 30.079691,335.614441 31.923103,349.259216 
	C40.314484,411.371582 66.327637,465.377960 109.037743,511.066071 
	C151.870804,556.885681 204.195175,586.373840 265.710052,599.274048 
	C284.654572,603.246948 303.767426,605.578552 324.062683,605.346375 
	C359.892944,606.026428 394.845551,600.518066 428.116119,587.434265 
	C529.560669,547.540405 592.906799,474.345520 617.268433,367.894531 
	C621.842224,347.908844 623.707642,327.548126 623.192932,306.072876 
	C621.846375,290.168304 621.970886,273.975311 618.918213,258.405243 
	C596.404236,143.575424 529.596985,66.150269 419.809387,26.157822 
	C388.764252,14.848982 356.297913,10.248730 322.217651,11.025347 
	C299.329681,11.169091 276.698059,13.765920 254.613464,19.703506 
	C156.640961,46.044025 88.148125,106.345955 49.387947,199.944290 
	C35.258694,234.063705 28.701061,269.985840 29.024500,307.969330 
M1587.755981,311.745514 
	C1597.543457,315.864136 1607.113770,320.634003 1617.157471,323.984528 
	C1653.614502,336.146423 1691.644653,339.359863 1729.588623,343.023254 
	C1762.381714,346.189362 1795.203003,349.185150 1827.900146,353.172272 
	C1847.091309,355.512482 1865.795410,360.579498 1882.855103,370.226990 
	C1899.216675,379.479614 1910.385986,392.751190 1913.041260,411.874664 
	C1917.465698,443.739502 1905.385742,468.567749 1879.650146,486.955170 
	C1856.068970,503.803467 1828.864258,511.287598 1800.746582,515.955200 
	C1769.494751,521.143005 1738.088623,521.408875 1706.662476,517.911743 
	C1681.919678,515.158264 1657.723145,510.008118 1635.122192,499.087036 
	C1609.338867,486.628082 1589.669556,468.609955 1581.736328,439.923767 
	C1580.216553,434.428162 1576.425049,430.279449 1571.165283,427.878571 
	C1558.573486,422.130981 1546.478760,423.755829 1535.161499,431.187500 
	C1526.333984,436.984283 1522.992065,446.215424 1525.684570,456.467346 
	C1531.585083,478.933350 1543.375000,497.970215 1560.014893,514.008545 
	C1582.679932,535.854004 1610.081787,549.496582 1639.714355,558.952026 
	C1680.239258,571.883118 1721.849731,576.864563 1764.310669,575.069824 
	C1802.155029,573.470154 1839.039673,566.995056 1874.341309,552.907776 
	C1901.120850,542.221191 1925.260986,527.475647 1944.072632,505.152466 
	C1967.630615,477.197021 1975.428955,444.457458 1972.560791,408.684113 
	C1971.201904,391.733978 1966.883057,375.601074 1957.885620,360.969666 
	C1944.441895,339.107697 1924.209106,325.961212 1900.854614,316.987518 
	C1868.825562,304.680725 1835.116699,300.545532 1801.313232,297.171936 
	C1765.209229,293.568695 1729.029419,290.705444 1692.949707,286.885101 
	C1672.082642,284.675537 1651.666016,280.136932 1632.068848,272.112946 
	C1580.744995,251.098755 1582.294800,195.061218 1609.261719,167.333496 
	C1619.512817,156.793228 1631.533691,148.873749 1644.863647,142.928955 
	C1682.478027,126.153999 1722.081299,121.115456 1762.857910,123.390755 
	C1791.385620,124.982574 1819.494507,128.837006 1846.140137,139.905197 
	C1869.266357,149.511551 1889.096802,163.346222 1899.138062,187.152634 
	C1905.641846,202.571838 1918.911987,206.221634 1931.920288,203.929352 
	C1950.999512,200.567291 1958.964600,186.574738 1951.917114,168.782959 
	C1946.296509,154.593582 1938.568970,141.647049 1928.543579,130.097992 
	C1907.250000,105.568405 1880.073120,90.295441 1849.462891,81.002960 
	C1797.174561,65.129654 1743.833984,61.893440 1689.934082,70.335632 
	C1656.467773,75.577377 1624.612549,86.056740 1595.797974,104.329041 
	C1553.923706,130.882919 1529.245361,167.384811 1531.182251,218.730865 
	C1532.734375,259.880463 1550.346558,291.429840 1587.755981,311.745514 
M880.831726,373.499969 
	C880.831787,429.652435 880.860840,485.804901 880.796753,541.957275 
	C880.788330,549.325867 882.643616,555.890747 888.272949,560.807800 
	C898.050049,569.348022 909.313416,570.233276 921.003479,565.807251 
	C931.439026,561.856140 936.826355,552.767639 936.829651,540.459961 
	C936.842163,493.471222 936.834351,446.482483 936.834106,399.493744 
	C936.834106,397.574615 936.834167,395.655457 936.834167,393.805511 
	C938.090637,393.667419 938.586243,393.565369 939.081848,393.565247 
	C986.570374,393.551025 1034.059082,393.510376 1081.547119,393.657562 
	C1083.535889,393.663727 1086.042847,394.941467 1087.428955,396.440155 
	C1128.237671,440.561340 1168.922852,484.796631 1209.657349,528.986328 
	C1220.035278,540.244507 1230.117188,551.815857 1241.055664,562.505859 
	C1252.359497,573.552917 1269.811890,572.721985 1280.556641,561.600952 
	C1290.336914,551.478455 1289.675415,536.925537 1278.929932,525.323608 
	C1240.354614,483.673920 1201.782959,442.020844 1163.218018,400.361633 
	C1160.342285,397.255219 1157.529541,394.090485 1154.885132,391.171021 
	C1168.386353,387.349670 1181.691162,384.325226 1194.474365,379.820496 
	C1227.005249,368.356842 1253.876465,349.367523 1271.275757,318.761902 
	C1285.231445,294.213837 1290.377197,267.452423 1289.774902,239.552368 
	C1288.469849,179.106735 1261.730713,133.458557 1208.893921,103.785828 
	C1174.088867,84.239540 1135.954712,77.166656 1096.522217,76.929688 
	C1034.206177,76.555199 971.885437,76.977753 909.568054,76.725815 
	C894.359802,76.664330 880.575195,86.202042 880.659973,105.564636 
	C881.049744,194.541611 880.831726,283.521240 880.831726,373.499969 
M707.158875,367.499969 
	C707.159058,426.161713 707.168030,484.823486 707.147888,543.485229 
	C707.145447,550.519775 708.638550,556.997314 713.319153,562.510559 
	C720.699158,571.203369 735.147644,574.316589 747.375305,569.776733 
	C758.600891,565.609070 764.834778,556.438171 764.835510,543.928650 
	C764.844238,393.440796 764.841064,242.952957 764.841003,92.465118 
	C764.841003,90.298630 764.962830,88.123878 764.818176,85.967049 
	C764.108521,75.390556 759.560242,67.133011 749.861206,62.287640 
	C732.199402,53.464359 707.031006,62.357304 707.084900,88.522560 
	C707.275696,181.181335 707.159058,273.840759 707.158875,367.499969 
M1451.000366,534.496826 
	C1451.000366,429.515442 1451.000366,324.534058 1451.000366,219.552673 
	C1451.000366,175.393829 1450.987549,131.234955 1451.014038,87.076126 
	C1451.018311,79.961548 1449.026733,73.615646 1444.159790,68.339043 
	C1435.956299,59.444637 1422.229614,56.534443 1410.580566,61.141647 
	C1399.503784,65.522491 1393.546387,74.879181 1393.543945,88.452667 
	C1393.516235,240.259140 1393.510742,392.065613 1393.550537,543.872070 
	C1393.554688,559.747131 1402.628540,570.042053 1418.372070,571.667847 
	C1435.647705,573.451965 1452.318115,562.545044 1451.023071,542.991760 
	C1450.858276,540.503052 1451.000488,537.994141 1451.000366,534.496826 
M1581.499390,678.444702 
	C1564.511230,678.444702 1547.523071,678.427063 1530.534912,678.451538 
	C1520.890991,678.465393 1516.826294,682.499756 1516.822754,692.002319 
	C1516.813965,715.319397 1516.815552,738.636475 1516.830811,761.953552 
	C1516.831787,763.549744 1516.979980,765.145813 1517.073242,767.010132 
	C1520.256836,767.010132 1523.102905,766.711121 1525.861328,767.075378 
	C1530.861572,767.735535 1532.395264,766.079041 1532.312988,760.857361 
	C1531.987427,740.210266 1532.322754,719.553223 1532.071899,698.903992 
	C1532.014282,694.153381 1533.538086,692.819336 1538.077515,693.091980 
	C1544.051880,693.450745 1550.087646,693.509949 1556.052368,693.079163 
	C1561.096924,692.714905 1562.635132,694.294922 1562.562744,699.437561 
	C1562.276855,719.752686 1562.443604,740.074219 1562.447021,760.393372 
	C1562.448120,767.009033 1562.454590,767.009155 1569.297729,767.010132 
	C1572.080933,767.010559 1574.864136,767.010193 1577.311768,767.010193 
	C1577.311768,742.103149 1577.311768,717.685913 1577.311768,693.242126 
	C1577.281860,693.244751 1577.612793,693.190979 1577.943726,693.190552 
	C1583.772949,693.183228 1589.602295,693.162964 1595.431396,693.184937 
	C1603.992065,693.217224 1607.962769,697.135986 1607.980591,705.673096 
	C1608.013916,721.661865 1607.989868,737.650818 1607.989868,753.639648 
	C1607.989746,768.246582 1607.989990,768.246582 1623.170898,766.663818 
	C1623.287842,766.078918 1623.524658,765.445740 1623.525269,764.812256 
	C1623.546631,744.326599 1623.803955,723.836487 1623.458008,703.356750 
	C1623.219482,689.236816 1612.286743,678.906128 1597.987305,678.472290 
	C1592.828857,678.315735 1587.661987,678.445740 1581.499390,678.444702 
M1443.500854,810.010620 
	C1451.665405,810.010681 1459.829956,810.013306 1467.994507,810.010315 
	C1484.168579,810.004456 1495.000610,799.269226 1495.006836,783.193420 
	C1495.019653,750.202026 1495.010498,717.210632 1495.010498,684.219238 
	C1495.010498,682.574097 1495.010498,680.928955 1495.010498,678.864380 
	C1489.755371,678.864380 1484.880127,678.864380 1479.443726,678.864380 
	C1479.443726,680.785645 1479.443604,682.575745 1479.443726,684.365845 
	C1479.444702,702.861023 1479.465332,721.356201 1479.437988,739.851379 
	C1479.425049,748.618958 1476.060669,751.981018 1467.440674,751.988159 
	C1461.608887,751.992981 1455.776978,751.992737 1449.945190,751.988647 
	C1440.805420,751.982178 1437.184570,748.422363 1437.181519,739.413330 
	C1437.175171,720.751526 1437.244385,702.089111 1437.070312,683.428955 
	C1437.054932,681.773132 1435.653198,678.845642 1434.608643,678.709656 
	C1430.415405,678.163330 1426.109253,678.483704 1421.443970,678.483704 
	C1421.443970,698.953064 1421.433594,718.750427 1421.459839,738.547791 
	C1421.462524,740.539062 1421.571533,742.545044 1421.827393,744.518799 
	C1423.290405,755.801208 1431.211670,765.375366 1442.584106,766.342773 
	C1454.723267,767.375427 1467.388184,769.748291 1479.443237,762.965149 
	C1479.443237,769.918213 1479.512695,776.558777 1479.425415,783.197266 
	C1479.320068,791.210144 1475.389648,795.097107 1467.381714,795.140137 
	C1457.717896,795.192017 1448.053589,795.150146 1438.389404,795.149963 
	C1424.683472,795.149597 1424.680908,795.150146 1425.571899,808.877747 
	C1425.591064,809.174072 1425.877686,809.453003 1426.192139,810.010620 
	C1431.527588,810.010620 1437.014648,810.010620 1443.500854,810.010620 
M1299.296753,762.909668 
	C1306.412109,758.075317 1310.311890,751.320862 1310.387695,742.763062 
	C1310.512939,728.618347 1310.672729,714.452698 1310.057251,700.328979 
	C1309.510498,687.784424 1301.906616,679.764160 1289.289307,679.009644 
	C1274.854004,678.146484 1260.341187,678.553894 1245.861816,678.464600 
	C1237.960205,678.415894 1236.828857,679.559143 1236.828003,687.263672 
	C1236.823486,726.401062 1236.825439,765.538391 1236.825195,804.675781 
	C1236.825195,806.297363 1236.825195,807.918945 1236.825195,809.595703 
	C1242.116577,809.595703 1246.979614,809.595703 1252.395752,809.595703 
	C1252.395752,793.711243 1252.395752,778.229248 1252.395752,764.002625 
	C1257.261475,765.047058 1261.784180,766.484131 1266.397461,766.888794 
	C1272.016602,767.381653 1277.766846,767.492981 1283.358276,766.863342 
	C1288.524658,766.281494 1293.556396,764.503113 1299.296753,762.909668 
M1710.786865,683.650330 
	C1706.162354,681.970886 1701.622925,679.209351 1696.895752,678.838013 
	C1687.131592,678.070801 1677.231079,678.033875 1667.453003,678.687439 
	C1652.850586,679.663330 1644.443604,688.909668 1644.197144,703.528198 
	C1643.986450,716.018311 1644.005493,728.517090 1644.192627,741.007935 
	C1644.418457,756.072388 1655.632324,766.959656 1670.702393,767.001343 
	C1684.362061,767.039124 1698.021851,767.016968 1711.681641,766.998230 
	C1713.101074,766.996277 1714.520142,766.837708 1716.009277,766.747620 
	C1716.009277,763.255127 1715.761841,760.232544 1716.068237,757.267151 
	C1716.504517,753.047363 1714.842407,751.839478 1710.721069,751.907959 
	C1697.398193,752.129639 1684.069092,752.025818 1670.742798,751.974243 
	C1664.614258,751.950500 1660.311890,748.200867 1660.058716,742.487305 
	C1659.841431,737.581604 1660.013672,732.658630 1660.013672,728.041443 
	C1662.955933,728.595459 1665.496826,729.467163 1668.045044,729.489075 
	C1683.202759,729.619019 1698.364136,729.425049 1713.520386,729.625244 
	C1718.404419,729.689758 1720.022827,727.641968 1719.893433,723.056580 
	C1719.710327,716.565063 1719.920532,710.063477 1719.828613,703.568054 
	C1719.720459,695.922546 1717.393921,689.179749 1710.786865,683.650330 
M1126.498413,751.992126 
	C1117.169800,751.991760 1107.840576,752.058899 1098.512939,751.966003 
	C1092.812500,751.909241 1088.602417,748.125244 1088.264038,742.508789 
	C1087.970215,737.630249 1088.202881,732.719971 1088.202881,728.016296 
	C1091.023071,728.583252 1093.415161,729.462219 1095.814453,729.481873 
	C1111.305542,729.608948 1126.798340,729.496338 1142.289917,729.585754 
	C1146.205322,729.608337 1148.155273,728.263367 1148.056030,724.063416 
	C1147.883179,716.737854 1148.142456,709.402222 1147.973999,702.076538 
	C1147.684937,689.513611 1139.467163,680.007812 1126.866333,679.014221 
	C1116.281006,678.179504 1105.538940,678.082397 1094.951050,678.841431 
	C1081.403564,679.812683 1073.539551,687.792114 1072.839233,701.343506 
	C1072.127075,715.126892 1072.028564,729.004395 1072.757568,742.782715 
	C1073.537842,757.528015 1084.516968,766.974670 1099.268066,767.003113 
	C1111.428467,767.026611 1123.588989,767.007874 1135.749390,767.007874 
	C1138.512817,767.007874 1141.276245,767.007874 1144.177612,767.007874 
	C1144.177612,762.987488 1144.015869,759.649292 1144.223999,756.334351 
	C1144.425293,753.127930 1143.335449,751.769226 1139.988647,751.940796 
	C1135.834961,752.153870 1131.662109,751.992065 1126.498413,751.992126 
M1401.007202,707.545044 
	C1402.457153,686.570374 1389.091553,677.595154 1371.880371,678.392700 
	C1364.567871,678.731506 1357.226562,678.449280 1349.898438,678.449280 
	C1345.972656,678.449280 1342.046875,678.449280 1337.824097,678.449280 
	C1337.824097,682.132263 1338.023804,685.133057 1337.774292,688.095947 
	C1337.449585,691.949951 1338.716553,693.380981 1342.804321,693.270508 
	C1353.122925,692.991699 1363.454224,693.131042 1373.779907,693.192383 
	C1381.934448,693.240845 1385.460815,697.105591 1385.521240,705.276855 
	C1385.546875,708.757385 1384.375000,709.952637 1380.885376,709.884277 
	C1371.562134,709.701538 1362.231567,709.716309 1352.906738,709.853149 
	C1342.085571,710.011902 1332.164551,717.177795 1329.328125,727.408325 
	C1328.152954,731.646423 1328.069458,736.275879 1328.050781,740.729675 
	C1327.987549,755.849365 1339.060669,766.932556 1354.109741,766.996338 
	C1367.100342,767.051453 1380.091431,767.020386 1393.082275,767.001892 
	C1399.382935,766.992920 1400.993042,765.374084 1401.000610,758.996704 
	C1401.020508,742.175232 1401.007202,725.353821 1401.007202,707.545044 
M762.331421,677.932617 
	C751.208618,677.810181 739.985107,676.698730 728.988892,677.818787 
	C715.600098,679.182495 707.179443,690.256042 707.154602,703.941711 
	C707.131348,716.767883 707.084412,729.594604 707.167236,742.420288 
	C707.260925,756.931824 718.261108,767.980713 732.748962,768.163086 
	C740.077087,768.255371 747.407349,768.188110 754.736633,768.180481 
	C771.792847,768.162720 782.465027,757.571167 782.544373,740.505371 
	C782.598572,728.845398 782.575623,717.184937 782.551758,705.524780 
	C782.522705,691.358521 776.491821,682.845398 762.331421,677.932617 
M1956.609375,765.300171 
	C1965.459351,762.044434 1970.487915,755.738037 1971.189087,746.333252 
	C1971.597046,740.863953 1971.313477,735.346375 1971.591797,729.863281 
	C1971.858398,724.608765 1969.549072,722.070312 1964.408936,720.922119 
	C1947.858154,717.225281 1931.374390,713.223999 1914.900269,709.194946 
	C1913.360474,708.818420 1911.225464,707.699402 1910.804810,706.443481 
	C1908.248535,698.812561 1912.501587,693.214844 1920.602783,693.188965 
	C1932.267700,693.151733 1943.932983,693.180176 1955.598022,693.180298 
	C1968.740723,693.180420 1968.742798,693.180176 1967.766968,679.884216 
	C1967.744873,679.583740 1967.524902,679.297791 1967.362793,678.925842 
	C1966.944458,678.789307 1966.480835,678.506531 1966.016846,678.505676 
	C1949.852905,678.475952 1933.681519,678.167175 1917.527588,678.566040 
	C1905.405151,678.865417 1897.065674,686.010254 1895.366455,697.004211 
	C1894.660889,701.569763 1895.027832,706.309143 1895.002075,710.969971 
	C1894.965454,717.616333 1895.818359,718.674561 1902.147827,720.241211 
	C1919.093872,724.435669 1936.055420,728.569763 1952.960571,732.922668 
	C1954.486450,733.315552 1956.617676,734.962830 1956.829102,736.288818 
	C1958.645996,747.684509 1954.700195,752.146851 1943.270508,752.149658 
	C1929.105835,752.153137 1914.939697,752.061035 1900.778198,752.275330 
	C1899.171143,752.299622 1896.390015,753.852051 1896.216064,755.006653 
	C1895.636597,758.854126 1895.996582,762.843079 1895.996582,767.010132 
	C1912.744629,767.010132 1928.887451,767.092285 1945.028198,766.947205 
	C1948.647217,766.914734 1952.259033,766.086731 1956.609375,765.300171 
M804.515991,685.320007 
	C804.155945,688.103149 803.493896,690.885132 803.483459,693.669617 
	C803.398743,716.327576 803.435974,738.986023 803.435974,761.644287 
	C803.435974,763.276367 803.435974,764.908508 803.435974,767.014526 
	C807.173889,767.014526 810.494080,766.722595 813.741211,767.084900 
	C818.294373,767.592957 819.318787,765.731689 819.277405,761.441650 
	C819.075012,740.451355 819.288025,719.457214 819.099182,698.466675 
	C819.061584,694.281677 820.344910,692.962280 824.496582,693.102539 
	C832.817383,693.383423 841.154297,693.184082 849.484558,693.187927 
	C859.849792,693.192749 863.140320,696.513672 863.143250,706.992065 
	C863.148376,725.318604 863.127197,743.645264 863.167603,761.971680 
	C863.172424,764.151062 862.382202,767.001709 866.167358,767.007263 
	C870.275574,767.013245 874.383789,767.008545 878.855042,767.008545 
	C878.855042,765.312805 878.855042,764.174683 878.855042,763.036499 
	C878.854858,743.543701 878.895935,724.050842 878.840881,704.558228 
	C878.799683,689.975037 868.060608,678.790588 853.496704,678.490417 
	C841.006653,678.232971 828.507019,678.433594 816.011658,678.438171 
	C811.157532,678.439941 807.246460,680.153320 804.515991,685.320007 
M1008.499756,678.438965 
	C1002.166687,678.439453 995.833435,678.415100 989.500488,678.446289 
	C979.972473,678.493225 975.836670,682.631348 975.825256,692.219482 
	C975.798401,714.885193 975.816162,737.550964 975.815857,760.216675 
	C975.815796,762.335327 975.815857,764.453979 975.815857,767.012817 
	C979.548462,767.012817 982.876038,766.714722 986.127808,767.084045 
	C990.770447,767.611267 991.674316,765.531982 991.640381,761.361145 
	C991.471008,740.530029 991.707642,719.695007 991.450378,698.865723 
	C991.391602,694.102844 992.920532,692.901489 997.438904,693.086670 
	C1005.757935,693.427673 1014.100891,693.177490 1022.433899,693.185608 
	C1031.766724,693.194763 1035.424316,696.829529 1035.433228,706.173035 
	C1035.450439,724.338928 1035.426758,742.504822 1035.452881,760.670715 
	C1035.455688,762.624512 1035.676147,764.578003 1035.802856,766.649231 
	C1041.120117,766.649231 1045.998169,766.649231 1051.013672,766.649231 
	C1051.013672,745.793823 1051.025269,725.302307 1051.010010,704.810730 
	C1050.998779,689.678528 1040.165649,678.690613 1024.998535,678.454346 
	C1019.833374,678.373840 1014.665894,678.440063 1008.499756,678.438965 
M1740.993652,750.498413 
	C1740.993652,755.927429 1740.993652,761.356445 1740.993652,767.006042 
	C1744.767578,767.006042 1747.949707,766.706299 1751.052246,767.075439 
	C1755.848389,767.646057 1756.970337,765.612427 1756.929077,761.129944 
	C1756.735840,740.137695 1756.944458,719.141724 1756.756104,698.149414 
	C1756.720093,694.135925 1757.931885,692.958435 1761.872925,693.091675 
	C1770.027954,693.367249 1778.198853,693.175964 1786.363159,693.173767 
	C1797.491333,693.170776 1800.822998,696.541626 1800.825317,707.831604 
	C1800.829102,725.993103 1800.810181,744.154724 1800.849731,762.316101 
	C1800.854004,764.316223 1800.044067,766.990601 1803.587524,766.996643 
	C1807.694946,767.003662 1811.802368,766.998230 1816.175415,766.998230 
	C1816.175415,745.942749 1816.201538,725.471619 1816.166992,705.000610 
	C1816.140747,689.446777 1805.470581,678.639771 1789.865845,678.478271 
	C1778.037109,678.355835 1766.205933,678.408081 1754.376343,678.469910 
	C1745.239380,678.517639 1741.009888,682.833801 1741.000122,692.015076 
	C1740.979736,711.176331 1740.993652,730.337524 1740.993652,750.498413 
M1837.989624,712.500000 
	C1837.989502,722.161743 1838.000000,731.823486 1837.985840,741.485229 
	C1837.975708,748.318665 1840.495972,754.070496 1845.135498,759.041321 
	C1855.577148,770.229004 1868.951294,766.372620 1881.848267,766.922791 
	C1881.848267,762.802246 1881.757812,759.318176 1881.877075,755.841309 
	C1881.971924,753.074402 1880.840942,751.890564 1878.055542,751.963440 
	C1874.060425,752.067932 1870.060303,751.993958 1866.062378,751.988586 
	C1857.240234,751.976624 1853.601196,748.448608 1853.569580,739.669800 
	C1853.519165,725.677185 1853.546875,711.684204 1853.574463,697.691467 
	C1853.576904,696.424500 1853.818481,695.158142 1854.021362,693.190979 
	C1861.817139,693.190979 1869.347656,693.190979 1876.896973,693.190979 
	C1876.896973,688.030640 1876.896973,683.612427 1876.896973,679.291748 
	C1869.084717,679.291748 1861.561157,679.291748 1853.411499,679.291748 
	C1853.411499,665.117310 1853.411499,650.713135 1853.411499,636.072998 
	C1848.025757,636.072998 1843.263550,636.072998 1837.989624,636.072998 
	C1837.989624,661.293091 1837.989624,686.396545 1837.989624,712.500000 
M916.007812,644.563721 
	C916.006470,642.232056 916.323120,639.837585 915.879639,637.593262 
	C915.630371,636.331543 914.203003,634.436768 913.173462,634.346619 
	C908.954102,633.977478 904.683716,634.192505 900.415405,634.192505 
	C900.283447,635.563049 900.165894,636.214478 900.165710,636.865967 
	C900.155457,678.669495 900.154785,720.473083 900.154358,762.276611 
	C900.154297,762.942566 899.908752,763.805176 900.231628,764.235229 
	C901.004944,765.265442 901.999939,766.808533 902.992676,766.876831 
	C907.236084,767.168701 911.511169,767.001099 916.007874,767.001099 
	C916.007874,726.109558 916.007874,685.827209 916.007812,644.563721 
M938.141174,746.499451 
	C938.142151,751.987671 937.943665,757.488220 938.281189,762.955627 
	C938.367981,764.360840 940.022705,766.690796 941.165222,766.825073 
	C945.214783,767.300903 949.354309,767.010559 953.858887,767.010559 
	C953.858887,759.192810 953.858887,751.912598 953.858826,744.632385 
	C953.858704,724.176331 953.871765,703.720337 953.837708,683.264343 
	C953.834351,681.251282 954.627380,678.552856 951.171082,678.484436 
	C946.911133,678.400085 942.648254,678.464294 938.141174,678.464294 
	C938.141174,701.281250 938.141174,723.390503 938.141174,746.499451 
M941.969360,655.568604 
	C945.862122,655.568604 949.754883,655.568604 953.855896,655.568604 
	C953.855896,650.576904 954.043701,646.422729 953.735901,642.305603 
	C953.649109,641.145264 952.181885,639.221313 951.224731,639.142517 
	C946.999390,638.794434 942.729065,638.991943 938.148743,638.991943 
	C938.148743,643.873901 937.952209,648.173767 938.282654,652.432800 
	C938.368530,653.539551 940.100830,654.518616 941.969360,655.568604 
z"/>
<path fill="#414143" opacity="1.000000" stroke="none" 
	d="
M1587.450195,311.538452 
	C1550.346558,291.429840 1532.734375,259.880463 1531.182251,218.730865 
	C1529.245361,167.384811 1553.923706,130.882919 1595.797974,104.329041 
	C1624.612549,86.056740 1656.467773,75.577377 1689.934082,70.335632 
	C1743.833984,61.893440 1797.174561,65.129654 1849.462891,81.002960 
	C1880.073120,90.295441 1907.250000,105.568405 1928.543579,130.097992 
	C1938.568970,141.647049 1946.296509,154.593582 1951.917114,168.782959 
	C1958.964600,186.574738 1950.999512,200.567291 1931.920288,203.929352 
	C1918.911987,206.221634 1905.641846,202.571838 1899.138062,187.152634 
	C1889.096802,163.346222 1869.266357,149.511551 1846.140137,139.905197 
	C1819.494507,128.837006 1791.385620,124.982574 1762.857910,123.390755 
	C1722.081299,121.115456 1682.478027,126.153999 1644.863647,142.928955 
	C1631.533691,148.873749 1619.512817,156.793228 1609.261719,167.333496 
	C1582.294800,195.061218 1580.744995,251.098755 1632.068848,272.112946 
	C1651.666016,280.136932 1672.082642,284.675537 1692.949707,286.885101 
	C1729.029419,290.705444 1765.209229,293.568695 1801.313232,297.171936 
	C1835.116699,300.545532 1868.825562,304.680725 1900.854614,316.987518 
	C1924.209106,325.961212 1944.441895,339.107697 1957.885620,360.969666 
	C1966.883057,375.601074 1971.201904,391.733978 1972.560791,408.684113 
	C1975.428955,444.457458 1967.630615,477.197021 1944.072632,505.152466 
	C1925.260986,527.475647 1901.120850,542.221191 1874.341309,552.907776 
	C1839.039673,566.995056 1802.155029,573.470154 1764.310669,575.069824 
	C1721.849731,576.864563 1680.239258,571.883118 1639.714355,558.952026 
	C1610.081787,549.496582 1582.679932,535.854004 1560.014893,514.008545 
	C1543.375000,497.970215 1531.585083,478.933350 1525.684570,456.467346 
	C1522.992065,446.215424 1526.333984,436.984283 1535.161499,431.187500 
	C1546.478760,423.755829 1558.573486,422.130981 1571.165283,427.878571 
	C1576.425049,430.279449 1580.216553,434.428162 1581.736328,439.923767 
	C1589.669556,468.609955 1609.338867,486.628082 1635.122192,499.087036 
	C1657.723145,510.008118 1681.919678,515.158264 1706.662476,517.911743 
	C1738.088623,521.408875 1769.494751,521.143005 1800.746582,515.955200 
	C1828.864258,511.287598 1856.068970,503.803467 1879.650146,486.955170 
	C1905.385742,468.567749 1917.465698,443.739502 1913.041260,411.874664 
	C1910.385986,392.751190 1899.216675,379.479614 1882.855103,370.226990 
	C1865.795410,360.579498 1847.091309,355.512482 1827.900146,353.172272 
	C1795.203003,349.185150 1762.381714,346.189362 1729.588623,343.023254 
	C1691.644653,339.359863 1653.614502,336.146423 1617.157471,323.984528 
	C1607.113770,320.634003 1597.543457,315.864136 1587.450195,311.538452 
z"/>
<path fill="#414143" opacity="1.000000" stroke="none" 
	d="
M880.831726,372.999939 
	C880.831726,283.521240 881.049744,194.541611 880.659973,105.564636 
	C880.575195,86.202042 894.359802,76.664330 909.568054,76.725815 
	C971.885437,76.977753 1034.206177,76.555199 1096.522217,76.929688 
	C1135.954712,77.166656 1174.088867,84.239540 1208.893921,103.785828 
	C1261.730713,133.458557 1288.469849,179.106735 1289.774902,239.552368 
	C1290.377197,267.452423 1285.231445,294.213837 1271.275757,318.761902 
	C1253.876465,349.367523 1227.005249,368.356842 1194.474365,379.820496 
	C1181.691162,384.325226 1168.386353,387.349670 1154.885132,391.171021 
	C1157.529541,394.090485 1160.342285,397.255219 1163.218018,400.361633 
	C1201.782959,442.020844 1240.354614,483.673920 1278.929932,525.323608 
	C1289.675415,536.925537 1290.336914,551.478455 1280.556641,561.600952 
	C1269.811890,572.721985 1252.359497,573.552917 1241.055664,562.505859 
	C1230.117188,551.815857 1220.035278,540.244507 1209.657349,528.986328 
	C1168.922852,484.796631 1128.237671,440.561340 1087.428955,396.440155 
	C1086.042847,394.941467 1083.535889,393.663727 1081.547119,393.657562 
	C1034.059082,393.510376 986.570374,393.551025 939.081848,393.565247 
	C938.586243,393.565369 938.090637,393.667419 936.834167,393.805511 
	C936.834167,395.655457 936.834106,397.574615 936.834106,399.493744 
	C936.834351,446.482483 936.842163,493.471222 936.829651,540.459961 
	C936.826355,552.767639 931.439026,561.856140 921.003479,565.807251 
	C909.313416,570.233276 898.050049,569.348022 888.272949,560.807800 
	C882.643616,555.890747 880.788330,549.325867 880.796753,541.957275 
	C880.860840,485.804901 880.831787,429.652435 880.831726,372.999939 
M1200.327271,166.174683 
	C1197.307007,163.558014 1194.420166,160.765823 1191.245605,158.352112 
	C1162.898071,136.799088 1130.113159,128.687241 1095.315430,128.311188 
	C1044.159180,127.758339 992.992432,128.169098 941.830139,128.169357 
	C940.247192,128.169357 938.664307,128.169357 937.125610,128.169357 
	C937.125610,200.834610 937.125610,272.748901 937.125610,344.998230 
	C938.383667,344.998230 939.353394,344.998230 940.323120,344.998199 
	C993.485291,344.998077 1046.649048,345.236908 1099.808838,344.886292 
	C1122.713135,344.735229 1145.247192,341.274109 1166.840820,333.127167 
	C1189.569702,324.551910 1208.822876,311.492188 1221.249146,289.971741 
	C1243.232422,251.899384 1234.345703,198.506958 1200.327271,166.174683 
z"/>
<path fill="#169B96" opacity="1.000000" stroke="none" 
	d="
M623.097839,307.008087 
	C623.707642,327.548126 621.842224,347.908844 617.268433,367.894531 
	C592.906799,474.345520 529.560669,547.540405 428.116119,587.434265 
	C394.845551,600.518066 359.892944,606.026428 323.609314,604.765625 
	C323.218903,570.173218 323.281891,536.161499 323.564331,502.146088 
	C323.783783,502.142334 324.215210,502.060455 324.670135,502.055725 
	C332.246460,501.716125 339.377106,501.514435 346.487579,501.021698 
	C368.956665,499.464813 390.101471,492.945496 410.287720,483.269470 
	C432.091095,472.818207 451.079010,458.507019 467.704071,440.910614 
	C484.222504,423.427002 496.944458,403.572083 505.995758,381.369446 
	C515.687805,357.595062 520.553284,332.848785 520.556519,307.088684 
	C555.044739,307.041351 589.071289,307.024719 623.097839,307.008087 
z"/>
<path fill="#2671B5" opacity="1.000000" stroke="none" 
	d="
M623.145386,306.540466 
	C589.071289,307.024719 555.044739,307.041351 520.531433,307.059021 
	C520.044678,307.059998 519.978455,307.019470 519.994263,306.550903 
	C520.358093,286.163818 517.118225,266.731842 510.763550,247.963516 
	C495.933197,204.162552 469.333801,169.415039 430.141266,144.403793 
	C397.746246,123.730469 362.368347,113.945862 323.879517,113.987030 
	C323.663116,113.943115 323.223602,113.899704 323.193848,113.438530 
	C323.164307,79.039970 323.164520,45.102585 323.164703,11.165198 
	C356.297913,10.248730 388.764252,14.848982 419.809387,26.157822 
	C529.596985,66.150269 596.404236,143.575424 618.918213,258.405243 
	C621.970886,273.975311 621.846375,290.168304 623.145386,306.540466 
z"/>
<path fill="#F68D22" opacity="1.000000" stroke="none" 
	d="
M323.344849,502.149841 
	C323.281891,536.161499 323.218903,570.173218 323.159180,604.666748 
	C303.767426,605.578552 284.654572,603.246948 265.710052,599.274048 
	C204.195175,586.373840 151.870804,556.885681 109.037743,511.066071 
	C66.327637,465.377960 40.314484,411.371582 31.923103,349.259216 
	C30.079691,335.614441 29.945694,321.738708 29.550163,307.505066 
	C38.564327,307.041290 47.052864,307.025146 55.541321,307.045502 
	C81.002800,307.106537 106.464249,307.181824 131.947876,307.690063 
	C132.634644,316.867249 133.102921,325.626190 134.003723,334.340454 
	C136.035095,353.991913 141.913452,372.612244 150.263153,390.404236 
	C162.120834,415.671204 178.156891,438.006165 200.128342,455.398407 
	C212.033340,464.822327 224.477356,473.989258 237.855011,481.039185 
	C264.424469,495.041229 293.053558,502.382233 323.344849,502.149841 
z"/>
<path fill="#EE3B37" opacity="1.000000" stroke="none" 
	d="
M131.925705,307.251526 
	C106.464249,307.181824 81.002800,307.106537 55.541321,307.045502 
	C47.052864,307.025146 38.564327,307.041290 29.618053,307.044128 
	C28.701061,269.985840 35.258694,234.063705 49.387947,199.944290 
	C88.148125,106.345955 156.640961,46.044025 254.613464,19.703506 
	C276.698059,13.765920 299.329681,11.169091 322.691162,11.095272 
	C323.164520,45.102585 323.164307,79.039970 322.721741,113.469971 
	C316.156860,114.326721 309.982788,114.307335 303.921143,115.123291 
	C281.104279,118.194649 259.251282,124.348991 238.661270,135.020737 
	C217.670288,145.900299 199.071045,159.620300 183.150848,177.181259 
	C169.079453,192.702911 157.628906,209.770813 148.985718,228.857178 
	C137.726303,253.720795 132.417130,279.796234 131.995636,307.046631 
	C131.973083,307.115204 131.925705,307.251526 131.925705,307.251526 
z"/>
<path fill="#424244" opacity="1.000000" stroke="none" 
	d="
M707.158936,366.999939 
	C707.159058,273.840759 707.275696,181.181335 707.084900,88.522560 
	C707.031006,62.357304 732.199402,53.464359 749.861206,62.287640 
	C759.560242,67.133011 764.108521,75.390556 764.818176,85.967049 
	C764.962830,88.123878 764.841003,90.298630 764.841003,92.465118 
	C764.841064,242.952957 764.844238,393.440796 764.835510,543.928650 
	C764.834778,556.438171 758.600891,565.609070 747.375305,569.776733 
	C735.147644,574.316589 720.699158,571.203369 713.319153,562.510559 
	C708.638550,556.997314 707.145447,550.519775 707.147888,543.485229 
	C707.168030,484.823486 707.159058,426.161713 707.158936,366.999939 
z"/>
<path fill="#404042" opacity="1.000000" stroke="none" 
	d="
M1451.000366,534.995728 
	C1451.000488,537.994141 1450.858276,540.503052 1451.023071,542.991760 
	C1452.318115,562.545044 1435.647705,573.451965 1418.372070,571.667847 
	C1402.628540,570.042053 1393.554688,559.747131 1393.550537,543.872070 
	C1393.510742,392.065613 1393.516235,240.259140 1393.543945,88.452667 
	C1393.546387,74.879181 1399.503784,65.522491 1410.580566,61.141647 
	C1422.229614,56.534443 1435.956299,59.444637 1444.159790,68.339043 
	C1449.026733,73.615646 1451.018311,79.961548 1451.014038,87.076126 
	C1450.987549,131.234955 1451.000366,175.393829 1451.000366,219.552673 
	C1451.000366,324.534058 1451.000366,429.515442 1451.000366,534.995728 
z"/>
<path fill="#444446" opacity="1.000000" stroke="none" 
	d="
M1581.999146,678.444824 
	C1587.661987,678.445740 1592.828857,678.315735 1597.987305,678.472290 
	C1612.286743,678.906128 1623.219482,689.236816 1623.458008,703.356750 
	C1623.803955,723.836487 1623.546631,744.326599 1623.525269,764.812256 
	C1623.524658,765.445740 1623.287842,766.078918 1623.170898,766.663818 
	C1607.989990,768.246582 1607.989746,768.246582 1607.989868,753.639648 
	C1607.989868,737.650818 1608.013916,721.661865 1607.980591,705.673096 
	C1607.962769,697.135986 1603.992065,693.217224 1595.431396,693.184937 
	C1589.602295,693.162964 1583.772949,693.183228 1577.943726,693.190552 
	C1577.612793,693.190979 1577.281860,693.244751 1577.311768,693.242126 
	C1577.311768,717.685913 1577.311768,742.103149 1577.311768,767.010193 
	C1574.864136,767.010193 1572.080933,767.010559 1569.297729,767.010132 
	C1562.454590,767.009155 1562.448120,767.009033 1562.447021,760.393372 
	C1562.443604,740.074219 1562.276855,719.752686 1562.562744,699.437561 
	C1562.635132,694.294922 1561.096924,692.714905 1556.052368,693.079163 
	C1550.087646,693.509949 1544.051880,693.450745 1538.077515,693.091980 
	C1533.538086,692.819336 1532.014282,694.153381 1532.071899,698.903992 
	C1532.322754,719.553223 1531.987427,740.210266 1532.312988,760.857361 
	C1532.395264,766.079041 1530.861572,767.735535 1525.861328,767.075378 
	C1523.102905,766.711121 1520.256836,767.010132 1517.073242,767.010132 
	C1516.979980,765.145813 1516.831787,763.549744 1516.830811,761.953552 
	C1516.815552,738.636475 1516.813965,715.319397 1516.822754,692.002319 
	C1516.826294,682.499756 1520.890991,678.465393 1530.534912,678.451538 
	C1547.523071,678.427063 1564.511230,678.444702 1581.999146,678.444824 
z"/>
<path fill="#444446" opacity="1.000000" stroke="none" 
	d="
M1443.001221,810.010620 
	C1437.014648,810.010620 1431.527588,810.010620 1426.192139,810.010620 
	C1425.877686,809.453003 1425.591064,809.174072 1425.571899,808.877747 
	C1424.680908,795.150146 1424.683472,795.149597 1438.389404,795.149963 
	C1448.053589,795.150146 1457.717896,795.192017 1467.381714,795.140137 
	C1475.389648,795.097107 1479.320068,791.210144 1479.425415,783.197266 
	C1479.512695,776.558777 1479.443237,769.918213 1479.443237,762.965149 
	C1467.388184,769.748291 1454.723267,767.375427 1442.584106,766.342773 
	C1431.211670,765.375366 1423.290405,755.801208 1421.827393,744.518799 
	C1421.571533,742.545044 1421.462524,740.539062 1421.459839,738.547791 
	C1421.433594,718.750427 1421.443970,698.953064 1421.443970,678.483704 
	C1426.109253,678.483704 1430.415405,678.163330 1434.608643,678.709656 
	C1435.653198,678.845642 1437.054932,681.773132 1437.070312,683.428955 
	C1437.244385,702.089111 1437.175171,720.751526 1437.181519,739.413330 
	C1437.184570,748.422363 1440.805420,751.982178 1449.945190,751.988647 
	C1455.776978,751.992737 1461.608887,751.992981 1467.440674,751.988159 
	C1476.060669,751.981018 1479.425049,748.618958 1479.437988,739.851379 
	C1479.465332,721.356201 1479.444702,702.861023 1479.443726,684.365845 
	C1479.443604,682.575745 1479.443726,680.785645 1479.443726,678.864380 
	C1484.880127,678.864380 1489.755371,678.864380 1495.010498,678.864380 
	C1495.010498,680.928955 1495.010498,682.574097 1495.010498,684.219238 
	C1495.010498,717.210632 1495.019653,750.202026 1495.006836,783.193420 
	C1495.000610,799.269226 1484.168579,810.004456 1467.994507,810.010315 
	C1459.829956,810.013306 1451.665405,810.010681 1443.001221,810.010620 
z"/>
<path fill="#434344" opacity="1.000000" stroke="none" 
	d="
M1298.972046,763.080688 
	C1293.556396,764.503113 1288.524658,766.281494 1283.358276,766.863342 
	C1277.766846,767.492981 1272.016602,767.381653 1266.397461,766.888794 
	C1261.784180,766.484131 1257.261475,765.047058 1252.395752,764.002625 
	C1252.395752,778.229248 1252.395752,793.711243 1252.395752,809.595703 
	C1246.979614,809.595703 1242.116577,809.595703 1236.825195,809.595703 
	C1236.825195,807.918945 1236.825195,806.297363 1236.825195,804.675781 
	C1236.825439,765.538391 1236.823486,726.401062 1236.828003,687.263672 
	C1236.828857,679.559143 1237.960205,678.415894 1245.861816,678.464600 
	C1260.341187,678.553894 1274.854004,678.146484 1289.289307,679.009644 
	C1301.906616,679.764160 1309.510498,687.784424 1310.057251,700.328979 
	C1310.672729,714.452698 1310.512939,728.618347 1310.387695,742.763062 
	C1310.311890,751.320862 1306.412109,758.075317 1298.972046,763.080688 
M1252.165527,698.825928 
	C1252.165771,712.815491 1252.097534,726.805481 1252.193726,740.794373 
	C1252.245361,748.304443 1255.934204,751.970520 1263.100342,751.994995 
	C1269.928467,752.018311 1276.757080,752.035522 1283.584961,751.990112 
	C1290.642334,751.943237 1294.759155,747.944031 1294.808228,740.879211 
	C1294.893677,728.555725 1294.891602,716.230774 1294.812378,703.907166 
	C1294.764648,696.473572 1291.575073,693.276611 1284.109375,693.190613 
	C1274.950806,693.085022 1265.787109,693.295959 1256.631470,693.101135 
	C1252.962769,693.023132 1251.860840,694.633850 1252.165527,698.825928 
z"/>
<path fill="#444445" opacity="1.000000" stroke="none" 
	d="
M1711.083984,683.856812 
	C1717.393921,689.179749 1719.720459,695.922546 1719.828613,703.568054 
	C1719.920532,710.063477 1719.710327,716.565063 1719.893433,723.056580 
	C1720.022827,727.641968 1718.404419,729.689758 1713.520386,729.625244 
	C1698.364136,729.425049 1683.202759,729.619019 1668.045044,729.489075 
	C1665.496826,729.467163 1662.955933,728.595459 1660.013672,728.041443 
	C1660.013672,732.658630 1659.841431,737.581604 1660.058716,742.487305 
	C1660.311890,748.200867 1664.614258,751.950500 1670.742798,751.974243 
	C1684.069092,752.025818 1697.398193,752.129639 1710.721069,751.907959 
	C1714.842407,751.839478 1716.504517,753.047363 1716.068237,757.267151 
	C1715.761841,760.232544 1716.009277,763.255127 1716.009277,766.747620 
	C1714.520142,766.837708 1713.101074,766.996277 1711.681641,766.998230 
	C1698.021851,767.016968 1684.362061,767.039124 1670.702393,767.001343 
	C1655.632324,766.959656 1644.418457,756.072388 1644.192627,741.007935 
	C1644.005493,728.517090 1643.986450,716.018311 1644.197144,703.528198 
	C1644.443604,688.909668 1652.850586,679.663330 1667.453003,678.687439 
	C1677.231079,678.033875 1687.131592,678.070801 1696.895752,678.838013 
	C1701.622925,679.209351 1706.162354,681.970886 1711.083984,683.856812 
M1685.471191,693.160828 
	C1682.642822,693.160828 1679.814453,693.160889 1676.986084,693.160828 
	C1661.449219,693.160522 1659.616577,695.160156 1659.914429,710.716980 
	C1659.979492,714.114868 1661.196045,714.941895 1664.325073,714.892944 
	C1673.806030,714.744751 1683.290894,714.839539 1692.774170,714.839722 
	C1705.710571,714.839844 1705.710571,714.839905 1704.362061,701.996826 
	C1703.770264,696.361023 1701.078491,693.608093 1695.437744,693.216553 
	C1692.457031,693.009521 1689.450928,693.167603 1685.471191,693.160828 
z"/>
<path fill="#434345" opacity="1.000000" stroke="none" 
	d="
M1126.998047,751.992126 
	C1131.662109,751.992065 1135.834961,752.153870 1139.988647,751.940796 
	C1143.335449,751.769226 1144.425293,753.127930 1144.223999,756.334351 
	C1144.015869,759.649292 1144.177612,762.987488 1144.177612,767.007874 
	C1141.276245,767.007874 1138.512817,767.007874 1135.749390,767.007874 
	C1123.588989,767.007874 1111.428467,767.026611 1099.268066,767.003113 
	C1084.516968,766.974670 1073.537842,757.528015 1072.757568,742.782715 
	C1072.028564,729.004395 1072.127075,715.126892 1072.839233,701.343506 
	C1073.539551,687.792114 1081.403564,679.812683 1094.951050,678.841431 
	C1105.538940,678.082397 1116.281006,678.179504 1126.866333,679.014221 
	C1139.467163,680.007812 1147.684937,689.513611 1147.973999,702.076538 
	C1148.142456,709.402222 1147.883179,716.737854 1148.056030,724.063416 
	C1148.155273,728.263367 1146.205322,729.608337 1142.289917,729.585754 
	C1126.798340,729.496338 1111.305542,729.608948 1095.814453,729.481873 
	C1093.415161,729.462219 1091.023071,728.583252 1088.202881,728.016296 
	C1088.202881,732.719971 1087.970215,737.630249 1088.264038,742.508789 
	C1088.602417,748.125244 1092.812500,751.909241 1098.512939,751.966003 
	C1107.840576,752.058899 1117.169800,751.991760 1126.998047,751.992126 
M1088.159058,710.241089 
	C1087.711426,713.633362 1088.990967,714.986511 1092.598267,714.911560 
	C1102.427246,714.707153 1112.264893,714.954651 1122.096191,714.813171 
	C1134.561646,714.633728 1132.785278,717.244507 1132.786011,703.502197 
	C1132.786255,696.367676 1129.424927,693.267273 1122.206665,693.177856 
	C1115.041138,693.089050 1107.873657,693.145203 1100.707031,693.162415 
	C1091.353638,693.184875 1088.170898,696.408691 1088.157837,705.830566 
	C1088.156250,706.997253 1088.158569,708.163879 1088.159058,710.241089 
z"/>
<path fill="#434345" opacity="1.000000" stroke="none" 
	d="
M1401.007202,708.038696 
	C1401.007202,725.353821 1401.020508,742.175232 1401.000610,758.996704 
	C1400.993042,765.374084 1399.382935,766.992920 1393.082275,767.001892 
	C1380.091431,767.020386 1367.100342,767.051453 1354.109741,766.996338 
	C1339.060669,766.932556 1327.987549,755.849365 1328.050781,740.729675 
	C1328.069458,736.275879 1328.152954,731.646423 1329.328125,727.408325 
	C1332.164551,717.177795 1342.085571,710.011902 1352.906738,709.853149 
	C1362.231567,709.716309 1371.562134,709.701538 1380.885376,709.884277 
	C1384.375000,709.952637 1385.546875,708.757385 1385.521240,705.276855 
	C1385.460815,697.105591 1381.934448,693.240845 1373.779907,693.192383 
	C1363.454224,693.131042 1353.122925,692.991699 1342.804321,693.270508 
	C1338.716553,693.380981 1337.449585,691.949951 1337.774292,688.095947 
	C1338.023804,685.133057 1337.824097,682.132263 1337.824097,678.449280 
	C1342.046875,678.449280 1345.972656,678.449280 1349.898438,678.449280 
	C1357.226562,678.449280 1364.567871,678.731506 1371.880371,678.392700 
	C1389.091553,677.595154 1402.457153,686.570374 1401.007202,708.038696 
M1355.880249,751.828186 
	C1364.351074,751.828064 1372.824585,751.935364 1381.290039,751.721069 
	C1382.680908,751.685852 1385.198608,750.277100 1385.227661,749.435120 
	C1385.522339,740.920715 1385.407471,732.392090 1385.407471,724.207031 
	C1381.519043,724.450745 1378.400757,724.776917 1375.278809,724.815186 
	C1368.303955,724.900452 1361.320068,724.664490 1354.355103,724.941772 
	C1352.023438,725.034546 1349.254272,725.697205 1347.519409,727.118103 
	C1341.684692,731.896973 1342.976807,738.640381 1344.288696,744.687622 
	C1345.388306,749.755615 1349.782715,751.869019 1355.880249,751.828186 
z"/>
<path fill="#444446" opacity="1.000000" stroke="none" 
	d="
M762.740356,677.994202 
	C776.491821,682.845398 782.522705,691.358521 782.551758,705.524780 
	C782.575623,717.184937 782.598572,728.845398 782.544373,740.505371 
	C782.465027,757.571167 771.792847,768.162720 754.736633,768.180481 
	C747.407349,768.188110 740.077087,768.255371 732.748962,768.163086 
	C718.261108,767.980713 707.260925,756.931824 707.167236,742.420288 
	C707.084412,729.594604 707.131348,716.767883 707.154602,703.941711 
	C707.179443,690.256042 715.600098,679.182495 728.988892,677.818787 
	C739.985107,676.698730 751.208618,677.810181 762.740356,677.994202 
M722.845398,733.485901 
	C722.845581,736.314636 722.800842,739.144287 722.854797,741.971985 
	C722.998352,749.492493 726.738281,753.324097 734.230530,753.430908 
	C741.384094,753.532959 748.542053,753.553406 755.694824,753.425537 
	C762.697937,753.300415 766.757935,749.163025 766.801392,742.109314 
	C766.880249,729.297302 766.869324,716.484253 766.806335,703.672058 
	C766.770508,696.379700 762.631409,692.262451 755.348633,692.189453 
	C748.527100,692.121094 741.704224,692.155762 734.882080,692.179138 
	C726.763611,692.207031 722.910339,695.967590 722.859680,704.037109 
	C722.800110,713.521301 722.845459,723.006165 722.845398,733.485901 
z"/>
<path fill="#444446" opacity="1.000000" stroke="none" 
	d="
M1956.241699,765.462585 
	C1952.259033,766.086731 1948.647217,766.914734 1945.028198,766.947205 
	C1928.887451,767.092285 1912.744629,767.010132 1895.996582,767.010132 
	C1895.996582,762.843079 1895.636597,758.854126 1896.216064,755.006653 
	C1896.390015,753.852051 1899.171143,752.299622 1900.778198,752.275330 
	C1914.939697,752.061035 1929.105835,752.153137 1943.270508,752.149658 
	C1954.700195,752.146851 1958.645996,747.684509 1956.829102,736.288818 
	C1956.617676,734.962830 1954.486450,733.315552 1952.960571,732.922668 
	C1936.055420,728.569763 1919.093872,724.435669 1902.147827,720.241211 
	C1895.818359,718.674561 1894.965454,717.616333 1895.002075,710.969971 
	C1895.027832,706.309143 1894.660889,701.569763 1895.366455,697.004211 
	C1897.065674,686.010254 1905.405151,678.865417 1917.527588,678.566040 
	C1933.681519,678.167175 1949.852905,678.475952 1966.016846,678.505676 
	C1966.480835,678.506531 1966.944458,678.789307 1967.362793,678.925842 
	C1967.524902,679.297791 1967.744873,679.583740 1967.766968,679.884216 
	C1968.742798,693.180176 1968.740723,693.180420 1955.598022,693.180298 
	C1943.932983,693.180176 1932.267700,693.151733 1920.602783,693.188965 
	C1912.501587,693.214844 1908.248535,698.812561 1910.804810,706.443481 
	C1911.225464,707.699402 1913.360474,708.818420 1914.900269,709.194946 
	C1931.374390,713.223999 1947.858154,717.225281 1964.408936,720.922119 
	C1969.549072,722.070312 1971.858398,724.608765 1971.591797,729.863281 
	C1971.313477,735.346375 1971.597046,740.863953 1971.189087,746.333252 
	C1970.487915,755.738037 1965.459351,762.044434 1956.241699,765.462585 
z"/>
<path fill="#464647" opacity="1.000000" stroke="none" 
	d="
M804.698364,684.977051 
	C807.246460,680.153320 811.157532,678.439941 816.011658,678.438171 
	C828.507019,678.433594 841.006653,678.232971 853.496704,678.490417 
	C868.060608,678.790588 878.799683,689.975037 878.840881,704.558228 
	C878.895935,724.050842 878.854858,743.543701 878.855042,763.036499 
	C878.855042,764.174683 878.855042,765.312805 878.855042,767.008545 
	C874.383789,767.008545 870.275574,767.013245 866.167358,767.007263 
	C862.382202,767.001709 863.172424,764.151062 863.167603,761.971680 
	C863.127197,743.645264 863.148376,725.318604 863.143250,706.992065 
	C863.140320,696.513672 859.849792,693.192749 849.484558,693.187927 
	C841.154297,693.184082 832.817383,693.383423 824.496582,693.102539 
	C820.344910,692.962280 819.061584,694.281677 819.099182,698.466675 
	C819.288025,719.457214 819.075012,740.451355 819.277405,761.441650 
	C819.318787,765.731689 818.294373,767.592957 813.741211,767.084900 
	C810.494080,766.722595 807.173889,767.014526 803.435974,767.014526 
	C803.435974,764.908508 803.435974,763.276367 803.435974,761.644287 
	C803.435974,738.986023 803.398743,716.327576 803.483459,693.669617 
	C803.493896,690.885132 804.155945,688.103149 804.698364,684.977051 
z"/>
<path fill="#454547" opacity="1.000000" stroke="none" 
	d="
M1008.999634,678.439087 
	C1014.665894,678.440063 1019.833374,678.373840 1024.998535,678.454346 
	C1040.165649,678.690613 1050.998779,689.678528 1051.010010,704.810730 
	C1051.025269,725.302307 1051.013672,745.793823 1051.013672,766.649231 
	C1045.998169,766.649231 1041.120117,766.649231 1035.802856,766.649231 
	C1035.676147,764.578003 1035.455688,762.624512 1035.452881,760.670715 
	C1035.426758,742.504822 1035.450439,724.338928 1035.433228,706.173035 
	C1035.424316,696.829529 1031.766724,693.194763 1022.433899,693.185608 
	C1014.100891,693.177490 1005.757935,693.427673 997.438904,693.086670 
	C992.920532,692.901489 991.391602,694.102844 991.450378,698.865723 
	C991.707642,719.695007 991.471008,740.530029 991.640381,761.361145 
	C991.674316,765.531982 990.770447,767.611267 986.127808,767.084045 
	C982.876038,766.714722 979.548462,767.012817 975.815857,767.012817 
	C975.815857,764.453979 975.815796,762.335327 975.815857,760.216675 
	C975.816162,737.550964 975.798401,714.885193 975.825256,692.219482 
	C975.836670,682.631348 979.972473,678.493225 989.500488,678.446289 
	C995.833435,678.415100 1002.166687,678.439453 1008.999634,678.439087 
z"/>
<path fill="#434344" opacity="1.000000" stroke="none" 
	d="
M1740.993652,749.998596 
	C1740.993652,730.337524 1740.979736,711.176331 1741.000122,692.015076 
	C1741.009888,682.833801 1745.239380,678.517639 1754.376343,678.469910 
	C1766.205933,678.408081 1778.037109,678.355835 1789.865845,678.478271 
	C1805.470581,678.639771 1816.140747,689.446777 1816.166992,705.000610 
	C1816.201538,725.471619 1816.175415,745.942749 1816.175415,766.998230 
	C1811.802368,766.998230 1807.694946,767.003662 1803.587524,766.996643 
	C1800.044067,766.990601 1800.854004,764.316223 1800.849731,762.316101 
	C1800.810181,744.154724 1800.829102,725.993103 1800.825317,707.831604 
	C1800.822998,696.541626 1797.491333,693.170776 1786.363159,693.173767 
	C1778.198853,693.175964 1770.027954,693.367249 1761.872925,693.091675 
	C1757.931885,692.958435 1756.720093,694.135925 1756.756104,698.149414 
	C1756.944458,719.141724 1756.735840,740.137695 1756.929077,761.129944 
	C1756.970337,765.612427 1755.848389,767.646057 1751.052246,767.075439 
	C1747.949707,766.706299 1744.767578,767.006042 1740.993652,767.006042 
	C1740.993652,761.356445 1740.993652,755.927429 1740.993652,749.998596 
z"/>
<path fill="#444446" opacity="1.000000" stroke="none" 
	d="
M1837.989624,712.000000 
	C1837.989624,686.396545 1837.989624,661.293091 1837.989624,636.072998 
	C1843.263550,636.072998 1848.025757,636.072998 1853.411499,636.072998 
	C1853.411499,650.713135 1853.411499,665.117310 1853.411499,679.291748 
	C1861.561157,679.291748 1869.084717,679.291748 1876.896973,679.291748 
	C1876.896973,683.612427 1876.896973,688.030640 1876.896973,693.190979 
	C1869.347656,693.190979 1861.817139,693.190979 1854.021362,693.190979 
	C1853.818481,695.158142 1853.576904,696.424500 1853.574463,697.691467 
	C1853.546875,711.684204 1853.519165,725.677185 1853.569580,739.669800 
	C1853.601196,748.448608 1857.240234,751.976624 1866.062378,751.988586 
	C1870.060303,751.993958 1874.060425,752.067932 1878.055542,751.963440 
	C1880.840942,751.890564 1881.971924,753.074402 1881.877075,755.841309 
	C1881.757812,759.318176 1881.848267,762.802246 1881.848267,766.922791 
	C1868.951294,766.372620 1855.577148,770.229004 1845.135498,759.041321 
	C1840.495972,754.070496 1837.975708,748.318665 1837.985840,741.485229 
	C1838.000000,731.823486 1837.989502,722.161743 1837.989624,712.000000 
z"/>
<path fill="#434345" opacity="1.000000" stroke="none" 
	d="
M916.007812,645.054260 
	C916.007874,685.827209 916.007874,726.109558 916.007874,767.001099 
	C911.511169,767.001099 907.236084,767.168701 902.992676,766.876831 
	C901.999939,766.808533 901.004944,765.265442 900.231628,764.235229 
	C899.908752,763.805176 900.154297,762.942566 900.154358,762.276611 
	C900.154785,720.473083 900.155457,678.669495 900.165710,636.865967 
	C900.165894,636.214478 900.283447,635.563049 900.415405,634.192505 
	C904.683716,634.192505 908.954102,633.977478 913.173462,634.346619 
	C914.203003,634.436768 915.630371,636.331543 915.879639,637.593262 
	C916.323120,639.837585 916.006470,642.232056 916.007812,645.054260 
z"/>
<path fill="#474748" opacity="1.000000" stroke="none" 
	d="
M938.141174,745.999634 
	C938.141174,723.390503 938.141174,701.281250 938.141174,678.464294 
	C942.648254,678.464294 946.911133,678.400085 951.171082,678.484436 
	C954.627380,678.552856 953.834351,681.251282 953.837708,683.264343 
	C953.871765,703.720337 953.858704,724.176331 953.858826,744.632385 
	C953.858887,751.912598 953.858887,759.192810 953.858887,767.010559 
	C949.354309,767.010559 945.214783,767.300903 941.165222,766.825073 
	C940.022705,766.690796 938.367981,764.360840 938.281189,762.955627 
	C937.943665,757.488220 938.142151,751.987671 938.141174,745.999634 
z"/>
<path fill="#474748" opacity="1.000000" stroke="none" 
	d="
M941.523132,655.562439 
	C940.100830,654.518616 938.368530,653.539551 938.282654,652.432800 
	C937.952209,648.173767 938.148743,643.873901 938.148743,638.991943 
	C942.729065,638.991943 946.999390,638.794434 951.224731,639.142517 
	C952.181885,639.221313 953.649109,641.145264 953.735901,642.305603 
	C954.043701,646.422729 953.855896,650.576904 953.855896,655.568604 
	C949.754883,655.568604 945.862122,655.568604 941.523132,655.562439 
z"/>
<path fill="#FFFFFF" opacity="1.000000" stroke="none" 
	d="
M1200.585205,166.415405 
	C1234.345703,198.506958 1243.232422,251.899384 1221.249146,289.971741 
	C1208.822876,311.492188 1189.569702,324.551910 1166.840820,333.127167 
	C1145.247192,341.274109 1122.713135,344.735229 1099.808838,344.886292 
	C1046.649048,345.236908 993.485291,344.998077 940.323120,344.998199 
	C939.353394,344.998230 938.383667,344.998230 937.125610,344.998230 
	C937.125610,272.748901 937.125610,200.834610 937.125610,128.169357 
	C938.664307,128.169357 940.247192,128.169357 941.830139,128.169357 
	C992.992432,128.169098 1044.159180,127.758339 1095.315430,128.311188 
	C1130.113159,128.687241 1162.898071,136.799088 1191.245605,158.352112 
	C1194.420166,160.765823 1197.307007,163.558014 1200.585205,166.415405 
z"/>
<path fill="#0D756E" opacity="1.000000" stroke="none" 
	d="
M520.069763,307.089661 
	C520.553284,332.848785 515.687805,357.595062 505.995758,381.369446 
	C496.944458,403.572083 484.222504,423.427002 467.704071,440.910614 
	C451.079010,458.507019 432.091095,472.818207 410.287720,483.269470 
	C390.101471,492.945496 368.956665,499.464813 346.487579,501.021698 
	C339.377106,501.514435 332.246460,501.716125 324.642212,501.583069 
	C324.159241,470.208771 324.159149,439.302399 324.605652,408.308441 
	C358.389343,408.243744 385.256348,394.820099 405.703552,368.740112 
	C419.834045,350.716980 426.141083,329.842865 426.829224,307.041565 
	C458.175262,307.029236 489.076843,307.024353 519.978455,307.019470 
	C519.978455,307.019470 520.044678,307.059998 520.069763,307.089661 
z"/>
<path fill="#D06A28" opacity="1.000000" stroke="none" 
	d="
M324.159058,408.395996 
	C324.159149,439.302399 324.159241,470.208771 324.187256,501.587830 
	C324.215210,502.060455 323.783783,502.142334 323.564331,502.146088 
	C293.053558,502.382233 264.424469,495.041229 237.855011,481.039185 
	C224.477356,473.989258 212.033340,464.822327 200.128342,455.398407 
	C178.156891,438.006165 162.120834,415.671204 150.263153,390.404236 
	C141.913452,372.612244 136.035095,353.991913 134.003723,334.340454 
	C133.102921,325.626190 132.634644,316.867249 131.947876,307.690063 
	C131.925705,307.251526 131.973083,307.115204 132.461365,307.078796 
	C161.439575,307.049561 189.929550,307.036224 218.419357,307.100098 
	C220.883530,307.105621 223.346558,307.621429 225.889191,308.362366 
	C226.336624,329.693115 232.141479,348.882324 244.417709,365.814270 
	C264.042694,392.881989 290.802124,406.891846 324.159058,408.395996 
z"/>
<path fill="#10498C" opacity="1.000000" stroke="none" 
	d="
M519.994263,306.550903 
	C489.076843,307.024353 458.175262,307.029236 426.737091,306.584320 
	C425.288422,299.056458 424.983948,291.836060 423.364807,284.923584 
	C413.460999,242.642044 375.273102,207.795029 324.151001,207.479401 
	C324.128326,176.019928 324.112122,145.025436 324.095947,114.030945 
	C362.368347,113.945862 397.746246,123.730469 430.141266,144.403793 
	C469.333801,169.415039 495.933197,204.162552 510.763550,247.963516 
	C517.118225,266.731842 520.358093,286.163818 519.994263,306.550903 
z"/>
<path fill="#CA2128" opacity="1.000000" stroke="none" 
	d="
M323.879517,113.987030 
	C324.112122,145.025436 324.128326,176.019928 323.706848,207.572296 
	C295.203400,209.428940 271.440399,220.116592 252.350113,240.826797 
	C234.902130,259.755371 226.682968,282.387115 225.810120,307.900208 
	C223.346558,307.621429 220.883530,307.105621 218.419357,307.100098 
	C189.929550,307.036224 161.439575,307.049561 132.483917,307.010254 
	C132.417130,279.796234 137.726303,253.720795 148.985718,228.857178 
	C157.628906,209.770813 169.079453,192.702911 183.150848,177.181259 
	C199.071045,159.620300 217.670288,145.900299 238.661270,135.020737 
	C259.251282,124.348991 281.104279,118.194649 303.921143,115.123291 
	C309.982788,114.307335 316.156860,114.326721 322.751465,113.931137 
	C323.223602,113.899704 323.663116,113.943115 323.879517,113.987030 
z"/>
<path fill="#FCFCFC" opacity="1.000000" stroke="none" 
	d="
M1252.165771,698.364319 
	C1251.860840,694.633850 1252.962769,693.023132 1256.631470,693.101135 
	C1265.787109,693.295959 1274.950806,693.085022 1284.109375,693.190613 
	C1291.575073,693.276611 1294.764648,696.473572 1294.812378,703.907166 
	C1294.891602,716.230774 1294.893677,728.555725 1294.808228,740.879211 
	C1294.759155,747.944031 1290.642334,751.943237 1283.584961,751.990112 
	C1276.757080,752.035522 1269.928467,752.018311 1263.100342,751.994995 
	C1255.934204,751.970520 1252.245361,748.304443 1252.193726,740.794373 
	C1252.097534,726.805481 1252.165771,712.815491 1252.165771,698.364319 
z"/>
<path fill="#F9F9F9" opacity="1.000000" stroke="none" 
	d="
M1685.963745,693.160889 
	C1689.450928,693.167603 1692.457031,693.009521 1695.437744,693.216553 
	C1701.078491,693.608093 1703.770264,696.361023 1704.362061,701.996826 
	C1705.710571,714.839905 1705.710571,714.839844 1692.774170,714.839722 
	C1683.290894,714.839539 1673.806030,714.744751 1664.325073,714.892944 
	C1661.196045,714.941895 1659.979492,714.114868 1659.914429,710.716980 
	C1659.616577,695.160156 1661.449219,693.160522 1676.986084,693.160828 
	C1679.814453,693.160889 1682.642822,693.160828 1685.963745,693.160889 
z"/>
<path fill="#F9F9F9" opacity="1.000000" stroke="none" 
	d="
M1088.159058,709.785828 
	C1088.158569,708.163879 1088.156250,706.997253 1088.157837,705.830566 
	C1088.170898,696.408691 1091.353638,693.184875 1100.707031,693.162415 
	C1107.873657,693.145203 1115.041138,693.089050 1122.206665,693.177856 
	C1129.424927,693.267273 1132.786255,696.367676 1132.786011,703.502197 
	C1132.785278,717.244507 1134.561646,714.633728 1122.096191,714.813171 
	C1112.264893,714.954651 1102.427246,714.707153 1092.598267,714.911560 
	C1088.990967,714.986511 1087.711426,713.633362 1088.159058,709.785828 
z"/>
<path fill="#FDFDFD" opacity="1.000000" stroke="none" 
	d="
M1355.429932,751.828003 
	C1349.782715,751.869019 1345.388306,749.755615 1344.288696,744.687622 
	C1342.976807,738.640381 1341.684692,731.896973 1347.519409,727.118103 
	C1349.254272,725.697205 1352.023438,725.034546 1354.355103,724.941772 
	C1361.320068,724.664490 1368.303955,724.900452 1375.278809,724.815186 
	C1378.400757,724.776917 1381.519043,724.450745 1385.407471,724.207031 
	C1385.407471,732.392090 1385.522339,740.920715 1385.227661,749.435120 
	C1385.198608,750.277100 1382.680908,751.685852 1381.290039,751.721069 
	C1372.824585,751.935364 1364.351074,751.828064 1355.429932,751.828003 
z"/>
<path fill="#FDFDFD" opacity="1.000000" stroke="none" 
	d="
M722.845337,732.988281 
	C722.845459,723.006165 722.800110,713.521301 722.859680,704.037109 
	C722.910339,695.967590 726.763611,692.207031 734.882080,692.179138 
	C741.704224,692.155762 748.527100,692.121094 755.348633,692.189453 
	C762.631409,692.262451 766.770508,696.379700 766.806335,703.672058 
	C766.869324,716.484253 766.880249,729.297302 766.801392,742.109314 
	C766.757935,749.163025 762.697937,753.300415 755.694824,753.425537 
	C748.542053,753.553406 741.384094,753.532959 734.230530,753.430908 
	C726.738281,753.324097 722.998352,749.492493 722.854797,741.971985 
	C722.800842,739.144287 722.845581,736.314636 722.845337,732.988281 
z"/>
<path fill="#FFFFFF" opacity="1.000000" stroke="none" 
	d="
M225.889191,308.362366 
	C226.682968,282.387115 234.902130,259.755371 252.350113,240.826797 
	C271.440399,220.116592 295.203400,209.428940 323.713348,208.037262 
	C375.273102,207.795029 413.460999,242.642044 423.364807,284.923584 
	C424.983948,291.836060 425.288422,299.056458 426.292664,306.591797 
	C426.141083,329.842865 419.834045,350.716980 405.703552,368.740112 
	C385.256348,394.820099 358.389343,408.243744 324.605652,408.308441 
	C290.802124,406.891846 264.042694,392.881989 244.417709,365.814270 
	C232.141479,348.882324 226.336624,329.693115 225.889191,308.362366 
z"/>
</svg>