<?xml version="1.0" encoding="UTF-8"?>
<!DOCTYPE svg PUBLIC "-//W3C//DTD SVG 1.1//EN" "http://www.w3.org/Graphics/SVG/1.1/DTD/svg11.dtd">
<svg xmlns="http://www.w3.org/2000/svg" version="1.1" width="1024px" height="1022px" style="shape-rendering:geometricPrecision; text-rendering:geometricPrecision; image-rendering:optimizeQuality; fill-rule:evenodd; clip-rule:evenodd" xmlns:xlink="http://www.w3.org/1999/xlink">
<g><path style="opacity:0.943" fill="#000000" d="M 51.5,-0.5 C 192.5,-0.5 333.5,-0.5 474.5,-0.5C 480.256,2.30814 486.589,5.14148 493.5,8C 499.942,12.6057 505.942,17.7723 511.5,23.5C 517.058,17.7723 523.058,12.6057 529.5,8C 536.411,5.14148 542.744,2.30814 548.5,-0.5C 689.5,-0.5 830.5,-0.5 971.5,-0.5C 999.116,8.11566 1016.45,26.449 1023.5,54.5C 1023.5,192.5 1023.5,330.5 1023.5,468.5C 1019.3,484.891 1010.97,498.891 998.5,510.5C 1010.97,522.109 1019.3,536.109 1023.5,552.5C 1023.5,690.5 1023.5,828.5 1023.5,966.5C 1016.45,994.551 999.116,1012.88 971.5,1021.5C 830.5,1021.5 689.5,1021.5 548.5,1021.5C 542.356,1018.6 536.023,1015.77 529.5,1013C 523.058,1008.39 517.058,1003.23 511.5,997.5C 501.171,1008.82 488.838,1016.82 474.5,1021.5C 333.5,1021.5 192.5,1021.5 51.5,1021.5C 23.8842,1012.88 6.55091,994.551 -0.5,966.5C -0.5,828.5 -0.5,690.5 -0.5,552.5C 3.70033,536.109 12.0337,522.109 24.5,510.5C 12.318,499.128 3.98465,485.461 -0.5,469.5C -0.5,331.167 -0.5,192.833 -0.5,54.5C 6.55989,26.4404 23.8932,8.10711 51.5,-0.5 Z M 62.5,27.5 C 124.5,27.5 186.5,27.5 248.5,27.5C 248.333,76.5011 248.5,125.501 249,174.5C 253.058,184.776 260.225,187.776 270.5,183.5C 274.502,180.497 276.668,176.497 277,171.5C 277.5,123.501 277.667,75.5012 277.5,27.5C 339.501,27.3333 401.501,27.5 463.5,28C 470.063,28.9639 476.063,31.2973 481.5,35C 489.963,42.7638 495.13,52.2638 497,63.5C 497.5,121.166 497.667,178.832 497.5,236.5C 445.166,236.333 392.832,236.5 340.5,237C 328.732,241.689 325.899,249.522 332,260.5C 334.1,263.467 336.934,265.3 340.5,266C 392.737,266.831 444.904,266.664 497,265.5C 497.667,330.167 497.667,394.833 497,459.5C 493.836,478.998 482.669,491.165 463.5,496C 401.501,496.5 339.501,496.667 277.5,496.5C 277.667,448.499 277.5,400.499 277,352.5C 274.165,338.981 266.332,335.147 253.5,341C 251.348,343.469 249.848,346.302 249,349.5C 248.5,398.499 248.333,447.499 248.5,496.5C 186.166,496.667 123.832,496.5 61.5,496C 47.7429,492.237 37.5763,484.071 31,471.5C 30.3333,468.833 29.6667,466.167 29,463.5C 28.3333,329.167 28.3333,194.833 29,60.5C 30.8069,49.3899 36.3069,40.5566 45.5,34C 50.8825,30.7118 56.5491,28.5451 62.5,27.5 Z M 559.5,27.5 C 695.196,27.01 830.863,27.51 966.5,29C 979.333,33.8333 988.167,42.6667 993,55.5C 994.462,86.7918 994.962,118.125 994.5,149.5C 915.499,149.333 836.499,149.5 757.5,150C 750.031,151.561 746.031,156.227 745.5,164C 746.154,170.661 749.487,175.328 755.5,178C 835.166,178.5 914.833,178.667 994.5,178.5C 994.5,233.833 994.5,289.167 994.5,344.5C 914.833,344.333 835.166,344.5 755.5,345C 753.579,345.36 751.912,346.194 750.5,347.5C 743.417,357.332 744.75,365.832 754.5,373C 834.499,373.5 914.499,373.667 994.5,373.5C 994.667,403.502 994.5,433.502 994,463.5C 992.002,473.66 986.836,481.827 978.5,488C 975.991,489.421 973.657,491.088 971.5,493C 968.107,493.798 964.774,494.798 961.5,496C 827.5,496.667 693.5,496.667 559.5,496C 540.323,491.158 529.157,478.991 526,459.5C 525.333,327.5 525.333,195.5 526,63.5C 529.234,43.9808 540.4,31.9808 559.5,27.5 Z M 510.5,500.5 C 515.362,502.686 519.362,506.019 522.5,510.5C 519.457,514.544 515.791,517.877 511.5,520.5C 507.209,517.877 503.543,514.544 500.5,510.5C 503.548,506.785 506.881,503.452 510.5,500.5 Z M 65.5,524.5 C 126.5,524.5 187.5,524.5 248.5,524.5C 248.333,573.834 248.5,623.168 249,672.5C 253.348,681.957 260.515,684.791 270.5,681C 274.092,677.984 276.258,674.151 277,669.5C 277.5,621.168 277.667,572.834 277.5,524.5C 338.501,524.333 399.501,524.5 460.5,525C 481.336,528.503 493.503,540.669 497,561.5C 497.5,619.166 497.667,676.832 497.5,734.5C 444.166,734.333 390.832,734.5 337.5,735C 332.637,738.345 329.637,742.845 328.5,748.5C 328.927,755.878 332.594,760.712 339.5,763C 392.166,763.5 444.832,763.667 497.5,763.5C 497.667,828.168 497.5,892.834 497,957.5C 496.703,960.914 496.036,964.247 495,967.5C 490.586,976.242 484.42,983.409 476.5,989C 472.637,990.732 468.637,992.066 464.5,993C 402.168,993.5 339.834,993.667 277.5,993.5C 277.667,945.499 277.5,897.499 277,849.5C 273.824,836.156 265.991,832.489 253.5,838.5C 251.733,841.037 250.233,843.703 249,846.5C 248.5,895.499 248.333,944.499 248.5,993.5C 185.832,993.667 123.166,993.5 60.5,993C 43.5525,988.386 33.0525,977.553 29,960.5C 28.3333,826.5 28.3333,692.5 29,558.5C 29.7942,551.081 32.6275,544.581 37.5,539C 41.6886,535.31 46.022,531.81 50.5,528.5C 55.4455,526.442 60.4455,525.108 65.5,524.5 Z M 562.5,524.5 C 696.856,524.014 831.189,524.514 965.5,526C 975.031,529.528 982.864,535.361 989,543.5C 990.725,546.674 992.058,550.007 993,553.5C 994.46,583.125 994.96,612.791 994.5,642.5C 914.833,642.333 835.166,642.5 755.5,643C 749.116,645.398 745.782,650.065 745.5,657C 746.198,663.364 749.531,667.698 755.5,670C 835.166,670.5 914.833,670.667 994.5,670.5C 994.667,767.167 994.5,863.834 994,960.5C 989.947,977.553 979.447,988.386 962.5,993C 895.167,993.167 827.833,993.333 760.5,993.5C 691.79,993.66 623.123,993.16 554.5,992C 540.693,987.526 531.526,978.359 527,964.5C 525.552,931.865 525.052,899.198 525.5,866.5C 604.501,866.667 683.501,866.5 762.5,866C 770.3,864.363 774.3,859.529 774.5,851.5C 773.547,844.055 769.547,839.222 762.5,837C 683.597,836.169 604.763,836.335 526,837.5C 525.333,745.5 525.333,653.5 526,561.5C 529.677,540.657 541.843,528.324 562.5,524.5 Z"/></g>
</svg>
