<svg width="24" height="24" viewBox="0 0 24 24" fill="none" xmlns="http://www.w3.org/2000/svg"><path d="m2.777 15.997-.033.27a.228.228 0 0 0 .044.164.217.217 0 0 0 .144.083h8.525a.212.212 0 0 0 .154-.064.226.226 0 0 0 .066-.157v-.028l-.035-.27a.394.394 0 0 1 .082-.28.371.371 0 0 1 .393-.128.366.366 0 0 1 .22.182.388.388 0 0 1 .043.141l.034.263c.065.585-.257 1.1-.837 1.1H2.838c-.574 0-.895-.515-.83-1.1l.034-.263a.385.385 0 0 1 .133-.254.36.36 0 0 1 .519.06c.062.078.091.18.082.28" fill="red"/><path d="M10.63 13.966a.685.685 0 0 0 .504-.182.728.728 0 0 0 .23-.532c-.008-.418-.377-.688-.789-.69h-.833a.344.344 0 0 1-.246-.105.365.365 0 0 1 0-.508.344.344 0 0 1 .246-.105h.558c.375-.016.664-.25.682-.614.019-.392-.308-.685-.705-.685h-1.35v3.415h1.704v.006Zm1.023-2.736a1.157 1.157 0 0 1-.325.806l-.02.025.027.017c.204.117.376.286.498.49.122.206.19.44.2.68a1.46 1.46 0 0 1-.392 1.018c-.257.272-.607.43-.975.437H8.573a.362.362 0 0 1-.257-.114.384.384 0 0 1-.104-.267v-4.1a.386.386 0 0 1 .106-.27.365.365 0 0 1 .264-.112h1.695c.355-.01.7.126.957.377a1.4 1.4 0 0 1 .42.964v.048M5.036 13.301l.01.029.01-.029c.094-.27.21-.575.331-.895.122-.32.251-.671.375-.985.125-.313.246-.6.36-.847.076-.183.17-.357.28-.52a.56.56 0 0 1 .447-.213h.085a.398.398 0 0 1 .268.089c.059.05.096.12.106.198l.532 4.24a.365.365 0 0 1-.091.256.356.356 0 0 1-.258.087.41.41 0 0 1-.268-.08.295.295 0 0 1-.124-.213 80.568 80.568 0 0 0-.18-1.568c-.024-.188-.17-1.388-.222-1.824v-.037l-.17.368a11.93 11.93 0 0 0-.393 1.016c-.066.198-.404 1.158-.404 1.158-.03.087-.089.264-.14.431a4.13 4.13 0 0 1-.114.336.48.48 0 0 1-.277.244.464.464 0 0 1-.364-.03.49.49 0 0 1-.214-.217c-.014-.027-.061-.174-.115-.336-.055-.162-.108-.338-.14-.431 0 0-.328-.969-.402-1.158-.074-.19-.14-.384-.205-.562-.065-.178-.132-.328-.188-.454l-.172-.364v.038c-.051.43-.2 1.632-.223 1.823-.024.191-.11.921-.13 1.092-.02.171-.034.33-.051.47a.303.303 0 0 1-.124.213.41.41 0 0 1-.267.08.351.351 0 0 1-.255-.086.357.357 0 0 1-.09-.257l.524-4.235a.312.312 0 0 1 .107-.19c.075-.065.17-.1.268-.097h.085a.544.544 0 0 1 .445.21c.11.162.204.336.28.518.113.247.233.53.359.848.126.318.251.646.377.984.121.325.235.626.33.896" fill="#1D1D1B"/><path d="M3.995 7.277h6.453c.608 0 .911.47.977 1.09l.028.199a.4.4 0 0 1-.08.286.377.377 0 0 1-.254.145.365.365 0 0 1-.27-.09.387.387 0 0 1-.13-.258l-.028-.19c-.027-.236-.123-.419-.356-.419H4.11c-.233 0-.329.183-.357.418l-.025.188a.386.386 0 0 1-.131.26.364.364 0 0 1-.27.087.37.37 0 0 1-.254-.145.394.394 0 0 1-.08-.286l.026-.199c.073-.619.374-1.09.977-1.09" fill="red"/><path d="m15.601 11.746-.14.575c-.048.208-.097.395-.139.575-.041.18-.09.343-.14.482-.025.1-.06.196-.105.288a.273.273 0 0 1-.264.135.555.555 0 0 1-.14-.022.224.224 0 0 1-.139-.123 1.755 1.755 0 0 1-.106-.3c-.042-.143-.086-.318-.14-.512-.052-.194-.093-.398-.139-.615-.046-.217-.09-.418-.127-.604-.036-.185-.07-.345-.095-.474a8.116 8.116 0 0 1-.043-.236V10.864a.168.168 0 0 1 .061-.134.223.223 0 0 1 .151-.05.24.24 0 0 1 .14.037c.04.031.067.077.075.128 0 0 .008.053.025.144.017.09.04.198.067.332l.09.455c.031.168.066.34.104.512.038.172.072.338.109.5.036.162.068.3.1.417l.104-.375.114-.431c.038-.144.072-.3.107-.45l.098-.42.077-.343.051-.223a.274.274 0 0 1 .09-.144.245.245 0 0 1 .408.134c.038.157.074.335.115.53.04.195.083.392.127.592a17.137 17.137 0 0 0 .279 1.1c.03-.117.065-.255.101-.416.037-.16.072-.328.11-.5.037-.172.075-.34.108-.507.034-.168.067-.32.095-.453.028-.133.052-.243.067-.326.015-.083.026-.13.026-.132a.216.216 0 0 1 .076-.127.234.234 0 0 1 .14-.037.232.232 0 0 1 .151.05.166.166 0 0 1 .062.134v.019a.33.33 0 0 1 0 .034c0 .026-.018.104-.045.236l-.096.473c-.038.185-.081.386-.127.6-.046.214-.095.418-.14.612-.044.194-.089.365-.14.512a1.689 1.689 0 0 1-.105.296.25.25 0 0 1-.14.13.468.468 0 0 1-.277.006.318.318 0 0 1-.084-.046.212.212 0 0 1-.067-.086 2.22 2.22 0 0 1-.1-.304c-.04-.144-.083-.302-.129-.48-.046-.179-.089-.368-.14-.564-.05-.195-.084-.378-.122-.547M18.07 12.901c-.048.156-.09.3-.125.431-.035.133-.071.24-.102.325a.219.219 0 0 1-.08.144.206.206 0 0 1-.297-.04.222.222 0 0 1-.041-.161c0-.022.003-.043.01-.063l.058-.2.13-.421c.053-.17.113-.35.177-.55.064-.2.131-.399.2-.594.068-.196.139-.378.203-.546.054-.141.117-.279.188-.411a.222.222 0 0 1 .102-.11.421.421 0 0 1 .173-.03c.06 0 .121.01.177.034a.196.196 0 0 1 .1.116c.045.096.098.227.159.39.06.162.126.338.193.528s.14.382.201.575c.062.193.127.38.182.549.054.17.101.315.14.431.037.116.063.197.072.233.006.02.01.041.01.063a.185.185 0 0 1-.058.144.214.214 0 0 1-.163.056.17.17 0 0 1-.121-.036.24.24 0 0 1-.063-.104 7.863 7.863 0 0 1-.112-.324c-.043-.133-.088-.276-.14-.431h-1.178l.004.002Zm1.041-.424c-.067-.21-.128-.402-.188-.574-.06-.173-.113-.338-.18-.502a1.699 1.699 0 0 1-.049-.125c-.017-.049-.028-.073-.03-.082a.371.371 0 0 0-.031.078 9.196 9.196 0 0 0-.232.63c-.058.177-.12.369-.185.575h.895ZM20.714 12.578a.417.417 0 0 1-.044-.054l-.047-.067a2.42 2.42 0 0 1-.14-.235c-.048-.092-.104-.19-.155-.288a5.829 5.829 0 0 1-.15-.313c-.047-.105-.094-.203-.132-.287-.038-.085-.074-.17-.102-.236a.961.961 0 0 1-.052-.144.196.196 0 0 1-.012-.037v-.036a.202.202 0 0 1 .059-.144.22.22 0 0 1 .163-.059.168.168 0 0 1 .14.05c.024.027.043.06.056.095l.046.107.087.203a8.828 8.828 0 0 0 .258.554l.133.269c.035.072.076.142.12.21.07-.115.135-.233.193-.355.069-.144.14-.28.197-.42.057-.14.117-.261.165-.366l.082-.2a.322.322 0 0 1 .059-.096.16.16 0 0 1 .14-.05.212.212 0 0 1 .207.125c.01.025.015.051.014.078a.144.144 0 0 1 0 .036l-.011.038-.055.143c-.026.068-.06.144-.1.236-.04.092-.082.188-.13.287-.047.1-.1.209-.152.314a4.002 4.002 0 0 1-.155.287c-.051.086-.1.174-.14.237a.767.767 0 0 1-.09.112v1.006a.222.222 0 0 1-.058.16.21.21 0 0 1-.35-.076.23.23 0 0 1-.016-.09v-1.005" fill="#1D1D1B"/></svg>
