<svg width="24" height="24" viewBox="0 0 24 24" fill="none" xmlns="http://www.w3.org/2000/svg"><path d="M21.37 10.546c-.265-.181-.665-.273-1.189-.273h-1.373l-.51 2.784h-1.8l.115-.632h1.084l.13-.71h-1.085l.116-.628h1.117l.148-.814h-2.267l-.486 2.64h-.831l.488-2.64H13.84l-.484 2.64h-.811l.488-2.64H11.85l-.512 2.784H9.525l.115-.632h1.088l.13-.705H9.77l.114-.632h1.131l.146-.815H4.095l-.4 2.204-.802-2.204H1.66L1 13.873h1.175l.399-2.267.777 2.267h4.211l.512-2.785h.659l-.513 2.785h11.077l.32-1.758.52 1.758h1.176l-.539-1.437.123-.025c.271-.059.483-.184.63-.372.148-.188.222-.434.222-.726.001-.341-.122-.592-.378-.767Zm-14.83 2.51H4.743l.116-.631h1.128l.128-.712H4.997l.108-.625H6.9l-.361 1.969Zm13.862-1.213c-.118.082-.29.123-.524.123h-.233l.178-.966h.171c.195 0 .337.031.435.095.076.05.166.15.166.337.003.228-.104.35-.193.41ZM22.28 13.64l-.029-.568.25-.013a.34.34 0 0 1 .116.01c.027.008.05.026.066.05a.161.161 0 0 1 .028.085.144.144 0 0 1-.033.103.197.197 0 0 1-.117.06.19.19 0 0 1 .046.026.376.376 0 0 1 .067.073l.105.149-.093.005-.08-.115a.99.99 0 0 0-.059-.075.174.174 0 0 0-.04-.036.114.114 0 0 0-.034-.013.262.262 0 0 0-.045-.002l-.087.005.013.251-.074.005Zm.059-.32.16-.008a.238.238 0 0 0 .08-.015.082.082 0 0 0 .041-.036.094.094 0 0 0 .004-.088.083.083 0 0 0-.024-.028.133.133 0 0 0-.093-.021l-.178.008.01.188Z" fill="#518113"/><path d="M22.446 12.815a.527.527 0 0 0-.449.756.528.528 0 0 0 .867.127.53.53 0 0 0-.418-.883Zm-.41.551a.44.44 0 0 1 .585-.445.437.437 0 0 1 .289.4v.023a.44.44 0 0 1-.427.437.437.437 0 0 1-.448-.415Z" fill="#518113"/></svg>
