<svg width="24" height="24" viewBox="0 0 24 24" fill="none" xmlns="http://www.w3.org/2000/svg"><path fill-rule="evenodd" clip-rule="evenodd" d="M2.327 12.274v1.455c0 .094-.045.14-.138.141-.184.002-.369.002-.552 0-.095 0-.137-.046-.137-.142V9.41c0-.093.04-.133.133-.133l.475-.002a43.22 43.22 0 0 1 1.134.005c.772.016 1.346.591 1.38 1.366.018.412-.06.795-.327 1.12-.27.332-.629.492-1.05.508-.231.01-.703.004-.864.002h-.054Zm.003-.686h.748a.62.62 0 0 0 .51-.24.909.909 0 0 0 .173-.844c-.093-.348-.356-.544-.714-.544h-.715c-.002.546-.002 1.082-.002 1.628Zm5.114 2.13c.042.105.11.163.23.154.074-.007.39-.002.47 0 .153 0 .202-.074.139-.214L6.355 9.391c-.035-.08-.084-.109-.169-.107-.08.002-.117.047-.148.114l-.993 2.176-.038.083-.002.005-.058.128-.856 1.875c-.06.13-.01.205.132.205h.472c.141 0 .186-.03.24-.16l.046-.11.026-.062c.066-.157.131-.314.195-.473.022-.057.05-.082.117-.082.562.004 1.122.002 1.684 0h.055c.06 0 .09.015.113.074.06.15.123.301.186.451l.001.004.005.012.005.01.076.184Zm-1.891-1.427h1.27l-.642-1.42c-.21.473-.42.946-.628 1.42Zm5.123-2.91c-.328.49-.658.979-.99 1.466l-.286-.422c-.237-.35-.475-.7-.713-1.048-.026-.038-.075-.085-.115-.087a10.08 10.08 0 0 0-.667-.003c-.09.002-.134.088-.099.171.007.019.405.618.808 1.226l.001.002.607.917c.026.04.04.087.04.135l.002 1.97c0 .121.039.162.16.162h.495c.136 0 .174-.037.174-.173 0-.643 0-1.286-.002-1.93a.326.326 0 0 1 .059-.195c.463-.685.926-1.37 1.388-2.057.036-.052.065-.102.032-.166-.032-.065-.094-.065-.154-.065h-.158c-.132.001-.264.002-.395-.002a.197.197 0 0 0-.187.1ZM23.5 13.136a.738.738 0 0 1-.74.733.738.738 0 1 1 .526-1.258.732.732 0 0 1 .214.525Zm-.09.006a.648.648 0 0 1-1.112.439.645.645 0 0 1-.18-.466.646.646 0 0 1 1.293.027Zm-.526.053.07.1c.042.06.083.118.123.178-.073.03-.113.007-.143-.05a.483.483 0 0 0-.038-.06c-.01-.017-.022-.033-.031-.05-.057-.097-.138-.13-.256-.1v.267a1.228 1.228 0 0 0-.08.006v-.63l.104-.001a3.32 3.32 0 0 1 .238.002c.094.005.146.062.156.147.01.083-.03.147-.119.18a.09.09 0 0 1-.024.01Zm-.2-.07h-.073v-.2l.07-.001c.056-.001.111-.002.166.002.058.005.097.04.096.1-.002.056-.035.094-.091.097-.056.004-.11.003-.169.002ZM20.815 12.035l.061.12.78 1.478a.317.317 0 0 1 .038.082c.02.075-.024.14-.1.142-.228.003-.456.002-.683.002-.069 0-.09-.053-.113-.102-.255-.527-.512-1.055-.763-1.585-.031-.065-.067-.093-.142-.091a9.21 9.21 0 0 1-.52 0c-.072-.002-.093.023-.093.094.002.502.002 1.002.002 1.504 0 .157-.023.18-.177.18h-.472c-.125 0-.159-.033-.159-.159V9.427c0-.113.037-.153.15-.153.593 0 1.186-.003 1.78 0 .663.004 1.204.44 1.321 1.082.125.684-.156 1.314-.816 1.633-.032.014-.064.03-.094.046Zm-1.52-.62h1.014c.12.001.237-.038.332-.112a.809.809 0 0 0 .273-.842c-.09-.328-.327-.512-.663-.512h-.956v1.467ZM12.797 9.95v1.287h1.518c.129 0 .166.037.166.163v.36c0 .112-.039.152-.151.152h-1.531v1.286h1.822c.14 0 .17.03.17.172v.343c0 .122-.037.16-.159.16-.769 0-2.45.002-2.52 0-.08-.002-.12-.033-.133-.1l-.003-4.306c0-.164.028-.19.187-.19h2.445c.154 0 .182.028.182.187v.326c0 .128-.034.162-.164.162-.574-.002-1.787-.002-1.829-.002Zm2.444 1.62V9.436c0-.134.03-.163.161-.163h2.488c.126 0 .159.033.159.157v.368c0 .116-.033.15-.15.15h-1.731c-.119 0-.119 0-.119.118 0 .36.002.719-.001 1.078 0 .072.02.092.093.092.467-.003.937-.002 1.405-.002.171 0 .194.023.194.19v.343c0 .103-.037.142-.143.142-.247.002-1.221.002-1.463 0-.06 0-.086.012-.086.08.003.376.003.752 0 1.128 0 .067.024.08.086.08.58-.002 1.159-.001 1.74-.001.152 0 .175.022.175.18v.343c0 .115-.034.152-.148.152h-2.487c-.145 0-.17-.027-.17-.17-.003-.71-.003-1.42-.003-2.132Z" fill="#03A9F4"/></svg>
