<svg width="24" height="24" fill="none" xmlns="http://www.w3.org/2000/svg"><path d="m8.334 20.208.312-1.981-.695-.017H4.633L6.939 3.59a.188.188 0 0 1 .187-.16h5.595c1.857 0 3.14.387 3.809 1.15.313.357.513.731.61 1.143.101.432.103.948.004 1.577l-.007.046v.403l.314.178c.264.14.474.3.635.484.268.306.442.695.515 1.156.076.474.05 1.039-.073 1.678-.143.734-.375 1.374-.687 1.898a3.905 3.905 0 0 1-1.089 1.193 4.414 4.414 0 0 1-1.466.662 7.31 7.31 0 0 1-1.832.211h-.436a1.32 1.32 0 0 0-.851.313 1.318 1.318 0 0 0-.444.793l-.033.178-.55 3.492-.026.129c-.006.04-.018.06-.034.074a.092.092 0 0 1-.058.021H8.334Z" fill="#253B80"/><path d="M17.748 7.391a9.716 9.716 0 0 1-.058.328c-.737 3.789-3.262 5.097-6.486 5.097H9.563a.797.797 0 0 0-.788.675l-.84 5.33-.239 1.511a.42.42 0 0 0 .415.486h2.911a.7.7 0 0 0 .692-.59l.029-.148.548-3.48.035-.19a.7.7 0 0 1 .692-.592h.436c2.82 0 5.029-1.145 5.674-4.459.27-1.384.13-2.54-.583-3.353a2.786 2.786 0 0 0-.797-.615Z" fill="#179BD7"/><path d="M16.976 7.084a5.834 5.834 0 0 0-.718-.16 9.117 9.117 0 0 0-1.447-.105h-4.385a.697.697 0 0 0-.691.591l-.933 5.91-.027.172a.797.797 0 0 1 .788-.676h1.641c3.224 0 5.748-1.309 6.486-5.097.022-.112.04-.22.058-.328a3.933 3.933 0 0 0-.772-.307Z" fill="#222D65"/><path d="M9.735 7.41a.697.697 0 0 1 .69-.59h4.386c.52 0 1.005.033 1.447.105a5.814 5.814 0 0 1 .883.21c.218.073.42.158.607.256.22-1.4-.002-2.353-.758-3.216-.835-.95-2.341-1.357-4.268-1.357H7.127a.8.8 0 0 0-.79.676L4.005 18.266a.48.48 0 0 0 .474.556h3.454l.868-5.503.933-5.909Z" fill="#253B80"/></svg>