<svg width="24" height="24" fill="none" xmlns="http://www.w3.org/2000/svg"><path d="M10.508 6.624c-.254 1.495-.458 2.755-.824 4.716.99-.018 3.237.31 3.731-2.37.41-2.23-1.415-2.435-2.907-2.346Z" fill="#21262E"/><path d="M18.772 17.904c.342.749-.003 1.695-.719 2.077-.41.219-.88.423-1.348.536a11.517 11.517 0 0 1-2.358.301c-1.271 0-2.544-.713-3.093-1.583-.142.3-.655.903-1.552 1.186-.567.18-1.251.397-2.679.396-1.278-.002-2.007-.57-2.393-1.048-.614-.759-.704-1.723-.584-2.372l.006-.031c.482-2.377 1.143-6.695 1.446-8.86l.003-.02c.084-.6.168-1.2.218-1.805.025-.304.042-.61.045-.915.003-.29-.025-.578-.022-.866.004-.272.048-.548.178-.789.211-.39.599-.696 1.008-.83.449-.146.918-.205 1.385-.258.477-.053.954-.106 1.435-.141a24.804 24.804 0 0 1 1.755-.064c1.002 0 2.01.017 2.997.216 1.007.203 2.023.593 2.817 1.274a5.455 5.455 0 0 1 1.3 1.701c.284.569.4 1.166.468 1.624a6.655 6.655 0 0 1-.094 2.463 5.35 5.35 0 0 1-.73 1.661c-.377.576-.862 1.099-1.48 1.597.376 1.071 1.357 3.166 1.99 4.55ZM7.518 5.008c.023.398.027.8.01 1.198-.018.408-.054.814-.1 1.22-.045.403-.1.805-.156 1.207l-.018.132c-.176 1.258-.361 2.514-.555 3.768-.204 1.317-.433 2.628-.662 3.941-.106.612-.345 1.396-.019 1.98.291.521 1.036.584 1.555.532 1.892-.19 2.192-.602 2.192-.602-.377-.41-.05-2.278.33-4.79h1.345l1.407 4.174s.415 1.294 1.568 1.232c1.477-.08 2.563-.412 2.72-.595-.455-.25-1.755-3.44-2.464-5.782.343-.204.676-.428.99-.678.428-.342.825-.737 1.13-1.201.218-.333.384-.701.48-1.09a4.768 4.768 0 0 0 .061-1.745c-.053-.355-.132-.749-.293-1.069-.3-.597-.723-1.117-1.3-1.45-.976-.563-2.099-.67-3.194-.73a20.6 20.6 0 0 0-3.56.116c-.132.016-1.472.131-1.467.232Z" fill="#21262E"/></svg>