<svg width="24" height="24" fill="none" xmlns="http://www.w3.org/2000/svg"><path d="M17.388 3.753a.281.281 0 0 0-.2-.48h-4.18l2.43 2.426 1.95-1.946ZM11.549 9.59 8.56 6.604 5.87 9.292l-2.788 2.787a.282.282 0 0 0 0 .398l2.788 2.788 2.69 2.688 2.988-2.987-2.49-2.489-.2-.2.2-.2 2.49-2.487ZM15.44 18.855l-2.42 2.417h4.159a.282.282 0 0 0 .2-.48l-1.94-1.937Z" fill="#F94C43"/><path d="m20.917 12.08-2.789-2.788-3.14-3.138-2.798-2.798a.28.28 0 0 0-.19-.08l-.01-.002H6.812a.282.282 0 0 0-.2.48l2.401 2.4L12 9.139l2.941 2.94.2.2-.2.2L12 15.417l-2.988 2.987-2.39 2.388a.281.281 0 0 0 .2.48h5.18a.28.28 0 0 0 .2-.082l2.786-2.786 3.14-3.139 2.79-2.788a.28.28 0 0 0 0-.398Z" fill="#F94C43"/></svg>