<svg width="24" height="24" viewBox="0 0 24 24" fill="none" xmlns="http://www.w3.org/2000/svg"><path d="m2.006 15.55.205-.023a.292.292 0 0 0 .075.17.212.212 0 0 0 .153.053c.068 0 .119-.016.153-.048a.149.149 0 0 0 .052-.112.114.114 0 0 0-.022-.07.172.172 0 0 0-.076-.05 2.533 2.533 0 0 0-.168-.05.543.543 0 0 1-.237-.115.316.316 0 0 1-.096-.233c0-.06.015-.114.045-.166a.291.291 0 0 1 .13-.117.477.477 0 0 1 .206-.04c.13 0 .23.032.296.096.066.064.1.15.104.256l-.211.01c-.01-.06-.029-.103-.058-.13-.03-.026-.074-.039-.134-.039a.223.223 0 0 0-.144.042.088.088 0 0 0-.033.072c0 .028.01.051.031.07a.52.52 0 0 0 .194.078.946.946 0 0 1 .227.083.308.308 0 0 1 .115.119c.028.05.042.111.042.185 0 .067-.017.13-.05.187a.309.309 0 0 1-.14.13.538.538 0 0 1-.228.043c-.132 0-.234-.034-.304-.103a.467.467 0 0 1-.127-.298ZM3.074 15.93v-.84h.2v.84h-.2Zm0-.956v-.205h.2v.205h-.2ZM4.212 15.93h-.2v-.43c0-.091-.005-.15-.013-.177a.124.124 0 0 0-.042-.062.11.11 0 0 0-.069-.022.149.149 0 0 0-.093.032.16.16 0 0 0-.056.084.81.81 0 0 0-.016.193v.382h-.2v-.84h.186v.123c.066-.096.149-.144.25-.144.043 0 .084.008.12.026.037.018.064.04.083.068a.258.258 0 0 1 .04.094.771.771 0 0 1 .01.15v.523ZM4.619 15.491c0 .09.015.155.046.197.03.041.069.062.114.062.049 0 .09-.021.123-.064.033-.042.05-.105.05-.19 0-.086-.016-.151-.048-.194a.147.147 0 0 0-.121-.063.141.141 0 0 0-.118.062c-.031.042-.046.105-.046.19Zm-.18.494.227.028c.004.03.013.052.027.064.019.017.049.025.09.025a.215.215 0 0 0 .118-.026.106.106 0 0 0 .04-.056.375.375 0 0 0 .009-.102v-.123c-.059.09-.134.135-.225.135-.102 0-.182-.048-.242-.144a.53.53 0 0 1-.07-.282.5.5 0 0 1 .092-.324.283.283 0 0 1 .228-.111c.093 0 .17.045.232.137v-.117h.186v.756c0 .1-.007.173-.022.222a.284.284 0 0 1-.062.116.268.268 0 0 1-.107.066.508.508 0 0 1-.169.024c-.128 0-.219-.025-.273-.074a.242.242 0 0 1-.08-.187v-.027ZM5.592 14.77h-.2v1.16h.2v-1.16ZM6.292 15.44a.234.234 0 0 0-.045-.15.132.132 0 0 0-.105-.051.134.134 0 0 0-.109.054.225.225 0 0 0-.042.146h.301Zm-.01.225.199.037a.363.363 0 0 1-.122.185.333.333 0 0 1-.209.063c-.131 0-.23-.047-.292-.143a.522.522 0 0 1-.076-.291.5.5 0 0 1 .099-.329.31.31 0 0 1 .25-.118c.112 0 .201.041.266.124.066.083.097.21.094.382h-.503a.24.24 0 0 0 .048.155c.032.036.07.055.117.055.032 0 .058-.01.08-.029a.178.178 0 0 0 .049-.091ZM7.148 15.93v-1.16h.773v.195H7.36v.258h.522v.196H7.36v.315h.582v.196h-.794ZM8.66 15.93v-.127a.311.311 0 0 1-.109.107.277.277 0 0 1-.28.003.213.213 0 0 1-.087-.105.513.513 0 0 1-.028-.186v-.533h.201v.386c0 .119.004.191.011.218.008.027.021.048.04.063.02.016.045.024.075.024a.158.158 0 0 0 .148-.109 1 1 0 0 0 .014-.227v-.355h.201v.84H8.66ZM9.288 15.93h-.201v-.84h.186v.119a.364.364 0 0 1 .086-.113.144.144 0 0 1 .087-.027c.045 0 .09.014.132.042l-.062.194a.166.166 0 0 0-.094-.036.105.105 0 0 0-.071.026c-.02.017-.035.048-.047.093a1.46 1.46 0 0 0-.016.282v.26ZM9.864 15.51a.3.3 0 0 0 .053.192.163.163 0 0 0 .264 0 .306.306 0 0 0 .054-.194.3.3 0 0 0-.054-.19.163.163 0 0 0-.264 0 .3.3 0 0 0-.053.191Zm-.205-.012c0-.075.016-.146.049-.216a.36.36 0 0 1 .34-.213c.115 0 .209.041.282.124.073.083.11.188.11.314a.463.463 0 0 1-.111.318.356.356 0 0 1-.28.126.404.404 0 0 1-.198-.053.341.341 0 0 1-.143-.154.56.56 0 0 1-.05-.246ZM11.305 14.965v.332h.115a.486.486 0 0 0 .166-.019.142.142 0 0 0 .066-.057.172.172 0 0 0 .024-.091.162.162 0 0 0-.034-.105.143.143 0 0 0-.084-.052.906.906 0 0 0-.152-.008h-.101Zm-.211.965v-1.16h.338c.128 0 .212.005.25.017.06.017.11.055.15.113a.39.39 0 0 1 .061.226.415.415 0 0 1-.035.18.311.311 0 0 1-.088.115.289.289 0 0 1-.11.055c-.05.01-.122.016-.218.016h-.137v.438h-.211ZM12.524 15.527c-.025.01-.066.02-.121.034a.34.34 0 0 0-.109.039.096.096 0 0 0-.039.079c0 .03.01.058.031.08.021.024.048.035.08.035a.162.162 0 0 0 .15-.114.494.494 0 0 0 .008-.109v-.044Zm-.269-.182-.18-.037a.319.319 0 0 1 .106-.18c.05-.04.124-.06.222-.06.09 0 .156.012.2.036a.209.209 0 0 1 .092.09.507.507 0 0 1 .026.199l-.002.26c0 .074.004.129.01.164a.523.523 0 0 0 .036.113h-.199a.812.812 0 0 1-.026-.09.363.363 0 0 1-.11.083.286.286 0 0 1-.124.027.242.242 0 0 1-.184-.07.249.249 0 0 1-.068-.179c0-.047.01-.09.03-.127a.21.21 0 0 1 .087-.086.625.625 0 0 1 .16-.052.993.993 0 0 0 .194-.054v-.023c0-.043-.01-.074-.03-.092-.018-.019-.054-.028-.107-.028a.132.132 0 0 0-.084.023.164.164 0 0 0-.049.083ZM12.866 15.089h.213l.181.597.177-.597h.208l-.267.809-.049.148a.628.628 0 0 1-.05.112.232.232 0 0 1-.055.063.227.227 0 0 1-.076.038.48.48 0 0 1-.216 0l-.019-.174c.032.007.06.01.085.01.047 0 .082-.015.104-.046.023-.03.04-.07.052-.117l-.288-.843ZM13.801 15.09h.184v.114c.067-.09.146-.135.237-.135.049 0 .09.01.126.033a.246.246 0 0 1 .088.1.365.365 0 0 1 .108-.1.244.244 0 0 1 .123-.033c.056 0 .103.012.142.037a.224.224 0 0 1 .086.11c.014.037.02.095.02.175v.539h-.2v-.482a.396.396 0 0 0-.021-.161.092.092 0 0 0-.085-.048.127.127 0 0 0-.08.028.158.158 0 0 0-.053.084.663.663 0 0 0-.016.174v.405h-.201v-.462a.707.707 0 0 0-.01-.159.102.102 0 0 0-.034-.053.097.097 0 0 0-.06-.017c-.031 0-.06.01-.084.028a.153.153 0 0 0-.053.08.665.665 0 0 0-.016.174v.409h-.2v-.84ZM15.608 15.44a.234.234 0 0 0-.046-.15.132.132 0 0 0-.104-.051.134.134 0 0 0-.109.054.225.225 0 0 0-.042.146h.3Zm-.01.225.198.037a.363.363 0 0 1-.122.185.333.333 0 0 1-.208.063c-.132 0-.23-.047-.293-.143a.522.522 0 0 1-.075-.291.5.5 0 0 1 .099-.329.31.31 0 0 1 .249-.118c.113 0 .202.041.267.124.065.083.097.21.094.382h-.504a.241.241 0 0 0 .05.155c.03.036.07.055.116.055.031 0 .058-.01.08-.029a.177.177 0 0 0 .048-.091ZM16.7 15.93h-.2v-.43c0-.091-.005-.15-.013-.177a.124.124 0 0 0-.042-.062.11.11 0 0 0-.069-.022.148.148 0 0 0-.093.032.16.16 0 0 0-.056.084.813.813 0 0 0-.015.193v.382h-.201v-.84h.186v.123c.066-.096.15-.144.25-.144.043 0 .084.008.12.026.037.018.065.04.083.068a.256.256 0 0 1 .04.094.76.76 0 0 1 .01.15v.523ZM17.293 15.09v.176h-.136v.34c0 .07 0 .11.003.12a.05.05 0 0 0 .05.04.23.23 0 0 0 .08-.021l.018.172a.36.36 0 0 1-.157.033.226.226 0 0 1-.098-.02.145.145 0 0 1-.063-.052.223.223 0 0 1-.028-.087 1.204 1.204 0 0 1-.006-.157v-.368h-.091v-.177h.09v-.168l.202-.131v.3h.136ZM17.407 15.693l.2-.035a.167.167 0 0 0 .052.098.163.163 0 0 0 .11.033c.052 0 .09-.01.117-.032a.074.074 0 0 0 .026-.06.062.062 0 0 0-.014-.041c-.01-.011-.033-.021-.068-.03-.162-.04-.265-.076-.308-.11a.224.224 0 0 1-.09-.189c0-.073.025-.134.077-.184.052-.05.133-.074.242-.074.104 0 .182.018.232.055.05.038.086.093.105.166l-.189.039a.13.13 0 0 0-.046-.075.159.159 0 0 0-.098-.027c-.053 0-.091.009-.114.025a.054.054 0 0 0-.023.045c0 .016.006.03.02.041.018.015.08.036.188.063.107.027.181.06.224.1.042.04.063.095.063.166a.268.268 0 0 1-.087.2c-.058.056-.144.083-.257.083a.391.391 0 0 1-.245-.069.322.322 0 0 1-.117-.188ZM19.335 15.472l-.145-.431-.142.43h.288Zm.388.458h-.227l-.09-.263h-.422l-.086.263h-.223l.404-1.16h.222l.422 1.16ZM20.068 15.93h-.201v-.84h.186v.119a.364.364 0 0 1 .086-.113.143.143 0 0 1 .087-.027c.046 0 .09.014.132.042l-.061.194a.166.166 0 0 0-.095-.036.105.105 0 0 0-.071.026c-.02.017-.035.048-.046.093a1.454 1.454 0 0 0-.017.282v.26ZM20.938 15.44a.235.235 0 0 0-.045-.15.132.132 0 0 0-.105-.051.134.134 0 0 0-.109.054.225.225 0 0 0-.042.146h.301Zm-.01.225.199.037a.363.363 0 0 1-.122.185.333.333 0 0 1-.208.063c-.133 0-.23-.047-.294-.143a.522.522 0 0 1-.075-.291.5.5 0 0 1 .1-.329.31.31 0 0 1 .248-.118c.113 0 .202.041.267.124.066.083.097.21.094.382h-.503a.24.24 0 0 0 .048.155c.032.036.07.055.117.055.032 0 .058-.01.08-.029a.178.178 0 0 0 .049-.091ZM21.76 15.527c-.026.01-.066.02-.122.034a.34.34 0 0 0-.108.039.096.096 0 0 0-.04.079c0 .03.01.058.032.08.02.024.047.035.08.035a.162.162 0 0 0 .15-.114.494.494 0 0 0 .008-.109v-.044Zm-.27-.182-.18-.037a.32.32 0 0 1 .106-.18c.05-.04.124-.06.222-.06.09 0 .156.012.2.036a.209.209 0 0 1 .092.09.507.507 0 0 1 .027.199l-.002.26c0 .074.003.129.01.164a.523.523 0 0 0 .035.113h-.199a.857.857 0 0 1-.026-.09.363.363 0 0 1-.11.083.286.286 0 0 1-.124.027.242.242 0 0 1-.184-.07.249.249 0 0 1-.067-.179c0-.047.01-.09.03-.127a.21.21 0 0 1 .086-.086.625.625 0 0 1 .16-.052.993.993 0 0 0 .194-.054v-.023c0-.043-.01-.074-.029-.092-.019-.019-.055-.028-.108-.028a.133.133 0 0 0-.084.023.164.164 0 0 0-.048.083ZM6.442 10.21H5.074c0-.25-.026-.417-.079-.502-.081-.127-.306-.19-.674-.19-.357 0-.594.037-.71.11-.115.072-.172.23-.172.475 0 .221.05.367.153.437a.59.59 0 0 0 .292.087l.276.022c.591.043.96.074 1.108.092.467.052.806.19 1.017.414.165.175.264.403.295.685.019.169.028.36.028.572 0 .489-.042.847-.126 1.074-.152.416-.494.68-1.027.79-.223.046-.564.07-1.023.07-.766 0-1.3-.05-1.602-.153a1.099 1.099 0 0 1-.732-.758C2.033 13.223 2 12.87 2 12.375h1.368v.127c0 .264.068.433.204.509.095.052.209.08.343.082h.502c.257 0 .42-.014.492-.043a.424.424 0 0 0 .247-.266c.021-.076.032-.173.032-.293 0-.267-.088-.43-.263-.488-.066-.023-.371-.055-.916-.096a9.9 9.9 0 0 1-.91-.1c-.448-.094-.747-.285-.896-.576-.13-.247-.196-.62-.196-1.12 0-.381.035-.687.106-.916.07-.23.185-.404.342-.524.23-.183.526-.29.885-.323.299-.029.63-.043.995-.043.574 0 .984.036 1.227.11.596.177.893.675.893 1.493 0 .067-.004.168-.013.302ZM13.928 11.37h.917c.29-.013.467-.037.531-.076.087-.053.145-.16.174-.32.019-.105.028-.263.028-.473 0-.257-.018-.447-.055-.572-.053-.174-.18-.28-.38-.318a2.7 2.7 0 0 0-.286-.01h-.929v1.768Zm-1.47 2.976V8.273h2.74c.375 0 .662.034.859.102.45.157.753.478.908.964.08.255.12.638.12 1.15 0 .617-.045 1.06-.132 1.33-.176.532-.538.84-1.084.919-.064.011-.338.022-.82.03l-.244.01h-.877v1.568h-1.47ZM19.932 12.113l-.69-2.632-.668 2.632h1.358Zm.292 1.183h-1.966l-.265 1.05h-1.521l1.642-6.073h2.218l1.662 6.073h-1.49l-.28-1.05Z" fill="#0054A6"/><path d="M10.428 9.127c.607 0 1.148.31 1.504.797l.317-.756a2.637 2.637 0 0 0-1.915-.842c-1.158 0-2.15.778-2.556 1.88H7.16l-.365.869h.795a3.295 3.295 0 0 0 .003.54h-.4l-.364.87h.968c.418 1.072 1.397 1.826 2.537 1.826.575 0 1.108-.191 1.55-.518v-1.067c-.356.45-.876.735-1.456.735-.678 0-1.274-.389-1.621-.977h2.026l.365-.87h-2.69a2.441 2.441 0 0 1-.01-.539h2.927l.364-.87H8.751c.336-.644.961-1.078 1.677-1.078Z" fill="#FFC20D"/><path d="M8.71 10.232h3.08l-.022-.038-.365.87.022-.015H8.476l-.002.024a2.494 2.494 0 0 0 .012.545l.003.023h2.71l-.022-.037-.365.87.022-.016h-2.07l.024.04c.365.62.978.989 1.64.989.563 0 1.1-.271 1.474-.743l-.041-.018v1.067l.01-.022a2.57 2.57 0 0 1-1.537.514c-1.1 0-2.087-.711-2.516-1.811l-.006-.016H6.83l.022.038.364-.87-.021.015h.425l-.002-.03a3.297 3.297 0 0 1-.004-.534l.002-.028h-.82l.02.037.366-.87-.021.016h.634l.005-.017c.201-.543.543-1.007.988-1.34a2.567 2.567 0 0 1 1.547-.522c.712 0 1.386.296 1.899.834l-.005-.03-.317.756.04-.006c-.376-.512-.93-.806-1.523-.806-.696 0-1.347.418-1.698 1.091l-.02.04Zm1.718-1.08c.578 0 1.12.288 1.486.788l.024.033.015-.038.317-.756.007-.017-.012-.013a2.653 2.653 0 0 0-1.93-.849 2.61 2.61 0 0 0-1.574.531c-.453.34-.8.811-1.005 1.364l.022-.016h-.633l-.007.015-.364.87-.016.037h.832l-.024-.028a3.31 3.31 0 0 0 .004.544l.024-.029h-.415l-.006.016-.365.87-.016.036h1.005l-.022-.015c.436 1.119 1.441 1.842 2.56 1.842.56 0 1.1-.18 1.562-.523l.01-.007v-1.15l-.04.052c-.365.461-.889.726-1.439.726-.646 0-1.245-.361-1.601-.965l-.02.04h2.042l.006-.014.365-.87.015-.038H8.51l.023.023a2.425 2.425 0 0 1-.01-.533l-.024.023h2.942l.006-.015.365-.87.016-.037H8.75l.02.04c.343-.658.978-1.066 1.657-1.066Z" fill="#0054A6"/></svg>
