<svg width="24" height="24" viewBox="0 0 24 24" fill="none" xmlns="http://www.w3.org/2000/svg"><path fill-rule="evenodd" clip-rule="evenodd" d="M21.169 8.786v7.134H23V8.438l-1.831.348ZM18.495 8.786l1.83-.348v7.482h-1.83V8.786ZM15.888 15.92v-5.473h1.831v5.473h-1.831ZM15.9 8.961c0-.53.405-.961.903-.961s.903.43.903.961c0 .532-.404.961-.903.961-.498 0-.903-.43-.903-.96ZM14.855 10.367c-1.692.058-2.552.867-2.552 2.474v3.079h1.847v-2.511c0-.962.118-1.375 1.19-1.414v-1.6c-.18-.04-.485-.028-.485-.028ZM9.886 10.44c-.04.11-.333.992-1.042 1.906V8.437l-1.89.399v7.084h1.89v-2.19c.547.874.817 2.19.817 2.19h2.264c-.224-.991-1.204-2.818-1.204-2.818a9.06 9.06 0 0 0 1.327-2.661H9.886ZM3.784 11.221c-.231-.016-.767-.053-.767-.567 0-.62.771-.62 1.06-.62.51 0 1.169.16 1.64.31 0 0 .262.1.485.2l.02.006V8.852l-.027-.009c-.556-.207-1.202-.405-2.4-.405C1.732 8.438 1 9.717 1 10.814c0 .632.255 2.12 2.618 2.292.201.013.733.046.733.577 0 .438-.435.696-1.168.696a5.438 5.438 0 0 1-2.054-.424v1.748c.708.198 1.506.296 2.442.296 2.018 0 2.922-1.211 2.922-2.412 0-1.361-1.011-2.246-2.709-2.367Z" fill="#862165"/></svg>
