<svg width="24" height="24" viewBox="0 0 24 24" fill="none" xmlns="http://www.w3.org/2000/svg"><g clip-path="url(#a)"><path d="m8.444 12.925 1.892 1.292 1.246 1.892 4.014-2.86-4.337-4.43M15.688 11.034a2.261 2.261 0 1 0 0-4.522 2.261 2.261 0 0 0 0 4.522Z" fill="currentColor"/><path d="M8.26 19.155a2.907 2.907 0 1 0 0-5.814 2.907 2.907 0 0 0 0 5.814Z" stroke="currentColor" stroke-width=".877"/><path d="m-.83 12.51 8.997 3.738" stroke="currentColor" stroke-width="3.691" stroke-linecap="round"/><path d="M15.688 12.51a3.738 3.738 0 1 0 0-7.475 3.738 3.738 0 0 0 0 7.475Z" stroke="currentColor" stroke-width="1.477"/></g><defs><clipPath id="a"><path fill="#fff" d="M0 0h24v24H0z"/></clipPath></defs></svg>
