<svg width="24" height="24" viewBox="0 0 24 24" fill="none" xmlns="http://www.w3.org/2000/svg"><path d="M12.421 15.818c2.626 0 4.116-1.272 5.536-3.11.78-.99 1.774-1.203 2.484-.637.71.565.78 1.626 0 2.616C18.383 17.374 15.757 19 12.42 19c-3.62 0-6.813-1.98-9.013-5.444-.639-.92-.497-1.91.213-2.404.71-.495 1.774-.283 2.413.707 1.561 2.333 3.69 3.96 6.387 3.96Zm4.897-8.697c0 1.273-.994 2.121-2.129 2.121-1.136 0-2.13-.848-2.13-2.12 0-1.274.995-2.122 2.13-2.122 1.136 0 2.13.92 2.13 2.121Z" fill="#FF5B24"/></svg>
