<svg width="89" height="90" viewBox="0 0 89 90" fill="none" xmlns="http://www.w3.org/2000/svg">
<g id="Icon 1">
<circle id="Ellipse 1" cx="44.5" cy="45" r="44.5" fill="#FFF9F6"/>
<g id="license">
<mask id="mask0_1130_37511" style="mask-type:alpha" maskUnits="userSpaceOnUse" x="20" y="21" width="49" height="49">
<rect id="Bounding box" x="20.0254" y="21.1445" width="48" height="48" fill="#D9D9D9"/>
</mask>
<g mask="url(#mask0_1130_37511)">
<path id="license_2" d="M44.0254 47.1445C42.3587 47.1445 40.9421 46.5612 39.7754 45.3945C38.6087 44.2279 38.0254 42.8112 38.0254 41.1445C38.0254 39.4779 38.6087 38.0612 39.7754 36.8945C40.9421 35.7279 42.3587 35.1445 44.0254 35.1445C45.6921 35.1445 47.1087 35.7279 48.2754 36.8945C49.4421 38.0612 50.0254 39.4779 50.0254 41.1445C50.0254 42.8112 49.4421 44.2279 48.2754 45.3945C47.1087 46.5612 45.6921 47.1445 44.0254 47.1445ZM32.0254 67.1445V51.6945C30.7587 50.2945 29.7754 48.6945 29.0754 46.8945C28.3754 45.0945 28.0254 43.1779 28.0254 41.1445C28.0254 36.6779 29.5754 32.8945 32.6754 29.7945C35.7754 26.6945 39.5587 25.1445 44.0254 25.1445C48.4921 25.1445 52.2754 26.6945 55.3754 29.7945C58.4754 32.8945 60.0254 36.6779 60.0254 41.1445C60.0254 43.1779 59.6754 45.0945 58.9754 46.8945C58.2754 48.6945 57.2921 50.2945 56.0254 51.6945V67.1445L44.0254 63.1445L32.0254 67.1445ZM44.0254 53.1445C47.3587 53.1445 50.1921 51.9779 52.5254 49.6445C54.8587 47.3112 56.0254 44.4779 56.0254 41.1445C56.0254 37.8112 54.8587 34.9779 52.5254 32.6445C50.1921 30.3112 47.3587 29.1445 44.0254 29.1445C40.6921 29.1445 37.8587 30.3112 35.5254 32.6445C33.1921 34.9779 32.0254 37.8112 32.0254 41.1445C32.0254 44.4779 33.1921 47.3112 35.5254 49.6445C37.8587 51.9779 40.6921 53.1445 44.0254 53.1445ZM36.0254 61.1945L44.0254 59.1445L52.0254 61.1945V54.9945C50.8587 55.6612 49.6004 56.1862 48.2504 56.5695C46.9004 56.9529 45.4921 57.1445 44.0254 57.1445C42.5587 57.1445 41.1504 56.9529 39.8004 56.5695C38.4504 56.1862 37.1921 55.6612 36.0254 54.9945V61.1945Z" fill="#F56522"/>
</g>
</g>
</g>
</svg>
