<svg width="69" height="49" viewBox="0 0 69 49" fill="none" xmlns="http://www.w3.org/2000/svg">
<path d="M59.8678 6.42943C51.6277 0.264025 43.7337 0.436741 43.7337 0.436741L42.9268 1.35837C52.7227 4.29737 57.2749 8.61881 57.2749 8.61881C43.2602 0.902508 25.4081 0.95772 10.8306 8.61881C10.8306 8.61881 15.5555 4.06661 25.9277 1.12761L25.3515 0.436033C25.3515 0.436033 17.5148 0.263316 9.21738 6.42872C9.21738 6.42872 0.919922 21.3531 0.919922 39.7346C0.919922 39.7346 5.76022 48.0321 18.4952 48.4355C18.4952 48.4355 20.6273 45.9 22.3558 43.7106C15.0373 41.5212 12.2718 36.969 12.2718 36.969C16.8693 39.8458 21.5184 41.6465 27.3115 42.789C36.7373 44.7292 48.4615 42.7345 57.2176 36.969C57.2176 36.969 54.3366 41.6366 46.7881 43.7687C48.5167 45.9007 50.5914 48.3782 50.5914 48.3782C63.325 47.9754 68.1653 39.678 68.1653 39.7353C68.1653 21.3538 59.8678 6.42943 59.8678 6.42943ZM23.7956 34.3769C20.5685 34.3769 17.9183 31.5533 17.9183 28.0381C18.154 19.6203 29.4967 19.6465 29.6736 28.0381C29.6729 31.5533 27.0801 34.3769 23.7956 34.3769ZM44.8281 34.3769C41.6009 34.3769 38.9507 31.5533 38.9507 28.0381C39.2098 19.6365 50.4109 19.633 50.7061 28.0381C50.7054 31.5533 48.1125 34.3769 44.8281 34.3769Z" fill="#FF7A50"/>
</svg>
