<svg width="120" height="25" viewBox="0 0 120 25" fill="none" xmlns="http://www.w3.org/2000/svg">
<path d="M5.825 22.0137L7.45 14.9887L2 10.2637L9.2 9.63867L12 3.01367L14.8 9.63867L22 10.2637L16.55 14.9887L18.175 22.0137L12 18.2887L5.825 22.0137Z" fill="#F56522"/>
<path d="M29.825 22.0137L31.45 14.9887L26 10.2637L33.2 9.63867L36 3.01367L38.8 9.63867L46 10.2637L40.55 14.9887L42.175 22.0137L36 18.2887L29.825 22.0137Z" fill="#F56522"/>
<path d="M53.825 22.0137L55.45 14.9887L50 10.2637L57.2 9.63867L60 3.01367L62.8 9.63867L70 10.2637L64.55 14.9887L66.175 22.0137L60 18.2887L53.825 22.0137Z" fill="#F56522"/>
<path d="M77.825 22.0137L79.45 14.9887L74 10.2637L81.2 9.63867L84 3.01367L86.8 9.63867L94 10.2637L88.55 14.9887L90.175 22.0137L84 18.2887L77.825 22.0137Z" fill="#F56522"/>
<path d="M101.825 22.0137L103.45 14.9887L98 10.2637L105.2 9.63867L108 3.01367L110.8 9.63867L118 10.2637L112.55 14.9887L114.175 22.0137L108 18.2887L101.825 22.0137Z" fill="#F56522"/>
</svg>
