<svg width="98" height="25" viewBox="0 0 98 25" fill="none" xmlns="http://www.w3.org/2000/svg">
<g id="Trust Pilot Logo">
<mask id="mask0_1803_2336" style="mask-type:luminance" maskUnits="userSpaceOnUse" x="0" y="0" width="99" height="25">
<g id="a">
<path id="Vector" d="M0.274902 0.513672H98.0003V24.5137H0.274902V0.513672Z" fill="white"/>
</g>
</mask>
<g mask="url(#mask0_1803_2336)">
<g id="Group">
<path id="Vector_2" d="M25.9574 9.18408H35.8523V10.9976H31.9616V21.1926H29.8222V10.9976H25.9487V9.18408H25.9574ZM35.4297 12.4976H37.2586V14.1756H37.2931C37.3535 13.9383 37.4657 13.7095 37.6295 13.4891C37.7934 13.2688 37.9918 13.0569 38.2247 12.879C38.4577 12.6925 38.7165 12.5485 39.0012 12.4298C39.2859 12.3197 39.5792 12.2604 39.8725 12.2604C40.0968 12.2604 40.2607 12.2689 40.347 12.2773C40.4332 12.2858 40.5196 12.3027 40.6144 12.3112V14.1587C40.4763 14.1333 40.3384 14.1163 40.1917 14.0993C40.0514 14.0826 39.9103 14.0742 39.769 14.0739C39.4412 14.0739 39.1307 14.1417 38.8372 14.2689C38.5439 14.3959 38.2938 14.5909 38.0782 14.8366C37.8624 15.0908 37.6899 15.3959 37.5605 15.7688C37.4311 16.1416 37.3707 16.5654 37.3707 17.0485V21.184H35.421V12.4976H35.4297ZM49.5777 21.1926H47.6626V19.9807H47.6281C47.3865 20.4214 47.0329 20.7688 46.5584 21.0316C46.0838 21.2942 45.6008 21.4298 45.109 21.4298C43.9444 21.4298 43.0989 21.1502 42.5813 20.5824C42.0638 20.0146 41.8049 19.1587 41.8049 18.0145V12.4976H43.7547V17.8281C43.7547 18.5909 43.9012 19.1333 44.2032 19.4468C44.4965 19.7603 44.9193 19.9214 45.4541 19.9214C45.8682 19.9214 46.2046 19.862 46.4807 19.7349C46.7568 19.6078 46.9811 19.4468 47.145 19.2349C47.3175 19.0315 47.4383 18.7773 47.516 18.4891C47.5935 18.201 47.6281 17.8875 47.6281 17.5485V12.5061H49.5777V21.1926ZM52.8991 18.4043C52.9595 18.9637 53.1751 19.3535 53.5461 19.5824C53.9257 19.8027 54.3743 19.9214 54.9006 19.9214C55.0818 19.9214 55.2888 19.9044 55.5216 19.879C55.7462 19.8535 55.9666 19.7994 56.1774 19.718C56.3843 19.6417 56.5482 19.5231 56.6863 19.3705C56.8158 19.2179 56.8761 19.0231 56.8674 18.7773C56.8589 18.5315 56.764 18.3281 56.5914 18.1755C56.4189 18.0145 56.2031 17.8959 55.9357 17.7942C55.6371 17.6907 55.3315 17.6087 55.0213 17.5485C54.6762 17.4807 54.3312 17.4044 53.9775 17.3281C53.6151 17.2518 53.2614 17.1502 52.925 17.04C52.5885 16.9298 52.2866 16.7773 52.0192 16.5824C51.7518 16.396 51.536 16.1502 51.3808 15.8536C51.2168 15.557 51.1393 15.1925 51.1393 14.7519C51.1393 14.2773 51.26 13.8875 51.4929 13.5655C51.7259 13.2433 52.0278 12.9891 52.3815 12.7942C52.7438 12.5993 53.1407 12.4637 53.5806 12.379C54.0206 12.3027 54.4434 12.2604 54.8401 12.2604C55.2974 12.2604 55.7374 12.3112 56.1515 12.4045C56.5656 12.4976 56.9451 12.6502 57.2815 12.8705C57.618 13.0823 57.894 13.3621 58.1183 13.7011C58.3427 14.0401 58.4806 14.4553 58.5411 14.9383H56.5051C56.4102 14.4807 56.2032 14.1671 55.8667 14.0145C55.5303 13.8535 55.1421 13.7773 54.7108 13.7773C54.5727 13.7773 54.4088 13.7857 54.219 13.8111C54.0369 13.8355 53.8577 13.8781 53.6842 13.9383C53.5202 13.9977 53.3822 14.0909 53.2614 14.2095C53.1492 14.3281 53.0889 14.4807 53.0889 14.6756C53.0889 14.9129 53.1751 15.0993 53.3391 15.2434C53.503 15.3874 53.7186 15.5061 53.9861 15.6078C54.2847 15.7113 54.5903 15.7934 54.9006 15.8536C55.2456 15.9214 55.5993 15.9976 55.9616 16.0738C56.3153 16.1502 56.6604 16.2518 57.0055 16.362C57.3506 16.4722 57.6525 16.6248 57.9199 16.8196C58.1873 17.0146 58.4031 17.2518 58.567 17.54C58.7309 17.8281 58.8172 18.1925 58.8172 18.6163C58.8172 19.1333 58.6964 19.5654 58.4549 19.9298C58.2132 20.2858 57.9027 20.5824 57.5231 20.8026C57.1435 21.023 56.7122 21.1926 56.2464 21.2942C55.7902 21.3947 55.3245 21.4459 54.8574 21.4468C54.2967 21.4468 53.7791 21.3874 53.3046 21.2604C52.83 21.1332 52.416 20.9468 52.071 20.701C51.7259 20.4468 51.4498 20.1332 51.2514 19.7603C51.0529 19.3875 50.9494 18.9383 50.9322 18.4213H52.8991V18.4043ZM59.3348 12.4976H60.8099V9.88746H62.7597V12.4976H64.5196V13.9299H62.7597V18.5739C62.7597 18.7773 62.7682 18.9467 62.7856 19.0993C62.8028 19.2434 62.8459 19.3705 62.9063 19.4722C62.9667 19.5739 63.0615 19.6502 63.191 19.701C63.3204 19.7519 63.4843 19.7773 63.7086 19.7773C63.8466 19.7773 63.9847 19.7773 64.1227 19.7688C64.2607 19.7603 64.3988 19.7434 64.5368 19.7095V21.1926C64.3211 21.218 64.1055 21.235 63.907 21.2604C63.6999 21.2858 63.493 21.2942 63.2772 21.2942C62.7597 21.2942 62.3456 21.2434 62.035 21.1502C61.7244 21.057 61.4742 20.9128 61.3017 20.7264C61.1206 20.54 61.0084 20.3112 60.9394 20.0315C60.872 19.7165 60.8345 19.3959 60.8273 19.0739V13.9467H59.352V12.4976H59.3348ZM65.8998 12.4976H67.746V13.6755H67.7804C68.0565 13.1671 68.4362 12.8112 68.9278 12.5908C69.4195 12.3705 69.9458 12.2604 70.5238 12.2604C71.2226 12.2604 71.8265 12.379 72.3441 12.6247C72.8617 12.862 73.2931 13.1925 73.6381 13.6163C73.9832 14.0401 74.2333 14.5315 74.406 15.0908C74.5784 15.6502 74.6647 16.2518 74.6647 16.8874C74.6647 17.4722 74.5871 18.04 74.4319 18.5823C74.2765 19.1333 74.0436 19.6163 73.733 20.04C73.4225 20.4637 73.0256 20.7942 72.5425 21.0484C72.0594 21.3028 71.4986 21.4298 70.843 21.4298C70.5584 21.4298 70.2736 21.4044 69.9889 21.3536C69.7073 21.3027 69.4324 21.2202 69.1693 21.1078C68.9106 20.9976 68.6604 20.8536 68.4447 20.6756C68.2204 20.4976 68.0393 20.2942 67.884 20.0654H67.8494V24.4044H65.8998V12.4976ZM72.7151 16.8536C72.7151 16.4638 72.6633 16.0824 72.5598 15.7094C72.4562 15.3366 72.301 15.0146 72.0939 14.7265C71.8917 14.4439 71.6295 14.2095 71.3261 14.0401C71.0155 13.8705 70.6619 13.7773 70.265 13.7773C69.4454 13.7773 68.8244 14.0569 68.4103 14.6163C67.9962 15.1756 67.7891 15.9214 67.7891 16.8536C67.7891 17.2942 67.8409 17.701 67.953 18.0739C68.0652 18.4467 68.2204 18.7689 68.4447 19.04C68.6604 19.3112 68.9192 19.5231 69.2211 19.6756C69.5231 19.8366 69.8768 19.9129 70.2736 19.9129C70.7222 19.9129 71.0932 19.8197 71.4037 19.6417C71.7144 19.4637 71.9645 19.2265 72.1629 18.9467C72.3665 18.6517 72.5128 18.3212 72.5943 17.9722C72.6719 17.6078 72.7151 17.2349 72.7151 16.8536ZM76.1572 9.18408H78.1068V10.9976H76.1572V9.18408ZM76.1572 12.4976H78.1068V21.1926H76.1572V12.4976ZM79.8495 9.18408H81.7991V21.1926H79.8495V9.18408ZM87.7776 21.4298C87.0702 21.4298 86.4405 21.3112 85.8883 21.0824C85.3362 20.8536 84.8704 20.5315 84.4822 20.1332C84.1025 19.7264 83.8092 19.2434 83.6108 18.6841C83.4124 18.1247 83.3089 17.5061 83.3089 16.8366C83.3089 16.1756 83.4124 15.5654 83.6108 15.0061C83.8092 14.4468 84.1025 13.9637 84.4822 13.5569C84.8617 13.1501 85.3362 12.8366 85.8883 12.6078C86.4405 12.379 87.0702 12.2604 87.7776 12.2604C88.485 12.2604 89.1147 12.379 89.6669 12.6078C90.219 12.8366 90.6848 13.1587 91.073 13.5569C91.4527 13.9637 91.746 14.4468 91.9444 15.0061C92.1427 15.5654 92.2463 16.1756 92.2463 16.8366C92.2463 17.5061 92.1427 18.1247 91.9444 18.6841C91.746 19.2434 91.4527 19.7264 91.073 20.1332C90.6935 20.54 90.219 20.8536 89.6669 21.0824C89.1147 21.3112 88.485 21.4298 87.7776 21.4298ZM87.7776 19.9129C88.2089 19.9129 88.5885 19.8197 88.9077 19.6417C89.2269 19.4637 89.4857 19.2265 89.6928 18.9383C89.8998 18.6501 90.0464 18.3197 90.15 17.9553C90.2449 17.5908 90.2966 17.218 90.2966 16.8366C90.2966 16.4638 90.2449 16.0994 90.15 15.7264C90.0613 15.3727 89.9061 15.0391 89.6928 14.7434C89.4857 14.4553 89.2269 14.2265 88.9077 14.0485C88.5885 13.8705 88.2089 13.7773 87.7776 13.7773C87.3463 13.7773 86.9667 13.8705 86.6475 14.0485C86.3283 14.2265 86.0695 14.4637 85.8624 14.7434C85.6554 15.0315 85.5087 15.3536 85.4052 15.7264C85.3103 16.0994 85.2585 16.4638 85.2585 16.8366C85.2585 17.218 85.3103 17.5908 85.4052 17.9553C85.5001 18.3197 85.6554 18.6501 85.8624 18.9383C86.0695 19.2265 86.3283 19.4637 86.6475 19.6417C86.9667 19.8281 87.3463 19.9129 87.7776 19.9129ZM92.8157 12.4976H94.2909V9.88746H96.2406V12.4976H98.0004V13.9299H96.2406V18.5739C96.2406 18.7773 96.2492 18.9467 96.2664 19.0993C96.2837 19.2434 96.3269 19.3705 96.3872 19.4722C96.4477 19.5739 96.5425 19.6502 96.672 19.701C96.8013 19.7519 96.9652 19.7773 97.1895 19.7773C97.3276 19.7773 97.4656 19.7773 97.6036 19.7688C97.7417 19.7603 97.8797 19.7434 98.0177 19.7095V21.1926C97.802 21.218 97.5864 21.235 97.3879 21.2604C97.1808 21.2858 96.9738 21.2942 96.7582 21.2942C96.2406 21.2942 95.8265 21.2434 95.5159 21.1502C95.2053 21.057 94.9552 20.9128 94.7827 20.7264C94.6015 20.54 94.4894 20.3112 94.4204 20.0315C94.353 19.7165 94.3154 19.3959 94.3081 19.0739V13.9467H92.8329V12.4976H92.8157Z" fill="black"/>
<path id="Vector_3" d="M23.6796 9.18413H14.7422L11.9815 0.828125L9.21225 9.18413L0.274902 9.17558L7.51281 14.3451L4.74352 22.6926L11.9815 17.5316L19.2109 22.6926L16.4503 14.3451L23.6796 9.18401V9.18413Z" fill="#04DA8D"/>
<path id="Vector_4" d="M17.0713 16.235L16.4502 14.3452L11.9814 17.5317L17.0713 16.235Z" fill="#126849"/>
</g>
</g>
</g>
</svg>
