<svg width="140" height="42" viewBox="0 0 140 42" fill="none" xmlns="http://www.w3.org/2000/svg">
<g id="Vector">
<path d="M134.202 41.6004H4.9367C2.2587 41.6004 0.0957031 39.4374 0.0957031 36.7594V5.24139C0.0957031 2.56339 2.2587 0.400391 4.9367 0.400391H134.202C136.88 0.400391 139.146 2.56339 139.146 5.24139V36.6564C139.146 39.4374 136.88 41.6004 134.202 41.6004Z" fill="#A6A6A6"/>
<path d="M138.116 36.7598C138.116 38.9228 136.365 40.6738 134.202 40.6738H4.9366C2.7736 40.6738 1.0226 38.9228 1.0226 36.7598V5.24179C1.0226 3.07879 2.7736 1.32779 4.9366 1.32779H134.202C136.365 1.32779 138.116 3.07879 138.116 5.24179V36.7598Z" fill="black"/>
<path d="M23.3735 34.4935L17.1935 30.1675C16.4725 29.6525 16.7815 28.5195 17.6055 28.4165L19.5625 28.1075L13.0735 17.3955C12.6615 16.6745 13.1765 15.8505 14.0005 15.8505H20.2835C20.4895 15.8505 20.6955 15.6445 20.6955 15.3355L19.1505 8.53753C18.9445 7.71353 20.0775 7.19852 20.5925 7.91952L28.9355 19.5585C29.3475 20.1765 28.9355 21.1035 28.1115 21.1035H22.6525C22.3435 21.1035 22.1375 21.4125 22.2405 21.6185L23.5795 26.9745L25.2275 26.0475C25.8455 25.8415 26.5665 26.3565 26.3605 27.0775L24.8155 34.0815C24.5065 34.5965 23.8885 34.8025 23.3735 34.4935Z" fill="#5951FF"/>
<path d="M45.21 13.6874C44.695 13.6874 44.18 13.5844 43.768 13.2754C43.356 12.9664 43.047 12.6574 42.841 12.2454C42.635 11.8334 42.532 11.2154 42.532 10.5974C42.532 9.97938 42.635 9.36138 42.841 8.94938C43.047 8.53738 43.356 8.12538 43.768 7.91938C44.18 7.71338 44.592 7.50738 45.107 7.50738C45.416 7.50738 45.725 7.50738 46.034 7.61038C46.343 7.71338 46.549 7.81638 46.755 8.02238C46.961 8.22838 47.167 8.43438 47.27 8.64038C47.373 8.84638 47.476 9.15538 47.579 9.46438H46.652C46.549 9.25838 46.549 9.15538 46.446 8.94938C46.343 8.74338 46.24 8.74338 46.137 8.64038C46.034 8.53738 45.828 8.43438 45.725 8.43438C45.622 8.43438 45.416 8.33138 45.21 8.33138C44.901 8.33138 44.592 8.43438 44.283 8.53738C43.974 8.64038 43.768 8.94938 43.665 9.25838C43.562 9.56738 43.356 10.0824 43.356 10.5974C43.356 11.1124 43.459 11.5244 43.562 11.8334C43.665 12.1424 43.974 12.4514 44.18 12.5544C44.386 12.6574 44.798 12.8634 45.107 12.8634C45.416 12.8634 45.725 12.7604 45.931 12.6574C46.137 12.5544 46.343 12.3484 46.446 12.1424C46.549 11.9364 46.652 11.6274 46.652 11.3184H46.858H45.107V10.4944H47.476V11.2154C47.476 11.7304 47.373 12.1424 47.167 12.5544C46.961 12.9664 46.652 13.1724 46.24 13.3784C45.828 13.5844 45.622 13.6874 45.21 13.6874Z" fill="white"/>
<path d="M49.6389 13.584V7.60998H53.4499V8.43398H50.5659V10.185H53.2439V11.009H50.5659V12.76H53.4499V13.584H49.6389Z" fill="white"/>
<path d="M55.0982 8.33098V7.60998H59.8362V8.43398H57.9822V13.687H57.0552V8.33098H55.0982Z" fill="white"/>
<path d="M65.604 7.60998V13.584H64.677V7.60998H65.604Z" fill="white"/>
<path d="M67.4582 8.33098V7.60998H72.0932V8.43398H70.2392V13.687H69.3122V8.33098H67.4582Z" fill="white"/>
<path d="M79.4058 13.6874C78.8908 13.6874 78.3758 13.5844 78.0668 13.2754C77.7578 12.9664 77.3458 12.6574 77.1398 12.2454C76.9338 11.8334 76.8308 11.2154 76.8308 10.5974C76.8308 9.97938 76.9338 9.36138 77.1398 8.94938C77.3458 8.53738 77.6548 8.12538 78.0668 7.91938C78.4788 7.71338 78.8908 7.50738 79.4058 7.50738C79.9208 7.50738 80.4358 7.61038 80.7448 7.91938C81.0538 8.22838 81.4658 8.53738 81.6718 8.94938C81.8778 9.36138 81.9808 9.97938 81.9808 10.5974C81.9808 11.2154 81.8778 11.8334 81.6718 12.2454C81.4658 12.6574 81.1568 13.0694 80.7448 13.2754C80.3328 13.4814 79.9208 13.6874 79.4058 13.6874ZM79.4058 12.8634C79.7148 12.8634 80.0238 12.7604 80.3328 12.6574C80.6418 12.5544 80.8478 12.2454 80.9508 11.9364C81.0538 11.6274 81.1568 11.2154 81.1568 10.7004C81.1568 10.1854 81.0538 9.77338 80.9508 9.46438C80.8478 9.15538 80.6418 8.74338 80.3328 8.64038C80.0238 8.53738 79.8178 8.33138 79.4058 8.33138C79.0968 8.33138 78.7878 8.43438 78.4788 8.53738C78.1698 8.64038 77.9638 8.94938 77.8608 9.25838C77.7578 9.56738 77.6548 9.97938 77.6548 10.4944C77.6548 11.0094 77.7578 11.4214 77.8608 11.7304C77.9638 12.0394 78.2728 12.3484 78.4788 12.4514C78.6848 12.5544 79.0968 12.8634 79.4058 12.8634Z" fill="white"/>
<path d="M84.0408 7.60998H85.0708L87.3368 11.215C87.4398 11.318 87.5428 11.524 87.5428 11.627C87.5428 11.73 87.7488 11.936 87.8518 12.142C87.9548 12.348 88.0578 12.554 88.1608 12.863H88.0578C88.0578 12.657 88.0578 12.451 87.9548 12.142C87.8518 11.833 87.9548 11.73 87.9548 11.524C87.9548 11.318 87.9548 11.112 87.9548 11.009V7.60998H88.8818V13.584H87.8518L85.7918 10.391C85.6888 10.185 85.5858 10.082 85.4828 9.87598C85.3798 9.66998 85.2768 9.46398 85.1738 9.25798C85.0708 9.05198 84.8648 8.74298 84.7618 8.43398H84.8648C84.8648 8.74298 84.8648 9.05198 84.8648 9.25798C84.8648 9.46398 84.8648 9.77298 84.8648 9.97898C84.8648 10.185 84.8648 10.288 84.8648 10.494V13.687H84.0408V7.60998Z" fill="white"/>
<path d="M43.0468 30.2709L47.7848 24.3999V24.2969H43.2528V22.2369H50.8748V23.9879L46.4458 29.7559V29.8589H51.0808V31.9189H43.0468V30.2709Z" fill="white"/>
<path d="M55.8186 32.0217C55.2006 32.0217 54.6856 31.9187 54.1706 31.7127C53.6556 31.5067 53.3466 31.1977 53.0376 30.7857C52.7286 30.2707 52.6256 29.7557 52.6256 29.1377C52.6256 28.6227 52.7286 28.2107 52.9346 27.7987C53.1406 27.4897 53.4496 27.1807 53.7586 26.9747C54.0676 26.7687 54.4796 26.5627 54.8916 26.4597C55.3036 26.3567 55.8186 26.2537 56.2306 26.2537C56.7456 26.1507 57.2606 26.1507 57.5696 26.0477C57.8786 26.0477 58.1876 25.9447 58.2906 25.8417C58.4966 25.7387 58.4966 25.5327 58.4966 25.3267C58.4966 25.0177 58.3936 24.8117 58.2906 24.6057C58.1876 24.3997 57.9816 24.2967 57.7756 24.1937C57.5696 24.0907 57.2606 24.0907 56.9516 24.0907C56.6426 24.0907 56.3336 24.0907 56.1276 24.1937C55.9216 24.2967 55.7156 24.3997 55.5096 24.6057C55.4066 24.8117 55.2006 24.9147 55.2006 25.1207L52.8316 24.7087C53.0376 24.1937 53.2436 23.6787 53.6556 23.2667C54.0676 22.8547 54.4796 22.5457 55.0976 22.3397C55.7156 22.1337 56.3336 22.0307 57.0546 22.0307C57.5696 22.0307 58.0846 22.1337 58.5996 22.2367C59.1146 22.3397 59.5266 22.5457 59.9386 22.8547C60.3506 23.0607 60.6596 23.4727 60.8656 23.8847C61.0716 24.2967 61.1746 24.8117 61.1746 25.3267V31.7127H58.7026V30.3737H58.5996C58.4966 30.6827 58.2906 30.8887 57.9816 31.1977C57.7756 31.4037 57.4666 31.6097 57.0546 31.7127C56.6426 31.9187 56.2306 32.0217 55.8186 32.0217ZM56.5396 30.1677C56.9516 30.1677 57.2606 30.0647 57.5696 29.9617C57.8786 29.7557 58.0846 29.5497 58.2906 29.3437C58.4966 29.1377 58.4966 28.7257 58.4966 28.4167V27.3867C58.3936 27.4897 58.2906 27.4897 58.1876 27.4897C58.0846 27.4897 57.8786 27.5927 57.6726 27.5927C57.4666 27.5927 57.2606 27.6957 57.1576 27.6957C56.9516 27.6957 56.8486 27.6957 56.6426 27.7987C56.3336 27.7987 56.0246 27.9017 55.8186 28.0047C55.6126 28.1077 55.4066 28.2107 55.3036 28.4167C55.2006 28.6227 55.0976 28.8287 55.0976 29.0347C55.0976 29.2407 55.2006 29.4467 55.3036 29.6527C55.4066 29.8587 55.6126 29.9617 55.8186 30.0647C56.0246 30.1677 56.2306 30.1677 56.5396 30.1677Z" fill="white"/>
<path d="M63.2349 35.3177V22.2367H65.7069V23.8847H65.8099C65.9129 23.6787 66.1189 23.3697 66.3249 23.0607C66.5309 22.7517 66.8399 22.5457 67.1489 22.3397C67.4579 22.1337 67.9729 22.0307 68.4879 22.0307C69.2089 22.0307 69.8269 22.2367 70.4449 22.5457C71.0629 22.9577 71.4749 23.4727 71.8869 24.1937C72.1959 24.9147 72.4019 25.8417 72.4019 26.8717C72.4019 27.9017 72.1959 28.8287 71.8869 29.5497C71.5779 30.2707 71.0629 30.8887 70.4449 31.1977C69.8269 31.6097 69.2089 31.8157 68.4879 31.8157C67.9729 31.8157 67.5609 31.7127 67.1489 31.5067C66.8399 31.3007 66.5309 31.0947 66.2219 30.8887C66.0159 30.5797 65.8099 30.3737 65.7069 30.0647H65.6039V35.2147H63.2349V35.3177ZM67.8699 29.8587C68.2819 29.8587 68.6939 29.7557 69.0029 29.4467C69.3119 29.2407 69.5179 28.8287 69.7239 28.4167C69.9299 28.0047 69.9299 27.4897 69.9299 26.9747C69.9299 26.4597 69.8269 25.9447 69.7239 25.5327C69.6209 25.1207 69.3119 24.8117 69.0029 24.5027C68.6939 24.2967 68.2819 24.0907 67.8699 24.0907C67.4579 24.0907 67.0459 24.1937 66.7369 24.3997C66.4279 24.6057 66.2219 25.0177 66.0159 25.4297C65.8099 25.8417 65.8099 26.3567 65.8099 26.9747C65.8099 27.5927 65.9129 28.0047 66.0159 28.5197C66.2219 28.9317 66.4279 29.2407 66.7369 29.5497C67.0459 29.8587 67.4579 29.8587 67.8699 29.8587Z" fill="white"/>
<path d="M76.11 31.9185C75.698 31.9185 75.389 31.8155 75.08 31.5065C74.771 31.1975 74.668 30.8885 74.668 30.4765C74.668 30.0645 74.771 29.7555 75.08 29.4465C75.389 29.1375 75.698 29.0345 76.11 29.0345C76.522 29.0345 76.831 29.1375 77.14 29.4465C77.449 29.7555 77.552 30.0645 77.552 30.4765C77.552 30.8885 77.449 31.1975 77.14 31.5065C76.934 31.8155 76.522 31.9185 76.11 31.9185Z" fill="white"/>
<path d="M83.9379 32.0219C83.2169 32.0219 82.4959 31.9189 81.8779 31.7129C81.2599 31.5069 80.8479 31.1979 80.4359 30.7859C80.0239 30.3739 79.8179 29.8589 79.7149 29.2409L82.0839 28.8289C82.1869 29.2409 82.3929 29.6529 82.7019 29.8589C83.0109 30.0649 83.4229 30.1679 83.9379 30.1679C84.4529 30.1679 84.8649 30.0649 85.0709 29.8589C85.3799 29.6529 85.4829 29.4469 85.4829 29.1379C85.4829 28.9319 85.3799 28.7259 85.1739 28.5199C84.9679 28.3139 84.6589 28.2109 84.2469 28.1079L82.5989 27.7989C81.6719 27.5929 80.9509 27.2839 80.5389 26.8719C80.1269 26.4599 79.8179 25.8419 79.8179 25.1209C79.8179 24.5029 80.0239 23.9879 80.3329 23.5759C80.6419 23.1639 81.1569 22.7519 81.7749 22.5459C82.3929 22.3399 83.1139 22.2369 83.8349 22.2369C84.5559 22.2369 85.2769 22.3399 85.7919 22.5459C86.3069 22.7519 86.8219 23.0609 87.1309 23.4729C87.4399 23.8849 87.7489 24.2969 87.8519 24.8119L85.5859 25.2239C85.4829 24.9149 85.2769 24.6059 85.0709 24.3999C84.8649 24.1939 84.4529 24.0909 83.9379 24.0909C83.5259 24.0909 83.1139 24.1939 82.9079 24.3999C82.5989 24.6059 82.4959 24.8119 82.4959 25.1209C82.4959 25.3269 82.5989 25.5329 82.8049 25.7389C83.0109 25.9449 83.3199 26.0479 83.7319 26.1509L85.4829 26.4599C86.4099 26.6659 87.1309 26.9749 87.5429 27.3869C87.9549 27.7989 88.2639 28.4169 88.2639 29.0349C88.2639 29.6529 88.0579 30.1679 87.7489 30.6829C87.3369 31.1979 86.9249 31.5069 86.2039 31.8159C85.5859 31.8159 84.7619 32.0219 83.9379 32.0219Z" fill="white"/>
<path d="M94.753 22.2367V24.1937H89.088V22.2367H94.753ZM90.324 19.9707H92.899V29.0347C92.899 29.3437 93.002 29.5497 93.105 29.7557C93.208 29.8587 93.414 29.9617 93.826 29.9617C93.929 29.9617 94.032 29.9617 94.238 29.9617C94.444 29.9617 94.547 29.9617 94.65 29.8587L95.062 31.8157C94.753 31.9187 94.444 31.9187 94.238 32.0217C93.929 32.0217 93.723 32.0217 93.414 32.0217C92.487 32.0217 91.766 31.8157 91.251 31.3007C90.736 30.7857 90.53 30.1677 90.53 29.2407V19.9707H90.324Z" fill="white"/>
<path d="M100.624 32.0213C99.6966 32.0213 98.8726 31.8153 98.1516 31.4033C97.4306 30.9913 96.9156 30.3733 96.5036 29.6523C96.0916 28.9313 95.8856 28.0043 95.8856 27.0773C95.8856 26.0473 96.0916 25.2233 96.5036 24.5023C96.9156 23.7813 97.4306 23.1633 98.1516 22.7513C98.8726 22.3393 99.6966 22.1333 100.624 22.1333C101.551 22.1333 102.375 22.3393 103.096 22.7513C103.817 23.1633 104.332 23.7813 104.744 24.5023C105.156 25.2233 105.362 26.1503 105.362 27.0773C105.362 28.1073 105.156 28.9313 104.744 29.6523C104.332 30.3733 103.817 30.9913 103.096 31.4033C102.375 31.8153 101.654 32.0213 100.624 32.0213ZM100.624 29.9613C101.036 29.9613 101.448 29.8583 101.757 29.5493C102.066 29.2403 102.272 28.9313 102.478 28.5193C102.581 28.1073 102.684 27.5923 102.684 27.0773C102.684 26.5623 102.581 26.0473 102.478 25.5323C102.272 25.1203 102.066 24.7083 101.757 24.5023C101.448 24.2963 101.036 24.0903 100.624 24.0903C100.212 24.0903 99.7996 24.1933 99.4906 24.5023C99.1816 24.7083 98.9756 25.1203 98.7696 25.5323C98.6666 25.9443 98.5636 26.4593 98.5636 27.0773C98.5636 27.5923 98.6666 28.1073 98.7696 28.5193C98.8726 28.9313 99.1816 29.3433 99.4906 29.5493C99.7996 29.7553 100.212 29.9613 100.624 29.9613Z" fill="white"/>
<path d="M107.113 31.8153V22.2363H109.585V23.8843H109.688C109.894 23.2663 110.203 22.8543 110.615 22.5453C111.027 22.2363 111.542 22.1333 112.057 22.1333C112.16 22.1333 112.366 22.1333 112.469 22.1333C112.572 22.1333 112.778 22.1333 112.881 22.2363V24.5023C112.778 24.5023 112.572 24.3993 112.366 24.3993C112.16 24.3993 111.954 24.3993 111.748 24.3993C111.336 24.3993 111.027 24.5023 110.718 24.6053C110.409 24.7083 110.203 25.0173 109.997 25.3263C109.791 25.6353 109.688 25.9443 109.688 26.3563V31.8153H107.113Z" fill="white"/>
<path d="M118.546 32.0213C117.619 32.0213 116.692 31.8153 116.074 31.4033C115.353 30.9913 114.838 30.4763 114.426 29.6523C114.014 28.8283 113.808 28.0043 113.808 27.0773C113.808 26.0473 114.014 25.2233 114.323 24.5023C114.735 23.7813 115.25 23.1633 115.971 22.7513C116.692 22.3393 117.516 22.1333 118.443 22.1333C119.061 22.1333 119.679 22.2363 120.194 22.4423C120.709 22.6483 121.224 22.9573 121.636 23.3693C122.048 23.7813 122.357 24.2963 122.563 24.9143C122.769 25.5323 122.872 26.2533 122.872 27.0773V27.7983H114.838V26.1503H121.636L120.4 26.5623C120.4 26.0473 120.297 25.6353 120.194 25.2233C120.091 24.8113 119.782 24.6053 119.473 24.3993C119.164 24.1933 118.855 24.0903 118.34 24.0903C117.928 24.0903 117.516 24.1933 117.207 24.3993C116.898 24.6053 116.692 24.9143 116.486 25.2233C116.28 25.5323 116.28 25.9443 116.28 26.4593V27.5923C116.28 28.1073 116.383 28.6223 116.589 29.0343C116.795 29.4463 117.001 29.6523 117.413 29.8583C117.722 30.0643 118.134 30.1673 118.546 30.1673C118.855 30.1673 119.164 30.1673 119.37 30.0643C119.576 29.9613 119.782 29.8583 119.988 29.6523C120.194 29.4463 120.297 29.2403 120.4 29.0343L122.769 29.4463C122.666 29.9613 122.357 30.4763 121.945 30.7853C121.533 31.1973 121.121 31.5063 120.503 31.7123C119.988 31.9183 119.37 32.0213 118.546 32.0213Z" fill="white"/>
</g>
</svg>
