<svg xmlns="http://www.w3.org/2000/svg" viewBox="0 0 1200 720" font-family="'Baloo 2','Trebuchet MS',sans-serif">
  <defs>
    <linearGradient id="peach" x1="0" y1="0" x2="1" y2="1">
      <stop offset="0" stop-color="#ffa24c"/>
      <stop offset="1" stop-color="#f56522"/>
    </linearGradient>
    <filter id="card" x="-10%" y="-10%" width="120%" height="130%">
      <feDropShadow dx="0" dy="4" stdDeviation="10" flood-color="#2b1911" flood-opacity="0.07"/>
    </filter>
  </defs>

  <rect width="1200" height="720" fill="#fff9f6"/>

  <!-- top bar -->
  <rect width="1200" height="68" fill="#ffffff"/>
  <rect y="67" width="1200" height="1" fill="#f3e4dc"/>
  <rect x="32" y="16" width="36" height="36" rx="11" fill="url(#peach)"/>
  <text x="50" y="42" text-anchor="middle" font-size="22" font-weight="700" fill="#ffffff">P</text>
  <text x="82" y="41" font-size="21" font-weight="700" fill="#2b1911">peach</text>
  <rect x="950" y="20" width="100" height="30" rx="15" fill="#fff0e6"/>
  <text x="1000" y="40" text-anchor="middle" font-size="14" font-weight="600" fill="#c45104">₿ 87 412 €</text>
  <circle cx="1090" cy="35" r="15" fill="#fff0e6"/>
  <circle cx="1090" cy="35" r="5" fill="#f56522"/>
  <circle cx="1138" cy="35" r="16" fill="#feede5"/>
  <text x="1138" y="41" text-anchor="middle" font-size="15" font-weight="700" fill="#c45104">N</text>

  <!-- toolbar -->
  <text x="36" y="121" font-size="26" font-weight="700" fill="#2b1911">Order book</text>
  <rect x="36" y="142" width="58" height="5" rx="2.5" fill="url(#peach)"/>
  <rect x="720" y="98" width="120" height="38" rx="19" fill="#ffffff" stroke="#f6c5a7"/>
  <text x="780" y="122" text-anchor="middle" font-size="15" font-weight="600" fill="#5a3e36">EUR ▾</text>
  <rect x="852" y="98" width="190" height="38" rx="19" fill="#ffffff" stroke="#f6c5a7"/>
  <text x="947" y="122" text-anchor="middle" font-size="15" font-weight="600" fill="#5a3e36">All payment methods ▾</text>
  <rect x="1054" y="98" width="110" height="38" rx="19" fill="#feede5"/>
  <rect x="1058" y="102" width="52" height="30" rx="15" fill="#ffffff" filter="url(#card)"/>
  <text x="1084" y="122" text-anchor="middle" font-size="14" font-weight="700" fill="#f56522">Buy</text>
  <text x="1136" y="122" text-anchor="middle" font-size="14" font-weight="600" fill="#9f8c82">Sell</text>

  <!-- offer cards: row 1 -->
  <g filter="url(#card)">
    <rect x="36" y="170" width="364" height="156" rx="16" fill="#ffffff"/>
    <rect x="416" y="170" width="364" height="156" rx="16" fill="#ffffff"/>
    <rect x="796" y="170" width="364" height="156" rx="16" fill="#ffffff"/>
  </g>
  <g>
    <rect x="60" y="192" width="64" height="26" rx="13" fill="#e8f6ee"/>
    <text x="92" y="210" text-anchor="middle" font-size="13" font-weight="700" fill="#2f9e68">BUY</text>
    <text x="376" y="211" text-anchor="end" font-size="15" font-weight="700" fill="#2f9e68">+2%</text>
    <text x="60" y="256" font-size="24" font-weight="700" fill="#2b1911">0.05 BTC</text>
    <text x="60" y="280" font-size="14" fill="#9f8c82">≈ 4 370 €</text>
    <rect x="60" y="294" width="56" height="22" rx="11" fill="#fff0e6"/>
    <text x="88" y="309" text-anchor="middle" font-size="12" font-weight="600" fill="#c45104">SEPA</text>
    <rect x="122" y="294" width="70" height="22" rx="11" fill="#fff0e6"/>
    <text x="157" y="309" text-anchor="middle" font-size="12" font-weight="600" fill="#c45104">Revolut</text>
  </g>
  <g>
    <rect x="440" y="192" width="64" height="26" rx="13" fill="#fdeae8"/>
    <text x="472" y="210" text-anchor="middle" font-size="13" font-weight="700" fill="#df321f">SELL</text>
    <text x="756" y="211" text-anchor="end" font-size="15" font-weight="700" fill="#df321f">+1%</text>
    <text x="440" y="256" font-size="24" font-weight="700" fill="#2b1911">0.1 BTC</text>
    <text x="440" y="280" font-size="14" fill="#9f8c82">≈ 8 741 €</text>
    <rect x="440" y="294" width="56" height="22" rx="11" fill="#fff0e6"/>
    <text x="468" y="309" text-anchor="middle" font-size="12" font-weight="600" fill="#c45104">Wise</text>
    <rect x="502" y="294" width="64" height="22" rx="11" fill="#fff0e6"/>
    <text x="534" y="309" text-anchor="middle" font-size="12" font-weight="600" fill="#c45104">Bizum</text>
  </g>
  <g>
    <rect x="820" y="192" width="64" height="26" rx="13" fill="#e8f6ee"/>
    <text x="852" y="210" text-anchor="middle" font-size="13" font-weight="700" fill="#2f9e68">BUY</text>
    <text x="1136" y="211" text-anchor="end" font-size="15" font-weight="700" fill="#2f9e68">0%</text>
    <text x="820" y="256" font-size="24" font-weight="700" fill="#2b1911">0.02 BTC</text>
    <text x="820" y="280" font-size="14" fill="#9f8c82">≈ 1 748 €</text>
    <rect x="820" y="294" width="56" height="22" rx="11" fill="#fff0e6"/>
    <text x="848" y="309" text-anchor="middle" font-size="12" font-weight="600" fill="#c45104">SEPA</text>
    <rect x="882" y="294" width="56" height="22" rx="11" fill="#fff0e6"/>
    <text x="910" y="309" text-anchor="middle" font-size="12" font-weight="600" fill="#c45104">Cash</text>
  </g>

  <!-- offer cards: row 2 -->
  <g filter="url(#card)">
    <rect x="36" y="346" width="364" height="156" rx="16" fill="#ffffff"/>
    <rect x="416" y="346" width="364" height="156" rx="16" fill="#ffffff"/>
    <rect x="796" y="346" width="364" height="156" rx="16" fill="#ffffff"/>
  </g>
  <g>
    <rect x="60" y="368" width="64" height="26" rx="13" fill="#fdeae8"/>
    <text x="92" y="386" text-anchor="middle" font-size="13" font-weight="700" fill="#df321f">SELL</text>
    <text x="376" y="387" text-anchor="end" font-size="15" font-weight="700" fill="#df321f">+3%</text>
    <text x="60" y="432" font-size="24" font-weight="700" fill="#2b1911">0.25 BTC</text>
    <text x="60" y="456" font-size="14" fill="#9f8c82">≈ 21 853 €</text>
    <rect x="60" y="470" width="56" height="22" rx="11" fill="#fff0e6"/>
    <text x="88" y="485" text-anchor="middle" font-size="12" font-weight="600" fill="#c45104">SEPA</text>
  </g>
  <g>
    <rect x="440" y="368" width="64" height="26" rx="13" fill="#e8f6ee"/>
    <text x="472" y="386" text-anchor="middle" font-size="13" font-weight="700" fill="#2f9e68">BUY</text>
    <text x="756" y="387" text-anchor="end" font-size="15" font-weight="700" fill="#2f9e68">+1%</text>
    <text x="440" y="432" font-size="24" font-weight="700" fill="#2b1911">0.5 BTC</text>
    <text x="440" y="456" font-size="14" fill="#9f8c82">≈ 43 706 €</text>
    <rect x="440" y="470" width="70" height="22" rx="11" fill="#fff0e6"/>
    <text x="475" y="485" text-anchor="middle" font-size="12" font-weight="600" fill="#c45104">Twint</text>
    <rect x="516" y="470" width="56" height="22" rx="11" fill="#fff0e6"/>
    <text x="544" y="485" text-anchor="middle" font-size="12" font-weight="600" fill="#c45104">SEPA</text>
  </g>
  <g>
    <rect x="820" y="368" width="64" height="26" rx="13" fill="#fdeae8"/>
    <text x="852" y="386" text-anchor="middle" font-size="13" font-weight="700" fill="#df321f">SELL</text>
    <text x="1136" y="387" text-anchor="end" font-size="15" font-weight="700" fill="#df321f">+2%</text>
    <text x="820" y="432" font-size="24" font-weight="700" fill="#2b1911">0.08 BTC</text>
    <text x="820" y="456" font-size="14" fill="#9f8c82">≈ 6 993 €</text>
    <rect x="820" y="470" width="82" height="22" rx="11" fill="#fff0e6"/>
    <text x="861" y="485" text-anchor="middle" font-size="12" font-weight="600" fill="#c45104">PayLah</text>
  </g>

  <!-- row 3 (fades out at the bottom edge) -->
  <g filter="url(#card)">
    <rect x="36" y="522" width="364" height="156" rx="16" fill="#ffffff"/>
    <rect x="416" y="522" width="364" height="156" rx="16" fill="#ffffff"/>
    <rect x="796" y="522" width="364" height="156" rx="16" fill="#ffffff"/>
  </g>
  <g>
    <rect x="60" y="544" width="64" height="26" rx="13" fill="#e8f6ee"/>
    <text x="92" y="562" text-anchor="middle" font-size="13" font-weight="700" fill="#2f9e68">BUY</text>
    <text x="60" y="608" font-size="24" font-weight="700" fill="#2b1911">0.01 BTC</text>
    <rect x="440" y="544" width="64" height="26" rx="13" fill="#fdeae8"/>
    <text x="472" y="562" text-anchor="middle" font-size="13" font-weight="700" fill="#df321f">SELL</text>
    <text x="440" y="608" font-size="24" font-weight="700" fill="#2b1911">1.0 BTC</text>
    <rect x="820" y="544" width="64" height="26" rx="13" fill="#e8f6ee"/>
    <text x="852" y="562" text-anchor="middle" font-size="13" font-weight="700" fill="#2f9e68">BUY</text>
    <text x="820" y="608" font-size="24" font-weight="700" fill="#2b1911">0.15 BTC</text>
  </g>
</svg>
